<svg width="180" height="180" viewBox="0 0 180 180" fill="none" xmlns="http://www.w3.org/2000/svg">
<g clip-path="url(#clip0_14_1888)">
<g clip-path="url(#clip1_14_1888)" filter="url(#filter0_dddd_14_1888)">
<path fill-rule="evenodd" clip-rule="evenodd" d="M60.1205 13.7844C46.3897 14.0194 45.0049 19.2163 44.9907 25.86C44.9703 34.9773 43.8737 147.127 44.5076 154.04C45.1184 160.703 49.2258 162.695 59.4175 163.368C65.555 163.774 115.771 163.424 125.799 162.824C134.684 162.291 134.665 155.237 134.807 151.183C134.947 147.18 135.06 142.11 134.718 105.257C134.385 69.3761 134.949 32.1394 134.755 28.2289C134.554 24.1703 134.533 13.6505 119.959 13.3199C116.218 13.2348 64.852 13.7029 60.1214 13.7835L60.1205 13.7844Z" fill="white"/>
<path fill-rule="evenodd" clip-rule="evenodd" d="M54.992 20.6143C52.6489 20.7163 52.3909 21.7145 52.3607 22.9841C52.3191 24.7261 52.2446 27.4283 52.3244 28.7466C52.4006 30.017 53.093 30.3805 54.8298 30.4674C55.875 30.5197 59.2669 30.6146 60.9806 30.4585C62.4984 30.3202 62.587 29.0294 62.6278 28.2546C62.7076 26.7439 62.6606 24.9238 62.6269 23.4105C62.6092 22.6357 62.6491 20.6259 60.1641 20.6232C59.5267 20.6232 55.7997 20.5789 54.992 20.6143Z" fill="#6C50FD"/>
<path fill-rule="evenodd" clip-rule="evenodd" d="M54.992 20.6143C52.6489 20.7163 52.3909 21.7145 52.3607 22.9841C52.3191 24.7261 52.2446 27.4283 52.3244 28.7466C52.4006 30.017 53.093 30.3805 54.8298 30.4674C55.875 30.5197 59.2669 30.6146 60.9806 30.4585C62.4984 30.3202 62.587 29.0294 62.6278 28.2546C62.7076 26.7439 62.6606 24.9238 62.6269 23.4105C62.6092 22.6357 62.6491 20.6259 60.1641 20.6232C59.5267 20.6232 55.7997 20.5789 54.992 20.6143Z" fill="url(#paint0_linear_14_1888)"/>
<path fill-rule="evenodd" clip-rule="evenodd" d="M56.2767 25.5701C56.6987 25.0923 58.0693 23.7704 58.3663 23.508C58.4869 23.4016 58.4984 23.2172 58.392 23.0976C58.2856 22.977 58.1012 22.9655 57.9815 23.0718C57.6934 23.3263 56.4186 24.5568 55.915 25.1038C55.7953 25.2332 55.7155 25.3334 55.6863 25.3822C55.6473 25.4478 55.6384 25.501 55.6357 25.5329C55.6313 25.5879 55.6411 25.6606 55.6845 25.7439C55.72 25.8122 55.7944 25.9079 55.9052 26.0196C56.3902 26.5072 57.681 27.454 58.2369 27.853C58.3672 27.947 58.5498 27.9168 58.6429 27.7865C58.736 27.6562 58.7067 27.4744 58.5764 27.3805C58.0179 26.9797 56.6774 26.009 56.2776 25.5701H56.2767Z" fill="white"/>
<path fill-rule="evenodd" clip-rule="evenodd" d="M119.664 19.9238C117.321 20.0258 117.063 21.024 117.033 22.2936C116.991 24.0356 116.916 26.7378 116.996 28.0561C117.073 29.3265 117.765 29.69 119.502 29.7769C120.547 29.8292 123.94 29.924 125.653 29.768C127.17 29.6297 127.259 28.3389 127.3 27.5632C127.379 26.0525 127.333 24.2324 127.298 22.7191C127.28 21.9443 127.32 19.9345 124.836 19.9318C124.199 19.9318 120.472 19.8875 119.664 19.9229V19.9238Z" fill="#6C50FD"/>
<path fill-rule="evenodd" clip-rule="evenodd" d="M119.664 19.9238C117.321 20.0258 117.063 21.024 117.033 22.2936C116.991 24.0356 116.916 26.7378 116.996 28.0561C117.073 29.3265 117.765 29.69 119.502 29.7769C120.547 29.8292 123.94 29.924 125.653 29.768C127.17 29.6297 127.259 28.3389 127.3 27.5632C127.379 26.0525 127.333 24.2324 127.298 22.7191C127.28 21.9443 127.32 19.9345 124.836 19.9318C124.199 19.9318 120.472 19.8875 119.664 19.9229V19.9238Z" fill="url(#paint1_linear_14_1888)"/>
<path fill-rule="evenodd" clip-rule="evenodd" d="M120.653 23.6372C121.449 23.6372 122.925 23.5885 123.721 23.5698C123.881 23.5663 124.009 23.4324 124.005 23.272C124.002 23.1115 123.868 22.9838 123.707 22.9874C122.916 23.0051 121.447 23.0556 120.654 23.0548C120.494 23.0548 120.363 23.1851 120.362 23.3455C120.362 23.506 120.493 23.6363 120.653 23.6372Z" fill="white"/>
<path fill-rule="evenodd" clip-rule="evenodd" d="M120.665 25.2077C121.46 25.2077 122.936 25.1589 123.731 25.1403C123.892 25.1367 124.019 25.0029 124.016 24.8424C124.012 24.6819 123.878 24.5543 123.718 24.5587C122.926 24.5764 121.457 24.6261 120.665 24.6261C120.504 24.6261 120.373 24.7564 120.373 24.9169C120.373 25.0773 120.503 25.2085 120.664 25.2085L120.665 25.2077Z" fill="white"/>
<path fill-rule="evenodd" clip-rule="evenodd" d="M120.677 26.7783C121.473 26.7792 122.949 26.7296 123.744 26.711C123.904 26.7074 124.032 26.5735 124.029 26.4131C124.025 26.2526 123.891 26.1249 123.731 26.1285C122.939 26.1471 121.47 26.1968 120.677 26.1959C120.517 26.1959 120.387 26.3262 120.386 26.4867C120.386 26.6471 120.516 26.7783 120.677 26.7783Z" fill="white"/>
<path fill-rule="evenodd" clip-rule="evenodd" d="M75.9411 22.8528C77.6273 22.7827 96.3467 22.5212 102.93 22.718C103.091 22.7233 103.225 22.5966 103.23 22.4361C103.234 22.2756 103.108 22.1418 102.948 22.1365C96.3538 21.9396 77.6052 22.2012 75.9172 22.2712C75.7567 22.2783 75.6317 22.4139 75.6379 22.5744C75.645 22.7349 75.7806 22.8599 75.9411 22.8528Z" fill="#111119"/>
<path fill-rule="evenodd" clip-rule="evenodd" d="M82.7302 27.6152C83.5131 27.5824 90.7313 27.4485 95.9389 27.3989C96.0993 27.3971 96.2288 27.2659 96.227 27.1046C96.2252 26.9441 96.094 26.8147 95.9336 26.8164C90.718 26.8661 83.49 27.0008 82.7054 27.0336C82.545 27.0407 82.42 27.1764 82.427 27.3359C82.4341 27.4964 82.5698 27.6214 82.7302 27.6152Z" fill="#111119"/>
<path fill-rule="evenodd" clip-rule="evenodd" d="M57.2409 96.0334C58.9271 95.9634 77.6465 95.7019 84.23 95.8987C84.3905 95.904 84.5252 95.7772 84.5297 95.6168C84.5341 95.4563 84.4082 95.3224 84.2477 95.3171C77.6536 95.1203 58.905 95.3818 57.217 95.4519C57.0565 95.459 56.9315 95.5946 56.9377 95.7551C56.9448 95.9155 57.0805 96.0405 57.2409 96.0334Z" fill="#111119"/>
<path fill-rule="evenodd" clip-rule="evenodd" d="M57.241 100.796C58.0238 100.763 65.2421 100.629 70.4496 100.58C70.6101 100.578 70.7395 100.447 70.7377 100.285C70.736 100.125 70.6048 99.9953 70.4443 99.9971C65.2288 100.047 58.0008 100.181 57.2162 100.214C57.0557 100.221 56.9307 100.357 56.9378 100.517C56.9449 100.677 57.0805 100.802 57.241 100.796Z" fill="#111119"/>
<path fill-rule="evenodd" clip-rule="evenodd" d="M95.1296 96.0334C96.8158 95.9634 115.535 95.7019 122.119 95.8987C122.279 95.904 122.414 95.7772 122.418 95.6168C122.423 95.4563 122.297 95.3224 122.136 95.3171C115.542 95.1203 96.7936 95.3818 95.1057 95.4519C94.9452 95.459 94.8202 95.5946 94.8264 95.7551C94.8335 95.9155 94.9691 96.0405 95.1296 96.0334Z" fill="#111119"/>
<path fill-rule="evenodd" clip-rule="evenodd" d="M95.1297 100.796C95.9125 100.763 103.131 100.629 108.338 100.58C108.499 100.578 108.628 100.447 108.626 100.285C108.625 100.125 108.493 99.9953 108.333 99.9971C103.117 100.047 95.8894 100.181 95.1048 100.214C94.9444 100.221 94.8194 100.357 94.8265 100.517C94.8336 100.677 94.9692 100.802 95.1297 100.796Z" fill="#111119"/>
<path fill-rule="evenodd" clip-rule="evenodd" d="M45.1048 34.6917C45.0835 34.6891 45.0622 34.6882 45.0401 34.6908C44.8805 34.7059 44.7626 34.8486 44.7777 35.0082C44.7786 35.0197 44.8158 35.2627 45.0818 35.2733C45.2378 35.2795 46.0853 35.2848 47.5011 35.2875C61.5928 35.3185 132.159 35.1926 134.856 35.0499C135.016 35.041 135.14 34.9045 135.132 34.744C135.123 34.5836 134.986 34.4603 134.826 34.4692C132.129 34.6119 61.5892 34.7369 47.5029 34.7059C46.1004 34.7032 45.2608 34.6988 45.1057 34.6926H45.1048V34.6917Z" fill="#111119"/>
<path fill-rule="evenodd" clip-rule="evenodd" d="M60.1205 13.7844C46.3897 14.0194 45.0049 19.2163 44.9907 25.86C44.9703 34.9773 43.8737 147.127 44.5076 154.04C45.1184 160.703 49.2258 162.695 59.4175 163.368C65.555 163.774 115.771 163.424 125.799 162.824C134.684 162.291 134.665 155.237 134.807 151.183C134.947 147.18 135.06 142.11 134.718 105.257C134.385 69.3761 134.949 32.1394 134.755 28.2289C134.554 24.1703 134.533 13.6505 119.959 13.3199C116.218 13.2348 64.852 13.7029 60.1214 13.7835L60.1205 13.7844Z" stroke="#111119" stroke-width="0.620581" stroke-miterlimit="10"/>
<path fill-rule="evenodd" clip-rule="evenodd" d="M65.3124 42.6662C59.2643 42.9712 55.9097 44.4774 54.0337 46.7239C52.1543 48.974 51.7473 51.9882 51.6507 55.3642C51.3909 64.4415 51.5319 72.478 51.8954 79.3443C52.0399 82.0749 52.7181 83.1317 54.0426 84.5129C56.0054 86.5582 59.4275 87.3729 64.7999 87.6176C70.0935 87.8587 112.154 87.8773 120.837 87.0121C128.725 86.2266 129.264 80.2451 129.501 76.1014C129.949 68.2288 129.766 64.9495 129.636 57.069C129.589 54.1913 129.675 48.1114 125.351 44.7363C123.493 43.2859 120.82 42.3258 116.962 42.3435C113.734 42.3586 69.4002 42.4605 65.3124 42.6671V42.6662Z" fill="#6C50FD"/>
<path fill-rule="evenodd" clip-rule="evenodd" d="M65.3124 42.6662C59.2643 42.9712 55.9097 44.4774 54.0337 46.7239C52.1543 48.974 51.7473 51.9882 51.6507 55.3642C51.3909 64.4415 51.5319 72.478 51.8954 79.3443C52.0399 82.0749 52.7181 83.1317 54.0426 84.5129C56.0054 86.5582 59.4275 87.3729 64.7999 87.6176C70.0935 87.8587 112.154 87.8773 120.837 87.0121C128.725 86.2266 129.264 80.2451 129.501 76.1014C129.949 68.2288 129.766 64.9495 129.636 57.069C129.589 54.1913 129.675 48.1114 125.351 44.7363C123.493 43.2859 120.82 42.3258 116.962 42.3435C113.734 42.3586 69.4002 42.4605 65.3124 42.6671V42.6662Z" fill="url(#paint2_linear_14_1888)"/>
<path fill-rule="evenodd" clip-rule="evenodd" d="M65.3124 42.6662C59.2643 42.9712 55.9097 44.4774 54.0337 46.7239C52.1543 48.974 51.7473 51.9882 51.6507 55.3642C51.3909 64.4415 51.5319 72.478 51.8954 79.3443C52.0399 82.0749 52.7181 83.1317 54.0426 84.5129C56.0054 86.5582 59.4275 87.3729 64.7999 87.6176C70.0935 87.8587 112.154 87.8773 120.837 87.0121C128.725 86.2266 129.264 80.2451 129.501 76.1014C129.949 68.2288 129.766 64.9495 129.636 57.069C129.589 54.1913 129.675 48.1114 125.351 44.7363C123.493 43.2859 120.82 42.3258 116.962 42.3435C113.734 42.3586 69.4002 42.4605 65.3124 42.6671V42.6662ZM65.3416 43.2478C69.4277 43.0421 113.739 42.9401 116.965 42.9251C120.654 42.9082 123.215 43.8072 124.993 45.1946C129.152 48.4412 129.009 54.3101 129.054 57.0779C129.183 64.946 129.367 68.2084 128.919 76.0677C128.696 79.9986 128.263 85.6867 120.779 86.4323C112.11 87.2958 70.1121 87.2763 64.8265 87.0351C59.6589 86.8002 56.3503 86.0759 54.4628 84.1086C53.2217 82.8152 52.6126 81.8719 52.477 79.3124C52.1135 72.4577 51.9734 64.4433 52.2332 55.3801C52.3254 52.146 52.6809 49.2515 54.4814 47.0963C56.2847 44.9366 59.5285 43.5403 65.3434 43.2478H65.3416Z" fill="#111119"/>
<path fill-rule="evenodd" clip-rule="evenodd" d="M99.7516 80.5255C98.9519 80.5051 98.3047 80.4882 97.8677 80.4785C96.529 80.4484 95.5582 80.2019 94.9066 79.5396C94.247 78.8703 93.9234 77.794 93.833 76.161C93.8241 76.0006 93.6867 75.8773 93.5263 75.8862C93.3658 75.8951 93.2426 76.0325 93.2514 76.1929C93.3525 78.0148 93.7559 79.2019 94.4917 79.9483C95.2355 80.7028 96.3286 81.0246 97.8544 81.0601C98.2914 81.0698 98.9377 81.0875 99.7365 81.1071C99.897 81.1115 100.031 80.9838 100.035 80.8234C100.039 80.6629 99.912 80.529 99.7516 80.5246V80.5255Z" fill="white"/>
<path fill-rule="evenodd" clip-rule="evenodd" d="M120.699 75.9052C120.539 75.8964 120.401 76.0196 120.393 76.1801C120.303 77.8131 119.979 78.8893 119.319 79.5587C118.666 80.2201 117.696 80.4665 116.358 80.4975C116.016 80.5055 115.544 80.5179 114.972 80.5321C114.812 80.5365 114.685 80.6695 114.689 80.8309C114.693 80.9913 114.826 81.1181 114.987 81.1146C115.559 81.1004 116.03 81.088 116.372 81.08C117.898 81.0445 118.991 80.7227 119.735 79.9683C120.471 79.2218 120.875 78.0347 120.975 76.2129C120.984 76.0524 120.861 75.915 120.7 75.9061L120.699 75.9052Z" fill="white"/>
<path fill-rule="evenodd" clip-rule="evenodd" d="M93.6129 61.1978C93.7733 61.2014 93.9072 61.0746 93.9107 60.9141C93.9285 60.1996 93.9214 60.4372 93.9391 59.8184C93.9666 58.8015 94.0003 57.93 94.151 57.2031C94.2902 56.5293 94.5287 55.9849 94.9799 55.5798C95.6049 55.0177 96.6156 54.7243 98.2442 54.6596C98.5146 54.6489 98.7389 54.6489 99.3586 54.6383C99.519 54.6356 99.6476 54.5026 99.644 54.3422C99.6414 54.1817 99.5084 54.0532 99.3479 54.0567C98.7211 54.0674 98.4942 54.0674 98.2211 54.0789C96.4046 54.1507 95.2884 54.5213 94.5907 55.1481C94.0499 55.6348 93.7476 56.2784 93.581 57.0869C93.4249 57.8423 93.3859 58.7483 93.3575 59.8051C93.3407 60.4248 93.3469 60.1872 93.3292 60.9026C93.3256 61.0631 93.4524 61.1969 93.6129 61.2014V61.1978Z" fill="white"/>
<path fill-rule="evenodd" clip-rule="evenodd" d="M119.246 55.5974C119.697 56.0034 119.935 56.5469 120.074 57.2206C120.224 57.9476 120.259 58.82 120.286 59.8359C120.303 60.4547 120.297 60.2172 120.315 60.9317C120.319 61.0922 120.452 61.2198 120.613 61.2154C120.773 61.211 120.901 61.078 120.896 60.9166C120.879 60.2012 120.885 60.4388 120.868 59.8191C120.84 58.7632 120.801 57.8572 120.644 57.1018C120.478 56.2933 120.175 55.6497 119.635 55.163C118.937 54.5362 117.822 54.1656 116.004 54.0938C115.724 54.0832 115.231 54.0707 114.582 54.0601C114.422 54.0574 114.289 54.1851 114.286 54.3456C114.284 54.506 114.411 54.639 114.572 54.6417C115.215 54.6532 115.704 54.6647 115.98 54.6754C117.609 54.7401 118.62 55.0344 119.245 55.5956L119.246 55.5974Z" fill="white"/>
<path fill-rule="evenodd" clip-rule="evenodd" d="M93.5099 67.6967C93.6704 67.6985 93.8025 67.57 93.8052 67.4095C93.8247 65.9529 93.8087 64.6009 93.8388 63.2135C93.8424 63.053 93.7147 62.9191 93.5543 62.9156C93.3938 62.9121 93.2599 63.0397 93.2564 63.2002C93.2262 64.5885 93.2413 65.9432 93.2227 67.4006C93.22 67.5611 93.3495 67.6932 93.5099 67.6959V67.6967Z" fill="white"/>
<path fill-rule="evenodd" clip-rule="evenodd" d="M120.67 62.936C120.51 62.9396 120.382 63.0726 120.386 63.2339C120.416 64.6205 120.401 65.9733 120.42 67.4299C120.421 67.5904 120.553 67.7189 120.715 67.7172C120.875 67.7145 121.004 67.5824 121.002 67.4219C120.982 65.9636 120.998 64.6098 120.967 63.2215C120.964 63.061 120.831 62.9334 120.67 62.9369V62.936Z" fill="white"/>
<path fill-rule="evenodd" clip-rule="evenodd" d="M106.183 54.3322C106.182 54.1717 106.05 54.0432 105.888 54.0449C104.43 54.0644 102.632 54.0591 101.244 54.0893C101.083 54.0928 100.956 54.2258 100.959 54.3871C100.963 54.5476 101.096 54.6753 101.256 54.6717C102.643 54.6416 104.44 54.646 105.896 54.6265C106.057 54.6247 106.185 54.4926 106.183 54.3313V54.3322Z" fill="white"/>
<path fill-rule="evenodd" clip-rule="evenodd" d="M106.405 80.5556C104.946 80.5751 103.149 80.5698 101.76 80.6008C101.6 80.6044 101.472 80.7373 101.476 80.8978C101.479 81.0583 101.612 81.1859 101.774 81.1824C103.161 81.1522 104.957 81.1567 106.414 81.1372C106.574 81.1354 106.703 81.0033 106.701 80.8419C106.699 80.6815 106.567 80.5529 106.406 80.5547L106.405 80.5556Z" fill="white"/>
<path fill-rule="evenodd" clip-rule="evenodd" d="M93.4784 74.3311C93.6388 74.3284 93.7674 74.1954 93.7647 74.035C93.7443 72.878 93.7727 70.6395 93.7807 69.2281C93.7807 69.0676 93.6521 68.9364 93.4917 68.9356C93.3312 68.9347 93.2 69.0641 93.1991 69.2246C93.1902 70.6395 93.1628 72.8842 93.1831 74.0447C93.1858 74.2052 93.3188 74.3337 93.4792 74.3302L93.4784 74.3311Z" fill="white"/>
<path fill-rule="evenodd" clip-rule="evenodd" d="M121.029 69.2441C121.028 69.0836 120.897 68.9533 120.736 68.9551C120.576 68.9551 120.446 69.0872 120.447 69.2477C120.456 70.6582 120.484 72.8967 120.463 74.0545C120.461 74.215 120.588 74.348 120.749 74.3506C120.909 74.3533 121.042 74.2256 121.045 74.0651C121.065 72.9047 121.038 70.6599 121.029 69.245V69.2441Z" fill="white"/>
<path fill-rule="evenodd" clip-rule="evenodd" d="M112.52 54.5859C112.681 54.5886 112.814 54.46 112.817 54.2996C112.819 54.1391 112.692 54.0061 112.531 54.0035C111.371 53.9831 109.126 54.0106 107.711 54.0194C107.55 54.0194 107.421 54.1515 107.422 54.312C107.422 54.4724 107.554 54.6019 107.714 54.601C109.125 54.5921 111.364 54.5646 112.521 54.585L112.52 54.5859Z" fill="white"/>
<path fill-rule="evenodd" clip-rule="evenodd" d="M113.115 80.5308C111.955 80.5104 109.71 80.5379 108.295 80.5468C108.134 80.5476 108.005 80.6789 108.006 80.8393C108.007 80.9998 108.138 81.1301 108.298 81.1283C109.709 81.1195 111.948 81.092 113.105 81.1124C113.266 81.115 113.399 80.9874 113.401 80.8269C113.404 80.6664 113.275 80.5335 113.115 80.5308Z" fill="white"/>
<path fill-rule="evenodd" clip-rule="evenodd" d="M108.65 66.5817V63.6597H106.478V66.5817H103.528V68.7538H106.478V71.4462H108.65V68.7538H111.315V66.5817H108.65Z" fill="white"/>
<path fill-rule="evenodd" clip-rule="evenodd" d="M78.3175 133.666C80.8238 133.63 100.369 133.634 102.875 133.668C107.753 133.737 112.631 133.806 117.505 133.997C122.295 134.185 128.554 134.87 129.898 140.473C130.133 141.451 130.202 142.466 130.24 143.471C130.287 144.708 130.047 146.237 129.636 147.415C127.631 153.171 120.608 154.261 115.311 154.339C113.205 154.37 67.8767 154.33 65.8802 154.336C57.9811 154.36 51.2362 152.916 51.0607 144.253C50.8781 135.263 58.8969 134.182 63.6869 133.995C68.5611 133.803 73.4397 133.735 78.3166 133.666H78.3175Z" fill="#6C50FD"/>
<path fill-rule="evenodd" clip-rule="evenodd" d="M78.3175 133.666C80.8238 133.63 100.369 133.634 102.875 133.668C107.753 133.737 112.631 133.806 117.505 133.997C122.295 134.185 128.554 134.87 129.898 140.473C130.133 141.451 130.202 142.466 130.24 143.471C130.287 144.708 130.047 146.237 129.636 147.415C127.631 153.171 120.608 154.261 115.311 154.339C113.205 154.37 67.8767 154.33 65.8802 154.336C57.9811 154.36 51.2362 152.916 51.0607 144.253C50.8781 135.263 58.8969 134.182 63.6869 133.995C68.5611 133.803 73.4397 133.735 78.3166 133.666H78.3175Z" fill="url(#paint3_linear_14_1888)"/>
<path fill-rule="evenodd" clip-rule="evenodd" d="M60.947 146.721C60.947 146.708 60.947 146.686 60.947 146.664C60.947 146.184 60.9 144.003 60.9035 143.096C60.9035 142.808 60.9257 142.622 60.9363 142.595C60.9585 142.538 61.064 142.401 61.2475 142.236C61.7856 141.751 63.0596 140.786 63.4045 140.57C63.4772 140.525 63.5303 140.503 63.5552 140.496C63.6332 140.474 63.6917 140.486 63.728 140.496C64.0179 140.585 65.1944 141.329 65.9089 141.829C66.2511 142.069 66.4905 142.27 66.5269 142.326C66.5437 142.352 66.5694 142.403 66.588 142.481C66.6067 142.561 66.6279 142.699 66.6492 142.879C66.76 143.835 66.885 146.054 66.8549 146.612C66.8487 146.726 66.8283 146.801 66.815 146.833C66.7778 146.918 66.7219 146.959 66.6785 146.981C66.6341 147.005 66.5366 147.033 66.3992 147.044C66.065 147.07 65.3708 147.04 65.0419 147.012C64.9125 147 64.8238 146.983 64.799 146.973C64.7591 146.958 64.7316 146.939 64.7139 146.925C64.6846 146.902 64.6492 146.866 64.6226 146.805C64.6066 146.77 64.5853 146.694 64.5738 146.586C64.5463 146.348 64.5029 145.741 64.4834 145.475C64.4461 145.472 64.4054 145.469 64.369 145.468C64.1048 145.461 63.7431 145.47 63.5135 145.491C63.517 145.78 63.5206 146.32 63.5055 146.547C63.4984 146.656 63.4798 146.734 63.4639 146.771C63.4373 146.835 63.4 146.874 63.369 146.898C63.3193 146.937 63.1802 146.992 62.9763 147.012C62.5126 147.06 61.5542 147.041 61.298 147.046C61.2262 147.063 61.1526 147.049 61.079 147.001C61.0507 146.984 60.9886 146.943 60.9576 146.838C60.9461 146.799 60.9434 146.759 60.9478 146.719L60.947 146.721ZM63.6624 141.097C64.0419 141.277 64.9781 141.889 65.5747 142.307C65.7636 142.439 65.9506 142.585 66.0242 142.643C66.0348 142.705 66.0561 142.83 66.0694 142.947C66.1705 143.822 66.2866 145.784 66.276 146.468C66.2432 146.469 66.2086 146.471 66.1767 146.472C65.8611 146.478 65.4134 146.459 65.1509 146.437C65.1341 146.155 65.0951 145.552 65.0587 145.315C65.0401 145.194 65.0073 145.111 64.9825 145.072C64.9453 145.015 64.9009 144.981 64.861 144.96C64.8008 144.929 64.6181 144.893 64.3832 144.887C63.9461 144.875 63.2874 144.919 63.1385 144.967C63.1083 144.976 62.9435 145.044 62.9284 145.265C62.9177 145.422 62.9169 146.132 62.9169 146.436C62.5782 146.474 61.9239 146.468 61.5285 146.466C61.5205 145.75 61.4833 143.912 61.486 143.098C61.486 142.989 61.4895 142.877 61.4913 142.813C61.5533 142.752 61.7049 142.607 61.8592 142.477C62.416 142.008 63.3229 141.322 63.6633 141.097H63.6624Z" fill="white"/>
<path fill-rule="evenodd" clip-rule="evenodd" d="M77.3578 146.759C77.3578 146.791 77.3623 146.822 77.3711 146.852C77.3818 146.887 77.4146 147.023 77.5945 147.059C77.5999 147.059 77.6664 147.066 77.7834 147.067C78.4518 147.075 81.4111 147.083 82.6328 147.036C82.8987 147.027 83.0885 147.012 83.1683 146.996C83.2534 146.979 83.303 146.947 83.3261 146.928C83.3668 146.896 83.42 146.84 83.4431 146.737C83.459 146.667 83.4608 146.503 83.4183 146.281C83.2454 145.379 82.3881 143.298 80.0875 143.491C78.646 143.613 77.9164 144.638 77.5866 145.527C77.3898 146.058 77.3437 146.541 77.3578 146.759ZM82.8571 146.441C82.7835 146.446 82.6966 146.451 82.6106 146.455C81.4723 146.499 78.8135 146.494 77.9394 146.487C77.9616 146.299 78.0228 146.025 78.1327 145.729C78.3986 145.012 78.974 144.168 80.1363 144.071C82.0805 143.907 82.7489 145.747 82.8571 146.441Z" fill="white"/>
<path fill-rule="evenodd" clip-rule="evenodd" d="M80.3067 139.785C79.6542 139.727 78.4068 140.167 78.421 141.507C78.4343 142.785 79.4556 143.262 80.164 143.23C80.7101 143.206 81.1427 143.046 81.4432 142.783C81.7597 142.505 81.9424 142.113 81.9512 141.612C81.9663 140.779 81.4548 139.887 80.3067 139.785ZM80.2553 140.365C81.0328 140.434 81.3794 141.038 81.3688 141.601C81.3635 141.917 81.2597 142.17 81.0594 142.345C80.8439 142.534 80.5283 142.631 80.1374 142.649C79.671 142.67 79.0115 142.342 79.0026 141.501C78.9928 140.613 79.8226 140.326 80.2544 140.365H80.2553Z" fill="white"/>
<path fill-rule="evenodd" clip-rule="evenodd" d="M95.668 139.837C95.0155 139.778 93.7673 140.218 93.7824 141.558C93.7965 142.836 94.817 143.314 95.5253 143.282C96.0714 143.257 96.5041 143.097 96.8046 142.834C97.1211 142.557 97.3037 142.164 97.3126 141.663C97.3276 140.83 96.8161 139.939 95.668 139.837ZM95.6166 140.416C96.3941 140.486 96.7408 141.089 96.731 141.652C96.7248 141.969 96.622 142.221 96.4216 142.396C96.2062 142.585 95.8906 142.682 95.4996 142.7C95.0333 142.721 94.3737 142.393 94.3648 141.552C94.3551 140.665 95.1849 140.377 95.6166 140.416Z" fill="white"/>
<path fill-rule="evenodd" clip-rule="evenodd" d="M95.7833 143.546C95.1308 143.487 93.8834 143.927 93.8976 145.267C93.9118 146.545 94.9322 147.023 95.6405 146.991C96.1866 146.966 96.6193 146.806 96.9198 146.543C97.2363 146.266 97.4189 145.873 97.4278 145.372C97.4429 144.539 96.9313 143.648 95.7833 143.546ZM95.7318 144.125C96.5093 144.195 96.856 144.798 96.8462 145.361C96.8409 145.678 96.7372 145.93 96.5368 146.105C96.3214 146.294 96.0058 146.391 95.6148 146.409C95.1485 146.43 94.4889 146.102 94.48 145.26C94.4703 144.373 95.3001 144.086 95.7318 144.125V144.125Z" fill="white"/>
<path fill-rule="evenodd" clip-rule="evenodd" d="M99.7637 139.751C99.1113 139.692 97.863 140.131 97.8781 141.472C97.8914 142.75 98.9127 143.228 99.621 143.196C100.167 143.171 100.6 143.011 100.9 142.748C101.217 142.471 101.399 142.078 101.408 141.576C101.423 140.744 100.912 139.853 99.7646 139.75L99.7637 139.751ZM99.7114 140.33C100.489 140.4 100.836 141.002 100.826 141.566C100.82 141.883 100.717 142.135 100.516 142.31C100.301 142.499 99.9854 142.597 99.5944 142.614C99.1281 142.636 98.4685 142.307 98.4596 141.466C98.4499 140.579 99.2797 140.291 99.7114 140.33Z" fill="white"/>
<path fill-rule="evenodd" clip-rule="evenodd" d="M99.879 143.461C99.2265 143.402 97.9782 143.842 97.9933 145.182C98.0075 146.46 99.0279 146.938 99.7362 146.906C100.282 146.881 100.715 146.721 101.016 146.458C101.332 146.181 101.515 145.788 101.524 145.287C101.539 144.454 101.027 143.563 99.879 143.461ZM99.8276 144.04C100.605 144.11 100.952 144.713 100.942 145.276C100.936 145.593 100.833 145.845 100.633 146.02C100.417 146.209 100.102 146.306 99.7105 146.324C99.2442 146.345 98.5846 146.017 98.5758 145.176C98.566 144.289 99.3958 144.001 99.8276 144.04Z" fill="white"/>
<path fill-rule="evenodd" clip-rule="evenodd" d="M118.363 143.895C118.216 143.187 117.925 142.276 117.433 141.569C116.903 140.808 116.147 140.283 115.11 140.412C114.142 140.533 113.482 141.241 113.06 142.103C112.479 143.29 112.358 144.752 112.395 145.132C112.395 145.147 112.397 145.162 112.4 145.177C112.409 145.226 112.436 145.353 112.603 145.402C112.61 145.403 112.685 145.416 112.816 145.418C113.014 145.421 113.412 145.425 113.905 145.426C113.922 146.009 114.249 146.349 114.466 146.493C115.577 147.236 116.876 146.559 116.933 145.4C117.215 145.393 117.468 145.383 117.672 145.372C117.947 145.356 118.144 145.333 118.226 145.309C118.322 145.281 118.374 145.233 118.4 145.203C118.428 145.172 118.477 145.094 118.486 144.96C118.498 144.795 118.466 144.394 118.361 143.895H118.363ZM114.789 146.01C114.67 145.93 114.506 145.741 114.489 145.426C115.085 145.426 115.749 145.422 116.348 145.412C116.277 146.102 115.468 146.463 114.79 146.01H114.789ZM117.64 144.791C116.5 144.856 113.832 144.848 112.968 144.838C112.984 144.332 113.142 143.258 113.582 142.359C113.916 141.676 114.414 141.085 115.182 140.99C115.978 140.891 116.548 141.317 116.955 141.902C117.401 142.543 117.659 143.371 117.793 144.013C117.854 144.307 117.883 144.598 117.897 144.77C117.822 144.778 117.73 144.786 117.64 144.791Z" fill="white"/>
<path fill-rule="evenodd" clip-rule="evenodd" d="M78.3175 133.666C80.8238 133.63 100.369 133.634 102.875 133.668C107.753 133.737 112.631 133.806 117.505 133.997C122.295 134.185 128.554 134.87 129.898 140.473C130.133 141.451 130.202 142.466 130.24 143.471C130.287 144.708 130.047 146.237 129.636 147.415C127.631 153.171 120.608 154.261 115.311 154.339C113.205 154.37 67.8767 154.33 65.8802 154.336C57.9811 154.36 51.2362 152.916 51.0607 144.253C50.8781 135.263 58.8969 134.182 63.6869 133.995C68.5611 133.803 73.4397 133.735 78.3166 133.666H78.3175Z" stroke="#111119" stroke-width="0.620581" stroke-miterlimit="10"/>
</g>
</g>
<defs>
<filter id="filter0_dddd_14_1888" x="40.253" y="10.7518" width="120.48" height="191.322" filterUnits="userSpaceOnUse" color-interpolation-filters="sRGB">
<feFlood flood-opacity="0" result="BackgroundImageFix"/>
<feColorMatrix in="SourceAlpha" type="matrix" values="0 0 0 0 0 0 0 0 0 0 0 0 0 0 0 0 0 0 127 0" result="hardAlpha"/>
<feOffset dx="0.749401" dy="1.4988"/>
<feGaussianBlur stdDeviation="1.8735"/>
<feColorMatrix type="matrix" values="0 0 0 0 0 0 0 0 0 0 0 0 0 0 0 0 0 0 0.1 0"/>
<feBlend mode="normal" in2="BackgroundImageFix" result="effect1_dropShadow_14_1888"/>
<feColorMatrix in="SourceAlpha" type="matrix" values="0 0 0 0 0 0 0 0 0 0 0 0 0 0 0 0 0 0 127 0" result="hardAlpha"/>
<feOffset dx="3.747" dy="6.74461"/>
<feGaussianBlur stdDeviation="3.747"/>
<feColorMatrix type="matrix" values="0 0 0 0 0 0 0 0 0 0 0 0 0 0 0 0 0 0 0.09 0"/>
<feBlend mode="normal" in2="effect1_dropShadow_14_1888" result="effect2_dropShadow_14_1888"/>
<feColorMatrix in="SourceAlpha" type="matrix" values="0 0 0 0 0 0 0 0 0 0 0 0 0 0 0 0 0 0 127 0" result="hardAlpha"/>
<feOffset dx="7.49401" dy="14.988"/>
<feGaussianBlur stdDeviation="4.8711"/>
<feColorMatrix type="matrix" values="0 0 0 0 0 0 0 0 0 0 0 0 0 0 0 0 0 0 0.05 0"/>
<feBlend mode="normal" in2="effect2_dropShadow_14_1888" result="effect3_dropShadow_14_1888"/>
<feColorMatrix in="SourceAlpha" type="matrix" values="0 0 0 0 0 0 0 0 0 0 0 0 0 0 0 0 0 0 127 0" result="hardAlpha"/>
<feOffset dx="13.4892" dy="26.229"/>
<feGaussianBlur stdDeviation="5.99521"/>
<feColorMatrix type="matrix" values="0 0 0 0 0 0 0 0 0 0 0 0 0 0 0 0 0 0 0.01 0"/>
<feBlend mode="normal" in2="effect3_dropShadow_14_1888" result="effect4_dropShadow_14_1888"/>
<feBlend mode="normal" in="SourceGraphic" in2="effect4_dropShadow_14_1888" result="shape"/>
</filter>
<linearGradient id="paint0_linear_14_1888" x1="48.9118" y1="21.0379" x2="54.7755" y2="35.8864" gradientUnits="userSpaceOnUse">
<stop stop-color="#02000F"/>
<stop offset="0.67" stop-color="#8A63F2"/>
<stop offset="0.9999" stop-color="#F79AFF"/>
</linearGradient>
<linearGradient id="paint1_linear_14_1888" x1="113.584" y1="20.3465" x2="119.448" y2="35.196" gradientUnits="userSpaceOnUse">
<stop stop-color="#02000F"/>
<stop offset="0.67" stop-color="#8A63F2"/>
<stop offset="0.9999" stop-color="#F79AFF"/>
</linearGradient>
<linearGradient id="paint2_linear_14_1888" x1="26.0587" y1="44.3406" x2="43.8012" y2="118.493" gradientUnits="userSpaceOnUse">
<stop stop-color="#02000F"/>
<stop offset="0.67" stop-color="#8A63F2"/>
<stop offset="0.9999" stop-color="#F79AFF"/>
</linearGradient>
<linearGradient id="paint3_linear_14_1888" x1="25.2995" y1="134.551" x2="29.1104" y2="169.89" gradientUnits="userSpaceOnUse">
<stop stop-color="#02000F"/>
<stop offset="0.67" stop-color="#8A63F2"/>
<stop offset="0.9999" stop-color="#F79AFF"/>
</linearGradient>
<clipPath id="clip0_14_1888">
<rect width="180" height="180" fill="white"/>
</clipPath>
<clipPath id="clip1_14_1888">
<rect width="91.2529" height="150.854" fill="white" transform="translate(44 13)"/>
</clipPath>
</defs>
</svg>
