<svg width="181" height="180" viewBox="0 0 181 180" fill="none" xmlns="http://www.w3.org/2000/svg">
<g clip-path="url(#clip0_14_1825)">
<g filter="url(#filter0_dddd_14_1825)">
<path d="M142.352 79.1963H37.1239C33.8345 79.1963 31.168 81.8628 31.168 85.1522V145.719C31.168 149.008 33.8345 151.675 37.1239 151.675H142.352C145.641 151.675 148.308 149.008 148.308 145.719V85.1522C148.308 81.8628 145.641 79.1963 142.352 79.1963Z" fill="#6C50FD"/>
<path d="M142.352 79.1963H37.1239C33.8345 79.1963 31.168 81.8628 31.168 85.1522V145.719C31.168 149.008 33.8345 151.675 37.1239 151.675H142.352C145.641 151.675 148.308 149.008 148.308 145.719V85.1522C148.308 81.8628 145.641 79.1963 142.352 79.1963Z" fill="url(#paint0_linear_14_1825)"/>
<path d="M142.359 79.1963H37.1233C34.3824 79.1963 32.0786 81.0557 31.3896 83.5817C31.9378 83.4113 32.523 83.3225 33.1305 83.3225H138.359C141.648 83.3225 144.315 85.9893 144.315 89.2783V149.852C144.315 150.393 144.233 150.919 144.1 151.423C146.537 150.682 148.315 148.415 148.315 145.726V85.1522C148.315 81.8631 145.648 79.1963 142.359 79.1963Z" fill="white"/>
<path d="M142.352 79.1963H37.1239C33.8345 79.1963 31.168 81.8628 31.168 85.1522V145.719C31.168 149.008 33.8345 151.675 37.1239 151.675H142.352C145.641 151.675 148.308 149.008 148.308 145.719V85.1522C148.308 81.8628 145.641 79.1963 142.352 79.1963Z" stroke="#111119" stroke-width="1.85196" stroke-linecap="round" stroke-linejoin="round"/>
<path d="M136.856 102.679L91.6604 119.561L42.6279 102.679V27.8747C42.6279 24.7115 45.191 22.1484 48.3542 22.1484H131.129C134.292 22.1484 136.856 24.7115 136.856 27.8747V102.679Z" fill="white" stroke="#111119" stroke-width="1.85196" stroke-linecap="round" stroke-linejoin="round"/>
<path d="M98.9429 72.3289C98.9059 72.5363 98.8911 72.8104 98.8911 73.1512C98.8911 73.9734 99.0837 74.5883 99.4837 74.9957C99.8763 75.4032 100.38 75.6106 100.995 75.6106C102.328 75.6106 103.558 74.9513 104.684 73.6401C105.81 72.3289 106.714 70.6177 107.403 68.5213C108.084 66.4249 108.425 64.2766 108.425 62.0913C108.425 59.6985 107.862 57.5947 106.736 55.765C105.61 53.9353 104.002 52.5204 101.921 51.5129C99.8393 50.5054 97.4095 50.0017 94.6464 50.0017C90.2758 50.0017 86.3126 50.8684 82.7642 52.6167C79.2085 54.3575 76.4157 56.8762 74.3637 60.1726C72.3118 63.4691 71.2895 67.3508 71.2895 71.8252C71.2895 74.4179 71.8154 76.8477 72.8748 79.0997C73.9341 81.3516 75.586 83.1814 77.8454 84.5815C80.0974 85.9815 82.9346 86.6779 86.3496 86.6779C88.9423 86.6779 91.061 86.4334 92.6981 85.9371C94.3352 85.4408 96.0613 84.6852 97.8688 83.6555C98.2466 83.4481 98.5651 83.3518 98.8392 83.3518C99.5207 83.3518 100.032 83.7814 100.373 84.6333C100.476 84.8407 100.528 85.0407 100.528 85.2482C100.528 85.9964 99.8763 86.7149 98.5799 87.3964C96.4983 88.4558 94.5649 89.2632 92.7944 89.8262C91.0165 90.3892 88.8683 90.6707 86.3422 90.6707C81.9716 90.6707 78.3491 89.7818 75.4823 88.0039C72.6155 86.226 70.5117 83.9148 69.1857 81.0627C67.8597 78.2107 67.1855 75.1291 67.1855 71.8178C67.1855 66.6249 68.393 62.0765 70.8228 58.1651C73.2452 54.2538 76.5416 51.2536 80.7048 49.1498C84.868 47.046 89.5128 46.0015 94.639 46.0015C98.3947 46.0015 101.625 46.72 104.321 48.1497C107.017 49.5869 109.062 51.5129 110.44 53.9353C111.825 56.3576 112.514 59.0763 112.514 62.0765C112.514 65.0766 111.951 67.7212 110.825 70.4029C109.699 73.0845 108.092 75.2772 106.01 76.981C103.928 78.6922 101.521 79.5441 98.7874 79.5441C97.3873 79.5441 96.1354 79.1515 95.0242 78.3663C93.913 77.5811 93.2241 76.5736 92.95 75.3439C91.3425 78.1441 88.8164 79.5441 85.3718 79.5441C84.0754 79.5441 82.8383 79.2034 81.6605 78.5219C80.4826 77.8403 79.5344 76.8477 78.8158 75.5513C78.0973 74.2549 77.7417 72.766 77.7417 71.0918C77.7417 68.9435 78.2973 66.7064 79.4085 64.3803C80.5196 62.0616 82.0234 60.1208 83.9124 58.5651C85.8088 57.0095 87.8312 56.2317 89.9794 56.2317C91.1425 56.2317 92.187 56.5502 93.1278 57.1799C94.0686 57.8096 94.7723 58.6911 95.2538 59.8171L95.4612 58.4318C95.565 57.8836 95.8464 57.4095 96.3057 56.9947C96.765 56.5873 97.4243 56.3798 98.2762 56.3798C100.121 56.3798 101.039 57.1132 101.039 58.58C101.039 58.9207 101.025 59.1948 100.987 59.4022L98.9355 72.3067L98.9429 72.3289ZM94.2834 64.8025C94.2834 63.4025 93.9056 62.395 93.1574 61.7801C92.4018 61.1653 91.4314 60.8542 90.2387 60.8542C88.9423 60.8542 87.7719 61.3875 86.7274 62.4394C85.6829 63.4988 84.8829 64.8174 84.3199 66.41C83.7569 67.9953 83.4754 69.5287 83.4754 70.9955C83.4754 72.2919 83.7791 73.2771 84.3939 73.9438C85.0088 74.6105 85.8607 74.9439 86.957 74.9439C88.0534 74.9439 89.0461 74.6105 89.9572 73.9438C90.861 73.2771 91.6166 72.4771 92.2092 71.5363C92.8092 70.5955 93.2241 69.7213 93.4611 68.8991C94.0093 67.2619 94.2834 65.8915 94.2834 64.8025Z" fill="#6C50FD"/>
<path d="M98.9429 72.3289C98.9059 72.5363 98.8911 72.8104 98.8911 73.1512C98.8911 73.9734 99.0837 74.5883 99.4837 74.9957C99.8763 75.4032 100.38 75.6106 100.995 75.6106C102.328 75.6106 103.558 74.9513 104.684 73.6401C105.81 72.3289 106.714 70.6177 107.403 68.5213C108.084 66.4249 108.425 64.2766 108.425 62.0913C108.425 59.6985 107.862 57.5947 106.736 55.765C105.61 53.9353 104.002 52.5204 101.921 51.5129C99.8393 50.5054 97.4095 50.0017 94.6464 50.0017C90.2758 50.0017 86.3126 50.8684 82.7642 52.6167C79.2085 54.3575 76.4157 56.8762 74.3637 60.1726C72.3118 63.4691 71.2895 67.3508 71.2895 71.8252C71.2895 74.4179 71.8154 76.8477 72.8748 79.0997C73.9341 81.3516 75.586 83.1814 77.8454 84.5815C80.0974 85.9815 82.9346 86.6779 86.3496 86.6779C88.9423 86.6779 91.061 86.4334 92.6981 85.9371C94.3352 85.4408 96.0613 84.6852 97.8688 83.6555C98.2466 83.4481 98.5651 83.3518 98.8392 83.3518C99.5207 83.3518 100.032 83.7814 100.373 84.6333C100.476 84.8407 100.528 85.0407 100.528 85.2482C100.528 85.9964 99.8763 86.7149 98.5799 87.3964C96.4983 88.4558 94.5649 89.2632 92.7944 89.8262C91.0165 90.3892 88.8683 90.6707 86.3422 90.6707C81.9716 90.6707 78.3491 89.7818 75.4823 88.0039C72.6155 86.226 70.5117 83.9148 69.1857 81.0627C67.8597 78.2107 67.1855 75.1291 67.1855 71.8178C67.1855 66.6249 68.393 62.0765 70.8228 58.1651C73.2452 54.2538 76.5416 51.2536 80.7048 49.1498C84.868 47.046 89.5128 46.0015 94.639 46.0015C98.3947 46.0015 101.625 46.72 104.321 48.1497C107.017 49.5869 109.062 51.5129 110.44 53.9353C111.825 56.3576 112.514 59.0763 112.514 62.0765C112.514 65.0766 111.951 67.7212 110.825 70.4029C109.699 73.0845 108.092 75.2772 106.01 76.981C103.928 78.6922 101.521 79.5441 98.7874 79.5441C97.3873 79.5441 96.1354 79.1515 95.0242 78.3663C93.913 77.5811 93.2241 76.5736 92.95 75.3439C91.3425 78.1441 88.8164 79.5441 85.3718 79.5441C84.0754 79.5441 82.8383 79.2034 81.6605 78.5219C80.4826 77.8403 79.5344 76.8477 78.8158 75.5513C78.0973 74.2549 77.7417 72.766 77.7417 71.0918C77.7417 68.9435 78.2973 66.7064 79.4085 64.3803C80.5196 62.0616 82.0234 60.1208 83.9124 58.5651C85.8088 57.0095 87.8312 56.2317 89.9794 56.2317C91.1425 56.2317 92.187 56.5502 93.1278 57.1799C94.0686 57.8096 94.7723 58.6911 95.2538 59.8171L95.4612 58.4318C95.565 57.8836 95.8464 57.4095 96.3057 56.9947C96.765 56.5873 97.4243 56.3798 98.2762 56.3798C100.121 56.3798 101.039 57.1132 101.039 58.58C101.039 58.9207 101.025 59.1948 100.987 59.4022L98.9355 72.3067L98.9429 72.3289ZM94.2834 64.8025C94.2834 63.4025 93.9056 62.395 93.1574 61.7801C92.4018 61.1653 91.4314 60.8542 90.2387 60.8542C88.9423 60.8542 87.7719 61.3875 86.7274 62.4394C85.6829 63.4988 84.8829 64.8174 84.3199 66.41C83.7569 67.9953 83.4754 69.5287 83.4754 70.9955C83.4754 72.2919 83.7791 73.2771 84.3939 73.9438C85.0088 74.6105 85.8607 74.9439 86.957 74.9439C88.0534 74.9439 89.0461 74.6105 89.9572 73.9438C90.861 73.2771 91.6166 72.4771 92.2092 71.5363C92.8092 70.5955 93.2241 69.7213 93.4611 68.8991C94.0093 67.2619 94.2834 65.8915 94.2834 64.8025Z" fill="url(#paint1_linear_14_1825)"/>
</g>
</g>
<defs>
<filter id="filter0_dddd_14_1825" x="23.44" y="16.23" width="160.793" height="187.631" filterUnits="userSpaceOnUse" color-interpolation-filters="sRGB">
<feFlood flood-opacity="0" result="BackgroundImageFix"/>
<feColorMatrix in="SourceAlpha" type="matrix" values="0 0 0 0 0 0 0 0 0 0 0 0 0 0 0 0 0 0 127 0" result="hardAlpha"/>
<feOffset dx="0.923329" dy="1.84666"/>
<feGaussianBlur stdDeviation="2.30832"/>
<feColorMatrix type="matrix" values="0 0 0 0 0 0 0 0 0 0 0 0 0 0 0 0 0 0 0.1 0"/>
<feBlend mode="normal" in2="BackgroundImageFix" result="effect1_dropShadow_14_1825"/>
<feColorMatrix in="SourceAlpha" type="matrix" values="0 0 0 0 0 0 0 0 0 0 0 0 0 0 0 0 0 0 127 0" result="hardAlpha"/>
<feOffset dx="4.61664" dy="8.30996"/>
<feGaussianBlur stdDeviation="4.61664"/>
<feColorMatrix type="matrix" values="0 0 0 0 0 0 0 0 0 0 0 0 0 0 0 0 0 0 0.09 0"/>
<feBlend mode="normal" in2="effect1_dropShadow_14_1825" result="effect2_dropShadow_14_1825"/>
<feColorMatrix in="SourceAlpha" type="matrix" values="0 0 0 0 0 0 0 0 0 0 0 0 0 0 0 0 0 0 127 0" result="hardAlpha"/>
<feOffset dx="9.23329" dy="18.4666"/>
<feGaussianBlur stdDeviation="6.00164"/>
<feColorMatrix type="matrix" values="0 0 0 0 0 0 0 0 0 0 0 0 0 0 0 0 0 0 0.05 0"/>
<feBlend mode="normal" in2="effect2_dropShadow_14_1825" result="effect3_dropShadow_14_1825"/>
<feColorMatrix in="SourceAlpha" type="matrix" values="0 0 0 0 0 0 0 0 0 0 0 0 0 0 0 0 0 0 127 0" result="hardAlpha"/>
<feOffset dx="16.6199" dy="32.3165"/>
<feGaussianBlur stdDeviation="7.38663"/>
<feColorMatrix type="matrix" values="0 0 0 0 0 0 0 0 0 0 0 0 0 0 0 0 0 0 0.01 0"/>
<feBlend mode="normal" in2="effect3_dropShadow_14_1825" result="effect4_dropShadow_14_1825"/>
<feBlend mode="normal" in="SourceGraphic" in2="effect4_dropShadow_14_1825" result="shape"/>
</filter>
<linearGradient id="paint0_linear_14_1825" x1="-6.9351" y1="82.3836" x2="23.0329" y2="199.847" gradientUnits="userSpaceOnUse">
<stop stop-color="#02000F"/>
<stop offset="0.67" stop-color="#8A63F2"/>
<stop offset="0.9999" stop-color="#F79AFF"/>
</linearGradient>
<linearGradient id="paint1_linear_14_1825" x1="52.4412" y1="47.9659" x2="79.3325" y2="114.145" gradientUnits="userSpaceOnUse">
<stop stop-color="#02000F"/>
<stop offset="0.67" stop-color="#8A63F2"/>
<stop offset="0.9999" stop-color="#F79AFF"/>
</linearGradient>
<clipPath id="clip0_14_1825">
<rect width="180" height="180" fill="white" transform="translate(0.0566406)"/>
</clipPath>
</defs>
</svg>
