<svg width="180" height="180" viewBox="0 0 180 180" fill="none" xmlns="http://www.w3.org/2000/svg">
<g clip-path="url(#clip0_14_1686)">
<path d="M158.839 41.1426H19.2142C13.092 41.1426 8.12891 46.1057 8.12891 52.2279V129.148C8.12891 135.271 13.092 140.234 19.2142 140.234H158.839C164.961 140.234 169.924 135.271 169.924 129.148V52.2279C169.924 46.1057 164.961 41.1426 158.839 41.1426Z" fill="white"/>
<path fill-rule="evenodd" clip-rule="evenodd" d="M19.2155 41.1426H158.84C164.962 41.1426 169.925 46.1057 169.925 52.2279V129.148C169.925 133.37 167.565 137.041 164.092 138.913C165.011 137.298 165.536 135.43 165.536 133.439V56.5181C165.536 50.3958 160.573 45.4327 154.451 45.4327H14.8259C12.9258 45.4327 11.1373 45.9108 9.57422 46.7532C11.4811 43.4024 15.0844 41.1426 19.2155 41.1426Z" fill="white"/>
<path d="M158.852 141.362H19.2136C12.4863 141.362 7 135.89 7 129.148V52.2136C7 45.4722 12.4722 40 19.2136 40H158.852C165.594 40 171.066 45.4722 171.066 52.2136V129.148C171.066 135.89 165.594 141.362 158.852 141.362ZM19.2136 42.2707C13.7274 42.2707 9.27066 46.7274 9.27066 52.2136V129.148C9.27066 134.634 13.7274 139.091 19.2136 139.091H158.852C164.339 139.091 168.795 134.634 168.795 129.148V52.2136C168.795 46.7274 164.339 42.2707 158.852 42.2707H19.2136Z" fill="white"/>
<path d="M154.129 58.6167H127.177V85.5685H154.129V58.6167Z" fill="white"/>
<path d="M155.271 86.7107H126.049V57.4741H155.271V86.6966V86.7107ZM128.319 84.44H153.001V59.7448H128.319V84.44Z" fill="#1A2E35"/>
<path d="M136.386 58.6167H134.242V85.5685H136.386V58.6167Z" fill="#1A2E35"/>
<path d="M147.076 58.6167H144.933V85.5685H147.076V58.6167Z" fill="#1A2E35"/>
<path d="M154.128 65.6685H127.176V67.8122H154.128V65.6685Z" fill="#1A2E35"/>
<path d="M154.128 76.373H127.176V78.5168H154.128V76.373Z" fill="#1A2E35"/>
<path d="M51.765 74.8632C53.3265 67.2561 48.4256 59.8234 40.8184 58.2618C33.2113 56.7003 25.7786 61.6013 24.217 69.2084C22.6555 76.8156 27.5565 84.2483 35.1636 85.8098C42.7708 87.3713 50.2035 82.4704 51.765 74.8632Z" fill="white"/>
<path d="M49.973 87.7262L34.6143 72.3675L49.973 57.0088L65.3317 72.3675L49.973 87.7262ZM37.6465 72.3675L49.973 84.6939L62.2994 72.3675L49.973 60.041L37.6465 72.3675Z" fill="#1A2E35"/>
<path d="M32.429 104.89H25.476C24.5874 104.89 23.8682 104.171 23.8682 103.283C23.8682 102.394 24.5874 101.675 25.476 101.675H32.429C33.3175 101.675 34.0368 102.394 34.0368 103.283C34.0368 104.171 33.3175 104.89 32.429 104.89Z" fill="white"/>
<path d="M134.426 104.89H121.676C120.788 104.89 120.069 104.171 120.069 103.282C120.069 102.394 120.788 101.674 121.676 101.674H134.426C135.314 101.674 136.034 102.394 136.034 103.282C136.034 104.171 135.314 104.89 134.426 104.89ZM108.927 104.89H96.1773C95.2888 104.89 94.5695 104.171 94.5695 103.282C94.5695 102.394 95.2888 101.674 96.1773 101.674H108.927C109.815 101.674 110.535 102.394 110.535 103.282C110.535 104.171 109.815 104.89 108.927 104.89ZM83.4278 104.89H70.6782C69.7897 104.89 69.0704 104.171 69.0704 103.282C69.0704 102.394 69.7897 101.674 70.6782 101.674H83.4278C84.3163 101.674 85.0356 102.394 85.0356 103.282C85.0356 104.171 84.3163 104.89 83.4278 104.89ZM57.9286 104.89H45.1791C44.2906 104.89 43.5713 104.171 43.5713 103.282C43.5713 102.394 44.2906 101.674 45.1791 101.674H57.9286C58.8172 101.674 59.5364 102.394 59.5364 103.282C59.5364 104.171 58.8172 104.89 57.9286 104.89Z" fill="white"/>
<path d="M154.128 104.89H147.175C146.287 104.89 145.567 104.171 145.567 103.282C145.567 102.394 146.287 101.674 147.175 101.674H154.128C155.017 101.674 155.736 102.394 155.736 103.282C155.736 104.171 155.017 104.89 154.128 104.89Z" fill="white"/>
<path d="M58.4506 118.881H25.4625C24.8701 118.881 24.3906 118.401 24.3906 117.809C24.3906 117.216 24.8701 116.737 25.4625 116.737H58.4506C59.0429 116.737 59.5224 117.216 59.5224 117.809C59.5224 118.401 59.0429 118.881 58.4506 118.881Z" fill="#1A2E35"/>
<path d="M76.8838 124.466H25.4625C24.8701 124.466 24.3906 123.986 24.3906 123.394C24.3906 122.801 24.8701 122.322 25.4625 122.322H76.8838C77.4762 122.322 77.9557 122.801 77.9557 123.394C77.9557 123.986 77.4762 124.466 76.8838 124.466Z" fill="#1A2E35"/>
</g>
<g clip-path="url(#clip1_14_1686)">
<path d="M160.839 39.1426H21.2142C15.092 39.1426 10.1289 44.1057 10.1289 50.2279V127.148C10.1289 133.271 15.092 138.234 21.2142 138.234H160.839C166.961 138.234 171.924 133.271 171.924 127.148V50.2279C171.924 44.1057 166.961 39.1426 160.839 39.1426Z" fill="#6C50FD"/>
<path d="M160.839 39.1426H21.2142C15.092 39.1426 10.1289 44.1057 10.1289 50.2279V127.148C10.1289 133.271 15.092 138.234 21.2142 138.234H160.839C166.961 138.234 171.924 133.271 171.924 127.148V50.2279C171.924 44.1057 166.961 39.1426 160.839 39.1426Z" fill="url(#paint0_linear_14_1686)"/>
<path fill-rule="evenodd" clip-rule="evenodd" d="M21.2155 39.1426H160.84C166.962 39.1426 171.925 44.1057 171.925 50.2279V127.148C171.925 131.37 169.565 135.041 166.092 136.913C167.011 135.298 167.536 133.43 167.536 131.439V54.5181C167.536 48.3958 162.573 43.4327 156.451 43.4327H16.8259C14.9258 43.4327 13.1373 43.9108 11.5742 44.7532C13.4811 41.4024 17.0844 39.1426 21.2155 39.1426Z" fill="white"/>
<path d="M160.852 139.362H21.2136C14.4863 139.362 9 133.89 9 127.148V50.2136C9 43.4722 14.4722 38 21.2136 38H160.852C167.594 38 173.066 43.4722 173.066 50.2136V127.148C173.066 133.89 167.594 139.362 160.852 139.362ZM21.2136 40.2707C15.7274 40.2707 11.2707 44.7274 11.2707 50.2136V127.148C11.2707 132.634 15.7274 137.091 21.2136 137.091H160.852C166.339 137.091 170.795 132.634 170.795 127.148V50.2136C170.795 44.7274 166.339 40.2707 160.852 40.2707H21.2136Z" fill="#111119"/>
<path d="M157.271 84.7107H128.049V55.4741H157.271V84.6966V84.7107ZM130.319 82.44H155.001V57.7448H130.319V82.44Z" fill="white"/>
<path d="M138.386 56.6167H136.242V83.5685H138.386V56.6167Z" fill="white"/>
<path d="M149.076 56.6167H146.933V83.5685H149.076V56.6167Z" fill="white"/>
<path d="M156.128 63.6685H129.176V65.8122H156.128V63.6685Z" fill="white"/>
<path d="M156.128 74.373H129.176V76.5168H156.128V74.373Z" fill="white"/>
<path d="M53.765 72.8632C55.3265 65.2561 50.4256 57.8234 42.8184 56.2618C35.2113 54.7003 27.7786 59.6013 26.217 67.2084C24.6555 74.8156 29.5565 82.2483 37.1636 83.8098C44.7708 85.3713 52.2035 80.4704 53.765 72.8632Z" fill="white"/>
<path d="M53.2277 57.2414C60.2939 58.6919 64.8463 65.596 63.3958 72.6621C61.9453 79.7283 55.0412 84.2807 47.9751 82.8302C40.9089 81.3798 36.3565 74.4757 37.807 67.4095C39.2574 60.3434 46.1615 55.7909 53.2277 57.2414Z" stroke="#111119" stroke-width="2"/>
<path d="M34.429 102.89H27.476C26.5874 102.89 25.8682 102.171 25.8682 101.283C25.8682 100.394 26.5874 99.6748 27.476 99.6748H34.429C35.3175 99.6748 36.0368 100.394 36.0368 101.283C36.0368 102.171 35.3175 102.89 34.429 102.89Z" fill="white"/>
<path d="M136.426 102.89H123.676C122.788 102.89 122.069 102.171 122.069 101.282C122.069 100.394 122.788 99.6743 123.676 99.6743H136.426C137.314 99.6743 138.034 100.394 138.034 101.282C138.034 102.171 137.314 102.89 136.426 102.89ZM110.927 102.89H98.1773C97.2888 102.89 96.5695 102.171 96.5695 101.282C96.5695 100.394 97.2888 99.6743 98.1773 99.6743H110.927C111.815 99.6743 112.535 100.394 112.535 101.282C112.535 102.171 111.815 102.89 110.927 102.89ZM85.4278 102.89H72.6782C71.7897 102.89 71.0704 102.171 71.0704 101.282C71.0704 100.394 71.7897 99.6743 72.6782 99.6743H85.4278C86.3163 99.6743 87.0356 100.394 87.0356 101.282C87.0356 102.171 86.3163 102.89 85.4278 102.89ZM59.9286 102.89H47.1791C46.2906 102.89 45.5713 102.171 45.5713 101.282C45.5713 100.394 46.2906 99.6743 47.1791 99.6743H59.9286C60.8172 99.6743 61.5364 100.394 61.5364 101.282C61.5364 102.171 60.8172 102.89 59.9286 102.89Z" fill="white"/>
<path d="M156.128 102.89H149.175C148.287 102.89 147.567 102.171 147.567 101.282C147.567 100.394 148.287 99.6743 149.175 99.6743H156.128C157.017 99.6743 157.736 100.394 157.736 101.282C157.736 102.171 157.017 102.89 156.128 102.89Z" fill="white"/>
<path d="M60.4506 116.881H27.4625C26.8701 116.881 26.3906 116.401 26.3906 115.809C26.3906 115.216 26.8701 114.737 27.4625 114.737H60.4506C61.0429 114.737 61.5224 115.216 61.5224 115.809C61.5224 116.401 61.0429 116.881 60.4506 116.881Z" fill="white"/>
<path d="M78.8838 122.466H27.4625C26.8701 122.466 26.3906 121.986 26.3906 121.394C26.3906 120.801 26.8701 120.322 27.4625 120.322H78.8838C79.4762 120.322 79.9557 120.801 79.9557 121.394C79.9557 121.986 79.4762 122.466 78.8838 122.466Z" fill="white"/>
</g>
<defs>
<linearGradient id="paint0_linear_14_1686" x1="-42.4995" y1="43.5002" x2="-1.89368" y2="204.293" gradientUnits="userSpaceOnUse">
<stop stop-color="#02000F"/>
<stop offset="0.67" stop-color="#8A63F2"/>
<stop offset="0.9999" stop-color="#F79AFF"/>
</linearGradient>
<clipPath id="clip0_14_1686">
<rect width="164.066" height="101.362" fill="white" transform="translate(7 40)"/>
</clipPath>
<clipPath id="clip1_14_1686">
<rect width="164.066" height="101.362" fill="white" transform="translate(9 38)"/>
</clipPath>
</defs>
</svg>
