<svg width="158" height="158" viewBox="0 0 158 158" fill="none" xmlns="http://www.w3.org/2000/svg">
<path d="M71.7869 68.0361C71.901 68.2176 71.9196 68.4084 72.043 68.6854C72.1571 68.8669 72.2711 69.0484 72.3852 69.2299C72.6133 69.593 72.8414 69.956 73.165 70.3097C73.8121 71.0172 74.7871 70.1513 74.3309 69.4252C74.1028 69.0622 73.8746 68.6991 73.5511 68.3454C73.437 68.1639 73.323 67.9824 73.1135 67.8102C73.0088 67.7241 72.7993 67.5519 72.6945 67.4658C72.3617 67.0166 71.4354 67.3961 71.7869 68.0361Z" fill="url(#paint0_linear_30_531)"/>
<path d="M76.2734 66.6346C76.5202 67.1885 76.8531 67.6376 77.1859 68.0868C77.6142 68.5266 78.4543 68.2519 78.3891 67.584C78.3332 67.0114 78.1819 66.4482 77.9444 65.9898C77.6977 65.4359 77.2787 65.0915 76.9458 64.6423C76.613 64.1932 75.7728 64.4679 75.9335 65.1265C75.9708 65.5082 76.0267 66.0807 76.2734 66.6346Z" fill="url(#paint1_linear_30_531)"/>
<path d="M74.5499 73.642C74.9316 73.6048 75.3412 73.8538 75.7229 73.8165C76.1046 73.7792 76.5817 73.7326 76.9541 73.5999C77.6988 73.3345 78.4342 72.9737 79.0556 72.4314C79.6769 71.889 80.1935 71.2606 80.5006 70.4599C80.8171 69.7547 81.2778 68.5537 80.7354 67.9324C80.4119 67.5787 79.9255 67.5298 79.5624 67.758C79.0272 68.1956 79.1017 68.9589 78.8714 69.5594C78.6317 70.0645 78.2966 70.5789 77.8568 71.0071C77.417 71.4354 76.9678 71.7683 76.414 72.015C76.137 72.1384 75.7647 72.2711 75.4784 72.2991C75.2875 72.3177 74.9245 72.5458 74.7244 72.469C73.8376 72.2667 73.6818 73.6305 74.5499 73.642Z" fill="url(#paint2_linear_30_531)"/>
<path d="M123.088 53.7779C121.014 55.2327 119.055 56.869 117.086 58.41C116.101 59.1804 115.222 60.037 114.237 60.8074C113.798 61.2357 113.262 61.6733 112.822 62.1016C112.555 62.3204 112.287 62.5392 112.124 62.8441C112.048 63.0443 111.961 63.149 111.885 63.3492L111.531 63.6727C110.9 64.1196 111.671 65.104 112.292 64.5617L112.646 64.2381C112.837 64.2195 113.028 64.2008 113.218 64.1822C113.495 64.0588 113.763 63.84 114.04 63.7167C114.489 63.3838 115.034 63.0416 115.483 62.7087C116.467 61.9383 117.547 61.1585 118.522 60.2926C120.481 58.6563 122.45 57.1154 124.305 55.3929C125.375 54.5177 124.167 52.9981 123.088 53.7779Z" fill="url(#paint3_linear_30_531)"/>
<path d="M123.133 42.4062C121.25 43.8424 119.567 45.3554 117.913 47.1546C116.344 48.8491 114.785 50.639 113.731 52.6686C113.405 53.2784 114.339 53.9579 114.874 53.5203C116.461 52.0166 117.925 50.236 119.503 48.637C121.08 47.0379 122.753 45.4295 124.331 43.8305C125.02 42.9925 124.031 41.7405 123.133 42.4062Z" fill="url(#paint4_linear_30_531)"/>
<path d="M110.666 74.5459C110.561 74.4598 110.456 74.3737 110.351 74.2876C110.247 74.2015 109.96 74.2295 109.951 74.134C109.742 73.9618 109.551 73.9805 109.465 74.0852C109.246 73.8176 108.95 73.7501 108.655 73.6827C105.201 73.8273 101.81 75.6035 99.1245 77.696C98.1402 78.4665 97.2605 79.3231 96.4856 80.2657C96.4763 80.1703 96.3622 79.9888 96.2575 79.9027C96.8602 79.1695 97.4629 78.4363 98.1703 77.7892C99.2222 76.7232 100.397 75.9341 101.668 75.1357C101.763 75.1264 101.763 75.1264 101.859 75.117C102.231 74.9843 102.594 74.7562 102.957 74.5281C103.32 74.3 103.579 73.9858 103.637 73.5948C104.209 73.5388 104.831 72.9965 104.461 72.1657C103.702 70.3132 102.761 68.5747 101.811 66.7409C101.811 66.7409 101.907 66.7316 101.898 66.6362C102.328 66.1124 102.635 65.3118 102.952 64.6066C103.268 63.9014 103.575 63.1007 103.787 62.3094C104.315 60.8129 104.843 59.3163 105.276 57.8291C106.132 54.7592 106.988 51.6893 107.358 48.5706C107.416 48.1796 107.197 47.912 106.988 47.7398C106.846 47.272 106.599 46.7181 106.266 46.269C105.154 44.74 102.789 44.2004 101.022 44.8545C100.555 44.9965 100.001 45.2433 99.7612 45.7484C99.5308 46.3488 99.3098 47.0447 99.1749 47.6359C98.8096 48.8276 98.4443 50.0192 98.0791 51.2108C97.7231 52.4979 97.2717 53.7943 96.9158 55.0814C96.7622 55.4817 96.7134 55.9681 96.5598 56.3684C94.7744 52.8822 92.9796 49.3006 91.1942 45.8144C90.5959 44.6206 89.8929 43.3406 89.2947 42.1467C88.6964 40.9529 88.0795 39.5682 87.2043 38.4977C87.0903 38.3161 86.7947 38.2487 86.6131 38.3627C86.5759 37.9811 86.1662 37.7321 85.7939 37.8648C85.5751 37.5971 85.1747 37.4436 84.707 37.5856C82.3099 38.6867 79.9408 40.0741 77.6671 41.4521C77.6019 40.7842 77.6227 40.0115 77.5575 39.3435C77.4643 38.3893 77.6387 37.2163 77.2686 36.3855C76.519 34.6284 74.3337 34.9382 72.9676 35.7459C71.5154 36.6584 70.6242 38.3831 70.3056 40.0518C70.1218 41.1294 70.1289 42.1883 70.2314 43.238C70.3153 44.0967 70.4085 45.051 70.7786 45.8818C69.6034 46.6709 68.3327 47.4693 67.1575 48.2584C67.0341 47.9815 67.0062 47.6952 66.8828 47.4182C66.8269 46.8457 66.7616 46.1778 66.7057 45.6053C66.6125 44.6511 66.5287 43.7923 66.1492 42.866C65.3042 41.1183 63.4748 40.141 61.6409 41.0907C59.7977 41.9451 58.9531 44.1468 58.958 46.1693C58.9651 47.2283 59.2678 48.3547 59.6566 49.3763C59.9592 50.5027 60.1665 51.6385 60.3831 52.8696C60.3924 52.965 60.5065 53.1466 60.5158 53.242C58.9961 54.45 57.5626 55.5534 56.1477 56.8475C54.9676 55.6142 54.7812 53.7057 54.2411 52.1209C53.701 50.536 52.6931 49.0931 50.9196 48.6884C49.3463 48.3604 47.9895 49.2635 47.5568 50.7508C47.0473 52.4381 47.3872 53.9462 47.9274 55.5311C48.2207 56.5621 48.6095 57.5838 49.0937 58.5961C49.3404 59.15 49.5779 59.6085 49.9107 60.0576C50.2436 60.5067 50.6626 60.8511 50.9954 61.3003C49.5805 62.5944 48.261 63.8793 46.8555 65.2689C45.5453 66.6491 43.9489 68.0574 42.8576 69.7052C42.6854 69.9147 42.704 70.1056 42.818 70.2871C42.7413 70.4872 42.8646 70.7642 43.0741 70.9364C43.5885 71.2715 44.161 71.2156 44.7242 71.0642C48.3298 75.4323 51.6677 80.0191 54.6519 84.9296C54.773 86.17 54.7895 87.3244 54.8152 88.5742C54.8409 89.8239 54.876 91.1692 54.8156 92.5237C54.7459 93.7828 54.5808 95.0512 54.4157 96.3196C54.3762 96.9015 54.3367 97.4833 54.1064 98.0838C53.8947 98.8751 53.7597 99.4663 53.8343 100.23C53.4038 100.753 53.2875 101.535 53.3527 102.203C53.3412 103.071 53.4251 103.93 53.6998 104.77C54.1538 106.46 55.0849 108.103 56.2743 109.432C57.1495 110.502 58.1969 111.363 59.3304 112.12C59.235 112.129 59.1489 112.234 59.0535 112.243C58.1645 113.004 57.3896 113.947 57.4154 115.196C57.434 115.387 57.4433 115.483 57.548 115.569C57.2409 116.37 57.0292 117.161 56.7221 117.961C56.1172 119.658 55.4261 121.46 54.8305 123.252C54.2349 125.044 53.5346 126.75 52.9389 128.542C52.3433 130.334 51.6523 132.136 51.2568 134.005C51.208 134.491 51.5502 135.035 52.0366 135.084C52.5324 135.229 52.9908 134.991 53.2305 134.486C54.1217 132.761 54.7173 130.969 55.3129 129.177C55.9085 127.385 56.5135 125.688 57.1091 123.896C57.7047 122.104 58.3096 120.407 58.9052 118.615C59.5008 116.823 60.1919 115.022 60.5873 113.153C60.578 113.057 60.5687 112.962 60.5687 112.962C62.1979 113.862 63.9039 114.563 65.6774 114.968C66.4688 115.179 66.7386 113.997 66.2149 113.566C63.6151 111.605 60.6033 110.358 58.2711 108.177C57.205 107.125 56.3112 105.864 55.685 104.384C55.4289 103.734 55.2682 103.076 55.1937 102.313C55.1471 101.835 55.1959 101.349 55.1493 100.872C55.4356 100.844 55.7032 100.625 55.7893 100.52C56.3152 99.9874 56.3361 99.2147 56.3663 98.5374C56.3964 97.8601 56.5314 97.269 56.657 96.5824C56.9082 95.2092 56.8731 93.864 56.8381 92.5188C56.803 91.1736 56.768 89.8284 56.6468 88.5879C56.6375 88.4925 56.6189 88.3017 56.6095 88.2063C58.4718 91.4923 60.2479 94.8831 61.8332 98.2925C63.067 101.062 64.2147 103.936 65.3624 106.81C65.6278 107.555 66.5913 107.557 67.1172 107.024C70.5218 103.416 74.1544 100.172 77.7778 96.8315C77.5381 97.3366 77.2984 97.8416 77.1542 98.3374C76.5306 99.8432 78.9419 100.86 79.4607 99.2681C80.1704 97.6575 81.0895 96.2191 82.1134 94.8668C82.9931 94.0102 83.8727 93.1536 84.8664 92.4786C86.0417 91.6895 87.417 90.9772 88.8111 90.4557C90.2051 89.9342 91.6178 89.6036 93.1165 89.1682C93.4889 89.0355 93.5564 88.7399 93.5284 88.4537C93.7192 88.435 93.9101 88.4164 93.9869 88.2162C94.1591 88.0068 94.2358 87.8066 94.4081 87.5971C94.5803 87.3876 94.7431 87.0827 94.6198 86.8058C94.8967 86.6824 95.155 86.3682 95.2131 85.9772C95.2899 85.777 95.1759 85.5955 94.9757 85.5187C95.1386 85.2138 95.3876 84.8042 95.5505 84.4993C95.9716 83.8801 96.4882 83.2517 96.9094 82.6326C97.9426 81.3757 99.1853 80.291 100.447 79.3972C103.055 77.5048 106.034 76.4432 109.109 75.3723C109.204 75.363 109.29 75.2582 109.376 75.1535C109.709 75.6026 110.137 76.0424 110.279 76.5102C110.517 76.9687 110.573 77.5412 110.429 78.037C108.727 79.3591 107.122 80.6719 105.639 82.2616C104.062 83.8607 102.588 85.5458 101.316 87.3078C101.239 87.5079 101.153 87.6127 101.171 87.8035L101.085 87.9083C100.99 87.9176 100.99 87.9176 100.904 88.0223C99.7285 88.8114 98.828 90.4407 98.9678 91.872C97.8835 94.5788 96.6084 97.3043 94.9144 99.6853C92.713 102.79 90.0927 105.551 86.9394 107.785C86.1365 108.442 85.2289 109.012 84.3213 109.582C83.8628 109.82 83.4137 110.153 82.9552 110.39C82.4107 110.732 81.752 110.893 81.3309 111.512C81.0726 111.826 81.0237 112.313 81.061 112.694C80.7654 112.627 80.3838 112.664 80.3163 112.96C80.2488 113.255 80.0859 113.56 80.0278 113.951C79.9697 114.342 79.9115 114.733 79.8441 115.029C79.7278 115.811 79.6115 116.593 79.5906 117.366C79.4535 118.92 79.3163 120.475 79.1699 121.934C78.8956 125.044 78.6119 128.058 78.4331 131.158C78.2866 132.617 80.6233 132.87 80.6743 131.42C80.9486 128.311 81.0414 125.316 81.2203 122.216C81.2713 120.766 81.4085 119.211 81.4595 117.761C81.4804 116.988 81.5013 116.216 81.5128 115.348C81.4755 114.966 81.5337 114.575 81.4964 114.193C81.4871 114.098 81.4777 114.002 81.4684 113.907C81.4777 114.002 81.5732 113.993 81.5825 114.088C82.0969 114.424 82.7741 114.454 83.3094 114.016C83.577 113.797 83.6445 113.502 83.6165 113.215C84.075 112.978 84.5241 112.645 84.8011 112.522C85.7087 111.951 86.7117 111.372 87.5146 110.715C89.225 109.489 90.726 108.09 92.2084 106.5C95.0009 103.53 97.2604 100.034 98.9194 96.3079C99.3987 95.2978 99.7733 94.2016 100.148 93.1054C100.225 92.9052 100.292 92.6096 100.369 92.4094C100.455 92.3047 100.541 92.2 100.618 91.9998C100.992 90.9036 101.481 89.9889 102.065 89.0649C102.428 88.8368 102.677 88.4271 102.831 88.0268C102.917 87.922 102.898 87.7312 102.889 87.6358C103.836 86.4836 104.688 85.3408 105.74 84.2748C106.868 83.0086 108.197 81.8191 109.535 80.7251C110.156 80.1828 110.883 79.7266 111.504 79.1842C112.135 78.7373 112.155 77.9646 112.081 77.2013C112.006 76.4379 111.76 75.884 111.408 75.244C111.103 75.0811 110.884 74.8135 110.666 74.5459ZM93.9212 83.5988C93.5187 84.4087 93.0114 85.1326 92.809 86.0193C92.8183 86.1148 92.8183 86.1147 92.8276 86.2102C92.2551 86.2661 91.6826 86.322 91.2055 86.3686C90.4514 86.5386 89.6974 86.7086 89.0388 86.8692C89.1249 86.7645 89.3064 86.6504 89.3925 86.5457C91.2658 85.0141 93.1392 83.4825 95.0126 81.9509C94.5914 82.57 94.2563 83.0844 93.9212 83.5988ZM98.3728 56.1914C98.7568 55.1905 99.0452 54.1991 99.4198 53.1029C100.092 51.1106 100.66 49.0322 101.332 47.0399C102.259 46.6604 103.336 46.8442 104.002 47.7425C104.772 48.7268 104.616 50.0907 104.146 51.1962C104.002 51.692 104.24 52.1504 104.545 52.3133C104.14 54.0868 103.735 55.8603 103.235 57.6431C102.802 59.1303 102.36 60.5221 101.918 61.9139C101.697 62.6099 101.485 63.4012 101.169 64.1064C101.015 64.5067 100.871 65.0025 100.717 65.4028C99.6443 63.292 98.5712 61.1812 97.4981 59.0704C97.4888 58.975 97.384 58.8889 97.3747 58.7934C97.3654 58.698 97.4608 58.6887 97.4515 58.5933C97.5376 58.4886 97.5283 58.3931 97.6144 58.2884C97.605 58.193 97.6911 58.0882 97.6911 58.0882C98.0076 57.383 98.2379 56.7825 98.3728 56.1914ZM71.6672 41.1711C71.7275 39.8166 72.265 38.4155 73.2401 37.5496C73.6799 37.1213 74.3199 36.7698 74.9017 36.8093C75.6651 36.7348 75.9025 37.1932 76.0725 37.9473C76.2216 39.474 76.2753 41.01 76.3197 42.4507C76.0428 42.5741 75.7751 42.7929 75.4982 42.9162C74.3136 43.6099 73.1384 44.399 72.0493 45.0834C72.0493 45.0834 72.0493 45.0834 71.9539 45.0927C71.9166 44.711 71.7839 44.3386 71.7373 43.8615C71.6441 42.9073 71.5602 42.0485 71.6672 41.1711ZM62.1229 43.0666C62.572 42.7337 63.2307 42.5731 63.7357 42.8128C64.2501 43.1478 64.5062 43.7971 64.6575 44.3603C64.9975 45.8684 64.5346 48.0329 65.4377 49.3897C64.2625 50.1788 63.0966 51.0633 62.0261 51.9385C62.1632 50.3838 61.6138 48.7035 61.3693 47.1861C61.048 45.8689 60.7755 44.0652 62.1229 43.0666ZM49.2464 50.2968C49.8677 49.7544 50.8499 49.9475 51.4784 50.4641C52.2022 50.9714 52.591 51.993 52.8657 52.8332C53.4151 54.5135 53.6015 56.4219 54.8003 57.8461C53.7298 58.7213 52.764 59.6826 51.7029 60.6532C51.4747 60.2902 51.4282 59.8131 51.2955 59.4407C51.058 58.9822 50.8206 58.5238 50.5738 57.9699C50.0896 56.9575 49.7008 55.9359 49.3121 54.9142C48.9907 53.597 48.0991 51.3721 49.2464 50.2968ZM47.3281 67.1493C48.5615 65.9692 49.7949 64.7891 51.0376 63.7044C53.5136 61.4397 56.1899 59.2517 58.7707 57.073C64.037 52.8017 69.6269 48.8842 75.4356 45.2343C77.0693 44.2077 78.7123 43.2766 80.3553 42.3455C81.7307 41.6332 83.1061 40.9209 84.3767 40.1225C84.3 40.3226 84.3093 40.418 84.2325 40.6182C83.9347 41.5143 83.7416 42.4964 83.4438 43.3925C82.9623 45.3661 82.376 47.2537 81.9898 49.218C81.0942 52.8697 79.9984 56.4447 79.3983 60.1638C78.0926 59.6171 76.5286 59.3845 75.1253 59.8106C73.7219 60.2366 72.4792 61.3213 71.837 62.6363C71.7416 62.6456 71.5508 62.6643 71.4647 62.769C70.0125 63.6815 68.9793 64.9384 68.2603 66.4535C67.3456 65.9649 65.9911 65.9045 64.9228 65.8162C63.8545 65.7279 62.6815 65.5535 61.5272 65.5699C59.3045 65.498 57.0051 65.6262 54.8104 65.8406C52.6251 66.1503 50.3629 66.6603 48.3103 67.3424C47.6517 67.503 47.0978 67.7498 46.4392 67.9105C46.7929 67.5869 47.0605 67.3681 47.3281 67.1493ZM71.6138 64.2957C71.8117 65.336 73.5572 65.4546 73.5408 64.3002C73.6105 63.0411 74.5856 62.1752 75.7027 61.7771C77.0106 61.3604 78.3931 61.707 79.4312 62.4726C81.917 64.2527 83.216 67.6901 82.7416 70.7227C82.2578 73.6599 79.8771 75.9153 76.9377 76.3951C74.0938 76.8655 71.2356 75.218 69.9343 72.7442C68.5958 69.8887 69.3099 66.351 71.6138 64.2957ZM66.3978 104.59C64.6914 99.9399 62.6126 95.4227 60.1707 91.1337C57.5868 86.3769 54.6306 81.7527 51.3206 77.4521C49.5609 75.2157 47.7058 72.9886 45.86 70.857L45.9554 70.8476C46.8909 70.5636 47.9126 70.1748 48.8575 69.9862C50.9195 69.3995 53.1048 69.0897 55.1948 68.7893C57.294 68.5842 59.3072 68.484 61.339 68.5745C62.4072 68.6628 63.4662 68.6557 64.5438 68.8395C65.0302 68.8883 65.612 68.9278 66.1078 69.0721C66.5942 69.1209 67.0899 69.2651 67.567 69.2185C67.3926 70.3915 67.5044 71.5366 67.9025 72.6537C69.02 76.2051 72.6394 78.7415 76.3887 78.6643C80.2335 78.5778 83.7219 75.8288 84.7037 72.0724C85.6179 68.6115 84.3584 64.5923 81.8935 62.0394C82.0657 61.83 82.1424 61.6298 82.2099 61.3342C83.0869 57.4916 83.4775 53.6003 84.3545 49.7577C84.7499 47.8888 85.2315 45.9152 85.627 44.0463C85.82 43.0641 86.1178 42.168 86.3109 41.1859C86.3877 40.9857 86.4645 40.7855 86.4365 40.4993C86.7019 41.244 87.0534 41.884 87.4049 42.524C87.8984 43.6317 88.3919 44.7395 88.9809 45.838C90.0633 48.0442 91.1458 50.2504 92.2282 52.4566C94.3931 56.869 96.4626 61.2908 98.6182 65.6078C99.8147 67.9955 100.82 70.4019 102.103 72.6849C101.912 72.7036 101.826 72.8083 101.635 72.827C101.263 72.9596 100.9 73.1878 100.537 73.4159C100.355 73.5299 100.192 73.8348 100.211 74.0257C99.0358 74.8148 97.8792 75.7947 96.9228 76.8514C95.7848 78.0222 94.6562 79.2884 93.9279 80.7082C90.1346 83.2943 86.5694 86.2434 83.0042 89.1926C79.0853 92.4652 75.2804 95.9194 71.5803 99.4597C69.821 101.173 68.1571 102.877 66.3978 104.59Z" fill="url(#paint5_linear_30_531)"/>
<path d="M42.4412 47.6863C39.867 46.9744 37.2463 45.7854 35.333 43.9494C34.8093 43.5189 34.0158 44.2707 34.5488 44.7966C35.6148 45.8484 36.6809 46.9003 37.9098 47.6473C39.2435 48.4803 40.5492 49.0271 42.0364 49.4598C42.9231 49.6622 43.3372 47.9841 42.4412 47.6863Z" fill="url(#paint6_linear_30_531)"/>
<path d="M39.4387 42.5851C39.9997 43.3973 40.7515 44.1908 41.494 44.8889C42.2365 45.5871 42.9883 46.3806 43.7308 47.0787C44.4733 47.7769 45.6019 46.5107 44.9549 45.8032C44.2124 45.1051 43.4699 44.407 42.7274 43.7088C41.9849 43.0107 41.1376 42.2265 40.3183 41.7285C39.7085 41.4028 39.0872 41.9451 39.4387 42.5851Z" fill="url(#paint7_linear_30_531)"/>
<path d="M83.6318 32.489C84.0228 32.5472 84.5674 32.205 84.5208 31.7279C84.6393 29.9824 84.5577 28.16 84.5808 26.4238C84.5923 25.5557 84.6039 24.6876 84.6154 23.8195C84.6269 22.9514 84.7246 21.9786 84.4499 21.1384C84.3078 20.6706 83.5072 20.3635 83.2769 20.964C82.9697 21.7646 83.0629 22.7189 82.956 23.5963C82.9444 24.4644 82.9329 25.3325 82.8259 26.2099C82.8028 27.9461 82.6936 29.7871 82.6706 31.5233C82.9173 32.0772 83.1454 32.4402 83.6318 32.489Z" fill="url(#paint8_linear_30_531)"/>
<path d="M89.1285 31.5671C89.3052 29.4306 89.5772 27.2847 90.1356 25.1109C90.2891 24.7106 90.1471 24.2428 89.6514 24.0986C89.251 23.945 88.6878 24.0963 88.639 24.5828C88.09 26.852 87.6551 29.3028 87.9741 31.5835C88.0301 32.1561 89.089 32.149 89.1285 31.5671Z" fill="url(#paint9_linear_30_531)"/>
<path d="M71.7869 68.0361C71.901 68.2176 71.9196 68.4084 72.043 68.6854C72.1571 68.8669 72.2711 69.0484 72.3852 69.2299C72.6133 69.593 72.8414 69.956 73.165 70.3097C73.8121 71.0172 74.7871 70.1513 74.3309 69.4252C74.1028 69.0622 73.8746 68.6991 73.5511 68.3454C73.437 68.1639 73.323 67.9824 73.1135 67.8102C73.0088 67.7241 72.7993 67.5519 72.6945 67.4658C72.3617 67.0166 71.4354 67.3961 71.7869 68.0361Z" stroke="url(#paint10_linear_30_531)" stroke-width="0.3"/>
<path d="M76.2734 66.6346C76.5202 67.1885 76.8531 67.6376 77.1859 68.0868C77.6142 68.5266 78.4543 68.2519 78.3891 67.584C78.3332 67.0114 78.1819 66.4482 77.9444 65.9898C77.6977 65.4359 77.2787 65.0915 76.9458 64.6423C76.613 64.1932 75.7728 64.4679 75.9335 65.1265C75.9708 65.5082 76.0267 66.0807 76.2734 66.6346Z" stroke="url(#paint11_linear_30_531)" stroke-width="0.3"/>
<path d="M74.5499 73.642C74.9316 73.6048 75.3412 73.8538 75.7229 73.8165C76.1046 73.7792 76.5817 73.7326 76.9541 73.5999C77.6988 73.3345 78.4342 72.9737 79.0556 72.4314C79.6769 71.889 80.1935 71.2606 80.5006 70.4599C80.8171 69.7547 81.2778 68.5537 80.7354 67.9324C80.4119 67.5787 79.9255 67.5298 79.5624 67.758C79.0272 68.1956 79.1017 68.9589 78.8714 69.5594C78.6317 70.0645 78.2966 70.5789 77.8568 71.0071C77.417 71.4354 76.9678 71.7683 76.414 72.015C76.137 72.1384 75.7647 72.2711 75.4784 72.2991C75.2875 72.3177 74.9245 72.5458 74.7244 72.469C73.8376 72.2667 73.6818 73.6305 74.5499 73.642Z" stroke="url(#paint12_linear_30_531)" stroke-width="0.3"/>
<path d="M123.088 53.7779C121.014 55.2327 119.055 56.869 117.086 58.41C116.101 59.1804 115.222 60.037 114.237 60.8074C113.798 61.2357 113.262 61.6733 112.822 62.1016C112.555 62.3204 112.287 62.5392 112.124 62.8441C112.048 63.0443 111.961 63.149 111.885 63.3492L111.531 63.6727C110.9 64.1196 111.671 65.104 112.292 64.5617L112.646 64.2381C112.837 64.2195 113.028 64.2008 113.218 64.1822C113.495 64.0588 113.763 63.84 114.04 63.7167C114.489 63.3838 115.034 63.0416 115.483 62.7087C116.467 61.9383 117.547 61.1585 118.522 60.2926C120.481 58.6563 122.45 57.1154 124.305 55.3929C125.375 54.5177 124.167 52.9981 123.088 53.7779Z" stroke="url(#paint13_linear_30_531)" stroke-width="0.3"/>
<path d="M123.133 42.4062C121.25 43.8424 119.567 45.3554 117.913 47.1546C116.344 48.8491 114.785 50.639 113.731 52.6686C113.405 53.2784 114.339 53.9579 114.874 53.5203C116.461 52.0166 117.925 50.236 119.503 48.637C121.08 47.0379 122.753 45.4295 124.331 43.8305C125.02 42.9925 124.031 41.7405 123.133 42.4062Z" stroke="url(#paint14_linear_30_531)" stroke-width="0.3"/>
<path d="M110.666 74.5459C110.561 74.4598 110.456 74.3737 110.351 74.2876C110.247 74.2015 109.96 74.2295 109.951 74.134C109.742 73.9618 109.551 73.9805 109.465 74.0852C109.246 73.8176 108.95 73.7501 108.655 73.6827C105.201 73.8273 101.81 75.6035 99.1245 77.696C98.1402 78.4665 97.2605 79.3231 96.4856 80.2657C96.4763 80.1703 96.3622 79.9888 96.2575 79.9027C96.8602 79.1695 97.4629 78.4363 98.1703 77.7892C99.2222 76.7232 100.397 75.9341 101.668 75.1357C101.763 75.1264 101.763 75.1264 101.859 75.117C102.231 74.9843 102.594 74.7562 102.957 74.5281C103.32 74.3 103.579 73.9858 103.637 73.5948C104.209 73.5388 104.831 72.9965 104.461 72.1657C103.702 70.3132 102.761 68.5747 101.811 66.7409C101.811 66.7409 101.907 66.7316 101.898 66.6362C102.328 66.1124 102.635 65.3118 102.952 64.6066C103.268 63.9014 103.575 63.1007 103.787 62.3094C104.315 60.8129 104.843 59.3163 105.276 57.8291C106.132 54.7592 106.988 51.6893 107.358 48.5706C107.416 48.1796 107.197 47.912 106.988 47.7398C106.846 47.272 106.599 46.7181 106.266 46.269C105.154 44.74 102.789 44.2004 101.022 44.8545C100.555 44.9965 100.001 45.2433 99.7612 45.7484C99.5308 46.3488 99.3098 47.0447 99.1749 47.6359C98.8096 48.8276 98.4443 50.0192 98.0791 51.2108C97.7231 52.4979 97.2717 53.7943 96.9158 55.0814C96.7622 55.4817 96.7134 55.9681 96.5598 56.3684C94.7744 52.8822 92.9796 49.3006 91.1942 45.8144C90.5959 44.6206 89.8929 43.3406 89.2947 42.1467C88.6964 40.9529 88.0795 39.5682 87.2043 38.4977C87.0903 38.3161 86.7947 38.2487 86.6131 38.3627C86.5759 37.9811 86.1662 37.7321 85.7939 37.8648C85.5751 37.5971 85.1747 37.4436 84.707 37.5856C82.3099 38.6867 79.9408 40.0741 77.6671 41.4521C77.6019 40.7842 77.6227 40.0115 77.5575 39.3435C77.4643 38.3893 77.6387 37.2163 77.2686 36.3855C76.519 34.6284 74.3337 34.9382 72.9676 35.7459C71.5154 36.6584 70.6242 38.3831 70.3056 40.0518C70.1218 41.1294 70.1289 42.1883 70.2314 43.238C70.3153 44.0967 70.4085 45.051 70.7786 45.8818C69.6034 46.6709 68.3327 47.4693 67.1575 48.2584C67.0341 47.9815 67.0062 47.6952 66.8828 47.4182C66.8269 46.8457 66.7616 46.1778 66.7057 45.6053C66.6125 44.6511 66.5287 43.7923 66.1492 42.866C65.3042 41.1183 63.4748 40.141 61.6409 41.0907C59.7977 41.9451 58.9531 44.1468 58.958 46.1693C58.9651 47.2283 59.2678 48.3547 59.6566 49.3763C59.9592 50.5027 60.1665 51.6385 60.3831 52.8696C60.3924 52.965 60.5065 53.1466 60.5158 53.242C58.9961 54.45 57.5626 55.5534 56.1477 56.8475C54.9676 55.6142 54.7812 53.7057 54.2411 52.1209C53.701 50.536 52.6931 49.0931 50.9196 48.6884C49.3463 48.3604 47.9895 49.2635 47.5568 50.7508C47.0473 52.4381 47.3872 53.9462 47.9274 55.5311C48.2207 56.5621 48.6095 57.5838 49.0937 58.5961C49.3404 59.15 49.5779 59.6085 49.9107 60.0576C50.2436 60.5067 50.6626 60.8511 50.9954 61.3003C49.5805 62.5944 48.261 63.8793 46.8555 65.2689C45.5453 66.6491 43.9489 68.0574 42.8576 69.7052C42.6854 69.9147 42.704 70.1056 42.818 70.2871C42.7413 70.4872 42.8646 70.7642 43.0741 70.9364C43.5885 71.2715 44.161 71.2156 44.7242 71.0642C48.3298 75.4323 51.6677 80.0191 54.6519 84.9296C54.773 86.17 54.7895 87.3244 54.8152 88.5742C54.8409 89.8239 54.876 91.1692 54.8156 92.5237C54.7459 93.7828 54.5808 95.0512 54.4157 96.3196C54.3762 96.9015 54.3367 97.4833 54.1064 98.0838C53.8947 98.8751 53.7597 99.4663 53.8343 100.23C53.4038 100.753 53.2875 101.535 53.3527 102.203C53.3412 103.071 53.4251 103.93 53.6998 104.77C54.1538 106.46 55.0849 108.103 56.2743 109.432C57.1495 110.502 58.1969 111.363 59.3304 112.12C59.235 112.129 59.1489 112.234 59.0535 112.243C58.1645 113.004 57.3896 113.947 57.4154 115.196C57.434 115.387 57.4433 115.483 57.548 115.569C57.2409 116.37 57.0292 117.161 56.7221 117.961C56.1172 119.658 55.4261 121.46 54.8305 123.252C54.2349 125.044 53.5346 126.75 52.9389 128.542C52.3433 130.334 51.6523 132.136 51.2568 134.005C51.208 134.491 51.5502 135.035 52.0366 135.084C52.5324 135.229 52.9908 134.991 53.2305 134.486C54.1217 132.761 54.7173 130.969 55.3129 129.177C55.9085 127.385 56.5135 125.688 57.1091 123.896C57.7047 122.104 58.3096 120.407 58.9052 118.615C59.5008 116.823 60.1919 115.022 60.5873 113.153C60.578 113.057 60.5687 112.962 60.5687 112.962C62.1979 113.862 63.9039 114.563 65.6774 114.968C66.4688 115.179 66.7386 113.997 66.2149 113.566C63.6151 111.605 60.6033 110.358 58.2711 108.177C57.205 107.125 56.3112 105.864 55.685 104.384C55.4289 103.734 55.2682 103.076 55.1937 102.313C55.1471 101.835 55.1959 101.349 55.1493 100.872C55.4356 100.844 55.7032 100.625 55.7893 100.52C56.3152 99.9874 56.3361 99.2147 56.3663 98.5374C56.3964 97.8601 56.5314 97.269 56.657 96.5824C56.9082 95.2092 56.8731 93.864 56.8381 92.5188C56.803 91.1736 56.768 89.8284 56.6468 88.5879C56.6375 88.4925 56.6189 88.3017 56.6095 88.2063C58.4718 91.4923 60.2479 94.8831 61.8332 98.2925C63.067 101.062 64.2147 103.936 65.3624 106.81C65.6278 107.555 66.5913 107.557 67.1172 107.024C70.5218 103.416 74.1544 100.172 77.7778 96.8315C77.5381 97.3366 77.2984 97.8416 77.1542 98.3374C76.5306 99.8432 78.9419 100.86 79.4607 99.2681C80.1704 97.6575 81.0895 96.2191 82.1134 94.8668C82.9931 94.0102 83.8727 93.1536 84.8664 92.4786C86.0417 91.6895 87.417 90.9772 88.8111 90.4557C90.2051 89.9342 91.6178 89.6036 93.1165 89.1682C93.4889 89.0355 93.5564 88.7399 93.5284 88.4537C93.7192 88.435 93.9101 88.4164 93.9869 88.2162C94.1591 88.0068 94.2358 87.8066 94.4081 87.5971C94.5803 87.3876 94.7431 87.0827 94.6198 86.8058C94.8967 86.6824 95.155 86.3682 95.2131 85.9772C95.2899 85.777 95.1759 85.5955 94.9757 85.5187C95.1386 85.2138 95.3876 84.8042 95.5505 84.4993C95.9716 83.8801 96.4882 83.2517 96.9094 82.6326C97.9426 81.3757 99.1853 80.291 100.447 79.3972C103.055 77.5048 106.034 76.4432 109.109 75.3723C109.204 75.363 109.29 75.2582 109.376 75.1535C109.709 75.6026 110.137 76.0424 110.279 76.5102C110.517 76.9687 110.573 77.5412 110.429 78.037C108.727 79.3591 107.122 80.6719 105.639 82.2616C104.062 83.8607 102.588 85.5458 101.316 87.3078C101.239 87.5079 101.153 87.6127 101.171 87.8035L101.085 87.9083C100.99 87.9176 100.99 87.9176 100.904 88.0223C99.7285 88.8114 98.828 90.4407 98.9678 91.872C97.8835 94.5788 96.6084 97.3043 94.9144 99.6853C92.713 102.79 90.0927 105.551 86.9394 107.785C86.1365 108.442 85.2289 109.012 84.3213 109.582C83.8628 109.82 83.4137 110.153 82.9552 110.39C82.4107 110.732 81.752 110.893 81.3309 111.512C81.0726 111.826 81.0237 112.313 81.061 112.694C80.7654 112.627 80.3838 112.664 80.3163 112.96C80.2488 113.255 80.0859 113.56 80.0278 113.951C79.9697 114.342 79.9115 114.733 79.8441 115.029C79.7278 115.811 79.6115 116.593 79.5906 117.366C79.4535 118.92 79.3163 120.475 79.1699 121.934C78.8956 125.044 78.6119 128.058 78.4331 131.158C78.2866 132.617 80.6233 132.87 80.6743 131.42C80.9486 128.311 81.0414 125.316 81.2203 122.216C81.2713 120.766 81.4085 119.211 81.4595 117.761C81.4804 116.988 81.5013 116.216 81.5128 115.348C81.4755 114.966 81.5337 114.575 81.4964 114.193C81.4871 114.098 81.4777 114.002 81.4684 113.907C81.4777 114.002 81.5732 113.993 81.5825 114.088C82.0969 114.424 82.7741 114.454 83.3094 114.016C83.577 113.797 83.6445 113.502 83.6165 113.215C84.075 112.978 84.5241 112.645 84.8011 112.522C85.7087 111.951 86.7117 111.372 87.5146 110.715C89.225 109.489 90.726 108.09 92.2084 106.5C95.0009 103.53 97.2604 100.034 98.9194 96.3079C99.3987 95.2978 99.7733 94.2016 100.148 93.1054C100.225 92.9052 100.292 92.6096 100.369 92.4094C100.455 92.3047 100.541 92.2 100.618 91.9998C100.992 90.9036 101.481 89.9889 102.065 89.0649C102.428 88.8368 102.677 88.4271 102.831 88.0268C102.917 87.922 102.898 87.7312 102.889 87.6358C103.836 86.4836 104.688 85.3408 105.74 84.2748C106.868 83.0086 108.197 81.8191 109.535 80.7251C110.156 80.1828 110.883 79.7266 111.504 79.1842C112.135 78.7373 112.155 77.9646 112.081 77.2013C112.006 76.4379 111.76 75.884 111.408 75.244C111.103 75.0811 110.884 74.8135 110.666 74.5459ZM93.9212 83.5988C93.5187 84.4087 93.0114 85.1326 92.809 86.0193C92.8183 86.1148 92.8183 86.1147 92.8276 86.2102C92.2551 86.2661 91.6826 86.322 91.2055 86.3686C90.4514 86.5386 89.6974 86.7086 89.0388 86.8692C89.1249 86.7645 89.3064 86.6504 89.3925 86.5457C91.2658 85.0141 93.1392 83.4825 95.0126 81.9509C94.5914 82.57 94.2563 83.0844 93.9212 83.5988ZM98.3728 56.1914C98.7568 55.1905 99.0452 54.1991 99.4198 53.1029C100.092 51.1106 100.66 49.0322 101.332 47.0399C102.259 46.6604 103.336 46.8442 104.002 47.7425C104.772 48.7268 104.616 50.0907 104.146 51.1962C104.002 51.692 104.24 52.1504 104.545 52.3133C104.14 54.0868 103.735 55.8603 103.235 57.6431C102.802 59.1303 102.36 60.5221 101.918 61.9139C101.697 62.6099 101.485 63.4012 101.169 64.1064C101.015 64.5067 100.871 65.0025 100.717 65.4028C99.6443 63.292 98.5712 61.1812 97.4981 59.0704C97.4888 58.975 97.384 58.8889 97.3747 58.7934C97.3654 58.698 97.4608 58.6887 97.4515 58.5933C97.5376 58.4886 97.5283 58.3931 97.6144 58.2884C97.605 58.193 97.6911 58.0882 97.6911 58.0882C98.0076 57.383 98.2379 56.7825 98.3728 56.1914ZM71.6672 41.1711C71.7275 39.8166 72.265 38.4155 73.2401 37.5496C73.6799 37.1213 74.3199 36.7698 74.9017 36.8093C75.6651 36.7348 75.9025 37.1932 76.0725 37.9473C76.2216 39.474 76.2753 41.01 76.3197 42.4507C76.0428 42.5741 75.7751 42.7929 75.4982 42.9162C74.3136 43.6099 73.1384 44.399 72.0493 45.0834C72.0493 45.0834 72.0493 45.0834 71.9539 45.0927C71.9166 44.711 71.7839 44.3386 71.7373 43.8615C71.6441 42.9073 71.5602 42.0485 71.6672 41.1711ZM62.1229 43.0666C62.572 42.7337 63.2307 42.5731 63.7357 42.8128C64.2501 43.1478 64.5062 43.7971 64.6575 44.3603C64.9975 45.8684 64.5346 48.0329 65.4377 49.3897C64.2625 50.1788 63.0966 51.0633 62.0261 51.9385C62.1632 50.3838 61.6138 48.7035 61.3693 47.1861C61.048 45.8689 60.7755 44.0652 62.1229 43.0666ZM49.2464 50.2968C49.8677 49.7544 50.8499 49.9475 51.4784 50.4641C52.2022 50.9714 52.591 51.993 52.8657 52.8332C53.4151 54.5135 53.6015 56.4219 54.8003 57.8461C53.7298 58.7213 52.764 59.6826 51.7029 60.6532C51.4747 60.2902 51.4282 59.8131 51.2955 59.4407C51.058 58.9822 50.8206 58.5238 50.5738 57.9699C50.0896 56.9575 49.7008 55.9359 49.3121 54.9142C48.9907 53.597 48.0991 51.3721 49.2464 50.2968ZM47.3281 67.1493C48.5615 65.9692 49.7949 64.7891 51.0376 63.7044C53.5136 61.4397 56.1899 59.2517 58.7707 57.073C64.037 52.8017 69.6269 48.8842 75.4356 45.2343C77.0693 44.2077 78.7123 43.2766 80.3553 42.3455C81.7307 41.6332 83.1061 40.9209 84.3767 40.1225C84.3 40.3226 84.3093 40.418 84.2325 40.6182C83.9347 41.5143 83.7416 42.4964 83.4438 43.3925C82.9623 45.3661 82.376 47.2537 81.9898 49.218C81.0942 52.8697 79.9984 56.4447 79.3983 60.1638C78.0926 59.6171 76.5286 59.3845 75.1253 59.8106C73.7219 60.2366 72.4792 61.3213 71.837 62.6363C71.7416 62.6456 71.5508 62.6643 71.4647 62.769C70.0125 63.6815 68.9793 64.9384 68.2603 66.4535C67.3456 65.9649 65.9911 65.9045 64.9228 65.8162C63.8545 65.7279 62.6815 65.5535 61.5272 65.5699C59.3045 65.498 57.0051 65.6262 54.8104 65.8406C52.6251 66.1503 50.3629 66.6603 48.3103 67.3424C47.6517 67.503 47.0978 67.7498 46.4392 67.9105C46.7929 67.5869 47.0605 67.3681 47.3281 67.1493ZM71.6138 64.2957C71.8117 65.336 73.5572 65.4546 73.5408 64.3002C73.6105 63.0411 74.5856 62.1752 75.7027 61.7771C77.0106 61.3604 78.3931 61.707 79.4312 62.4726C81.917 64.2527 83.216 67.6901 82.7416 70.7227C82.2578 73.6599 79.8771 75.9153 76.9377 76.3951C74.0938 76.8655 71.2356 75.218 69.9343 72.7442C68.5958 69.8887 69.3099 66.351 71.6138 64.2957ZM66.3978 104.59C64.6914 99.9399 62.6126 95.4227 60.1707 91.1337C57.5868 86.3769 54.6306 81.7527 51.3206 77.4521C49.5609 75.2157 47.7058 72.9886 45.86 70.857L45.9554 70.8476C46.8909 70.5636 47.9126 70.1748 48.8575 69.9862C50.9195 69.3995 53.1048 69.0897 55.1948 68.7893C57.294 68.5842 59.3072 68.484 61.339 68.5745C62.4072 68.6628 63.4662 68.6557 64.5438 68.8395C65.0302 68.8883 65.612 68.9278 66.1078 69.0721C66.5942 69.1209 67.0899 69.2651 67.567 69.2185C67.3926 70.3915 67.5044 71.5366 67.9025 72.6537C69.02 76.2051 72.6394 78.7415 76.3887 78.6643C80.2335 78.5778 83.7219 75.8288 84.7037 72.0724C85.6179 68.6115 84.3584 64.5923 81.8935 62.0394C82.0657 61.83 82.1424 61.6298 82.2099 61.3342C83.0869 57.4916 83.4775 53.6003 84.3545 49.7577C84.7499 47.8888 85.2315 45.9152 85.627 44.0463C85.82 43.0641 86.1178 42.168 86.3109 41.1859C86.3877 40.9857 86.4645 40.7855 86.4365 40.4993C86.7019 41.244 87.0534 41.884 87.4049 42.524C87.8984 43.6317 88.3919 44.7395 88.9809 45.838C90.0633 48.0442 91.1458 50.2504 92.2282 52.4566C94.3931 56.869 96.4626 61.2908 98.6182 65.6078C99.8147 67.9955 100.82 70.4019 102.103 72.6849C101.912 72.7036 101.826 72.8083 101.635 72.827C101.263 72.9596 100.9 73.1878 100.537 73.4159C100.355 73.5299 100.192 73.8348 100.211 74.0257C99.0358 74.8148 97.8792 75.7947 96.9228 76.8514C95.7848 78.0222 94.6562 79.2884 93.9279 80.7082C90.1346 83.2943 86.5694 86.2434 83.0042 89.1926C79.0853 92.4652 75.2804 95.9194 71.5803 99.4597C69.821 101.173 68.1571 102.877 66.3978 104.59Z" stroke="url(#paint15_linear_30_531)" stroke-width="0.3"/>
<path d="M42.4412 47.6863C39.867 46.9744 37.2463 45.7854 35.333 43.9494C34.8093 43.5189 34.0158 44.2707 34.5488 44.7966C35.6148 45.8484 36.6809 46.9003 37.9098 47.6473C39.2435 48.4803 40.5492 49.0271 42.0364 49.4598C42.9231 49.6622 43.3372 47.9841 42.4412 47.6863Z" stroke="url(#paint16_linear_30_531)" stroke-width="0.3"/>
<path d="M39.4387 42.5851C39.9997 43.3973 40.7515 44.1908 41.494 44.8889C42.2365 45.5871 42.9883 46.3806 43.7308 47.0787C44.4733 47.7769 45.6019 46.5107 44.9549 45.8032C44.2124 45.1051 43.4699 44.407 42.7274 43.7088C41.9849 43.0107 41.1376 42.2265 40.3183 41.7285C39.7085 41.4028 39.0872 41.9451 39.4387 42.5851Z" stroke="url(#paint17_linear_30_531)" stroke-width="0.3"/>
<path d="M83.6318 32.489C84.0228 32.5472 84.5674 32.205 84.5208 31.7279C84.6393 29.9824 84.5577 28.16 84.5808 26.4238C84.5923 25.5557 84.6039 24.6876 84.6154 23.8195C84.6269 22.9514 84.7246 21.9786 84.4499 21.1384C84.3078 20.6706 83.5072 20.3635 83.2769 20.964C82.9697 21.7646 83.0629 22.7189 82.956 23.5963C82.9444 24.4644 82.9329 25.3325 82.8259 26.2099C82.8028 27.9461 82.6936 29.7871 82.6706 31.5233C82.9173 32.0772 83.1454 32.4402 83.6318 32.489Z" stroke="url(#paint18_linear_30_531)" stroke-width="0.3"/>
<path d="M89.1285 31.5671C89.3052 29.4306 89.5772 27.2847 90.1356 25.1109C90.2891 24.7106 90.1471 24.2428 89.6514 24.0986C89.251 23.945 88.6878 24.0963 88.639 24.5828C88.09 26.852 87.6551 29.3028 87.9741 31.5835C88.0301 32.1561 89.089 32.149 89.1285 31.5671Z" stroke="url(#paint19_linear_30_531)" stroke-width="0.3"/>
<defs>
<linearGradient id="paint0_linear_30_531" x1="62.0952" y1="116.972" x2="112.046" y2="64.6644" gradientUnits="userSpaceOnUse">
<stop stop-color="#F8A6FF"/>
<stop offset="1.0001" stop-color="white"/>
</linearGradient>
<linearGradient id="paint1_linear_30_531" x1="62.0952" y1="116.972" x2="112.046" y2="64.6644" gradientUnits="userSpaceOnUse">
<stop stop-color="#F8A6FF"/>
<stop offset="1.0001" stop-color="white"/>
</linearGradient>
<linearGradient id="paint2_linear_30_531" x1="62.0952" y1="116.972" x2="112.046" y2="64.6644" gradientUnits="userSpaceOnUse">
<stop stop-color="#F8A6FF"/>
<stop offset="1.0001" stop-color="white"/>
</linearGradient>
<linearGradient id="paint3_linear_30_531" x1="62.0952" y1="116.972" x2="112.046" y2="64.6644" gradientUnits="userSpaceOnUse">
<stop stop-color="#F8A6FF"/>
<stop offset="1.0001" stop-color="white"/>
</linearGradient>
<linearGradient id="paint4_linear_30_531" x1="62.0952" y1="116.972" x2="112.046" y2="64.6644" gradientUnits="userSpaceOnUse">
<stop stop-color="#F8A6FF"/>
<stop offset="1.0001" stop-color="white"/>
</linearGradient>
<linearGradient id="paint5_linear_30_531" x1="62.0952" y1="116.972" x2="112.046" y2="64.6644" gradientUnits="userSpaceOnUse">
<stop stop-color="#F8A6FF"/>
<stop offset="1.0001" stop-color="white"/>
</linearGradient>
<linearGradient id="paint6_linear_30_531" x1="62.0952" y1="116.972" x2="112.046" y2="64.6644" gradientUnits="userSpaceOnUse">
<stop stop-color="#F8A6FF"/>
<stop offset="1.0001" stop-color="white"/>
</linearGradient>
<linearGradient id="paint7_linear_30_531" x1="62.0952" y1="116.972" x2="112.046" y2="64.6644" gradientUnits="userSpaceOnUse">
<stop stop-color="#F8A6FF"/>
<stop offset="1.0001" stop-color="white"/>
</linearGradient>
<linearGradient id="paint8_linear_30_531" x1="62.0952" y1="116.972" x2="112.046" y2="64.6644" gradientUnits="userSpaceOnUse">
<stop stop-color="#F8A6FF"/>
<stop offset="1.0001" stop-color="white"/>
</linearGradient>
<linearGradient id="paint9_linear_30_531" x1="62.0952" y1="116.972" x2="112.046" y2="64.6644" gradientUnits="userSpaceOnUse">
<stop stop-color="#F8A6FF"/>
<stop offset="1.0001" stop-color="white"/>
</linearGradient>
<linearGradient id="paint10_linear_30_531" x1="62.0952" y1="116.972" x2="112.046" y2="64.6644" gradientUnits="userSpaceOnUse">
<stop stop-color="#F8A6FF"/>
<stop offset="1.0001" stop-color="white"/>
</linearGradient>
<linearGradient id="paint11_linear_30_531" x1="62.0952" y1="116.972" x2="112.046" y2="64.6644" gradientUnits="userSpaceOnUse">
<stop stop-color="#F8A6FF"/>
<stop offset="1.0001" stop-color="white"/>
</linearGradient>
<linearGradient id="paint12_linear_30_531" x1="62.0952" y1="116.972" x2="112.046" y2="64.6644" gradientUnits="userSpaceOnUse">
<stop stop-color="#F8A6FF"/>
<stop offset="1.0001" stop-color="white"/>
</linearGradient>
<linearGradient id="paint13_linear_30_531" x1="62.0952" y1="116.972" x2="112.046" y2="64.6644" gradientUnits="userSpaceOnUse">
<stop stop-color="#F8A6FF"/>
<stop offset="1.0001" stop-color="white"/>
</linearGradient>
<linearGradient id="paint14_linear_30_531" x1="62.0952" y1="116.972" x2="112.046" y2="64.6644" gradientUnits="userSpaceOnUse">
<stop stop-color="#F8A6FF"/>
<stop offset="1.0001" stop-color="white"/>
</linearGradient>
<linearGradient id="paint15_linear_30_531" x1="62.0952" y1="116.972" x2="112.046" y2="64.6644" gradientUnits="userSpaceOnUse">
<stop stop-color="#F8A6FF"/>
<stop offset="1.0001" stop-color="white"/>
</linearGradient>
<linearGradient id="paint16_linear_30_531" x1="62.0952" y1="116.972" x2="112.046" y2="64.6644" gradientUnits="userSpaceOnUse">
<stop stop-color="#F8A6FF"/>
<stop offset="1.0001" stop-color="white"/>
</linearGradient>
<linearGradient id="paint17_linear_30_531" x1="62.0952" y1="116.972" x2="112.046" y2="64.6644" gradientUnits="userSpaceOnUse">
<stop stop-color="#F8A6FF"/>
<stop offset="1.0001" stop-color="white"/>
</linearGradient>
<linearGradient id="paint18_linear_30_531" x1="62.0952" y1="116.972" x2="112.046" y2="64.6644" gradientUnits="userSpaceOnUse">
<stop stop-color="#F8A6FF"/>
<stop offset="1.0001" stop-color="white"/>
</linearGradient>
<linearGradient id="paint19_linear_30_531" x1="62.0952" y1="116.972" x2="112.046" y2="64.6644" gradientUnits="userSpaceOnUse">
<stop stop-color="#F8A6FF"/>
<stop offset="1.0001" stop-color="white"/>
</linearGradient>
</defs>
</svg>
