<svg width="158" height="158" viewBox="0 0 158 158" fill="none" xmlns="http://www.w3.org/2000/svg">
<path d="M104.208 66.3737C105.252 66.5034 106.225 66.9551 106.812 67.8982C107.233 68.606 108.098 68.1009 107.918 67.386C107.474 65.8787 105.849 65.0458 104.328 65.01C102.967 64.9696 100.985 65.5873 100.709 67.1154C100.638 67.4375 101.043 67.5858 101.278 67.419C101.748 67.0853 102.219 66.7516 102.691 66.4978C103.169 66.4039 103.648 66.39 104.208 66.3737Z" fill="white"/>
<path d="M104.208 66.3737C105.252 66.5034 106.225 66.9551 106.812 67.8982C107.233 68.606 108.098 68.1009 107.918 67.386C107.474 65.8787 105.849 65.0458 104.328 65.01C102.967 64.9696 100.985 65.5873 100.709 67.1154C100.638 67.4375 101.043 67.5858 101.278 67.419C101.748 67.0853 102.219 66.7516 102.691 66.4978C103.169 66.4039 103.648 66.39 104.208 66.3737Z" fill="url(#paint0_linear_30_537)"/>
<path d="M111.327 69.0474C111.48 68.8029 111.793 68.5538 111.948 68.3892C112.183 68.2224 112.419 68.0556 112.654 67.8887C113.206 67.6326 113.761 67.4565 114.326 67.6001C115.452 67.8074 116.284 68.9033 116.476 70.0179C116.575 70.6551 117.694 70.6226 117.675 69.983C117.702 68.142 116.296 66.5827 114.528 66.314C113.724 66.1774 112.85 66.3628 112.142 66.7834C111.749 67.0349 111.436 67.284 111.126 67.6131C110.97 67.7776 110.895 67.9398 110.822 68.182C110.747 68.3442 110.754 68.584 110.679 68.7462C110.533 69.2305 111.099 69.4541 111.327 69.0474Z" fill="white"/>
<path d="M111.327 69.0474C111.48 68.8029 111.793 68.5538 111.948 68.3892C112.183 68.2224 112.419 68.0556 112.654 67.8887C113.206 67.6326 113.761 67.4565 114.326 67.6001C115.452 67.8074 116.284 68.9033 116.476 70.0179C116.575 70.6551 117.694 70.6226 117.675 69.983C117.702 68.142 116.296 66.5827 114.528 66.314C113.724 66.1774 112.85 66.3628 112.142 66.7834C111.749 67.0349 111.436 67.284 111.126 67.6131C110.97 67.7776 110.895 67.9398 110.822 68.182C110.747 68.3442 110.754 68.584 110.679 68.7462C110.533 69.2305 111.099 69.4541 111.327 69.0474Z" fill="url(#paint1_linear_30_537)"/>
<path d="M110.016 76.286C110.023 76.5259 110.113 76.8433 110.2 77.0808C110.453 77.5535 110.787 78.0238 111.276 78.3296C112.256 79.0212 113.54 79.144 114.645 78.6318C115.748 78.0397 116.515 76.8973 116.56 75.6958C116.685 74.492 116.011 73.3114 115.033 72.6998C114.464 72.3963 113.897 72.1727 113.256 72.1114C112.614 72.05 111.739 72.2355 111.353 72.7267C111.278 72.889 111.203 73.0511 111.287 73.2087C110.523 74.4311 109.191 75.4299 107.75 75.3918C105.989 75.3629 104.593 74.1234 103.907 72.5431C103.731 71.9882 102.861 72.3335 102.955 72.8108C103.337 74.9599 105.467 76.6583 107.63 76.7554C108.432 76.8121 109.226 76.629 110.016 76.286ZM112.573 73.4114C112.813 73.4044 112.973 73.3998 113.213 73.3928C113.695 73.4588 114.099 73.607 114.428 73.9175C115.086 74.5385 115.274 75.4931 114.818 76.3065C114.361 77.1198 113.498 77.705 112.532 77.4931C112.048 77.3471 111.641 77.1189 111.309 76.7285C111.063 76.4956 110.814 76.1829 110.724 75.8654C111.507 75.2826 112.284 74.4599 112.573 73.4114Z" fill="white"/>
<path d="M110.016 76.286C110.023 76.5259 110.113 76.8433 110.2 77.0808C110.453 77.5535 110.787 78.0238 111.276 78.3296C112.256 79.0212 113.54 79.144 114.645 78.6318C115.748 78.0397 116.515 76.8973 116.56 75.6958C116.685 74.492 116.011 73.3114 115.033 72.6998C114.464 72.3963 113.897 72.1727 113.256 72.1114C112.614 72.05 111.739 72.2355 111.353 72.7267C111.278 72.889 111.203 73.0511 111.287 73.2087C110.523 74.4311 109.191 75.4299 107.75 75.3918C105.989 75.3629 104.593 74.1234 103.907 72.5431C103.731 71.9882 102.861 72.3335 102.955 72.8108C103.337 74.9599 105.467 76.6583 107.63 76.7554C108.432 76.8121 109.226 76.629 110.016 76.286ZM112.573 73.4114C112.813 73.4044 112.973 73.3998 113.213 73.3928C113.695 73.4588 114.099 73.607 114.428 73.9175C115.086 74.5385 115.274 75.4931 114.818 76.3065C114.361 77.1198 113.498 77.705 112.532 77.4931C112.048 77.3471 111.641 77.1189 111.309 76.7285C111.063 76.4956 110.814 76.1829 110.724 75.8654C111.507 75.2826 112.284 74.4599 112.573 73.4114Z" fill="url(#paint2_linear_30_537)"/>
<path d="M131.528 89.6627C130.497 87.2123 129.23 84.9289 127.964 82.6454C127.292 81.5448 126.617 80.3642 125.948 79.3436C125.612 78.7933 125.193 78.1654 124.777 77.6174C124.61 77.3822 124.361 77.0694 124.194 76.8342C124.03 76.679 123.943 76.4415 123.781 76.3662C123.699 76.2886 123.619 76.2909 123.456 76.2156C125.113 72.647 125.154 68.5654 123.926 64.8406C122.7 61.1958 120.209 58.0679 116.951 56.0823C114.508 54.6331 111.682 53.7551 108.887 53.9164C107.993 53.4623 106.872 53.4149 105.837 53.605C104.086 53.8959 102.592 54.8194 101.183 55.9005C98.293 58.3047 96.3097 61.6428 95.455 65.268C94.6002 68.8933 95.0315 72.7212 96.8079 76.03C98.502 79.2611 101.299 81.9002 104.698 83.2416C105.345 83.4628 105.911 83.6864 106.556 83.8277C106.485 84.1498 106.334 84.4742 106.264 84.7963C106.12 85.3605 105.897 85.9271 105.673 86.4936C105.226 87.6267 104.617 88.6846 104.005 89.6625C103.469 90.4782 102.93 91.2139 102.309 91.872C102.302 91.6322 102.375 91.39 102.528 91.1456C102.676 90.7412 102.11 90.5177 101.881 90.9243C101.799 90.8467 101.797 90.7668 101.717 90.7691C101.468 90.4563 101.219 90.1435 100.969 89.8307C100.471 89.2051 99.9753 88.6595 99.3971 88.0362C98.323 86.8673 97.2489 85.6983 96.1771 84.6093C93.9513 82.3537 91.5703 80.2627 89.1116 78.2539C88.1291 77.4824 87.1465 76.7108 86.164 75.9393C87.4268 75.3425 88.6097 74.7481 89.7902 74.0737C90.578 73.6508 91.4434 73.1455 92.2312 72.7226C92.624 72.4712 93.0167 72.2197 93.4094 71.9683C93.6446 71.8014 93.8821 71.7145 94.1173 71.5477C94.3525 71.3808 94.5077 71.2163 94.663 71.0517C95.4461 70.4689 94.6072 69.1331 93.7418 69.6384C93.3467 69.8099 92.874 70.0636 92.479 70.2351C92.0862 70.4866 91.6935 70.738 91.2984 70.9095C90.513 71.4124 89.6452 71.8376 88.8574 72.2606C87.2042 73.1887 85.5463 73.957 83.8908 74.8052C83.2605 75.1436 83.1262 76.0276 83.7773 76.4087C86.3866 78.0931 88.843 80.0219 91.224 82.113C93.5228 84.1264 95.7439 86.2221 97.8898 88.48C98.468 89.1033 99.0462 89.7266 99.7066 90.4275C100.036 90.7379 100.285 91.0508 100.614 91.3612C100.943 91.6717 101.194 92.0644 101.681 92.2903C101.763 92.3679 101.843 92.3656 102.001 92.281C101.147 93.1859 100.213 94.0932 99.1949 94.8429C94.7358 98.3329 89.1863 100.094 83.6159 101.136C81.8642 101.427 80.1124 101.718 78.3583 101.929C77.4813 102.035 76.6043 102.14 75.7272 102.246C74.8502 102.351 73.8932 102.459 73.1008 102.722C73.0208 102.724 72.9432 102.807 72.8632 102.809C72.854 102.489 72.847 102.249 72.8377 101.93C72.7485 101.612 72.6592 101.295 72.6499 100.975L72.1945 99.068C71.9175 97.7959 71.6405 96.5238 71.2858 95.3339C70.6542 92.872 70.1002 90.3278 69.4686 87.8659C69.107 86.4362 68.8254 85.0042 68.4638 83.5746C68.2853 82.9397 67.5612 82.8007 67.0955 83.2943C66.244 84.2791 65.557 85.4193 64.7878 86.4817C64.0186 87.5442 63.3293 88.6044 62.5601 89.6669C61.1016 91.7895 59.6455 93.9921 58.187 96.1147C55.7334 99.7864 53.1975 103.381 50.664 107.055C46.0436 107.749 41.421 108.363 36.8805 109.055C33.5346 109.553 30.1064 109.972 26.7558 110.31C26.1985 110.406 25.8151 110.977 25.9113 111.534C26.0075 112.092 26.5787 112.475 27.136 112.379C33.113 111.565 39.0901 110.751 45.0648 109.858C46.4991 109.656 47.9311 109.374 49.3654 109.173C48.5985 110.315 47.834 111.537 47.0671 112.68C46.2225 113.904 45.3004 115.211 44.7004 116.589C44.3239 117.4 45.5509 118.325 46.1719 117.666C47.1033 116.679 47.7902 115.539 48.5571 114.397C49.324 113.254 50.0156 112.274 50.7848 111.212C51.4011 110.394 51.9352 109.498 52.4715 108.682C55.8951 108.103 59.3186 107.523 62.8198 106.861C64.4916 106.573 66.1611 106.204 67.8306 105.836C68.6254 105.652 69.4202 105.469 70.2149 105.286C71.0873 105.021 71.8821 104.838 72.7568 104.652C73.1542 104.561 73.0557 103.924 72.656 103.935C71.144 104.219 69.6251 104.263 68.1109 104.467C66.5966 104.671 65.1647 104.953 63.6504 105.157C60.7042 105.643 57.6757 106.051 54.7294 106.536C54.4097 106.546 54.0922 106.635 53.7724 106.644C54.2335 105.991 54.6146 105.34 55.0757 104.686C57.9104 100.363 60.7451 96.0403 63.6598 91.7151C64.4244 90.4928 65.2689 89.2681 66.0334 88.0457C66.4922 87.3123 67.0285 86.4966 67.4873 85.7632C68.6543 90.1298 69.7437 94.5787 70.9107 98.9453L71.7208 102.042C71.8124 102.44 71.9816 102.755 72.1507 103.07C72.2353 103.227 72.3975 103.303 72.5551 103.218C72.5574 103.298 72.5597 103.378 72.5621 103.458C72.5714 103.778 72.8182 104.01 73.1403 104.081C74.0219 104.135 74.819 104.032 75.6984 104.007C76.4955 103.904 77.2926 103.8 78.0121 103.779C79.6063 103.573 81.2804 103.364 82.8723 103.078C86.056 102.506 89.2328 101.693 92.2403 100.566C97.0657 98.6652 101.536 95.5749 104.533 91.3273C104.533 91.3273 104.533 91.3273 104.613 91.325C105.013 91.3134 105.415 91.3817 105.817 91.45C106.217 91.4384 106.696 91.4244 107.098 91.4928C107.898 91.4695 108.78 91.524 109.579 91.5007C111.26 91.5319 112.939 91.483 114.62 91.5142C117.98 91.4965 121.34 91.4789 124.7 91.4613C125.659 91.4334 126.538 91.4078 127.5 91.4599C127.98 91.446 128.459 91.432 128.939 91.4181C129.419 91.4041 129.9 91.4702 130.382 91.5362C131.255 91.2708 131.871 90.4528 131.528 89.6627ZM96.4273 68.4401C96.5035 65.5576 97.3792 62.6518 98.9883 60.2048C98.9153 60.4469 98.76 60.6115 98.6871 60.8536C98.3106 61.6646 98.1739 62.4687 97.9574 63.2751C97.8867 63.5972 98.2181 63.9876 98.5378 63.9783C98.9399 64.0466 99.1704 63.7199 99.2411 63.3978C99.519 61.9496 100.357 60.4851 101.283 59.338C102.21 58.1909 103.544 57.272 104.884 56.593C107.805 55.228 111.002 55.135 114.077 56.3258C120.714 58.9333 124.703 66.8182 122.743 73.676C120.925 79.9696 114.077 83.8491 107.72 82.5937C101.205 81.4229 96.298 75.0047 96.4273 68.4401ZM127.912 89.1276C127.113 89.1509 126.233 89.1764 125.434 89.1997C123.755 89.2484 122.076 89.2972 120.398 89.346C117.04 89.4436 113.603 89.5435 110.247 89.7211C109.288 89.749 108.409 89.7745 107.449 89.8024C107.05 89.814 106.65 89.8256 106.17 89.8396C106.563 89.5881 106.145 88.9602 105.834 89.2893C105.757 89.3715 105.679 89.4538 105.521 89.5384C105.98 88.805 106.357 87.9939 106.653 87.1852C106.874 86.5387 107.093 85.8123 107.315 85.1658C107.383 84.7637 107.451 84.3617 107.52 83.9597C110.094 84.4449 112.807 84.206 115.342 83.3323C118.192 82.2893 120.777 80.374 122.466 77.9246C122.633 78.1598 122.8 78.3949 122.887 78.6325C123.223 79.1827 123.639 79.7308 123.975 80.2811C124.647 81.3817 125.319 82.4822 125.911 83.5851C126.924 85.3959 127.856 87.209 128.712 89.1044C128.472 89.1114 128.152 89.1207 127.912 89.1276Z" fill="white"/>
<path d="M131.528 89.6627C130.497 87.2123 129.23 84.9289 127.964 82.6454C127.292 81.5448 126.617 80.3642 125.948 79.3436C125.612 78.7933 125.193 78.1654 124.777 77.6174C124.61 77.3822 124.361 77.0694 124.194 76.8342C124.03 76.679 123.943 76.4415 123.781 76.3662C123.699 76.2886 123.619 76.2909 123.456 76.2156C125.113 72.647 125.154 68.5654 123.926 64.8406C122.7 61.1958 120.209 58.0679 116.951 56.0823C114.508 54.6331 111.682 53.7551 108.887 53.9164C107.993 53.4623 106.872 53.4149 105.837 53.605C104.086 53.8959 102.592 54.8194 101.183 55.9005C98.293 58.3047 96.3097 61.6428 95.455 65.268C94.6002 68.8933 95.0315 72.7212 96.8079 76.03C98.502 79.2611 101.299 81.9002 104.698 83.2416C105.345 83.4628 105.911 83.6864 106.556 83.8277C106.485 84.1498 106.334 84.4742 106.264 84.7963C106.12 85.3605 105.897 85.9271 105.673 86.4936C105.226 87.6267 104.617 88.6846 104.005 89.6625C103.469 90.4782 102.93 91.2139 102.309 91.872C102.302 91.6322 102.375 91.39 102.528 91.1456C102.676 90.7412 102.11 90.5177 101.881 90.9243C101.799 90.8467 101.797 90.7668 101.717 90.7691C101.468 90.4563 101.219 90.1435 100.969 89.8307C100.471 89.2051 99.9753 88.6595 99.3971 88.0362C98.323 86.8673 97.2489 85.6983 96.1771 84.6093C93.9513 82.3537 91.5703 80.2627 89.1116 78.2539C88.1291 77.4824 87.1465 76.7108 86.164 75.9393C87.4268 75.3425 88.6097 74.7481 89.7902 74.0737C90.578 73.6508 91.4434 73.1455 92.2312 72.7226C92.624 72.4712 93.0167 72.2197 93.4094 71.9683C93.6446 71.8014 93.8821 71.7145 94.1173 71.5477C94.3525 71.3808 94.5077 71.2163 94.663 71.0517C95.4461 70.4689 94.6072 69.1331 93.7418 69.6384C93.3467 69.8099 92.874 70.0636 92.479 70.2351C92.0862 70.4866 91.6935 70.738 91.2984 70.9095C90.513 71.4124 89.6452 71.8376 88.8574 72.2606C87.2042 73.1887 85.5463 73.957 83.8908 74.8052C83.2605 75.1436 83.1262 76.0276 83.7773 76.4087C86.3866 78.0931 88.843 80.0219 91.224 82.113C93.5228 84.1264 95.7439 86.2221 97.8898 88.48C98.468 89.1033 99.0462 89.7266 99.7066 90.4275C100.036 90.7379 100.285 91.0508 100.614 91.3612C100.943 91.6717 101.194 92.0644 101.681 92.2903C101.763 92.3679 101.843 92.3656 102.001 92.281C101.147 93.1859 100.213 94.0932 99.1949 94.8429C94.7358 98.3329 89.1863 100.094 83.6159 101.136C81.8642 101.427 80.1124 101.718 78.3583 101.929C77.4813 102.035 76.6043 102.14 75.7272 102.246C74.8502 102.351 73.8932 102.459 73.1008 102.722C73.0208 102.724 72.9432 102.807 72.8632 102.809C72.854 102.489 72.847 102.249 72.8377 101.93C72.7485 101.612 72.6592 101.295 72.6499 100.975L72.1945 99.068C71.9175 97.7959 71.6405 96.5238 71.2858 95.3339C70.6542 92.872 70.1002 90.3278 69.4686 87.8659C69.107 86.4362 68.8254 85.0042 68.4638 83.5746C68.2853 82.9397 67.5612 82.8007 67.0955 83.2943C66.244 84.2791 65.557 85.4193 64.7878 86.4817C64.0186 87.5442 63.3293 88.6044 62.5601 89.6669C61.1016 91.7895 59.6455 93.9921 58.187 96.1147C55.7334 99.7864 53.1975 103.381 50.664 107.055C46.0436 107.749 41.421 108.363 36.8805 109.055C33.5346 109.553 30.1064 109.972 26.7558 110.31C26.1985 110.406 25.8151 110.977 25.9113 111.534C26.0075 112.092 26.5787 112.475 27.136 112.379C33.113 111.565 39.0901 110.751 45.0648 109.858C46.4991 109.656 47.9311 109.374 49.3654 109.173C48.5985 110.315 47.834 111.537 47.0671 112.68C46.2225 113.904 45.3004 115.211 44.7004 116.589C44.3239 117.4 45.5509 118.325 46.1719 117.666C47.1033 116.679 47.7902 115.539 48.5571 114.397C49.324 113.254 50.0156 112.274 50.7848 111.212C51.4011 110.394 51.9352 109.498 52.4715 108.682C55.8951 108.103 59.3186 107.523 62.8198 106.861C64.4916 106.573 66.1611 106.204 67.8306 105.836C68.6254 105.652 69.4202 105.469 70.2149 105.286C71.0873 105.021 71.8821 104.838 72.7568 104.652C73.1542 104.561 73.0557 103.924 72.656 103.935C71.144 104.219 69.6251 104.263 68.1109 104.467C66.5966 104.671 65.1647 104.953 63.6504 105.157C60.7042 105.643 57.6757 106.051 54.7294 106.536C54.4097 106.546 54.0922 106.635 53.7724 106.644C54.2335 105.991 54.6146 105.34 55.0757 104.686C57.9104 100.363 60.7451 96.0403 63.6598 91.7151C64.4244 90.4928 65.2689 89.2681 66.0334 88.0457C66.4922 87.3123 67.0285 86.4966 67.4873 85.7632C68.6543 90.1298 69.7437 94.5787 70.9107 98.9453L71.7208 102.042C71.8124 102.44 71.9816 102.755 72.1507 103.07C72.2353 103.227 72.3975 103.303 72.5551 103.218C72.5574 103.298 72.5597 103.378 72.5621 103.458C72.5714 103.778 72.8182 104.01 73.1403 104.081C74.0219 104.135 74.819 104.032 75.6984 104.007C76.4955 103.904 77.2926 103.8 78.0121 103.779C79.6063 103.573 81.2804 103.364 82.8723 103.078C86.056 102.506 89.2328 101.693 92.2403 100.566C97.0657 98.6652 101.536 95.5749 104.533 91.3273C104.533 91.3273 104.533 91.3273 104.613 91.325C105.013 91.3134 105.415 91.3817 105.817 91.45C106.217 91.4384 106.696 91.4244 107.098 91.4928C107.898 91.4695 108.78 91.524 109.579 91.5007C111.26 91.5319 112.939 91.483 114.62 91.5142C117.98 91.4965 121.34 91.4789 124.7 91.4613C125.659 91.4334 126.538 91.4078 127.5 91.4599C127.98 91.446 128.459 91.432 128.939 91.4181C129.419 91.4041 129.9 91.4702 130.382 91.5362C131.255 91.2708 131.871 90.4528 131.528 89.6627ZM96.4273 68.4401C96.5035 65.5576 97.3792 62.6518 98.9883 60.2048C98.9153 60.4469 98.76 60.6115 98.6871 60.8536C98.3106 61.6646 98.1739 62.4687 97.9574 63.2751C97.8867 63.5972 98.2181 63.9876 98.5378 63.9783C98.9399 64.0466 99.1704 63.7199 99.2411 63.3978C99.519 61.9496 100.357 60.4851 101.283 59.338C102.21 58.1909 103.544 57.272 104.884 56.593C107.805 55.228 111.002 55.135 114.077 56.3258C120.714 58.9333 124.703 66.8182 122.743 73.676C120.925 79.9696 114.077 83.8491 107.72 82.5937C101.205 81.4229 96.298 75.0047 96.4273 68.4401ZM127.912 89.1276C127.113 89.1509 126.233 89.1764 125.434 89.1997C123.755 89.2484 122.076 89.2972 120.398 89.346C117.04 89.4436 113.603 89.5435 110.247 89.7211C109.288 89.749 108.409 89.7745 107.449 89.8024C107.05 89.814 106.65 89.8256 106.17 89.8396C106.563 89.5881 106.145 88.9602 105.834 89.2893C105.757 89.3715 105.679 89.4538 105.521 89.5384C105.98 88.805 106.357 87.9939 106.653 87.1852C106.874 86.5387 107.093 85.8123 107.315 85.1658C107.383 84.7637 107.451 84.3617 107.52 83.9597C110.094 84.4449 112.807 84.206 115.342 83.3323C118.192 82.2893 120.777 80.374 122.466 77.9246C122.633 78.1598 122.8 78.3949 122.887 78.6325C123.223 79.1827 123.639 79.7308 123.975 80.2811C124.647 81.3817 125.319 82.4822 125.911 83.5851C126.924 85.3959 127.856 87.209 128.712 89.1044C128.472 89.1114 128.152 89.1207 127.912 89.1276Z" fill="url(#paint3_linear_30_537)"/>
<path d="M52.2575 41.4583C53.2176 40.8024 54.0179 40.0379 54.9665 39.4677C55.9267 38.8118 56.8638 38.3273 57.8865 37.8543C59.2864 37.1703 60.7375 36.7547 62.2742 36.3507C59.6316 40.4431 57.3087 44.7529 55.3169 49.1943C54.9564 49.9307 54.693 50.5929 54.3325 51.3293C54.2008 51.6604 54.0576 52.0772 53.8403 52.3968C53.7086 52.7279 53.5654 53.1447 53.3481 53.4643C52.8277 54.092 53.1525 54.9205 54.0091 55.0355C54.6087 55.1161 55.0715 54.9166 55.6941 54.8258C56.231 54.7236 56.6823 54.6098 57.2193 54.5075C58.2932 54.303 59.2929 54.0012 60.2927 53.6995C61.2924 53.3978 62.2807 53.1817 63.2804 52.88C63.8289 52.6921 64.2802 52.5782 64.8287 52.3903C65.1087 52.2535 65.2915 52.1909 65.5715 52.0541C65.8514 51.9173 66.0458 51.769 66.2516 51.5351C66.6517 51.1528 66.4012 50.4215 65.8872 50.3524C65.6303 50.3179 65.3848 50.1977 65.1163 50.2489C64.8478 50.3 64.5909 50.2655 64.3224 50.3167C63.7854 50.4189 63.1628 50.5097 62.6259 50.612C61.552 50.8166 60.5522 51.1183 59.5524 51.42C58.5527 51.7217 57.5644 51.9378 56.5647 52.2395C56.199 52.3648 55.8334 52.4901 55.4678 52.6154C55.4793 52.5297 55.5764 52.4556 55.5879 52.3699C55.8513 51.7077 56.1031 51.1311 56.3665 50.4689C56.9674 49.2415 57.4826 48.0027 58.1806 46.7012C59.3824 44.2465 60.7439 41.9006 62.1911 39.5661C62.9863 38.1904 63.8557 36.912 64.725 35.6335C64.9423 35.3139 64.8171 34.9483 64.6803 34.6683C64.4578 34.3768 64.1152 34.3307 63.761 34.3704C61.4419 34.7565 59.1509 35.5824 57.0939 36.6142C56.0596 37.1729 55.111 37.7431 54.2365 38.4104C53.2649 39.1519 52.3789 39.905 51.6413 40.8523C51.4354 41.0863 51.7832 41.7434 52.2575 41.4583Z" fill="white"/>
<path d="M52.2575 41.4583C53.2176 40.8024 54.0179 40.0379 54.9665 39.4677C55.9267 38.8118 56.8638 38.3273 57.8865 37.8543C59.2864 37.1703 60.7375 36.7547 62.2742 36.3507C59.6316 40.4431 57.3087 44.7529 55.3169 49.1943C54.9564 49.9307 54.693 50.5929 54.3325 51.3293C54.2008 51.6604 54.0576 52.0772 53.8403 52.3968C53.7086 52.7279 53.5654 53.1447 53.3481 53.4643C52.8277 54.092 53.1525 54.9205 54.0091 55.0355C54.6087 55.1161 55.0715 54.9166 55.6941 54.8258C56.231 54.7236 56.6823 54.6098 57.2193 54.5075C58.2932 54.303 59.2929 54.0012 60.2927 53.6995C61.2924 53.3978 62.2807 53.1817 63.2804 52.88C63.8289 52.6921 64.2802 52.5782 64.8287 52.3903C65.1087 52.2535 65.2915 52.1909 65.5715 52.0541C65.8514 51.9173 66.0458 51.769 66.2516 51.5351C66.6517 51.1528 66.4012 50.4215 65.8872 50.3524C65.6303 50.3179 65.3848 50.1977 65.1163 50.2489C64.8478 50.3 64.5909 50.2655 64.3224 50.3167C63.7854 50.4189 63.1628 50.5097 62.6259 50.612C61.552 50.8166 60.5522 51.1183 59.5524 51.42C58.5527 51.7217 57.5644 51.9378 56.5647 52.2395C56.199 52.3648 55.8334 52.4901 55.4678 52.6154C55.4793 52.5297 55.5764 52.4556 55.5879 52.3699C55.8513 51.7077 56.1031 51.1311 56.3665 50.4689C56.9674 49.2415 57.4826 48.0027 58.1806 46.7012C59.3824 44.2465 60.7439 41.9006 62.1911 39.5661C62.9863 38.1904 63.8557 36.912 64.725 35.6335C64.9423 35.3139 64.8171 34.9483 64.6803 34.6683C64.4578 34.3768 64.1152 34.3307 63.761 34.3704C61.4419 34.7565 59.1509 35.5824 57.0939 36.6142C56.0596 37.1729 55.111 37.7431 54.2365 38.4104C53.2649 39.1519 52.3789 39.905 51.6413 40.8523C51.4354 41.0863 51.7832 41.7434 52.2575 41.4583Z" fill="url(#paint4_linear_30_537)"/>
<path d="M68.9528 45.7059C69.1241 45.729 69.2954 45.752 69.4668 45.775C70.8437 45.2623 72.2947 44.8468 73.7227 44.6026C73.8084 44.6141 73.9912 44.5515 74.0769 44.563L74.0654 44.6486C73.6192 45.3735 73.2702 46.0243 72.824 46.7492C71.1364 49.5746 69.4604 52.3143 67.6987 55.0426C67.3612 55.6077 67.8457 56.5448 68.4683 56.454C69.2623 56.3862 70.1188 56.5013 71.0099 56.3594C71.8039 56.2916 72.5978 56.2238 73.4774 56.1676C75.1624 55.9579 76.8589 55.6626 78.4416 54.916C79.0016 54.6424 78.8482 53.8369 78.2601 53.6707C76.5584 53.3549 74.8849 53.479 73.1999 53.6886C72.3945 53.8421 71.5034 53.984 70.7095 54.0517C70.6238 54.0402 70.5266 54.1144 70.3553 54.0914C71.488 52.1507 72.6092 50.2956 73.742 48.3549C74.091 47.7041 74.5141 47.1506 74.8632 46.4998C75.2007 45.9347 75.721 45.307 75.8987 44.6333C76.0879 43.8739 75.7517 43.1311 75.0038 42.8562C74.4157 42.69 73.7931 42.7808 73.2446 42.9687C71.8051 43.2986 70.2568 43.7882 69.0052 44.6665C68.8224 44.7292 68.7137 44.889 68.6792 45.146C68.6792 45.146 68.5936 45.1345 68.5821 45.2201C68.1423 45.2483 68.49 45.9054 68.9528 45.7059ZM68.8045 45.5116L68.7304 45.4145C68.7189 45.5001 68.8045 45.5116 68.8045 45.5116Z" fill="white"/>
<path d="M68.9528 45.7059C69.1241 45.729 69.2954 45.752 69.4668 45.775C70.8437 45.2623 72.2947 44.8468 73.7227 44.6026C73.8084 44.6141 73.9912 44.5515 74.0769 44.563L74.0654 44.6486C73.6192 45.3735 73.2702 46.0243 72.824 46.7492C71.1364 49.5746 69.4604 52.3143 67.6987 55.0426C67.3612 55.6077 67.8457 56.5448 68.4683 56.454C69.2623 56.3862 70.1188 56.5013 71.0099 56.3594C71.8039 56.2916 72.5978 56.2238 73.4774 56.1676C75.1624 55.9579 76.8589 55.6626 78.4416 54.916C79.0016 54.6424 78.8482 53.8369 78.2601 53.6707C76.5584 53.3549 74.8849 53.479 73.1999 53.6886C72.3945 53.8421 71.5034 53.984 70.7095 54.0517C70.6238 54.0402 70.5266 54.1144 70.3553 54.0914C71.488 52.1507 72.6092 50.2956 73.742 48.3549C74.091 47.7041 74.5141 47.1506 74.8632 46.4998C75.2007 45.9347 75.721 45.307 75.8987 44.6333C76.0879 43.8739 75.7517 43.1311 75.0038 42.8562C74.4157 42.69 73.7931 42.7808 73.2446 42.9687C71.8051 43.2986 70.2568 43.7882 69.0052 44.6665C68.8224 44.7292 68.7137 44.889 68.6792 45.146C68.6792 45.146 68.5936 45.1345 68.5821 45.2201C68.1423 45.2483 68.49 45.9054 68.9528 45.7059ZM68.8045 45.5116L68.7304 45.4145C68.7189 45.5001 68.8045 45.5116 68.8045 45.5116Z" fill="url(#paint5_linear_30_537)"/>
<path d="M81.2933 52.5086C82.7098 52.3501 84.1493 52.0202 85.5147 51.5932C85.7832 51.542 86.0632 51.4052 86.3317 51.3541C86.4173 51.3656 86.6858 51.3145 86.7715 51.326L86.7599 51.4116C86.7484 51.4973 86.6513 51.5715 86.6398 51.6571C86.4224 51.9767 86.2051 52.2963 85.9993 52.5303C84.2836 54.9159 82.5564 57.3872 80.8407 59.7728C80.5147 60.2522 81.1194 60.9439 81.5822 60.7444C83.142 60.1691 84.8385 59.8738 86.4493 59.5669C88.0602 59.2601 89.7452 59.0504 91.4417 58.7551C91.8815 58.7269 92.1334 58.1504 92.0937 57.7962C92.0656 57.3564 91.6718 57.042 91.232 57.0701C89.4959 57.0113 87.7994 57.3066 86.0798 57.7733C85.0916 57.9893 84.1775 58.3026 83.3376 58.7129C84.5099 57.1264 85.6822 55.5398 86.8431 54.0388C87.2662 53.4853 87.6779 53.0174 88.0154 52.4523C88.3529 51.8872 88.6048 51.3106 88.3312 50.7506C87.7955 49.545 86.4416 49.8864 85.4418 50.1882C83.9793 50.6893 82.6139 51.1164 81.2996 51.8118C80.8368 52.0113 80.9391 52.5482 81.2933 52.5086ZM86.7599 51.4116C86.7715 51.3259 86.7715 51.3259 86.7599 51.4116Z" fill="white"/>
<path d="M81.2933 52.5086C82.7098 52.3501 84.1493 52.0202 85.5147 51.5932C85.7832 51.542 86.0632 51.4052 86.3317 51.3541C86.4173 51.3656 86.6858 51.3145 86.7715 51.326L86.7599 51.4116C86.7484 51.4973 86.6513 51.5715 86.6398 51.6571C86.4224 51.9767 86.2051 52.2963 85.9993 52.5303C84.2836 54.9159 82.5564 57.3872 80.8407 59.7728C80.5147 60.2522 81.1194 60.9439 81.5822 60.7444C83.142 60.1691 84.8385 59.8738 86.4493 59.5669C88.0602 59.2601 89.7452 59.0504 91.4417 58.7551C91.8815 58.7269 92.1334 58.1504 92.0937 57.7962C92.0656 57.3564 91.6718 57.042 91.232 57.0701C89.4959 57.0113 87.7994 57.3066 86.0798 57.7733C85.0916 57.9893 84.1775 58.3026 83.3376 58.7129C84.5099 57.1264 85.6822 55.5398 86.8431 54.0388C87.2662 53.4853 87.6779 53.0174 88.0154 52.4523C88.3529 51.8872 88.6048 51.3106 88.3312 50.7506C87.7955 49.545 86.4416 49.8864 85.4418 50.1882C83.9793 50.6893 82.6139 51.1164 81.2996 51.8118C80.8368 52.0113 80.9391 52.5482 81.2933 52.5086ZM86.7599 51.4116C86.7715 51.3259 86.7715 51.3259 86.7599 51.4116Z" fill="url(#paint6_linear_30_537)"/>
<path d="M86.7599 51.4116L86.7715 51.326C86.6858 51.3145 86.4173 51.3656 86.3317 51.3541C86.0632 51.4052 85.7832 51.542 85.5147 51.5932C84.1493 52.0202 82.7098 52.3501 81.2933 52.5086C80.9391 52.5482 80.8368 52.0113 81.2996 51.8118C82.6139 51.1164 83.9793 50.6893 85.4418 50.1882C86.4416 49.8864 87.7955 49.545 88.3312 50.7506C88.6048 51.3106 88.3529 51.8872 88.0154 52.4523C87.6779 53.0174 87.2662 53.4853 86.8431 54.0388C85.6822 55.5398 84.5099 57.1264 83.3376 58.7129C84.1775 58.3026 85.0916 57.9893 86.0798 57.7733C87.7994 57.3066 89.4959 57.0113 91.232 57.0701C91.6718 57.042 92.0656 57.3564 92.0937 57.7962C92.1334 58.1504 91.8815 58.7269 91.4417 58.7551C89.7452 59.0504 88.0602 59.2601 86.4493 59.5669C84.8385 59.8738 83.142 60.1691 81.5822 60.7444C81.1194 60.9439 80.5147 60.2522 80.8407 59.7728C82.5564 57.3872 84.2836 54.9159 85.9993 52.5303C86.2051 52.2963 86.4224 51.9767 86.6398 51.6571C86.6513 51.5715 86.7484 51.4973 86.7599 51.4116ZM86.7599 51.4116C86.7715 51.3259 86.7715 51.3259 86.7599 51.4116ZM104.208 66.3737C105.252 66.5034 106.225 66.9551 106.812 67.8982C107.233 68.606 108.098 68.1009 107.918 67.386C107.474 65.8787 105.849 65.0458 104.328 65.01C102.967 64.9696 100.985 65.5873 100.709 67.1154C100.638 67.4375 101.043 67.5858 101.278 67.419C101.748 67.0853 102.219 66.7516 102.691 66.4978C103.169 66.4039 103.648 66.39 104.208 66.3737ZM111.327 69.0474C111.48 68.8029 111.793 68.5538 111.948 68.3892C112.183 68.2224 112.419 68.0556 112.654 67.8887C113.206 67.6326 113.761 67.4565 114.326 67.6001C115.452 67.8074 116.284 68.9033 116.476 70.0179C116.575 70.6551 117.694 70.6226 117.675 69.983C117.702 68.142 116.296 66.5827 114.528 66.314C113.724 66.1774 112.85 66.3628 112.142 66.7834C111.749 67.0349 111.436 67.284 111.126 67.6131C110.97 67.7776 110.895 67.9398 110.822 68.182C110.747 68.3442 110.754 68.584 110.679 68.7462C110.533 69.2305 111.099 69.4541 111.327 69.0474ZM110.016 76.286C110.023 76.5259 110.113 76.8433 110.2 77.0808C110.453 77.5535 110.787 78.0238 111.276 78.3296C112.256 79.0212 113.54 79.144 114.645 78.6318C115.748 78.0397 116.515 76.8973 116.56 75.6958C116.685 74.492 116.011 73.3114 115.033 72.6998C114.464 72.3963 113.897 72.1727 113.256 72.1114C112.614 72.05 111.739 72.2355 111.353 72.7267C111.278 72.889 111.203 73.0511 111.287 73.2087C110.523 74.4311 109.191 75.4299 107.75 75.3918C105.989 75.3629 104.593 74.1234 103.907 72.5431C103.731 71.9882 102.861 72.3335 102.955 72.8108C103.337 74.9599 105.467 76.6583 107.63 76.7554C108.432 76.8121 109.226 76.629 110.016 76.286ZM112.573 73.4114C112.813 73.4044 112.973 73.3998 113.213 73.3928C113.695 73.4588 114.099 73.607 114.428 73.9175C115.086 74.5385 115.274 75.4931 114.818 76.3065C114.361 77.1198 113.498 77.705 112.532 77.4931C112.048 77.3471 111.641 77.1189 111.309 76.7285C111.063 76.4956 110.814 76.1829 110.724 75.8654C111.507 75.2826 112.284 74.4599 112.573 73.4114ZM131.528 89.6627C130.497 87.2123 129.23 84.9289 127.964 82.6454C127.292 81.5448 126.617 80.3642 125.948 79.3436C125.612 78.7933 125.193 78.1654 124.777 77.6174C124.61 77.3822 124.361 77.0694 124.194 76.8342C124.03 76.679 123.943 76.4415 123.781 76.3662C123.699 76.2886 123.619 76.2909 123.456 76.2156C125.113 72.647 125.154 68.5654 123.926 64.8406C122.7 61.1958 120.209 58.0679 116.951 56.0823C114.508 54.6331 111.682 53.7551 108.887 53.9164C107.993 53.4623 106.872 53.4149 105.837 53.605C104.086 53.8959 102.592 54.8194 101.183 55.9005C98.293 58.3047 96.3097 61.6428 95.455 65.268C94.6002 68.8933 95.0315 72.7212 96.8079 76.03C98.502 79.2611 101.299 81.9002 104.698 83.2416C105.345 83.4628 105.911 83.6864 106.556 83.8277C106.485 84.1498 106.334 84.4742 106.264 84.7963C106.12 85.3605 105.897 85.9271 105.673 86.4936C105.226 87.6267 104.617 88.6846 104.005 89.6625C103.469 90.4782 102.93 91.2139 102.309 91.872C102.302 91.6322 102.375 91.39 102.528 91.1456C102.676 90.7412 102.11 90.5177 101.881 90.9243C101.799 90.8467 101.797 90.7668 101.717 90.7691C101.468 90.4563 101.219 90.1435 100.969 89.8307C100.471 89.2051 99.9753 88.6595 99.3971 88.0362C98.323 86.8673 97.2489 85.6983 96.1771 84.6093C93.9513 82.3537 91.5703 80.2627 89.1116 78.2539C88.1291 77.4824 87.1465 76.7108 86.164 75.9393C87.4268 75.3425 88.6097 74.7481 89.7902 74.0737C90.578 73.6508 91.4434 73.1455 92.2312 72.7226C92.624 72.4712 93.0167 72.2197 93.4094 71.9683C93.6446 71.8014 93.8821 71.7145 94.1173 71.5477C94.3525 71.3808 94.5077 71.2163 94.663 71.0517C95.4461 70.4689 94.6072 69.1331 93.7418 69.6384C93.3467 69.8099 92.874 70.0636 92.479 70.2351C92.0862 70.4866 91.6935 70.738 91.2984 70.9095C90.513 71.4124 89.6452 71.8376 88.8574 72.2606C87.2042 73.1887 85.5463 73.957 83.8908 74.8052C83.2605 75.1436 83.1262 76.0276 83.7773 76.4087C86.3866 78.0931 88.843 80.0219 91.224 82.113C93.5228 84.1264 95.7439 86.2221 97.8898 88.48C98.468 89.1033 99.0462 89.7266 99.7066 90.4275C100.036 90.7379 100.285 91.0508 100.614 91.3612C100.943 91.6717 101.194 92.0644 101.681 92.2903C101.763 92.3679 101.843 92.3656 102.001 92.281C101.147 93.1859 100.213 94.0932 99.1949 94.8429C94.7358 98.3329 89.1863 100.094 83.6159 101.136C81.8642 101.427 80.1124 101.718 78.3583 101.929C77.4813 102.035 76.6043 102.14 75.7272 102.246C74.8502 102.351 73.8932 102.459 73.1008 102.722C73.0208 102.724 72.9432 102.807 72.8632 102.809C72.854 102.489 72.847 102.249 72.8377 101.93C72.7485 101.612 72.6592 101.295 72.6499 100.975L72.1945 99.068C71.9175 97.7959 71.6405 96.5238 71.2858 95.3339C70.6542 92.872 70.1002 90.3278 69.4686 87.8659C69.107 86.4362 68.8254 85.0042 68.4638 83.5746C68.2853 82.9397 67.5612 82.8007 67.0955 83.2943C66.244 84.2791 65.557 85.4193 64.7878 86.4817C64.0186 87.5442 63.3293 88.6044 62.5601 89.6669C61.1016 91.7895 59.6455 93.9921 58.187 96.1147C55.7334 99.7864 53.1975 103.381 50.664 107.055C46.0436 107.749 41.421 108.363 36.8805 109.055C33.5346 109.553 30.1064 109.972 26.7558 110.31C26.1985 110.406 25.8151 110.977 25.9113 111.534C26.0075 112.092 26.5787 112.475 27.136 112.379C33.113 111.565 39.0901 110.751 45.0648 109.858C46.4991 109.656 47.9311 109.374 49.3654 109.173C48.5985 110.315 47.834 111.537 47.0671 112.68C46.2225 113.904 45.3004 115.211 44.7004 116.589C44.3239 117.4 45.5509 118.325 46.1719 117.666C47.1033 116.679 47.7902 115.539 48.5571 114.397C49.324 113.254 50.0156 112.274 50.7848 111.212C51.4011 110.394 51.9352 109.498 52.4715 108.682C55.8951 108.103 59.3186 107.523 62.8198 106.861C64.4916 106.573 66.1611 106.204 67.8306 105.836C68.6254 105.652 69.4202 105.469 70.2149 105.286C71.0873 105.021 71.8821 104.838 72.7568 104.652C73.1542 104.561 73.0557 103.924 72.656 103.935C71.144 104.219 69.6251 104.263 68.1109 104.467C66.5966 104.671 65.1647 104.953 63.6504 105.157C60.7042 105.643 57.6757 106.051 54.7294 106.536C54.4097 106.546 54.0922 106.635 53.7724 106.644C54.2335 105.991 54.6146 105.34 55.0757 104.686C57.9104 100.363 60.7451 96.0403 63.6598 91.7151C64.4244 90.4928 65.2689 89.2681 66.0334 88.0457C66.4922 87.3123 67.0285 86.4966 67.4873 85.7632C68.6543 90.1298 69.7437 94.5787 70.9107 98.9453L71.7208 102.042C71.8124 102.44 71.9816 102.755 72.1507 103.07C72.2353 103.227 72.3975 103.303 72.5551 103.218C72.5574 103.298 72.5597 103.378 72.5621 103.458C72.5714 103.778 72.8182 104.01 73.1403 104.081C74.0219 104.135 74.819 104.032 75.6984 104.007C76.4955 103.904 77.2926 103.8 78.0121 103.779C79.6063 103.573 81.2804 103.364 82.8723 103.078C86.056 102.506 89.2328 101.693 92.2403 100.566C97.0657 98.6652 101.536 95.5749 104.533 91.3273C104.533 91.3273 104.533 91.3273 104.613 91.325C105.013 91.3134 105.415 91.3817 105.817 91.45C106.217 91.4384 106.696 91.4244 107.098 91.4928C107.898 91.4695 108.78 91.524 109.579 91.5007C111.26 91.5319 112.939 91.483 114.62 91.5142C117.98 91.4965 121.34 91.4789 124.7 91.4613C125.659 91.4334 126.538 91.4078 127.5 91.4599C127.98 91.446 128.459 91.432 128.939 91.4181C129.419 91.4041 129.9 91.4702 130.382 91.5362C131.255 91.2708 131.871 90.4528 131.528 89.6627ZM96.4273 68.4401C96.5035 65.5576 97.3792 62.6518 98.9883 60.2048C98.9153 60.4469 98.76 60.6115 98.6871 60.8536C98.3106 61.6646 98.1739 62.4687 97.9574 63.2751C97.8867 63.5972 98.2181 63.9876 98.5378 63.9783C98.9399 64.0466 99.1704 63.7199 99.2411 63.3978C99.519 61.9496 100.357 60.4851 101.283 59.338C102.21 58.1909 103.544 57.272 104.884 56.593C107.805 55.228 111.002 55.135 114.077 56.3258C120.714 58.9333 124.703 66.8182 122.743 73.676C120.925 79.9696 114.077 83.8491 107.72 82.5937C101.205 81.4229 96.298 75.0047 96.4273 68.4401ZM127.912 89.1276C127.113 89.1509 126.233 89.1764 125.434 89.1997C123.755 89.2484 122.076 89.2972 120.398 89.346C117.04 89.4436 113.603 89.5435 110.247 89.7211C109.288 89.749 108.409 89.7745 107.449 89.8024C107.05 89.814 106.65 89.8256 106.17 89.8396C106.563 89.5881 106.145 88.9602 105.834 89.2893C105.757 89.3715 105.679 89.4538 105.521 89.5384C105.98 88.805 106.357 87.9939 106.653 87.1852C106.874 86.5387 107.093 85.8123 107.315 85.1658C107.383 84.7637 107.451 84.3617 107.52 83.9597C110.094 84.4449 112.807 84.206 115.342 83.3323C118.192 82.2893 120.777 80.374 122.466 77.9246C122.633 78.1598 122.8 78.3949 122.887 78.6325C123.223 79.1827 123.639 79.7308 123.975 80.2811C124.647 81.3817 125.319 82.4822 125.911 83.5851C126.924 85.3959 127.856 87.209 128.712 89.1044C128.472 89.1114 128.152 89.1207 127.912 89.1276ZM52.2575 41.4583C53.2176 40.8024 54.0179 40.0379 54.9665 39.4677C55.9267 38.8118 56.8638 38.3273 57.8865 37.8543C59.2864 37.1703 60.7375 36.7547 62.2742 36.3507C59.6316 40.4431 57.3087 44.7529 55.3169 49.1943C54.9564 49.9307 54.693 50.5929 54.3325 51.3293C54.2008 51.6604 54.0576 52.0772 53.8403 52.3968C53.7086 52.7279 53.5654 53.1447 53.3481 53.4643C52.8277 54.092 53.1525 54.9205 54.0091 55.0355C54.6087 55.1161 55.0715 54.9166 55.6941 54.8258C56.231 54.7236 56.6823 54.6098 57.2193 54.5075C58.2932 54.303 59.2929 54.0012 60.2927 53.6995C61.2924 53.3978 62.2807 53.1817 63.2804 52.88C63.8289 52.6921 64.2802 52.5782 64.8287 52.3903C65.1087 52.2535 65.2915 52.1909 65.5715 52.0541C65.8514 51.9173 66.0458 51.769 66.2516 51.5351C66.6517 51.1528 66.4012 50.4215 65.8872 50.3524C65.6303 50.3179 65.3848 50.1977 65.1163 50.2489C64.8478 50.3 64.5909 50.2655 64.3224 50.3167C63.7854 50.4189 63.1628 50.5097 62.6259 50.612C61.552 50.8166 60.5522 51.1183 59.5524 51.42C58.5527 51.7217 57.5644 51.9378 56.5647 52.2395C56.199 52.3648 55.8334 52.4901 55.4678 52.6154C55.4793 52.5297 55.5764 52.4556 55.5879 52.3699C55.8513 51.7077 56.1031 51.1311 56.3665 50.4689C56.9674 49.2415 57.4826 48.0027 58.1806 46.7012C59.3824 44.2465 60.7439 41.9006 62.1911 39.5661C62.9863 38.1904 63.8557 36.912 64.725 35.6335C64.9423 35.3139 64.8171 34.9483 64.6803 34.6683C64.4578 34.3768 64.1152 34.3307 63.761 34.3704C61.4419 34.7565 59.1509 35.5824 57.0939 36.6142C56.0596 37.1729 55.111 37.7431 54.2365 38.4104C53.2649 39.1519 52.3789 39.905 51.6413 40.8523C51.4354 41.0863 51.7832 41.7434 52.2575 41.4583ZM68.9528 45.7059C69.1241 45.729 69.2954 45.752 69.4668 45.775C70.8437 45.2623 72.2947 44.8468 73.7227 44.6026C73.8084 44.6141 73.9912 44.5515 74.0769 44.563L74.0654 44.6486C73.6192 45.3735 73.2702 46.0243 72.824 46.7492C71.1364 49.5746 69.4604 52.3143 67.6987 55.0426C67.3612 55.6077 67.8457 56.5448 68.4683 56.454C69.2623 56.3862 70.1188 56.5013 71.0099 56.3594C71.8039 56.2916 72.5978 56.2238 73.4774 56.1676C75.1624 55.9579 76.8589 55.6626 78.4416 54.916C79.0016 54.6424 78.8482 53.8369 78.2601 53.6707C76.5584 53.3549 74.8849 53.479 73.1999 53.6886C72.3945 53.8421 71.5034 53.984 70.7095 54.0517C70.6238 54.0402 70.5266 54.1144 70.3553 54.0914C71.488 52.1507 72.6092 50.2956 73.742 48.3549C74.091 47.7041 74.5141 47.1506 74.8632 46.4998C75.2007 45.9347 75.721 45.307 75.8987 44.6333C76.0879 43.8739 75.7517 43.1311 75.0038 42.8562C74.4157 42.69 73.7931 42.7808 73.2446 42.9687C71.8051 43.2986 70.2568 43.7882 69.0052 44.6665C68.8224 44.7292 68.7137 44.889 68.6792 45.146C68.6792 45.146 68.5936 45.1345 68.5821 45.2201C68.1423 45.2483 68.49 45.9054 68.9528 45.7059ZM68.8045 45.5116L68.7304 45.4145C68.7189 45.5001 68.8045 45.5116 68.8045 45.5116Z" stroke="white" stroke-width="0.367702"/>
<path d="M86.7599 51.4116L86.7715 51.326C86.6858 51.3145 86.4173 51.3656 86.3317 51.3541C86.0632 51.4052 85.7832 51.542 85.5147 51.5932C84.1493 52.0202 82.7098 52.3501 81.2933 52.5086C80.9391 52.5482 80.8368 52.0113 81.2996 51.8118C82.6139 51.1164 83.9793 50.6893 85.4418 50.1882C86.4416 49.8864 87.7955 49.545 88.3312 50.7506C88.6048 51.3106 88.3529 51.8872 88.0154 52.4523C87.6779 53.0174 87.2662 53.4853 86.8431 54.0388C85.6822 55.5398 84.5099 57.1264 83.3376 58.7129C84.1775 58.3026 85.0916 57.9893 86.0798 57.7733C87.7994 57.3066 89.4959 57.0113 91.232 57.0701C91.6718 57.042 92.0656 57.3564 92.0937 57.7962C92.1334 58.1504 91.8815 58.7269 91.4417 58.7551C89.7452 59.0504 88.0602 59.2601 86.4493 59.5669C84.8385 59.8738 83.142 60.1691 81.5822 60.7444C81.1194 60.9439 80.5147 60.2522 80.8407 59.7728C82.5564 57.3872 84.2836 54.9159 85.9993 52.5303C86.2051 52.2963 86.4224 51.9767 86.6398 51.6571C86.6513 51.5715 86.7484 51.4973 86.7599 51.4116ZM86.7599 51.4116C86.7715 51.3259 86.7715 51.3259 86.7599 51.4116ZM104.208 66.3737C105.252 66.5034 106.225 66.9551 106.812 67.8982C107.233 68.606 108.098 68.1009 107.918 67.386C107.474 65.8787 105.849 65.0458 104.328 65.01C102.967 64.9696 100.985 65.5873 100.709 67.1154C100.638 67.4375 101.043 67.5858 101.278 67.419C101.748 67.0853 102.219 66.7516 102.691 66.4978C103.169 66.4039 103.648 66.39 104.208 66.3737ZM111.327 69.0474C111.48 68.8029 111.793 68.5538 111.948 68.3892C112.183 68.2224 112.419 68.0556 112.654 67.8887C113.206 67.6326 113.761 67.4565 114.326 67.6001C115.452 67.8074 116.284 68.9033 116.476 70.0179C116.575 70.6551 117.694 70.6226 117.675 69.983C117.702 68.142 116.296 66.5827 114.528 66.314C113.724 66.1774 112.85 66.3628 112.142 66.7834C111.749 67.0349 111.436 67.284 111.126 67.6131C110.97 67.7776 110.895 67.9398 110.822 68.182C110.747 68.3442 110.754 68.584 110.679 68.7462C110.533 69.2305 111.099 69.4541 111.327 69.0474ZM110.016 76.286C110.023 76.5259 110.113 76.8433 110.2 77.0808C110.453 77.5535 110.787 78.0238 111.276 78.3296C112.256 79.0212 113.54 79.144 114.645 78.6318C115.748 78.0397 116.515 76.8973 116.56 75.6958C116.685 74.492 116.011 73.3114 115.033 72.6998C114.464 72.3963 113.897 72.1727 113.256 72.1114C112.614 72.05 111.739 72.2355 111.353 72.7267C111.278 72.889 111.203 73.0511 111.287 73.2087C110.523 74.4311 109.191 75.4299 107.75 75.3918C105.989 75.3629 104.593 74.1234 103.907 72.5431C103.731 71.9882 102.861 72.3335 102.955 72.8108C103.337 74.9599 105.467 76.6583 107.63 76.7554C108.432 76.8121 109.226 76.629 110.016 76.286ZM112.573 73.4114C112.813 73.4044 112.973 73.3998 113.213 73.3928C113.695 73.4588 114.099 73.607 114.428 73.9175C115.086 74.5385 115.274 75.4931 114.818 76.3065C114.361 77.1198 113.498 77.705 112.532 77.4931C112.048 77.3471 111.641 77.1189 111.309 76.7285C111.063 76.4956 110.814 76.1829 110.724 75.8654C111.507 75.2826 112.284 74.4599 112.573 73.4114ZM131.528 89.6627C130.497 87.2123 129.23 84.9289 127.964 82.6454C127.292 81.5448 126.617 80.3642 125.948 79.3436C125.612 78.7933 125.193 78.1654 124.777 77.6174C124.61 77.3822 124.361 77.0694 124.194 76.8342C124.03 76.679 123.943 76.4415 123.781 76.3662C123.699 76.2886 123.619 76.2909 123.456 76.2156C125.113 72.647 125.154 68.5654 123.926 64.8406C122.7 61.1958 120.209 58.0679 116.951 56.0823C114.508 54.6331 111.682 53.7551 108.887 53.9164C107.993 53.4623 106.872 53.4149 105.837 53.605C104.086 53.8959 102.592 54.8194 101.183 55.9005C98.293 58.3047 96.3097 61.6428 95.455 65.268C94.6002 68.8933 95.0315 72.7212 96.8079 76.03C98.502 79.2611 101.299 81.9002 104.698 83.2416C105.345 83.4628 105.911 83.6864 106.556 83.8277C106.485 84.1498 106.334 84.4742 106.264 84.7963C106.12 85.3605 105.897 85.9271 105.673 86.4936C105.226 87.6267 104.617 88.6846 104.005 89.6625C103.469 90.4782 102.93 91.2139 102.309 91.872C102.302 91.6322 102.375 91.39 102.528 91.1456C102.676 90.7412 102.11 90.5177 101.881 90.9243C101.799 90.8467 101.797 90.7668 101.717 90.7691C101.468 90.4563 101.219 90.1435 100.969 89.8307C100.471 89.2051 99.9753 88.6595 99.3971 88.0362C98.323 86.8673 97.2489 85.6983 96.1771 84.6093C93.9513 82.3537 91.5703 80.2627 89.1116 78.2539C88.1291 77.4824 87.1465 76.7108 86.164 75.9393C87.4268 75.3425 88.6097 74.7481 89.7902 74.0737C90.578 73.6508 91.4434 73.1455 92.2312 72.7226C92.624 72.4712 93.0167 72.2197 93.4094 71.9683C93.6446 71.8014 93.8821 71.7145 94.1173 71.5477C94.3525 71.3808 94.5077 71.2163 94.663 71.0517C95.4461 70.4689 94.6072 69.1331 93.7418 69.6384C93.3467 69.8099 92.874 70.0636 92.479 70.2351C92.0862 70.4866 91.6935 70.738 91.2984 70.9095C90.513 71.4124 89.6452 71.8376 88.8574 72.2606C87.2042 73.1887 85.5463 73.957 83.8908 74.8052C83.2605 75.1436 83.1262 76.0276 83.7773 76.4087C86.3866 78.0931 88.843 80.0219 91.224 82.113C93.5228 84.1264 95.7439 86.2221 97.8898 88.48C98.468 89.1033 99.0462 89.7266 99.7066 90.4275C100.036 90.7379 100.285 91.0508 100.614 91.3612C100.943 91.6717 101.194 92.0644 101.681 92.2903C101.763 92.3679 101.843 92.3656 102.001 92.281C101.147 93.1859 100.213 94.0932 99.1949 94.8429C94.7358 98.3329 89.1863 100.094 83.6159 101.136C81.8642 101.427 80.1124 101.718 78.3583 101.929C77.4813 102.035 76.6043 102.14 75.7272 102.246C74.8502 102.351 73.8932 102.459 73.1008 102.722C73.0208 102.724 72.9432 102.807 72.8632 102.809C72.854 102.489 72.847 102.249 72.8377 101.93C72.7485 101.612 72.6592 101.295 72.6499 100.975L72.1945 99.068C71.9175 97.7959 71.6405 96.5238 71.2858 95.3339C70.6542 92.872 70.1002 90.3278 69.4686 87.8659C69.107 86.4362 68.8254 85.0042 68.4638 83.5746C68.2853 82.9397 67.5612 82.8007 67.0955 83.2943C66.244 84.2791 65.557 85.4193 64.7878 86.4817C64.0186 87.5442 63.3293 88.6044 62.5601 89.6669C61.1016 91.7895 59.6455 93.9921 58.187 96.1147C55.7334 99.7864 53.1975 103.381 50.664 107.055C46.0436 107.749 41.421 108.363 36.8805 109.055C33.5346 109.553 30.1064 109.972 26.7558 110.31C26.1985 110.406 25.8151 110.977 25.9113 111.534C26.0075 112.092 26.5787 112.475 27.136 112.379C33.113 111.565 39.0901 110.751 45.0648 109.858C46.4991 109.656 47.9311 109.374 49.3654 109.173C48.5985 110.315 47.834 111.537 47.0671 112.68C46.2225 113.904 45.3004 115.211 44.7004 116.589C44.3239 117.4 45.5509 118.325 46.1719 117.666C47.1033 116.679 47.7902 115.539 48.5571 114.397C49.324 113.254 50.0156 112.274 50.7848 111.212C51.4011 110.394 51.9352 109.498 52.4715 108.682C55.8951 108.103 59.3186 107.523 62.8198 106.861C64.4916 106.573 66.1611 106.204 67.8306 105.836C68.6254 105.652 69.4202 105.469 70.2149 105.286C71.0873 105.021 71.8821 104.838 72.7568 104.652C73.1542 104.561 73.0557 103.924 72.656 103.935C71.144 104.219 69.6251 104.263 68.1109 104.467C66.5966 104.671 65.1647 104.953 63.6504 105.157C60.7042 105.643 57.6757 106.051 54.7294 106.536C54.4097 106.546 54.0922 106.635 53.7724 106.644C54.2335 105.991 54.6146 105.34 55.0757 104.686C57.9104 100.363 60.7451 96.0403 63.6598 91.7151C64.4244 90.4928 65.2689 89.2681 66.0334 88.0457C66.4922 87.3123 67.0285 86.4966 67.4873 85.7632C68.6543 90.1298 69.7437 94.5787 70.9107 98.9453L71.7208 102.042C71.8124 102.44 71.9816 102.755 72.1507 103.07C72.2353 103.227 72.3975 103.303 72.5551 103.218C72.5574 103.298 72.5597 103.378 72.5621 103.458C72.5714 103.778 72.8182 104.01 73.1403 104.081C74.0219 104.135 74.819 104.032 75.6984 104.007C76.4955 103.904 77.2926 103.8 78.0121 103.779C79.6063 103.573 81.2804 103.364 82.8723 103.078C86.056 102.506 89.2328 101.693 92.2403 100.566C97.0657 98.6652 101.536 95.5749 104.533 91.3273C104.533 91.3273 104.533 91.3273 104.613 91.325C105.013 91.3134 105.415 91.3817 105.817 91.45C106.217 91.4384 106.696 91.4244 107.098 91.4928C107.898 91.4695 108.78 91.524 109.579 91.5007C111.26 91.5319 112.939 91.483 114.62 91.5142C117.98 91.4965 121.34 91.4789 124.7 91.4613C125.659 91.4334 126.538 91.4078 127.5 91.4599C127.98 91.446 128.459 91.432 128.939 91.4181C129.419 91.4041 129.9 91.4702 130.382 91.5362C131.255 91.2708 131.871 90.4528 131.528 89.6627ZM96.4273 68.4401C96.5035 65.5576 97.3792 62.6518 98.9883 60.2048C98.9153 60.4469 98.76 60.6115 98.6871 60.8536C98.3106 61.6646 98.1739 62.4687 97.9574 63.2751C97.8867 63.5972 98.2181 63.9876 98.5378 63.9783C98.9399 64.0466 99.1704 63.7199 99.2411 63.3978C99.519 61.9496 100.357 60.4851 101.283 59.338C102.21 58.1909 103.544 57.272 104.884 56.593C107.805 55.228 111.002 55.135 114.077 56.3258C120.714 58.9333 124.703 66.8182 122.743 73.676C120.925 79.9696 114.077 83.8491 107.72 82.5937C101.205 81.4229 96.298 75.0047 96.4273 68.4401ZM127.912 89.1276C127.113 89.1509 126.233 89.1764 125.434 89.1997C123.755 89.2484 122.076 89.2972 120.398 89.346C117.04 89.4436 113.603 89.5435 110.247 89.7211C109.288 89.749 108.409 89.7745 107.449 89.8024C107.05 89.814 106.65 89.8256 106.17 89.8396C106.563 89.5881 106.145 88.9602 105.834 89.2893C105.757 89.3715 105.679 89.4538 105.521 89.5384C105.98 88.805 106.357 87.9939 106.653 87.1852C106.874 86.5387 107.093 85.8123 107.315 85.1658C107.383 84.7637 107.451 84.3617 107.52 83.9597C110.094 84.4449 112.807 84.206 115.342 83.3323C118.192 82.2893 120.777 80.374 122.466 77.9246C122.633 78.1598 122.8 78.3949 122.887 78.6325C123.223 79.1827 123.639 79.7308 123.975 80.2811C124.647 81.3817 125.319 82.4822 125.911 83.5851C126.924 85.3959 127.856 87.209 128.712 89.1044C128.472 89.1114 128.152 89.1207 127.912 89.1276ZM52.2575 41.4583C53.2176 40.8024 54.0179 40.0379 54.9665 39.4677C55.9267 38.8118 56.8638 38.3273 57.8865 37.8543C59.2864 37.1703 60.7375 36.7547 62.2742 36.3507C59.6316 40.4431 57.3087 44.7529 55.3169 49.1943C54.9564 49.9307 54.693 50.5929 54.3325 51.3293C54.2008 51.6604 54.0576 52.0772 53.8403 52.3968C53.7086 52.7279 53.5654 53.1447 53.3481 53.4643C52.8277 54.092 53.1525 54.9205 54.0091 55.0355C54.6087 55.1161 55.0715 54.9166 55.6941 54.8258C56.231 54.7236 56.6823 54.6098 57.2193 54.5075C58.2932 54.303 59.2929 54.0012 60.2927 53.6995C61.2924 53.3978 62.2807 53.1817 63.2804 52.88C63.8289 52.6921 64.2802 52.5782 64.8287 52.3903C65.1087 52.2535 65.2915 52.1909 65.5715 52.0541C65.8514 51.9173 66.0458 51.769 66.2516 51.5351C66.6517 51.1528 66.4012 50.4215 65.8872 50.3524C65.6303 50.3179 65.3848 50.1977 65.1163 50.2489C64.8478 50.3 64.5909 50.2655 64.3224 50.3167C63.7854 50.4189 63.1628 50.5097 62.6259 50.612C61.552 50.8166 60.5522 51.1183 59.5524 51.42C58.5527 51.7217 57.5644 51.9378 56.5647 52.2395C56.199 52.3648 55.8334 52.4901 55.4678 52.6154C55.4793 52.5297 55.5764 52.4556 55.5879 52.3699C55.8513 51.7077 56.1031 51.1311 56.3665 50.4689C56.9674 49.2415 57.4826 48.0027 58.1806 46.7012C59.3824 44.2465 60.7439 41.9006 62.1911 39.5661C62.9863 38.1904 63.8557 36.912 64.725 35.6335C64.9423 35.3139 64.8171 34.9483 64.6803 34.6683C64.4578 34.3768 64.1152 34.3307 63.761 34.3704C61.4419 34.7565 59.1509 35.5824 57.0939 36.6142C56.0596 37.1729 55.111 37.7431 54.2365 38.4104C53.2649 39.1519 52.3789 39.905 51.6413 40.8523C51.4354 41.0863 51.7832 41.7434 52.2575 41.4583ZM68.9528 45.7059C69.1241 45.729 69.2954 45.752 69.4668 45.775C70.8437 45.2623 72.2947 44.8468 73.7227 44.6026C73.8084 44.6141 73.9912 44.5515 74.0769 44.563L74.0654 44.6486C73.6192 45.3735 73.2702 46.0243 72.824 46.7492C71.1364 49.5746 69.4604 52.3143 67.6987 55.0426C67.3612 55.6077 67.8457 56.5448 68.4683 56.454C69.2623 56.3862 70.1188 56.5013 71.0099 56.3594C71.8039 56.2916 72.5978 56.2238 73.4774 56.1676C75.1624 55.9579 76.8589 55.6626 78.4416 54.916C79.0016 54.6424 78.8482 53.8369 78.2601 53.6707C76.5584 53.3549 74.8849 53.479 73.1999 53.6886C72.3945 53.8421 71.5034 53.984 70.7095 54.0517C70.6238 54.0402 70.5266 54.1144 70.3553 54.0914C71.488 52.1507 72.6092 50.2956 73.742 48.3549C74.091 47.7041 74.5141 47.1506 74.8632 46.4998C75.2007 45.9347 75.721 45.307 75.8987 44.6333C76.0879 43.8739 75.7517 43.1311 75.0038 42.8562C74.4157 42.69 73.7931 42.7808 73.2446 42.9687C71.8051 43.2986 70.2568 43.7882 69.0052 44.6665C68.8224 44.7292 68.7137 44.889 68.6792 45.146C68.6792 45.146 68.5936 45.1345 68.5821 45.2201C68.1423 45.2483 68.49 45.9054 68.9528 45.7059ZM68.8045 45.5116L68.7304 45.4145C68.7189 45.5001 68.8045 45.5116 68.8045 45.5116Z" stroke="url(#paint7_linear_30_537)" stroke-width="0.367702"/>
<defs>
<linearGradient id="paint0_linear_30_537" x1="58.3386" y1="104.645" x2="90.4102" y2="50.7766" gradientUnits="userSpaceOnUse">
<stop stop-color="#F8A6FF"/>
<stop offset="1.0001" stop-color="white"/>
</linearGradient>
<linearGradient id="paint1_linear_30_537" x1="58.3386" y1="104.645" x2="90.4102" y2="50.7766" gradientUnits="userSpaceOnUse">
<stop stop-color="#F8A6FF"/>
<stop offset="1.0001" stop-color="white"/>
</linearGradient>
<linearGradient id="paint2_linear_30_537" x1="58.3386" y1="104.645" x2="90.4102" y2="50.7766" gradientUnits="userSpaceOnUse">
<stop stop-color="#F8A6FF"/>
<stop offset="1.0001" stop-color="white"/>
</linearGradient>
<linearGradient id="paint3_linear_30_537" x1="58.3386" y1="104.645" x2="90.4102" y2="50.7766" gradientUnits="userSpaceOnUse">
<stop stop-color="#F8A6FF"/>
<stop offset="1.0001" stop-color="white"/>
</linearGradient>
<linearGradient id="paint4_linear_30_537" x1="58.3386" y1="104.645" x2="90.4102" y2="50.7766" gradientUnits="userSpaceOnUse">
<stop stop-color="#F8A6FF"/>
<stop offset="1.0001" stop-color="white"/>
</linearGradient>
<linearGradient id="paint5_linear_30_537" x1="58.3386" y1="104.645" x2="90.4102" y2="50.7766" gradientUnits="userSpaceOnUse">
<stop stop-color="#F8A6FF"/>
<stop offset="1.0001" stop-color="white"/>
</linearGradient>
<linearGradient id="paint6_linear_30_537" x1="58.3386" y1="104.645" x2="90.4102" y2="50.7766" gradientUnits="userSpaceOnUse">
<stop stop-color="#F8A6FF"/>
<stop offset="1.0001" stop-color="white"/>
</linearGradient>
<linearGradient id="paint7_linear_30_537" x1="58.3386" y1="104.645" x2="90.4102" y2="50.7766" gradientUnits="userSpaceOnUse">
<stop stop-color="#F8A6FF"/>
<stop offset="1.0001" stop-color="white"/>
</linearGradient>
</defs>
</svg>
