<svg width="159" height="158" viewBox="0 0 159 158" fill="none" xmlns="http://www.w3.org/2000/svg">
<path d="M121.45 33.7804C112.109 33.2145 102.966 32.6608 94.0149 32.119C85.2512 31.5886 76.6671 31.0851 68.2569 30.5922C63.576 30.3181 58.9474 30.0864 54.371 29.8381C53.9915 29.8178 54.0288 30.4311 54.3996 30.4595C62.5353 31.0867 70.8405 31.7158 79.3203 32.333C87.9743 32.9631 96.8136 33.5836 105.842 34.2238C110.689 34.5673 115.591 34.9142 120.55 35.2659C119.291 40.7582 117.948 46.2625 116.674 51.8235C115.326 57.7156 113.973 63.6489 112.615 69.6223C109.887 81.6269 107.069 93.7738 104.315 106.12C103.532 109.632 102.764 113.164 101.988 116.707C101.264 120.011 100.543 123.339 99.962 126.722C95.3355 126.249 90.7424 125.644 86.2112 125.05C81.2977 124.405 76.4409 123.754 71.6401 123.021C62.264 121.592 53.1026 119.961 44.1855 117.986C43.1616 117.759 42.1427 117.519 41.1244 117.293C40.1601 117.077 39.1782 116.902 38.2329 116.588C37.4359 116.323 36.614 115.877 36.2716 114.924C35.9413 114.005 36.0771 112.958 36.2468 112.053C36.4778 110.821 36.8144 109.621 37.1099 108.416C37.4394 107.072 37.7685 105.729 38.097 104.389C38.7384 101.773 39.3776 99.1642 40.0268 96.5674C42.6481 86.0836 45.2389 75.7235 47.8001 65.4829C50.3309 55.3618 52.7949 45.3453 55.2885 35.4617C55.5866 34.2811 55.8837 33.1016 56.1811 31.9244C56.2988 31.4565 55.6071 31.2993 55.4883 31.7655C52.9463 41.759 50.3238 51.8527 47.7013 62.0738C45.0626 72.3576 42.3934 82.7622 39.6924 93.2895C38.3225 98.6294 36.9201 103.992 35.5095 109.385C34.9879 111.38 34.2332 113.73 35.1519 115.841C36.1248 118.077 38.5229 118.429 40.3695 118.897C49.2493 121.15 58.4279 122.882 67.7942 124.466C77.404 126.09 87.2515 127.499 97.3193 128.523C98.3864 128.632 99.4551 128.704 100.527 128.805C100.559 128.82 100.592 128.833 100.626 128.845C101.197 129.041 101.623 128.686 101.774 128.151C103.536 121.907 104.849 115.49 106.258 109.192C107.658 102.935 108.997 96.702 110.337 90.5155C112.974 78.3322 115.592 66.3191 118.151 54.459C119.578 47.8403 120.907 41.2475 122.322 34.7307C122.439 34.1929 121.938 33.8124 121.452 33.7829L121.45 33.7804Z" fill="white"/>
<path d="M121.45 33.7804C112.109 33.2145 102.966 32.6608 94.0149 32.119C85.2512 31.5886 76.6671 31.0851 68.2569 30.5922C63.576 30.3181 58.9474 30.0864 54.371 29.8381C53.9915 29.8178 54.0288 30.4311 54.3996 30.4595C62.5353 31.0867 70.8405 31.7158 79.3203 32.333C87.9743 32.9631 96.8136 33.5836 105.842 34.2238C110.689 34.5673 115.591 34.9142 120.55 35.2659C119.291 40.7582 117.948 46.2625 116.674 51.8235C115.326 57.7156 113.973 63.6489 112.615 69.6223C109.887 81.6269 107.069 93.7738 104.315 106.12C103.532 109.632 102.764 113.164 101.988 116.707C101.264 120.011 100.543 123.339 99.962 126.722C95.3355 126.249 90.7424 125.644 86.2112 125.05C81.2977 124.405 76.4409 123.754 71.6401 123.021C62.264 121.592 53.1026 119.961 44.1855 117.986C43.1616 117.759 42.1427 117.519 41.1244 117.293C40.1601 117.077 39.1782 116.902 38.2329 116.588C37.4359 116.323 36.614 115.877 36.2716 114.924C35.9413 114.005 36.0771 112.958 36.2468 112.053C36.4778 110.821 36.8144 109.621 37.1099 108.416C37.4394 107.072 37.7685 105.729 38.097 104.389C38.7384 101.773 39.3776 99.1642 40.0268 96.5674C42.6481 86.0836 45.2389 75.7235 47.8001 65.4829C50.3309 55.3618 52.7949 45.3453 55.2885 35.4617C55.5866 34.2811 55.8837 33.1016 56.1811 31.9244C56.2988 31.4565 55.6071 31.2993 55.4883 31.7655C52.9463 41.759 50.3238 51.8527 47.7013 62.0738C45.0626 72.3576 42.3934 82.7622 39.6924 93.2895C38.3225 98.6294 36.9201 103.992 35.5095 109.385C34.9879 111.38 34.2332 113.73 35.1519 115.841C36.1248 118.077 38.5229 118.429 40.3695 118.897C49.2493 121.15 58.4279 122.882 67.7942 124.466C77.404 126.09 87.2515 127.499 97.3193 128.523C98.3864 128.632 99.4551 128.704 100.527 128.805C100.559 128.82 100.592 128.833 100.626 128.845C101.197 129.041 101.623 128.686 101.774 128.151C103.536 121.907 104.849 115.49 106.258 109.192C107.658 102.935 108.997 96.702 110.337 90.5155C112.974 78.3322 115.592 66.3191 118.151 54.459C119.578 47.8403 120.907 41.2475 122.322 34.7307C122.439 34.1929 121.938 33.8124 121.452 33.7829L121.45 33.7804Z" fill="url(#paint0_linear_30_539)"/>
<path d="M78.7212 45.5739C78.6336 46.1193 78.4276 46.7235 78.475 47.2799C78.5145 47.7485 79.0808 47.8471 79.2976 47.4799C79.5739 47.0131 79.6531 46.3144 79.725 45.7706C79.7618 45.4932 79.7761 45.2131 79.789 44.9335C79.7958 44.7869 79.7991 44.644 79.7907 44.4971C79.7803 44.317 79.7191 44.1596 79.7008 43.9899C79.6607 43.6158 79.1673 43.574 79.0763 43.9295C79.0441 44.0542 78.9733 44.1644 78.9397 44.2959C78.8987 44.4593 78.8697 44.6217 78.8451 44.7893C78.8068 45.0508 78.763 45.3125 78.7212 45.5739Z" fill="white"/>
<path d="M78.7212 45.5739C78.6336 46.1193 78.4276 46.7235 78.475 47.2799C78.5145 47.7485 79.0808 47.8471 79.2976 47.4799C79.5739 47.0131 79.6531 46.3144 79.725 45.7706C79.7618 45.4932 79.7761 45.2131 79.789 44.9335C79.7958 44.7869 79.7991 44.644 79.7907 44.4971C79.7803 44.317 79.7191 44.1596 79.7008 43.9899C79.6607 43.6158 79.1673 43.574 79.0763 43.9295C79.0441 44.0542 78.9733 44.1644 78.9397 44.2959C78.8987 44.4593 78.8697 44.6217 78.8451 44.7893C78.8068 45.0508 78.763 45.3125 78.7212 45.5739Z" fill="url(#paint1_linear_30_539)"/>
<path d="M83.4335 48.7046C83.7618 48.2226 83.8064 47.4965 83.869 46.9081C83.8958 46.6577 83.9227 46.4074 83.9522 46.1576C83.9736 45.9751 83.9889 45.7955 83.9941 45.6109C83.9984 45.4333 83.9431 45.2942 83.9238 45.1293C83.8861 44.8062 83.4707 44.6957 83.3199 44.9851C83.2431 45.133 83.1526 45.2212 83.0938 45.3957C83.0415 45.5532 82.9948 45.7069 82.9614 45.8705C82.908 46.1308 82.8575 46.3911 82.8081 46.6523C82.6988 47.2244 82.5009 47.9313 82.6342 48.5095C82.7122 48.8498 83.239 48.9897 83.4335 48.7046Z" fill="white"/>
<path d="M83.4335 48.7046C83.7618 48.2226 83.8064 47.4965 83.869 46.9081C83.8958 46.6577 83.9227 46.4074 83.9522 46.1576C83.9736 45.9751 83.9889 45.7955 83.9941 45.6109C83.9984 45.4333 83.9431 45.2942 83.9238 45.1293C83.8861 44.8062 83.4707 44.6957 83.3199 44.9851C83.2431 45.133 83.1526 45.2212 83.0938 45.3957C83.0415 45.5532 82.9948 45.7069 82.9614 45.8705C82.908 46.1308 82.8575 46.3911 82.8081 46.6523C82.6988 47.2244 82.5009 47.9313 82.6342 48.5095C82.7122 48.8498 83.239 48.9897 83.4335 48.7046Z" fill="url(#paint2_linear_30_539)"/>
<path d="M83.9393 50.9744C83.592 52.7883 81.7371 54.1674 79.9731 53.6509C78.2728 53.1529 77.1449 50.7389 77.8211 49.0782C77.9771 48.6953 77.4398 48.3824 77.2576 48.7605C76.8466 49.614 76.7017 50.53 76.8812 51.4929C77.0625 52.4669 77.5202 53.3796 78.2057 54.0897C79.7285 55.6666 82.1556 55.6962 83.7308 54.3544C84.6704 53.5536 85.259 52.4156 85.2368 51.1099C85.223 50.3309 84.08 50.2383 83.9393 50.9744Z" fill="white"/>
<path d="M83.9393 50.9744C83.592 52.7883 81.7371 54.1674 79.9731 53.6509C78.2728 53.1529 77.1449 50.7389 77.8211 49.0782C77.9771 48.6953 77.4398 48.3824 77.2576 48.7605C76.8466 49.614 76.7017 50.53 76.8812 51.4929C77.0625 52.4669 77.5202 53.3796 78.2057 54.0897C79.7285 55.6666 82.1556 55.6962 83.7308 54.3544C84.6704 53.5536 85.259 52.4156 85.2368 51.1099C85.223 50.3309 84.08 50.2383 83.9393 50.9744Z" fill="url(#paint3_linear_30_539)"/>
<path d="M56.5008 63.1069C56.4101 63.104 56.3193 63.1017 56.2287 63.0988C56.2699 62.7384 56.3117 62.3788 56.3672 62.02C56.4641 61.4012 56.5641 60.7844 56.6681 60.1685C56.8841 58.8928 57.1167 57.6236 57.3663 56.36C57.8544 53.8847 58.4196 51.44 59.0099 49.0084C59.346 47.6232 59.6508 46.2249 60.0151 44.8542C60.1227 44.4503 59.55 44.3298 59.4254 44.7087C59.0375 45.8923 58.6211 47.0591 58.2724 48.2617C57.9193 49.4811 57.5909 50.7094 57.2821 51.9468C56.6755 54.3798 56.1306 56.8402 55.6504 59.3244C55.515 60.0254 55.384 60.7287 55.2582 61.4339C55.1283 62.1617 54.9636 62.8827 54.8422 63.613C54.7629 64.0905 55.0779 64.4756 55.5134 64.5014C58.6798 64.6906 61.8685 64.9514 65.0839 65.1624C68.7617 65.4036 72.4712 65.6757 76.2142 65.9606C79.9148 66.2422 83.6478 66.5215 87.4136 66.8205C90.5479 67.069 93.7067 67.2836 96.8867 67.5888C97.5128 67.6489 98.1402 67.7185 98.768 67.7867C98.7836 67.7886 98.8675 67.7972 98.9158 67.8025C98.9532 67.8069 99.032 67.8166 99.0496 67.8189C99.2008 67.8383 99.3519 67.8584 99.5031 67.8778C99.762 67.9116 100.021 67.9468 100.28 67.9821C100.728 68.0434 101.176 68.1124 101.624 68.1759C102.011 68.2305 102.404 68.204 102.792 68.2061C102.974 68.523 103.407 68.6117 103.679 68.4392C103.737 68.4024 103.785 68.3557 103.826 68.3033C104.017 68.3546 104.227 68.3033 104.345 68.088C104.464 67.8693 104.374 67.6084 104.199 67.4423C104.194 67.4377 104.189 67.4324 104.184 67.4277C104.256 67.2098 104.325 66.9912 104.39 66.7711C104.729 65.6296 104.911 64.3937 105.132 63.2187C105.768 59.8358 106.264 56.4274 106.722 53.0339C106.851 52.0825 106.974 51.1313 107.089 50.1805C107.142 49.738 107.179 49.2935 107.216 48.8484C107.253 48.4109 107.192 47.9817 107.235 47.5506C107.278 47.123 106.633 46.9608 106.571 47.3949C106.519 47.7566 106.369 48.064 106.303 48.422C106.235 48.7943 106.16 49.1662 106.091 49.5392C105.943 50.3405 105.815 51.1477 105.669 51.9517C105.356 53.6797 105.023 55.407 104.677 57.1345C104.101 60.0165 103.543 62.9131 102.969 65.8168C102.9 66.1677 102.854 66.5207 102.809 66.876C102.685 66.8425 102.562 66.812 102.448 66.7792C101.989 66.6466 101.543 66.5866 101.077 66.5378C99.9897 66.4236 98.9042 66.3262 97.8225 66.2139C94.7506 65.8955 91.7011 65.5597 88.6726 65.2627C84.9528 64.898 81.2623 64.5958 77.6047 64.3219C73.8223 64.0386 70.0733 63.7851 66.3573 63.5535C63.044 63.3473 59.7603 63.2121 56.4985 63.1079L56.5008 63.1069Z" fill="white"/>
<path d="M56.5008 63.1069C56.4101 63.104 56.3193 63.1017 56.2287 63.0988C56.2699 62.7384 56.3117 62.3788 56.3672 62.02C56.4641 61.4012 56.5641 60.7844 56.6681 60.1685C56.8841 58.8928 57.1167 57.6236 57.3663 56.36C57.8544 53.8847 58.4196 51.44 59.0099 49.0084C59.346 47.6232 59.6508 46.2249 60.0151 44.8542C60.1227 44.4503 59.55 44.3298 59.4254 44.7087C59.0375 45.8923 58.6211 47.0591 58.2724 48.2617C57.9193 49.4811 57.5909 50.7094 57.2821 51.9468C56.6755 54.3798 56.1306 56.8402 55.6504 59.3244C55.515 60.0254 55.384 60.7287 55.2582 61.4339C55.1283 62.1617 54.9636 62.8827 54.8422 63.613C54.7629 64.0905 55.0779 64.4756 55.5134 64.5014C58.6798 64.6906 61.8685 64.9514 65.0839 65.1624C68.7617 65.4036 72.4712 65.6757 76.2142 65.9606C79.9148 66.2422 83.6478 66.5215 87.4136 66.8205C90.5479 67.069 93.7067 67.2836 96.8867 67.5888C97.5128 67.6489 98.1402 67.7185 98.768 67.7867C98.7836 67.7886 98.8675 67.7972 98.9158 67.8025C98.9532 67.8069 99.032 67.8166 99.0496 67.8189C99.2008 67.8383 99.3519 67.8584 99.5031 67.8778C99.762 67.9116 100.021 67.9468 100.28 67.9821C100.728 68.0434 101.176 68.1124 101.624 68.1759C102.011 68.2305 102.404 68.204 102.792 68.2061C102.974 68.523 103.407 68.6117 103.679 68.4392C103.737 68.4024 103.785 68.3557 103.826 68.3033C104.017 68.3546 104.227 68.3033 104.345 68.088C104.464 67.8693 104.374 67.6084 104.199 67.4423C104.194 67.4377 104.189 67.4324 104.184 67.4277C104.256 67.2098 104.325 66.9912 104.39 66.7711C104.729 65.6296 104.911 64.3937 105.132 63.2187C105.768 59.8358 106.264 56.4274 106.722 53.0339C106.851 52.0825 106.974 51.1313 107.089 50.1805C107.142 49.738 107.179 49.2935 107.216 48.8484C107.253 48.4109 107.192 47.9817 107.235 47.5506C107.278 47.123 106.633 46.9608 106.571 47.3949C106.519 47.7566 106.369 48.064 106.303 48.422C106.235 48.7943 106.16 49.1662 106.091 49.5392C105.943 50.3405 105.815 51.1477 105.669 51.9517C105.356 53.6797 105.023 55.407 104.677 57.1345C104.101 60.0165 103.543 62.9131 102.969 65.8168C102.9 66.1677 102.854 66.5207 102.809 66.876C102.685 66.8425 102.562 66.812 102.448 66.7792C101.989 66.6466 101.543 66.5866 101.077 66.5378C99.9897 66.4236 98.9042 66.3262 97.8225 66.2139C94.7506 65.8955 91.7011 65.5597 88.6726 65.2627C84.9528 64.898 81.2623 64.5958 77.6047 64.3219C73.8223 64.0386 70.0733 63.7851 66.3573 63.5535C63.044 63.3473 59.7603 63.2121 56.4985 63.1079L56.5008 63.1069Z" fill="url(#paint4_linear_30_539)"/>
<path d="M69.5677 42.9124C67.7942 42.9245 66.031 43.0327 64.2751 43.1226C62.5256 43.2117 60.7812 43.3004 59.052 43.4742C58.6662 43.513 58.6957 44.1068 59.0835 44.1147C60.8239 44.1496 62.5719 44.1 64.325 44.0494C66.0844 43.9987 67.8531 43.9663 69.6222 43.8373C70.1869 43.7961 70.1349 42.9087 69.5677 42.9124Z" fill="white"/>
<path d="M69.5677 42.9124C67.7942 42.9245 66.031 43.0327 64.2751 43.1226C62.5256 43.2117 60.7812 43.3004 59.052 43.4742C58.6662 43.513 58.6957 44.1068 59.0835 44.1147C60.8239 44.1496 62.5719 44.1 64.325 44.0494C66.0844 43.9987 67.8531 43.9663 69.6222 43.8373C70.1869 43.7961 70.1349 42.9087 69.5677 42.9124Z" fill="url(#paint5_linear_30_539)"/>
<path d="M104.991 44.7227C100.749 44.5362 96.5485 44.5934 92.3867 44.479C92.2855 44.0512 92.1623 43.6288 92.0152 43.214C91.1325 40.7278 89.369 38.6749 87.0275 37.5922C84.7154 36.5223 82.0371 36.3801 79.7493 37.3618C79.6856 37.3895 79.6217 37.4179 79.5585 37.4464C78.7581 36.7951 77.6021 36.8619 76.7375 37.3101C75.6177 37.8904 74.9858 39.1501 74.5203 40.2993C73.4995 42.8156 72.8704 45.613 72.9414 48.4002C73.008 51.0058 73.7463 53.6299 75.3094 55.7667C76.764 57.7559 78.8213 59.3485 81.1701 59.922C83.668 60.5322 86.2465 59.808 88.2091 58.2371C90.4128 56.4728 91.7747 53.83 92.3818 51.0087C92.7889 49.1164 92.8779 47.0988 92.5295 45.1595C96.6773 45.3528 100.868 45.716 105.095 45.8409C105.811 45.8618 105.7 44.7541 104.993 44.7229L104.991 44.7227ZM88.9383 55.8664C87.5167 57.5825 85.4575 58.7992 83.2177 58.8778C81.1283 58.9507 79.0953 58.0355 77.5154 56.5829C75.8398 55.0424 74.7254 53.0168 74.2318 50.7905C73.682 48.3082 73.9045 45.723 74.4935 43.3267C74.7894 42.1236 75.1664 40.9192 75.6584 39.7933C76.1017 38.7781 76.8173 37.7404 77.9844 37.6411C78.3022 37.6142 78.6132 37.6555 78.8919 37.786C77.1095 38.7921 75.613 40.4381 74.9114 42.4177C74.7076 42.9918 74.5607 43.5801 74.4808 44.1911C74.3862 44.9165 75.4304 45.1851 75.5616 44.4512C75.9386 42.3441 77.1454 40.4422 78.8322 39.2472C80.6095 37.9874 82.8161 37.613 84.9623 38.1305C87.1237 38.652 89.0375 40.0056 90.208 42.004C91.3646 43.9789 91.7371 46.3907 91.5703 48.6364C91.3775 51.233 90.5698 53.8971 88.9383 55.8664Z" fill="white"/>
<path d="M104.991 44.7227C100.749 44.5362 96.5485 44.5934 92.3867 44.479C92.2855 44.0512 92.1623 43.6288 92.0152 43.214C91.1325 40.7278 89.369 38.6749 87.0275 37.5922C84.7154 36.5223 82.0371 36.3801 79.7493 37.3618C79.6856 37.3895 79.6217 37.4179 79.5585 37.4464C78.7581 36.7951 77.6021 36.8619 76.7375 37.3101C75.6177 37.8904 74.9858 39.1501 74.5203 40.2993C73.4995 42.8156 72.8704 45.613 72.9414 48.4002C73.008 51.0058 73.7463 53.6299 75.3094 55.7667C76.764 57.7559 78.8213 59.3485 81.1701 59.922C83.668 60.5322 86.2465 59.808 88.2091 58.2371C90.4128 56.4728 91.7747 53.83 92.3818 51.0087C92.7889 49.1164 92.8779 47.0988 92.5295 45.1595C96.6773 45.3528 100.868 45.716 105.095 45.8409C105.811 45.8618 105.7 44.7541 104.993 44.7229L104.991 44.7227ZM88.9383 55.8664C87.5167 57.5825 85.4575 58.7992 83.2177 58.8778C81.1283 58.9507 79.0953 58.0355 77.5154 56.5829C75.8398 55.0424 74.7254 53.0168 74.2318 50.7905C73.682 48.3082 73.9045 45.723 74.4935 43.3267C74.7894 42.1236 75.1664 40.9192 75.6584 39.7933C76.1017 38.7781 76.8173 37.7404 77.9844 37.6411C78.3022 37.6142 78.6132 37.6555 78.8919 37.786C77.1095 38.7921 75.613 40.4381 74.9114 42.4177C74.7076 42.9918 74.5607 43.5801 74.4808 44.1911C74.3862 44.9165 75.4304 45.1851 75.5616 44.4512C75.9386 42.3441 77.1454 40.4422 78.8322 39.2472C80.6095 37.9874 82.8161 37.613 84.9623 38.1305C87.1237 38.652 89.0375 40.0056 90.208 42.004C91.3646 43.9789 91.7371 46.3907 91.5703 48.6364C91.3775 51.233 90.5698 53.8971 88.9383 55.8664Z" fill="url(#paint6_linear_30_539)"/>
<path d="M52.4987 73.5215C58.1214 73.9955 63.8288 74.2911 69.6095 74.648C75.468 75.0092 81.4075 75.3366 87.4297 75.6751C89.1487 75.7716 90.8747 75.871 92.6065 75.9566C93.4627 75.9989 94.3207 76.0457 95.1802 76.0694C96.0619 76.0936 96.9447 76.0241 97.8245 75.9888C98.3773 75.9671 98.4837 75.0031 97.8733 74.9187C96.3026 74.7015 94.7594 74.5258 93.1982 74.4473C91.6556 74.3699 90.1185 74.2993 88.5874 74.2329C85.564 74.102 82.5615 73.9711 79.5795 73.8419C73.6543 73.5845 67.8102 73.3649 62.0441 73.1457C58.8292 73.0237 55.6369 72.9009 52.4705 72.8525C52.0747 72.8465 52.1133 73.4892 52.4987 73.5215Z" fill="white"/>
<path d="M52.4987 73.5215C58.1214 73.9955 63.8288 74.2911 69.6095 74.648C75.468 75.0092 81.4075 75.3366 87.4297 75.6751C89.1487 75.7716 90.8747 75.871 92.6065 75.9566C93.4627 75.9989 94.3207 76.0457 95.1802 76.0694C96.0619 76.0936 96.9447 76.0241 97.8245 75.9888C98.3773 75.9671 98.4837 75.0031 97.8733 74.9187C96.3026 74.7015 94.7594 74.5258 93.1982 74.4473C91.6556 74.3699 90.1185 74.2993 88.5874 74.2329C85.564 74.102 82.5615 73.9711 79.5795 73.8419C73.6543 73.5845 67.8102 73.3649 62.0441 73.1457C58.8292 73.0237 55.6369 72.9009 52.4705 72.8525C52.0747 72.8465 52.1133 73.4892 52.4987 73.5215Z" fill="url(#paint7_linear_30_539)"/>
<path d="M96.4512 81.4149C93.8628 81.0273 91.2801 80.8912 88.7191 80.6887C86.1726 80.4872 83.6405 80.2737 81.1243 80.0573C76.16 79.6289 71.2547 79.1455 66.4088 78.6093C63.6877 78.308 60.9857 77.9894 58.3024 77.6548C57.9583 77.6121 57.9042 78.2721 58.2522 78.3227C63.0099 79.0116 67.8293 79.6524 72.7098 80.2393C77.641 80.8327 82.6336 81.3802 87.6879 81.8413C90.5691 82.1035 93.4935 82.441 96.4055 82.4245C96.9315 82.4212 97.0176 81.4999 96.4526 81.4151L96.4512 81.4149Z" fill="white"/>
<path d="M96.4512 81.4149C93.8628 81.0273 91.2801 80.8912 88.7191 80.6887C86.1726 80.4872 83.6405 80.2737 81.1243 80.0573C76.16 79.6289 71.2547 79.1455 66.4088 78.6093C63.6877 78.308 60.9857 77.9894 58.3024 77.6548C57.9583 77.6121 57.9042 78.2721 58.2522 78.3227C63.0099 79.0116 67.8293 79.6524 72.7098 80.2393C77.641 80.8327 82.6336 81.3802 87.6879 81.8413C90.5691 82.1035 93.4935 82.441 96.4055 82.4245C96.9315 82.4212 97.0176 81.4999 96.4526 81.4151L96.4512 81.4149Z" fill="url(#paint8_linear_30_539)"/>
<path d="M86.7537 99.8148C86.596 98.5043 85.6739 97.751 84.5804 97.3374C83.2395 96.8299 81.8889 96.3674 80.5443 95.9231C75.1567 94.142 69.7523 92.8623 64.3901 92.0611C61.3925 91.6127 58.4101 91.3154 55.4494 91.2953C54.8052 91.2911 54.8615 92.3551 55.499 92.407C55.8517 92.4358 56.2041 92.4654 56.5565 92.4956C56.4084 92.8638 56.2699 93.2362 56.162 93.6216C55.9688 94.3131 55.8208 95.0242 55.7204 95.7476C55.5224 97.1779 55.4552 98.7171 55.6459 100.187C55.6807 100.455 55.8341 100.765 56.1007 100.825C59.5743 101.603 63.0949 102.245 66.6315 103.048C70.1954 103.857 73.7929 104.668 77.4239 105.485C78.455 105.718 79.4898 105.939 80.5267 106.163C81.0242 106.271 81.5219 106.367 82.0216 106.458C82.5662 106.557 83.1295 106.611 83.671 106.75C84.0634 106.851 84.4623 106.577 84.4194 106.108C84.2917 104.706 85.2568 103.805 85.9123 102.807C86.4506 101.987 86.8844 100.899 86.7537 99.8148ZM84.7516 102.098C84.0938 102.989 83.2745 104.039 83.1455 105.263C82.9051 105.194 82.6653 105.12 82.4277 105.061C81.9325 104.94 81.4391 104.82 80.9431 104.715C80.0465 104.525 79.153 104.331 78.2596 104.149C76.4312 103.778 74.6112 103.41 72.8001 103.043C69.2486 102.323 65.7294 101.609 62.244 100.866C60.3967 100.473 58.5631 100.031 56.732 99.6499C56.5775 98.4354 56.5062 97.243 56.6135 96.0324C56.6723 95.367 56.7728 94.7084 56.9114 94.0643C57.0205 93.5554 57.1261 93.0494 57.2718 92.5583C61.7527 92.957 66.2698 93.5064 70.8215 94.492C73.4107 95.0527 76.0043 95.7266 78.5965 96.5148C79.9104 96.9141 81.2235 97.3431 82.5353 97.801C83.1662 98.0215 83.7994 98.2474 84.4254 98.4973C84.8555 98.6693 85.3325 98.9089 85.5102 99.4091C85.85 100.369 85.2442 101.43 84.7516 102.098Z" fill="white"/>
<path d="M86.7537 99.8148C86.596 98.5043 85.6739 97.751 84.5804 97.3374C83.2395 96.8299 81.8889 96.3674 80.5443 95.9231C75.1567 94.142 69.7523 92.8623 64.3901 92.0611C61.3925 91.6127 58.4101 91.3154 55.4494 91.2953C54.8052 91.2911 54.8615 92.3551 55.499 92.407C55.8517 92.4358 56.2041 92.4654 56.5565 92.4956C56.4084 92.8638 56.2699 93.2362 56.162 93.6216C55.9688 94.3131 55.8208 95.0242 55.7204 95.7476C55.5224 97.1779 55.4552 98.7171 55.6459 100.187C55.6807 100.455 55.8341 100.765 56.1007 100.825C59.5743 101.603 63.0949 102.245 66.6315 103.048C70.1954 103.857 73.7929 104.668 77.4239 105.485C78.455 105.718 79.4898 105.939 80.5267 106.163C81.0242 106.271 81.5219 106.367 82.0216 106.458C82.5662 106.557 83.1295 106.611 83.671 106.75C84.0634 106.851 84.4623 106.577 84.4194 106.108C84.2917 104.706 85.2568 103.805 85.9123 102.807C86.4506 101.987 86.8844 100.899 86.7537 99.8148ZM84.7516 102.098C84.0938 102.989 83.2745 104.039 83.1455 105.263C82.9051 105.194 82.6653 105.12 82.4277 105.061C81.9325 104.94 81.4391 104.82 80.9431 104.715C80.0465 104.525 79.153 104.331 78.2596 104.149C76.4312 103.778 74.6112 103.41 72.8001 103.043C69.2486 102.323 65.7294 101.609 62.244 100.866C60.3967 100.473 58.5631 100.031 56.732 99.6499C56.5775 98.4354 56.5062 97.243 56.6135 96.0324C56.6723 95.367 56.7728 94.7084 56.9114 94.0643C57.0205 93.5554 57.1261 93.0494 57.2718 92.5583C61.7527 92.957 66.2698 93.5064 70.8215 94.492C73.4107 95.0527 76.0043 95.7266 78.5965 96.5148C79.9104 96.9141 81.2235 97.3431 82.5353 97.801C83.1662 98.0215 83.7994 98.2474 84.4254 98.4973C84.8555 98.6693 85.3325 98.9089 85.5102 99.4091C85.85 100.369 85.2442 101.43 84.7516 102.098Z" fill="url(#paint9_linear_30_539)"/>
<path d="M46.1184 106.066C45.7738 106.031 45.7181 106.663 46.0608 106.755C48.6089 107.443 51.2271 107.893 53.8339 108.387C56.7053 108.931 59.5971 109.481 62.5104 110.034C68.5723 111.184 74.7277 112.375 80.9827 113.488C84.1435 114.05 87.3271 114.584 90.539 115.099C91.051 115.181 91.1046 114.226 90.5877 114.118C84.6328 112.878 78.7604 111.787 72.9655 110.732C66.842 109.616 60.8095 108.538 54.8665 107.474C53.3579 107.204 51.8539 106.952 50.3559 106.698C48.9386 106.457 47.5303 106.207 46.1184 106.066Z" fill="white"/>
<path d="M46.1184 106.066C45.7738 106.031 45.7181 106.663 46.0608 106.755C48.6089 107.443 51.2271 107.893 53.8339 108.387C56.7053 108.931 59.5971 109.481 62.5104 110.034C68.5723 111.184 74.7277 112.375 80.9827 113.488C84.1435 114.05 87.3271 114.584 90.539 115.099C91.051 115.181 91.1046 114.226 90.5877 114.118C84.6328 112.878 78.7604 111.787 72.9655 110.732C66.842 109.616 60.8095 108.538 54.8665 107.474C53.3579 107.204 51.8539 106.952 50.3559 106.698C48.9386 106.457 47.5303 106.207 46.1184 106.066Z" fill="url(#paint10_linear_30_539)"/>
<path d="M121.45 33.7804C112.109 33.2145 102.966 32.6608 94.0149 32.119C85.2512 31.5886 76.6671 31.0851 68.2569 30.5922C63.576 30.3181 58.9474 30.0864 54.371 29.8381C53.9915 29.8178 54.0288 30.4311 54.3996 30.4595C62.5353 31.0867 70.8405 31.7158 79.3203 32.333C87.9743 32.9631 96.8136 33.5836 105.842 34.2238C110.689 34.5673 115.591 34.9142 120.55 35.2659C119.291 40.7582 117.948 46.2625 116.674 51.8235C115.326 57.7156 113.973 63.6489 112.615 69.6223C109.887 81.6269 107.069 93.7738 104.315 106.12C103.532 109.632 102.764 113.164 101.988 116.707C101.264 120.011 100.543 123.339 99.962 126.722C95.3355 126.249 90.7424 125.644 86.2112 125.05C81.2977 124.405 76.4409 123.754 71.6401 123.021C62.264 121.592 53.1026 119.961 44.1855 117.986C43.1616 117.759 42.1427 117.519 41.1244 117.293C40.1601 117.077 39.1782 116.902 38.2329 116.588C37.4359 116.323 36.614 115.877 36.2716 114.924C35.9413 114.005 36.0771 112.958 36.2468 112.053C36.4778 110.821 36.8144 109.621 37.1099 108.416C37.4394 107.072 37.7685 105.729 38.097 104.389C38.7384 101.773 39.3776 99.1642 40.0268 96.5674C42.6481 86.0836 45.2389 75.7235 47.8001 65.4829C50.3309 55.3618 52.7949 45.3453 55.2885 35.4617C55.5866 34.2811 55.8837 33.1016 56.1811 31.9244C56.2988 31.4565 55.6071 31.2993 55.4883 31.7655C52.9463 41.759 50.3238 51.8527 47.7013 62.0738C45.0626 72.3576 42.3934 82.7622 39.6924 93.2895C38.3225 98.6294 36.9201 103.992 35.5095 109.385C34.9879 111.38 34.2332 113.73 35.1519 115.841C36.1248 118.077 38.5229 118.429 40.3695 118.897C49.2493 121.15 58.4279 122.882 67.7942 124.466C77.404 126.09 87.2515 127.499 97.3193 128.523C98.3864 128.632 99.4551 128.704 100.527 128.805C100.559 128.82 100.592 128.833 100.626 128.845C101.197 129.041 101.623 128.686 101.774 128.151C103.536 121.907 104.849 115.49 106.258 109.192C107.658 102.935 108.997 96.702 110.337 90.5155C112.974 78.3322 115.592 66.3191 118.151 54.459C119.578 47.8403 120.907 41.2475 122.322 34.7307C122.439 34.1929 121.938 33.8124 121.452 33.7829L121.45 33.7804Z" stroke="white" stroke-width="0.56165"/>
<path d="M121.45 33.7804C112.109 33.2145 102.966 32.6608 94.0149 32.119C85.2512 31.5886 76.6671 31.0851 68.2569 30.5922C63.576 30.3181 58.9474 30.0864 54.371 29.8381C53.9915 29.8178 54.0288 30.4311 54.3996 30.4595C62.5353 31.0867 70.8405 31.7158 79.3203 32.333C87.9743 32.9631 96.8136 33.5836 105.842 34.2238C110.689 34.5673 115.591 34.9142 120.55 35.2659C119.291 40.7582 117.948 46.2625 116.674 51.8235C115.326 57.7156 113.973 63.6489 112.615 69.6223C109.887 81.6269 107.069 93.7738 104.315 106.12C103.532 109.632 102.764 113.164 101.988 116.707C101.264 120.011 100.543 123.339 99.962 126.722C95.3355 126.249 90.7424 125.644 86.2112 125.05C81.2977 124.405 76.4409 123.754 71.6401 123.021C62.264 121.592 53.1026 119.961 44.1855 117.986C43.1616 117.759 42.1427 117.519 41.1244 117.293C40.1601 117.077 39.1782 116.902 38.2329 116.588C37.4359 116.323 36.614 115.877 36.2716 114.924C35.9413 114.005 36.0771 112.958 36.2468 112.053C36.4778 110.821 36.8144 109.621 37.1099 108.416C37.4394 107.072 37.7685 105.729 38.097 104.389C38.7384 101.773 39.3776 99.1642 40.0268 96.5674C42.6481 86.0836 45.2389 75.7235 47.8001 65.4829C50.3309 55.3618 52.7949 45.3453 55.2885 35.4617C55.5866 34.2811 55.8837 33.1016 56.1811 31.9244C56.2988 31.4565 55.6071 31.2993 55.4883 31.7655C52.9463 41.759 50.3238 51.8527 47.7013 62.0738C45.0626 72.3576 42.3934 82.7622 39.6924 93.2895C38.3225 98.6294 36.9201 103.992 35.5095 109.385C34.9879 111.38 34.2332 113.73 35.1519 115.841C36.1248 118.077 38.5229 118.429 40.3695 118.897C49.2493 121.15 58.4279 122.882 67.7942 124.466C77.404 126.09 87.2515 127.499 97.3193 128.523C98.3864 128.632 99.4551 128.704 100.527 128.805C100.559 128.82 100.592 128.833 100.626 128.845C101.197 129.041 101.623 128.686 101.774 128.151C103.536 121.907 104.849 115.49 106.258 109.192C107.658 102.935 108.997 96.702 110.337 90.5155C112.974 78.3322 115.592 66.3191 118.151 54.459C119.578 47.8403 120.907 41.2475 122.322 34.7307C122.439 34.1929 121.938 33.8124 121.452 33.7829L121.45 33.7804Z" stroke="url(#paint11_linear_30_539)" stroke-width="0.56165"/>
<path d="M78.7212 45.5739C78.6336 46.1193 78.4276 46.7235 78.475 47.2799C78.5145 47.7485 79.0808 47.8471 79.2976 47.4799C79.5739 47.0131 79.6531 46.3144 79.725 45.7706C79.7618 45.4932 79.7761 45.2131 79.789 44.9335C79.7958 44.7869 79.7991 44.644 79.7907 44.4971C79.7803 44.317 79.7191 44.1596 79.7008 43.9899C79.6607 43.6158 79.1673 43.574 79.0763 43.9295C79.0441 44.0542 78.9733 44.1644 78.9397 44.2959C78.8987 44.4593 78.8697 44.6217 78.8451 44.7893C78.8068 45.0508 78.763 45.3125 78.7212 45.5739Z" stroke="white" stroke-width="0.56165"/>
<path d="M78.7212 45.5739C78.6336 46.1193 78.4276 46.7235 78.475 47.2799C78.5145 47.7485 79.0808 47.8471 79.2976 47.4799C79.5739 47.0131 79.6531 46.3144 79.725 45.7706C79.7618 45.4932 79.7761 45.2131 79.789 44.9335C79.7958 44.7869 79.7991 44.644 79.7907 44.4971C79.7803 44.317 79.7191 44.1596 79.7008 43.9899C79.6607 43.6158 79.1673 43.574 79.0763 43.9295C79.0441 44.0542 78.9733 44.1644 78.9397 44.2959C78.8987 44.4593 78.8697 44.6217 78.8451 44.7893C78.8068 45.0508 78.763 45.3125 78.7212 45.5739Z" stroke="url(#paint12_linear_30_539)" stroke-width="0.56165"/>
<path d="M83.4335 48.7046C83.7618 48.2226 83.8064 47.4965 83.869 46.9081C83.8958 46.6577 83.9227 46.4074 83.9522 46.1576C83.9736 45.9751 83.9889 45.7955 83.9941 45.6109C83.9984 45.4333 83.9431 45.2942 83.9238 45.1293C83.8861 44.8062 83.4707 44.6957 83.3199 44.9851C83.2431 45.133 83.1526 45.2212 83.0938 45.3957C83.0415 45.5532 82.9948 45.7069 82.9614 45.8705C82.908 46.1308 82.8575 46.3911 82.8081 46.6523C82.6988 47.2244 82.5009 47.9313 82.6342 48.5095C82.7122 48.8498 83.239 48.9897 83.4335 48.7046Z" stroke="white" stroke-width="0.56165"/>
<path d="M83.4335 48.7046C83.7618 48.2226 83.8064 47.4965 83.869 46.9081C83.8958 46.6577 83.9227 46.4074 83.9522 46.1576C83.9736 45.9751 83.9889 45.7955 83.9941 45.6109C83.9984 45.4333 83.9431 45.2942 83.9238 45.1293C83.8861 44.8062 83.4707 44.6957 83.3199 44.9851C83.2431 45.133 83.1526 45.2212 83.0938 45.3957C83.0415 45.5532 82.9948 45.7069 82.9614 45.8705C82.908 46.1308 82.8575 46.3911 82.8081 46.6523C82.6988 47.2244 82.5009 47.9313 82.6342 48.5095C82.7122 48.8498 83.239 48.9897 83.4335 48.7046Z" stroke="url(#paint13_linear_30_539)" stroke-width="0.56165"/>
<path d="M83.9393 50.9744C83.592 52.7883 81.7371 54.1674 79.9731 53.6509C78.2728 53.1529 77.1449 50.7389 77.8211 49.0782C77.9771 48.6953 77.4398 48.3824 77.2576 48.7605C76.8466 49.614 76.7017 50.53 76.8812 51.4929C77.0625 52.4669 77.5202 53.3796 78.2057 54.0897C79.7285 55.6666 82.1556 55.6962 83.7308 54.3544C84.6704 53.5536 85.259 52.4156 85.2368 51.1099C85.223 50.3309 84.08 50.2383 83.9393 50.9744Z" stroke="white" stroke-width="0.56165"/>
<path d="M83.9393 50.9744C83.592 52.7883 81.7371 54.1674 79.9731 53.6509C78.2728 53.1529 77.1449 50.7389 77.8211 49.0782C77.9771 48.6953 77.4398 48.3824 77.2576 48.7605C76.8466 49.614 76.7017 50.53 76.8812 51.4929C77.0625 52.4669 77.5202 53.3796 78.2057 54.0897C79.7285 55.6666 82.1556 55.6962 83.7308 54.3544C84.6704 53.5536 85.259 52.4156 85.2368 51.1099C85.223 50.3309 84.08 50.2383 83.9393 50.9744Z" stroke="url(#paint14_linear_30_539)" stroke-width="0.56165"/>
<path d="M56.5008 63.1069C56.4101 63.104 56.3193 63.1017 56.2287 63.0988C56.2699 62.7384 56.3117 62.3788 56.3672 62.02C56.4641 61.4012 56.5641 60.7844 56.6681 60.1685C56.8841 58.8928 57.1167 57.6236 57.3663 56.36C57.8544 53.8847 58.4196 51.44 59.0099 49.0084C59.346 47.6232 59.6508 46.2249 60.0151 44.8542C60.1227 44.4503 59.55 44.3298 59.4254 44.7087C59.0375 45.8923 58.6211 47.0591 58.2724 48.2617C57.9193 49.4811 57.5909 50.7094 57.2821 51.9468C56.6755 54.3798 56.1306 56.8402 55.6504 59.3244C55.515 60.0254 55.384 60.7287 55.2582 61.4339C55.1283 62.1617 54.9636 62.8827 54.8422 63.613C54.7629 64.0905 55.0779 64.4756 55.5134 64.5014C58.6798 64.6906 61.8685 64.9514 65.0839 65.1624C68.7617 65.4036 72.4712 65.6757 76.2142 65.9606C79.9148 66.2422 83.6478 66.5215 87.4136 66.8205C90.5479 67.069 93.7067 67.2836 96.8867 67.5888C97.5128 67.6489 98.1402 67.7185 98.768 67.7867C98.7836 67.7886 98.8675 67.7972 98.9158 67.8025C98.9532 67.8069 99.032 67.8166 99.0496 67.8189C99.2008 67.8383 99.3519 67.8584 99.5031 67.8778C99.762 67.9116 100.021 67.9468 100.28 67.9821C100.728 68.0434 101.176 68.1124 101.624 68.1759C102.011 68.2305 102.404 68.204 102.792 68.2061C102.974 68.523 103.407 68.6117 103.679 68.4392C103.737 68.4024 103.785 68.3557 103.826 68.3033C104.017 68.3546 104.227 68.3033 104.345 68.088C104.464 67.8693 104.374 67.6084 104.199 67.4423C104.194 67.4377 104.189 67.4324 104.184 67.4277C104.256 67.2098 104.325 66.9912 104.39 66.7711C104.729 65.6296 104.911 64.3937 105.132 63.2187C105.768 59.8358 106.264 56.4274 106.722 53.0339C106.851 52.0825 106.974 51.1313 107.089 50.1805C107.142 49.738 107.179 49.2935 107.216 48.8484C107.253 48.4109 107.192 47.9817 107.235 47.5506C107.278 47.123 106.633 46.9608 106.571 47.3949C106.519 47.7566 106.369 48.064 106.303 48.422C106.235 48.7943 106.16 49.1662 106.091 49.5392C105.943 50.3405 105.815 51.1477 105.669 51.9517C105.356 53.6797 105.023 55.407 104.677 57.1345C104.101 60.0165 103.543 62.9131 102.969 65.8168C102.9 66.1677 102.854 66.5207 102.809 66.876C102.685 66.8425 102.562 66.812 102.448 66.7792C101.989 66.6466 101.543 66.5866 101.077 66.5378C99.9897 66.4236 98.9042 66.3262 97.8225 66.2139C94.7506 65.8955 91.7011 65.5597 88.6726 65.2627C84.9528 64.898 81.2623 64.5958 77.6047 64.3219C73.8223 64.0386 70.0733 63.7851 66.3573 63.5535C63.044 63.3473 59.7603 63.2121 56.4985 63.1079L56.5008 63.1069Z" stroke="white" stroke-width="0.56165"/>
<path d="M56.5008 63.1069C56.4101 63.104 56.3193 63.1017 56.2287 63.0988C56.2699 62.7384 56.3117 62.3788 56.3672 62.02C56.4641 61.4012 56.5641 60.7844 56.6681 60.1685C56.8841 58.8928 57.1167 57.6236 57.3663 56.36C57.8544 53.8847 58.4196 51.44 59.0099 49.0084C59.346 47.6232 59.6508 46.2249 60.0151 44.8542C60.1227 44.4503 59.55 44.3298 59.4254 44.7087C59.0375 45.8923 58.6211 47.0591 58.2724 48.2617C57.9193 49.4811 57.5909 50.7094 57.2821 51.9468C56.6755 54.3798 56.1306 56.8402 55.6504 59.3244C55.515 60.0254 55.384 60.7287 55.2582 61.4339C55.1283 62.1617 54.9636 62.8827 54.8422 63.613C54.7629 64.0905 55.0779 64.4756 55.5134 64.5014C58.6798 64.6906 61.8685 64.9514 65.0839 65.1624C68.7617 65.4036 72.4712 65.6757 76.2142 65.9606C79.9148 66.2422 83.6478 66.5215 87.4136 66.8205C90.5479 67.069 93.7067 67.2836 96.8867 67.5888C97.5128 67.6489 98.1402 67.7185 98.768 67.7867C98.7836 67.7886 98.8675 67.7972 98.9158 67.8025C98.9532 67.8069 99.032 67.8166 99.0496 67.8189C99.2008 67.8383 99.3519 67.8584 99.5031 67.8778C99.762 67.9116 100.021 67.9468 100.28 67.9821C100.728 68.0434 101.176 68.1124 101.624 68.1759C102.011 68.2305 102.404 68.204 102.792 68.2061C102.974 68.523 103.407 68.6117 103.679 68.4392C103.737 68.4024 103.785 68.3557 103.826 68.3033C104.017 68.3546 104.227 68.3033 104.345 68.088C104.464 67.8693 104.374 67.6084 104.199 67.4423C104.194 67.4377 104.189 67.4324 104.184 67.4277C104.256 67.2098 104.325 66.9912 104.39 66.7711C104.729 65.6296 104.911 64.3937 105.132 63.2187C105.768 59.8358 106.264 56.4274 106.722 53.0339C106.851 52.0825 106.974 51.1313 107.089 50.1805C107.142 49.738 107.179 49.2935 107.216 48.8484C107.253 48.4109 107.192 47.9817 107.235 47.5506C107.278 47.123 106.633 46.9608 106.571 47.3949C106.519 47.7566 106.369 48.064 106.303 48.422C106.235 48.7943 106.16 49.1662 106.091 49.5392C105.943 50.3405 105.815 51.1477 105.669 51.9517C105.356 53.6797 105.023 55.407 104.677 57.1345C104.101 60.0165 103.543 62.9131 102.969 65.8168C102.9 66.1677 102.854 66.5207 102.809 66.876C102.685 66.8425 102.562 66.812 102.448 66.7792C101.989 66.6466 101.543 66.5866 101.077 66.5378C99.9897 66.4236 98.9042 66.3262 97.8225 66.2139C94.7506 65.8955 91.7011 65.5597 88.6726 65.2627C84.9528 64.898 81.2623 64.5958 77.6047 64.3219C73.8223 64.0386 70.0733 63.7851 66.3573 63.5535C63.044 63.3473 59.7603 63.2121 56.4985 63.1079L56.5008 63.1069Z" stroke="url(#paint15_linear_30_539)" stroke-width="0.56165"/>
<path d="M69.5677 42.9124C67.7942 42.9245 66.031 43.0327 64.2751 43.1226C62.5256 43.2117 60.7812 43.3004 59.052 43.4742C58.6662 43.513 58.6957 44.1068 59.0835 44.1147C60.8239 44.1496 62.5719 44.1 64.325 44.0494C66.0844 43.9987 67.8531 43.9663 69.6222 43.8373C70.1869 43.7961 70.1349 42.9087 69.5677 42.9124Z" stroke="white" stroke-width="0.56165"/>
<path d="M69.5677 42.9124C67.7942 42.9245 66.031 43.0327 64.2751 43.1226C62.5256 43.2117 60.7812 43.3004 59.052 43.4742C58.6662 43.513 58.6957 44.1068 59.0835 44.1147C60.8239 44.1496 62.5719 44.1 64.325 44.0494C66.0844 43.9987 67.8531 43.9663 69.6222 43.8373C70.1869 43.7961 70.1349 42.9087 69.5677 42.9124Z" stroke="url(#paint16_linear_30_539)" stroke-width="0.56165"/>
<path d="M104.991 44.7227C100.749 44.5362 96.5485 44.5934 92.3867 44.479C92.2855 44.0512 92.1623 43.6288 92.0152 43.214C91.1325 40.7278 89.369 38.6749 87.0275 37.5922C84.7154 36.5223 82.0371 36.3801 79.7493 37.3618C79.6856 37.3895 79.6217 37.4179 79.5585 37.4464C78.7581 36.7951 77.6021 36.8619 76.7375 37.3101C75.6177 37.8904 74.9858 39.1501 74.5203 40.2993C73.4995 42.8156 72.8704 45.613 72.9414 48.4002C73.008 51.0058 73.7463 53.6299 75.3094 55.7667C76.764 57.7559 78.8213 59.3485 81.1701 59.922C83.668 60.5322 86.2465 59.808 88.2091 58.2371C90.4128 56.4728 91.7747 53.83 92.3818 51.0087C92.7889 49.1164 92.8779 47.0988 92.5295 45.1595C96.6773 45.3528 100.868 45.716 105.095 45.8409C105.811 45.8618 105.7 44.7541 104.993 44.7229L104.991 44.7227ZM88.9383 55.8664C87.5167 57.5825 85.4575 58.7992 83.2177 58.8778C81.1283 58.9507 79.0953 58.0355 77.5154 56.5829C75.8398 55.0424 74.7254 53.0168 74.2318 50.7905C73.682 48.3082 73.9045 45.723 74.4935 43.3267C74.7894 42.1236 75.1664 40.9192 75.6584 39.7933C76.1017 38.7781 76.8173 37.7404 77.9844 37.6411C78.3022 37.6142 78.6132 37.6555 78.8919 37.786C77.1095 38.7921 75.613 40.4381 74.9114 42.4177C74.7076 42.9918 74.5607 43.5801 74.4808 44.1911C74.3862 44.9165 75.4304 45.1851 75.5616 44.4512C75.9386 42.3441 77.1454 40.4422 78.8322 39.2472C80.6095 37.9874 82.8161 37.613 84.9623 38.1305C87.1237 38.652 89.0375 40.0056 90.208 42.004C91.3646 43.9789 91.7371 46.3907 91.5703 48.6364C91.3775 51.233 90.5698 53.8971 88.9383 55.8664Z" stroke="white" stroke-width="0.56165"/>
<path d="M104.991 44.7227C100.749 44.5362 96.5485 44.5934 92.3867 44.479C92.2855 44.0512 92.1623 43.6288 92.0152 43.214C91.1325 40.7278 89.369 38.6749 87.0275 37.5922C84.7154 36.5223 82.0371 36.3801 79.7493 37.3618C79.6856 37.3895 79.6217 37.4179 79.5585 37.4464C78.7581 36.7951 77.6021 36.8619 76.7375 37.3101C75.6177 37.8904 74.9858 39.1501 74.5203 40.2993C73.4995 42.8156 72.8704 45.613 72.9414 48.4002C73.008 51.0058 73.7463 53.6299 75.3094 55.7667C76.764 57.7559 78.8213 59.3485 81.1701 59.922C83.668 60.5322 86.2465 59.808 88.2091 58.2371C90.4128 56.4728 91.7747 53.83 92.3818 51.0087C92.7889 49.1164 92.8779 47.0988 92.5295 45.1595C96.6773 45.3528 100.868 45.716 105.095 45.8409C105.811 45.8618 105.7 44.7541 104.993 44.7229L104.991 44.7227ZM88.9383 55.8664C87.5167 57.5825 85.4575 58.7992 83.2177 58.8778C81.1283 58.9507 79.0953 58.0355 77.5154 56.5829C75.8398 55.0424 74.7254 53.0168 74.2318 50.7905C73.682 48.3082 73.9045 45.723 74.4935 43.3267C74.7894 42.1236 75.1664 40.9192 75.6584 39.7933C76.1017 38.7781 76.8173 37.7404 77.9844 37.6411C78.3022 37.6142 78.6132 37.6555 78.8919 37.786C77.1095 38.7921 75.613 40.4381 74.9114 42.4177C74.7076 42.9918 74.5607 43.5801 74.4808 44.1911C74.3862 44.9165 75.4304 45.1851 75.5616 44.4512C75.9386 42.3441 77.1454 40.4422 78.8322 39.2472C80.6095 37.9874 82.8161 37.613 84.9623 38.1305C87.1237 38.652 89.0375 40.0056 90.208 42.004C91.3646 43.9789 91.7371 46.3907 91.5703 48.6364C91.3775 51.233 90.5698 53.8971 88.9383 55.8664Z" stroke="url(#paint17_linear_30_539)" stroke-width="0.56165"/>
<path d="M52.4987 73.5215C58.1214 73.9955 63.8288 74.2911 69.6095 74.648C75.468 75.0092 81.4075 75.3366 87.4297 75.6751C89.1487 75.7716 90.8747 75.871 92.6065 75.9566C93.4627 75.9989 94.3207 76.0457 95.1802 76.0694C96.0619 76.0936 96.9447 76.0241 97.8245 75.9888C98.3773 75.9671 98.4837 75.0031 97.8733 74.9187C96.3026 74.7015 94.7594 74.5258 93.1982 74.4473C91.6556 74.3699 90.1185 74.2993 88.5874 74.2329C85.564 74.102 82.5615 73.9711 79.5795 73.8419C73.6543 73.5845 67.8102 73.3649 62.0441 73.1457C58.8292 73.0237 55.6369 72.9009 52.4705 72.8525C52.0747 72.8465 52.1133 73.4892 52.4987 73.5215Z" stroke="white" stroke-width="0.56165"/>
<path d="M52.4987 73.5215C58.1214 73.9955 63.8288 74.2911 69.6095 74.648C75.468 75.0092 81.4075 75.3366 87.4297 75.6751C89.1487 75.7716 90.8747 75.871 92.6065 75.9566C93.4627 75.9989 94.3207 76.0457 95.1802 76.0694C96.0619 76.0936 96.9447 76.0241 97.8245 75.9888C98.3773 75.9671 98.4837 75.0031 97.8733 74.9187C96.3026 74.7015 94.7594 74.5258 93.1982 74.4473C91.6556 74.3699 90.1185 74.2993 88.5874 74.2329C85.564 74.102 82.5615 73.9711 79.5795 73.8419C73.6543 73.5845 67.8102 73.3649 62.0441 73.1457C58.8292 73.0237 55.6369 72.9009 52.4705 72.8525C52.0747 72.8465 52.1133 73.4892 52.4987 73.5215Z" stroke="url(#paint18_linear_30_539)" stroke-width="0.56165"/>
<path d="M96.4512 81.4149C93.8628 81.0273 91.2801 80.8912 88.7191 80.6887C86.1726 80.4872 83.6405 80.2737 81.1243 80.0573C76.16 79.6289 71.2547 79.1455 66.4088 78.6093C63.6877 78.308 60.9857 77.9894 58.3024 77.6548C57.9583 77.6121 57.9042 78.2721 58.2522 78.3227C63.0099 79.0116 67.8293 79.6524 72.7098 80.2393C77.641 80.8327 82.6336 81.3802 87.6879 81.8413C90.5691 82.1035 93.4935 82.441 96.4055 82.4245C96.9315 82.4212 97.0176 81.4999 96.4526 81.4151L96.4512 81.4149Z" stroke="white" stroke-width="0.56165"/>
<path d="M96.4512 81.4149C93.8628 81.0273 91.2801 80.8912 88.7191 80.6887C86.1726 80.4872 83.6405 80.2737 81.1243 80.0573C76.16 79.6289 71.2547 79.1455 66.4088 78.6093C63.6877 78.308 60.9857 77.9894 58.3024 77.6548C57.9583 77.6121 57.9042 78.2721 58.2522 78.3227C63.0099 79.0116 67.8293 79.6524 72.7098 80.2393C77.641 80.8327 82.6336 81.3802 87.6879 81.8413C90.5691 82.1035 93.4935 82.441 96.4055 82.4245C96.9315 82.4212 97.0176 81.4999 96.4526 81.4151L96.4512 81.4149Z" stroke="url(#paint19_linear_30_539)" stroke-width="0.56165"/>
<path d="M86.7537 99.8148C86.596 98.5043 85.6739 97.751 84.5804 97.3374C83.2395 96.8299 81.8889 96.3674 80.5443 95.9231C75.1567 94.142 69.7523 92.8623 64.3901 92.0611C61.3925 91.6127 58.4101 91.3154 55.4494 91.2953C54.8052 91.2911 54.8615 92.3551 55.499 92.407C55.8517 92.4358 56.2041 92.4654 56.5565 92.4956C56.4084 92.8638 56.2699 93.2362 56.162 93.6216C55.9688 94.3131 55.8208 95.0242 55.7204 95.7476C55.5224 97.1779 55.4552 98.7171 55.6459 100.187C55.6807 100.455 55.8341 100.765 56.1007 100.825C59.5743 101.603 63.0949 102.245 66.6315 103.048C70.1954 103.857 73.7929 104.668 77.4239 105.485C78.455 105.718 79.4898 105.939 80.5267 106.163C81.0242 106.271 81.5219 106.367 82.0216 106.458C82.5662 106.557 83.1295 106.611 83.671 106.75C84.0634 106.851 84.4623 106.577 84.4194 106.108C84.2917 104.706 85.2568 103.805 85.9123 102.807C86.4506 101.987 86.8844 100.899 86.7537 99.8148ZM84.7516 102.098C84.0938 102.989 83.2745 104.039 83.1455 105.263C82.9051 105.194 82.6653 105.12 82.4277 105.061C81.9325 104.94 81.4391 104.82 80.9431 104.715C80.0465 104.525 79.153 104.331 78.2596 104.149C76.4312 103.778 74.6112 103.41 72.8001 103.043C69.2486 102.323 65.7294 101.609 62.244 100.866C60.3967 100.473 58.5631 100.031 56.732 99.6499C56.5775 98.4354 56.5062 97.243 56.6135 96.0324C56.6723 95.367 56.7728 94.7084 56.9114 94.0643C57.0205 93.5554 57.1261 93.0494 57.2718 92.5583C61.7527 92.957 66.2698 93.5064 70.8215 94.492C73.4107 95.0527 76.0043 95.7266 78.5965 96.5148C79.9104 96.9141 81.2235 97.3431 82.5353 97.801C83.1662 98.0215 83.7994 98.2474 84.4254 98.4973C84.8555 98.6693 85.3325 98.9089 85.5102 99.4091C85.85 100.369 85.2442 101.43 84.7516 102.098Z" stroke="white" stroke-width="0.56165"/>
<path d="M86.7537 99.8148C86.596 98.5043 85.6739 97.751 84.5804 97.3374C83.2395 96.8299 81.8889 96.3674 80.5443 95.9231C75.1567 94.142 69.7523 92.8623 64.3901 92.0611C61.3925 91.6127 58.4101 91.3154 55.4494 91.2953C54.8052 91.2911 54.8615 92.3551 55.499 92.407C55.8517 92.4358 56.2041 92.4654 56.5565 92.4956C56.4084 92.8638 56.2699 93.2362 56.162 93.6216C55.9688 94.3131 55.8208 95.0242 55.7204 95.7476C55.5224 97.1779 55.4552 98.7171 55.6459 100.187C55.6807 100.455 55.8341 100.765 56.1007 100.825C59.5743 101.603 63.0949 102.245 66.6315 103.048C70.1954 103.857 73.7929 104.668 77.4239 105.485C78.455 105.718 79.4898 105.939 80.5267 106.163C81.0242 106.271 81.5219 106.367 82.0216 106.458C82.5662 106.557 83.1295 106.611 83.671 106.75C84.0634 106.851 84.4623 106.577 84.4194 106.108C84.2917 104.706 85.2568 103.805 85.9123 102.807C86.4506 101.987 86.8844 100.899 86.7537 99.8148ZM84.7516 102.098C84.0938 102.989 83.2745 104.039 83.1455 105.263C82.9051 105.194 82.6653 105.12 82.4277 105.061C81.9325 104.94 81.4391 104.82 80.9431 104.715C80.0465 104.525 79.153 104.331 78.2596 104.149C76.4312 103.778 74.6112 103.41 72.8001 103.043C69.2486 102.323 65.7294 101.609 62.244 100.866C60.3967 100.473 58.5631 100.031 56.732 99.6499C56.5775 98.4354 56.5062 97.243 56.6135 96.0324C56.6723 95.367 56.7728 94.7084 56.9114 94.0643C57.0205 93.5554 57.1261 93.0494 57.2718 92.5583C61.7527 92.957 66.2698 93.5064 70.8215 94.492C73.4107 95.0527 76.0043 95.7266 78.5965 96.5148C79.9104 96.9141 81.2235 97.3431 82.5353 97.801C83.1662 98.0215 83.7994 98.2474 84.4254 98.4973C84.8555 98.6693 85.3325 98.9089 85.5102 99.4091C85.85 100.369 85.2442 101.43 84.7516 102.098Z" stroke="url(#paint20_linear_30_539)" stroke-width="0.56165"/>
<path d="M46.1184 106.066C45.7738 106.031 45.7181 106.663 46.0608 106.755C48.6089 107.443 51.2271 107.893 53.8339 108.387C56.7053 108.931 59.5971 109.481 62.5104 110.034C68.5723 111.184 74.7277 112.375 80.9827 113.488C84.1435 114.05 87.3271 114.584 90.539 115.099C91.051 115.181 91.1046 114.226 90.5877 114.118C84.6328 112.878 78.7604 111.787 72.9655 110.732C66.842 109.616 60.8095 108.538 54.8665 107.474C53.3579 107.204 51.8539 106.952 50.3559 106.698C48.9386 106.457 47.5303 106.207 46.1184 106.066Z" stroke="white" stroke-width="0.56165"/>
<path d="M46.1184 106.066C45.7738 106.031 45.7181 106.663 46.0608 106.755C48.6089 107.443 51.2271 107.893 53.8339 108.387C56.7053 108.931 59.5971 109.481 62.5104 110.034C68.5723 111.184 74.7277 112.375 80.9827 113.488C84.1435 114.05 87.3271 114.584 90.539 115.099C91.051 115.181 91.1046 114.226 90.5877 114.118C84.6328 112.878 78.7604 111.787 72.9655 110.732C66.842 109.616 60.8095 108.538 54.8665 107.474C53.3579 107.204 51.8539 106.952 50.3559 106.698C48.9386 106.457 47.5303 106.207 46.1184 106.066Z" stroke="url(#paint21_linear_30_539)" stroke-width="0.56165"/>
<defs>
<linearGradient id="paint0_linear_30_539" x1="61.6057" y1="113.192" x2="104.32" y2="63.0563" gradientUnits="userSpaceOnUse">
<stop stop-color="#F8A6FF"/>
<stop offset="1.0001" stop-color="white"/>
</linearGradient>
<linearGradient id="paint1_linear_30_539" x1="61.6057" y1="113.192" x2="104.32" y2="63.0563" gradientUnits="userSpaceOnUse">
<stop stop-color="#F8A6FF"/>
<stop offset="1.0001" stop-color="white"/>
</linearGradient>
<linearGradient id="paint2_linear_30_539" x1="61.6057" y1="113.192" x2="104.32" y2="63.0563" gradientUnits="userSpaceOnUse">
<stop stop-color="#F8A6FF"/>
<stop offset="1.0001" stop-color="white"/>
</linearGradient>
<linearGradient id="paint3_linear_30_539" x1="61.6057" y1="113.192" x2="104.32" y2="63.0563" gradientUnits="userSpaceOnUse">
<stop stop-color="#F8A6FF"/>
<stop offset="1.0001" stop-color="white"/>
</linearGradient>
<linearGradient id="paint4_linear_30_539" x1="61.6057" y1="113.192" x2="104.32" y2="63.0563" gradientUnits="userSpaceOnUse">
<stop stop-color="#F8A6FF"/>
<stop offset="1.0001" stop-color="white"/>
</linearGradient>
<linearGradient id="paint5_linear_30_539" x1="61.6057" y1="113.192" x2="104.32" y2="63.0563" gradientUnits="userSpaceOnUse">
<stop stop-color="#F8A6FF"/>
<stop offset="1.0001" stop-color="white"/>
</linearGradient>
<linearGradient id="paint6_linear_30_539" x1="61.6057" y1="113.192" x2="104.32" y2="63.0563" gradientUnits="userSpaceOnUse">
<stop stop-color="#F8A6FF"/>
<stop offset="1.0001" stop-color="white"/>
</linearGradient>
<linearGradient id="paint7_linear_30_539" x1="61.6057" y1="113.192" x2="104.32" y2="63.0563" gradientUnits="userSpaceOnUse">
<stop stop-color="#F8A6FF"/>
<stop offset="1.0001" stop-color="white"/>
</linearGradient>
<linearGradient id="paint8_linear_30_539" x1="61.6057" y1="113.192" x2="104.32" y2="63.0563" gradientUnits="userSpaceOnUse">
<stop stop-color="#F8A6FF"/>
<stop offset="1.0001" stop-color="white"/>
</linearGradient>
<linearGradient id="paint9_linear_30_539" x1="61.6057" y1="113.192" x2="104.32" y2="63.0563" gradientUnits="userSpaceOnUse">
<stop stop-color="#F8A6FF"/>
<stop offset="1.0001" stop-color="white"/>
</linearGradient>
<linearGradient id="paint10_linear_30_539" x1="61.6057" y1="113.192" x2="104.32" y2="63.0563" gradientUnits="userSpaceOnUse">
<stop stop-color="#F8A6FF"/>
<stop offset="1.0001" stop-color="white"/>
</linearGradient>
<linearGradient id="paint11_linear_30_539" x1="61.6057" y1="113.192" x2="104.32" y2="63.0563" gradientUnits="userSpaceOnUse">
<stop stop-color="#F8A6FF"/>
<stop offset="1.0001" stop-color="white"/>
</linearGradient>
<linearGradient id="paint12_linear_30_539" x1="61.6057" y1="113.192" x2="104.32" y2="63.0563" gradientUnits="userSpaceOnUse">
<stop stop-color="#F8A6FF"/>
<stop offset="1.0001" stop-color="white"/>
</linearGradient>
<linearGradient id="paint13_linear_30_539" x1="61.6057" y1="113.192" x2="104.32" y2="63.0563" gradientUnits="userSpaceOnUse">
<stop stop-color="#F8A6FF"/>
<stop offset="1.0001" stop-color="white"/>
</linearGradient>
<linearGradient id="paint14_linear_30_539" x1="61.6057" y1="113.192" x2="104.32" y2="63.0563" gradientUnits="userSpaceOnUse">
<stop stop-color="#F8A6FF"/>
<stop offset="1.0001" stop-color="white"/>
</linearGradient>
<linearGradient id="paint15_linear_30_539" x1="61.6057" y1="113.192" x2="104.32" y2="63.0563" gradientUnits="userSpaceOnUse">
<stop stop-color="#F8A6FF"/>
<stop offset="1.0001" stop-color="white"/>
</linearGradient>
<linearGradient id="paint16_linear_30_539" x1="61.6057" y1="113.192" x2="104.32" y2="63.0563" gradientUnits="userSpaceOnUse">
<stop stop-color="#F8A6FF"/>
<stop offset="1.0001" stop-color="white"/>
</linearGradient>
<linearGradient id="paint17_linear_30_539" x1="61.6057" y1="113.192" x2="104.32" y2="63.0563" gradientUnits="userSpaceOnUse">
<stop stop-color="#F8A6FF"/>
<stop offset="1.0001" stop-color="white"/>
</linearGradient>
<linearGradient id="paint18_linear_30_539" x1="61.6057" y1="113.192" x2="104.32" y2="63.0563" gradientUnits="userSpaceOnUse">
<stop stop-color="#F8A6FF"/>
<stop offset="1.0001" stop-color="white"/>
</linearGradient>
<linearGradient id="paint19_linear_30_539" x1="61.6057" y1="113.192" x2="104.32" y2="63.0563" gradientUnits="userSpaceOnUse">
<stop stop-color="#F8A6FF"/>
<stop offset="1.0001" stop-color="white"/>
</linearGradient>
<linearGradient id="paint20_linear_30_539" x1="61.6057" y1="113.192" x2="104.32" y2="63.0563" gradientUnits="userSpaceOnUse">
<stop stop-color="#F8A6FF"/>
<stop offset="1.0001" stop-color="white"/>
</linearGradient>
<linearGradient id="paint21_linear_30_539" x1="61.6057" y1="113.192" x2="104.32" y2="63.0563" gradientUnits="userSpaceOnUse">
<stop stop-color="#F8A6FF"/>
<stop offset="1.0001" stop-color="white"/>
</linearGradient>
</defs>
</svg>
