<svg width="158" height="158" viewBox="0 0 158 158" fill="none" xmlns="http://www.w3.org/2000/svg">
<path d="M109.776 119.012C109.988 115.917 110.286 112.751 110.498 109.656C111 103.473 111.51 97.2113 112.012 91.0287C113.024 78.5844 113.949 66.2118 115.041 53.775C115.618 46.8008 116.123 39.7399 116.62 32.7582C116.628 32.679 116.628 32.679 116.635 32.5999C116.816 32.3773 116.91 32.2264 117.012 31.9963C117.41 31.1553 116.426 30.5834 115.763 30.8404C115.518 30.8972 115.344 31.0407 115.092 31.1766C111.054 30.7964 106.994 30.6538 103.021 30.4394C98.652 30.1877 94.4412 29.9509 90.072 29.6993C81.5712 29.2183 73.0704 28.7373 64.5622 28.3355C59.7106 28.1183 54.8589 27.9011 50.0073 27.6838C49.2082 27.6885 49.0964 28.876 49.8881 28.9505C48.7748 34.8359 47.9707 40.8304 47.095 46.7381C46.2192 52.6459 45.2717 58.4671 44.4751 64.3823C42.8251 75.9678 41.4843 87.6623 40.0718 99.2702C39.2649 106.143 38.5372 113.023 37.7378 119.817C37.6558 120.687 39.0808 120.822 39.1628 119.951C39.2001 119.555 39.2448 119.08 39.2821 118.684C39.5121 118.786 39.7496 118.808 40.0812 118.679C41.1775 118.064 42.217 117.203 43.249 116.422C43.7613 116.071 44.1944 115.712 44.7141 115.282C45.1398 115.003 45.652 114.651 45.7834 114.105C45.87 114.033 45.8775 113.954 45.9566 113.961C45.9566 113.961 45.9641 113.882 46.0433 113.89C46.5974 113.942 47.0724 113.987 47.6266 114.039C48.5692 114.207 49.4326 114.368 50.3826 114.458C52.2826 114.637 54.1035 114.808 56.0035 114.987C59.7244 115.338 63.5245 115.695 67.2454 116.046C70.9663 116.396 74.6723 116.905 78.4574 117.421C82.2426 117.937 86.0352 118.374 89.7412 118.883C93.4472 119.392 97.1606 119.821 100.867 120.33C101.003 120.582 101.218 120.842 101.354 121.095C101.641 121.441 101.927 121.787 102.214 122.134C102.724 122.661 103.226 123.268 103.728 123.874C104.158 124.394 104.581 124.993 104.845 125.577C104.981 125.829 105.11 126.16 105.167 126.405C97.1138 125.408 89.061 124.41 81.0157 123.333C72.4954 122.211 63.9527 121.327 55.4324 120.205C53.0648 119.902 50.6255 119.513 48.2504 119.289C46.9837 119.17 45.7096 119.13 44.5221 119.018C43.2554 118.899 41.9738 118.938 40.7937 118.747C40.0095 118.593 39.8828 119.939 40.6744 120.013C41.7111 120.031 42.7971 120.373 43.898 120.556C45.078 120.747 46.1789 120.931 47.3515 121.201C49.4742 121.561 51.6117 121.762 53.7418 122.042C58.0094 122.524 62.2696 123.085 66.5297 123.646C75.0501 124.768 83.5779 125.81 92.1056 126.853C96.9991 127.473 101.893 128.094 106.786 128.714C107.103 128.744 107.348 128.687 107.521 128.544C107.59 129.509 109.181 129.579 109.198 128.542C109.108 125.259 109.565 122.107 109.776 119.012ZM101.526 31.896C105.5 32.1104 109.465 32.4039 113.446 32.5392C113.006 32.9769 112.486 33.4072 112.053 33.7658C111.526 34.2752 110.912 34.8564 110.385 35.3658C110.226 35.3509 109.981 35.4077 109.801 35.6303C109.526 36.0038 109.251 36.3773 108.897 36.7433C108.358 36.5328 107.811 36.4014 107.185 36.2626C106.329 36.0223 105.372 36.012 104.501 35.93C102.759 35.766 100.938 35.5945 99.1966 35.4305C95.6341 35.0951 92.0715 34.7596 88.5015 34.5033C81.4406 33.9982 74.3723 33.5723 67.3757 33.2329C63.3232 33.0111 59.3425 32.8758 55.2527 33.0498C54.9286 33.0991 54.6762 33.2351 54.5821 33.386C54.2235 32.9529 53.8724 32.4406 53.6005 31.9358C52.9699 30.9979 52.5844 30.0031 52.0331 29.0726C68.5298 30.3065 84.9847 31.1371 101.526 31.896ZM42.2897 114.734C41.4309 115.372 40.4138 115.995 39.6268 116.72C40.8139 105.81 42.3176 94.9291 43.7422 84.0412C44.5239 78.2843 45.313 72.4482 46.0947 66.6913C46.8838 60.8552 47.5147 55.0042 48.383 49.1756C49.2811 43.0303 50.3301 36.9791 51.0699 30.8189C51.3987 31.5687 51.8066 32.326 52.2294 32.9249C52.9316 33.9494 53.8937 34.7589 54.9424 35.4966C54.744 36.7558 54.4738 37.9284 54.2754 39.1877C54.077 40.4469 53.9577 41.7136 53.7667 42.8936C53.449 45.4195 53.1387 47.8663 52.7418 50.3848C52.1139 55.3574 51.4142 60.2435 50.7862 65.2162C49.4511 75.1541 48.2817 85.0277 46.9466 94.9656C46.5991 97.8082 46.259 100.572 45.9115 103.414C45.5714 106.178 45.0655 109.005 44.9555 111.87C44.9331 112.108 45.0691 112.36 45.1408 112.447C45.0616 112.439 44.9825 112.432 44.9033 112.424C44.4283 112.38 44.2252 112.84 44.2746 113.164C43.5965 113.579 42.8886 114.311 42.2897 114.734ZM80.3212 115.44C76.6003 115.09 72.872 114.818 69.0719 114.461C65.2718 114.103 61.4718 113.745 57.7509 113.395C55.6925 113.201 53.5475 113.079 51.4892 112.885C50.46 112.788 49.4233 112.77 48.3075 112.745C47.5876 112.757 46.8751 112.69 46.2417 112.63C46.415 112.487 46.509 112.336 46.6106 112.106C47.1583 109.682 47.3969 107.148 47.7146 104.622C48.0249 102.176 48.4217 99.6571 48.7394 97.1312C49.3674 92.1585 49.988 87.265 50.6159 82.2923C51.8719 72.347 53.1204 62.4808 54.3763 52.5354C54.7239 49.6928 55.0639 46.9294 55.4115 44.0868C55.6174 42.7484 55.7516 41.3234 55.8783 39.9776C56.005 38.6317 56.1467 37.1275 56.2017 35.695C56.2166 35.5367 56.1449 35.4501 56.1523 35.3709C56.1747 35.1334 56.1104 34.9676 55.967 34.7944C55.8878 34.7869 55.8953 34.7077 55.8161 34.7003C62.6963 35.428 69.7078 35.609 76.6103 36.0992C83.6712 36.6043 90.7246 37.1886 97.6988 37.7655C99.678 37.9518 101.578 38.1307 103.557 38.3171C104.507 38.4066 105.529 38.5826 106.486 38.5929C107.286 38.5883 108.092 38.5045 108.899 38.4207C109.129 38.5223 109.446 38.5521 109.705 38.3369L109.792 38.2652C109.871 38.2727 109.958 38.201 109.965 38.1218C109.965 38.1218 109.965 38.1218 110.052 38.0501C109.715 39.9352 109.528 41.9144 109.27 43.807C108.952 46.3329 108.721 48.7871 108.404 51.313C107.847 56.3723 107.299 61.3525 106.742 66.4118C105.637 76.4512 104.525 86.5698 103.578 96.6241C103.31 99.4742 103.041 102.324 102.694 105.167C102.346 108.009 101.919 110.845 101.889 113.717C101.874 113.875 101.938 114.041 102.002 114.207C101.25 115.414 101.093 117.076 101.939 118.274C94.7792 117.121 87.5255 116.118 80.3212 115.44ZM103.788 120.685C103.645 120.512 103.422 120.331 103.271 120.237C103.712 119.799 103.715 118.921 103.111 118.544C103.364 118.408 103.544 118.186 103.574 117.869C103.528 116.667 103.459 115.702 103.887 114.544C104.004 114.156 103.947 113.911 103.732 113.651C104.193 111.298 104.345 108.837 104.569 106.462C104.8 104.007 105.125 101.402 105.363 98.8689C105.92 93.8096 106.468 88.8294 107.025 83.7701C108.051 73.7233 109.148 63.763 110.174 53.7161C110.435 50.9452 110.703 48.0952 111.043 45.3318C111.304 42.5609 111.724 39.8049 111.66 37.0834C112.346 36.5888 113.031 36.0943 113.645 35.5131C114.165 35.0828 114.685 34.6526 115.284 34.2297C114.739 40.009 114.195 45.7883 113.738 51.4958C113.235 57.6784 112.805 63.9476 112.303 70.1301C111.211 82.567 110.286 94.9395 109.274 107.384C109.025 110.875 108.697 114.358 108.448 117.849C108.284 119.591 108.199 121.34 108.035 123.081C107.931 124.19 107.827 125.298 107.722 126.407C107.374 125.016 106.536 123.739 105.675 122.7C105.116 121.848 104.449 121.306 103.788 120.685Z" fill="white"/>
<path d="M109.776 119.012C109.988 115.917 110.286 112.751 110.498 109.656C111 103.473 111.51 97.2113 112.012 91.0287C113.024 78.5844 113.949 66.2118 115.041 53.775C115.618 46.8008 116.123 39.7399 116.62 32.7582C116.628 32.679 116.628 32.679 116.635 32.5999C116.816 32.3773 116.91 32.2264 117.012 31.9963C117.41 31.1553 116.426 30.5834 115.763 30.8404C115.518 30.8972 115.344 31.0407 115.092 31.1766C111.054 30.7964 106.994 30.6538 103.021 30.4394C98.652 30.1877 94.4412 29.9509 90.072 29.6993C81.5712 29.2183 73.0704 28.7373 64.5622 28.3355C59.7106 28.1183 54.8589 27.9011 50.0073 27.6838C49.2082 27.6885 49.0964 28.876 49.8881 28.9505C48.7748 34.8359 47.9707 40.8304 47.095 46.7381C46.2192 52.6459 45.2717 58.4671 44.4751 64.3823C42.8251 75.9678 41.4843 87.6623 40.0718 99.2702C39.2649 106.143 38.5372 113.023 37.7378 119.817C37.6558 120.687 39.0808 120.822 39.1628 119.951C39.2001 119.555 39.2448 119.08 39.2821 118.684C39.5121 118.786 39.7496 118.808 40.0812 118.679C41.1775 118.064 42.217 117.203 43.249 116.422C43.7613 116.071 44.1944 115.712 44.7141 115.282C45.1398 115.003 45.652 114.651 45.7834 114.105C45.87 114.033 45.8775 113.954 45.9566 113.961C45.9566 113.961 45.9641 113.882 46.0433 113.89C46.5974 113.942 47.0724 113.987 47.6266 114.039C48.5692 114.207 49.4326 114.368 50.3826 114.458C52.2826 114.637 54.1035 114.808 56.0035 114.987C59.7244 115.338 63.5245 115.695 67.2454 116.046C70.9663 116.396 74.6723 116.905 78.4574 117.421C82.2426 117.937 86.0352 118.374 89.7412 118.883C93.4472 119.392 97.1606 119.821 100.867 120.33C101.003 120.582 101.218 120.842 101.354 121.095C101.641 121.441 101.927 121.787 102.214 122.134C102.724 122.661 103.226 123.268 103.728 123.874C104.158 124.394 104.581 124.993 104.845 125.577C104.981 125.829 105.11 126.16 105.167 126.405C97.1138 125.408 89.061 124.41 81.0157 123.333C72.4954 122.211 63.9527 121.327 55.4324 120.205C53.0648 119.902 50.6255 119.513 48.2504 119.289C46.9837 119.17 45.7096 119.13 44.5221 119.018C43.2554 118.899 41.9738 118.938 40.7937 118.747C40.0095 118.593 39.8828 119.939 40.6744 120.013C41.7111 120.031 42.7971 120.373 43.898 120.556C45.078 120.747 46.1789 120.931 47.3515 121.201C49.4742 121.561 51.6117 121.762 53.7418 122.042C58.0094 122.524 62.2696 123.085 66.5297 123.646C75.0501 124.768 83.5779 125.81 92.1056 126.853C96.9991 127.473 101.893 128.094 106.786 128.714C107.103 128.744 107.348 128.687 107.521 128.544C107.59 129.509 109.181 129.579 109.198 128.542C109.108 125.259 109.565 122.107 109.776 119.012ZM101.526 31.896C105.5 32.1104 109.465 32.4039 113.446 32.5392C113.006 32.9769 112.486 33.4072 112.053 33.7658C111.526 34.2752 110.912 34.8564 110.385 35.3658C110.226 35.3509 109.981 35.4077 109.801 35.6303C109.526 36.0038 109.251 36.3773 108.897 36.7433C108.358 36.5328 107.811 36.4014 107.185 36.2626C106.329 36.0223 105.372 36.012 104.501 35.93C102.759 35.766 100.938 35.5945 99.1966 35.4305C95.6341 35.0951 92.0715 34.7596 88.5015 34.5033C81.4406 33.9982 74.3723 33.5723 67.3757 33.2329C63.3232 33.0111 59.3425 32.8758 55.2527 33.0498C54.9286 33.0991 54.6762 33.2351 54.5821 33.386C54.2235 32.9529 53.8724 32.4406 53.6005 31.9358C52.9699 30.9979 52.5844 30.0031 52.0331 29.0726C68.5298 30.3065 84.9847 31.1371 101.526 31.896ZM42.2897 114.734C41.4309 115.372 40.4138 115.995 39.6268 116.72C40.8139 105.81 42.3176 94.9291 43.7422 84.0412C44.5239 78.2843 45.313 72.4482 46.0947 66.6913C46.8838 60.8552 47.5147 55.0042 48.383 49.1756C49.2811 43.0303 50.3301 36.9791 51.0699 30.8189C51.3987 31.5687 51.8066 32.326 52.2294 32.9249C52.9316 33.9494 53.8937 34.7589 54.9424 35.4966C54.744 36.7558 54.4738 37.9284 54.2754 39.1877C54.077 40.4469 53.9577 41.7136 53.7667 42.8936C53.449 45.4195 53.1387 47.8663 52.7418 50.3848C52.1139 55.3574 51.4142 60.2435 50.7862 65.2162C49.4511 75.1541 48.2817 85.0277 46.9466 94.9656C46.5991 97.8082 46.259 100.572 45.9115 103.414C45.5714 106.178 45.0655 109.005 44.9555 111.87C44.9331 112.108 45.0691 112.36 45.1408 112.447C45.0616 112.439 44.9825 112.432 44.9033 112.424C44.4283 112.38 44.2252 112.84 44.2746 113.164C43.5965 113.579 42.8886 114.311 42.2897 114.734ZM80.3212 115.44C76.6003 115.09 72.872 114.818 69.0719 114.461C65.2718 114.103 61.4718 113.745 57.7509 113.395C55.6925 113.201 53.5475 113.079 51.4892 112.885C50.46 112.788 49.4233 112.77 48.3075 112.745C47.5876 112.757 46.8751 112.69 46.2417 112.63C46.415 112.487 46.509 112.336 46.6106 112.106C47.1583 109.682 47.3969 107.148 47.7146 104.622C48.0249 102.176 48.4217 99.6571 48.7394 97.1312C49.3674 92.1585 49.988 87.265 50.6159 82.2923C51.8719 72.347 53.1204 62.4808 54.3763 52.5354C54.7239 49.6928 55.0639 46.9294 55.4115 44.0868C55.6174 42.7484 55.7516 41.3234 55.8783 39.9776C56.005 38.6317 56.1467 37.1275 56.2017 35.695C56.2166 35.5367 56.1449 35.4501 56.1523 35.3709C56.1747 35.1334 56.1104 34.9676 55.967 34.7944C55.8878 34.7869 55.8953 34.7077 55.8161 34.7003C62.6963 35.428 69.7078 35.609 76.6103 36.0992C83.6712 36.6043 90.7246 37.1886 97.6988 37.7655C99.678 37.9518 101.578 38.1307 103.557 38.3171C104.507 38.4066 105.529 38.5826 106.486 38.5929C107.286 38.5883 108.092 38.5045 108.899 38.4207C109.129 38.5223 109.446 38.5521 109.705 38.3369L109.792 38.2652C109.871 38.2727 109.958 38.201 109.965 38.1218C109.965 38.1218 109.965 38.1218 110.052 38.0501C109.715 39.9352 109.528 41.9144 109.27 43.807C108.952 46.3329 108.721 48.7871 108.404 51.313C107.847 56.3723 107.299 61.3525 106.742 66.4118C105.637 76.4512 104.525 86.5698 103.578 96.6241C103.31 99.4742 103.041 102.324 102.694 105.167C102.346 108.009 101.919 110.845 101.889 113.717C101.874 113.875 101.938 114.041 102.002 114.207C101.25 115.414 101.093 117.076 101.939 118.274C94.7792 117.121 87.5255 116.118 80.3212 115.44ZM103.788 120.685C103.645 120.512 103.422 120.331 103.271 120.237C103.712 119.799 103.715 118.921 103.111 118.544C103.364 118.408 103.544 118.186 103.574 117.869C103.528 116.667 103.459 115.702 103.887 114.544C104.004 114.156 103.947 113.911 103.732 113.651C104.193 111.298 104.345 108.837 104.569 106.462C104.8 104.007 105.125 101.402 105.363 98.8689C105.92 93.8096 106.468 88.8294 107.025 83.7701C108.051 73.7233 109.148 63.763 110.174 53.7161C110.435 50.9452 110.703 48.0952 111.043 45.3318C111.304 42.5609 111.724 39.8049 111.66 37.0834C112.346 36.5888 113.031 36.0943 113.645 35.5131C114.165 35.0828 114.685 34.6526 115.284 34.2297C114.739 40.009 114.195 45.7883 113.738 51.4958C113.235 57.6784 112.805 63.9476 112.303 70.1301C111.211 82.567 110.286 94.9395 109.274 107.384C109.025 110.875 108.697 114.358 108.448 117.849C108.284 119.591 108.199 121.34 108.035 123.081C107.931 124.19 107.827 125.298 107.722 126.407C107.374 125.016 106.536 123.739 105.675 122.7C105.116 121.848 104.449 121.306 103.788 120.685Z" fill="url(#paint0_linear_30_535)"/>
<path d="M83.8697 89.4649C82.5164 89.4173 81.2423 89.3772 79.8964 89.2505C81.98 88.3285 83.9918 87.3199 86.2114 86.6503C87.2853 86.2722 88.4384 85.9016 89.5048 85.6026C90.1605 85.4248 90.8954 85.2543 91.5511 85.0765C91.1748 85.68 90.7911 86.3627 90.4073 87.0454C90.0235 87.7281 88.7437 89.4446 89.9582 90.118C91.1727 90.7915 91.6832 88.7629 91.9878 88.0728C92.4955 86.9225 93.0031 85.7723 93.3599 84.528C93.3748 84.3696 93.3897 84.2113 93.3255 84.0455C93.3628 83.6497 93.0834 83.224 92.6875 83.1867C91.4208 83.0674 90.196 83.3515 89.0504 83.6429C87.8256 83.927 86.5934 84.2902 85.4328 84.74C83.4359 85.5903 81.3449 86.5914 79.5482 87.8599C79.2194 87.1101 78.9773 86.2886 78.8143 85.4745C78.6737 84.423 78.3673 83.4357 78.1476 82.3767L77.4017 79.2714C77.2881 78.7815 77.1819 78.2124 76.9891 77.715C76.9398 77.3909 76.8038 77.1385 76.7545 76.8144C76.6902 76.6486 76.5542 76.3962 76.49 76.2304C76.5915 76.0003 76.5347 75.7554 76.3913 75.5821C76.681 75.0503 76.7406 74.417 76.9586 73.7986C77.1765 73.1801 77.402 72.4825 77.6991 71.8715C78.2217 70.5629 78.8951 69.3484 79.6477 68.1414C80.3929 67.0135 81.1381 65.8856 82.0267 64.931C82.3881 64.4858 82.8286 64.0481 83.2692 63.6103C85.8221 64.4897 88.2959 65.3615 90.5367 67.0102C92.6341 68.4856 94.291 70.3988 96.027 72.3194C96.0764 72.6435 96.2124 72.8959 96.3483 73.1483C96.6203 73.6532 97.4045 73.8069 97.6942 73.2751C98.2586 72.3698 98.2196 71.0882 98.2448 69.9724C98.2774 68.7774 98.3101 67.5825 98.4219 66.3949C98.4471 65.2791 98.5589 64.0916 98.6633 62.9832C98.7155 62.429 98.7676 61.8749 98.8273 61.2416C98.8496 61.0041 98.8003 60.6799 98.8227 60.4424C98.8599 60.0466 98.724 59.7942 98.6746 59.47C98.5759 58.8218 97.6976 58.8189 97.4871 59.3582C97.3781 59.6674 97.1974 59.89 97.1676 60.2067C97.0586 60.5159 97.0288 60.8326 96.9273 61.0626C96.7959 61.6094 96.7512 62.0844 96.699 62.6386C96.508 63.8186 96.3962 65.0061 96.2844 66.1937C96.1949 67.1437 96.1055 68.0937 96.0952 69.0511C94.876 67.5786 93.397 66.3211 91.8165 65.2937C90.3077 64.3529 88.6331 63.4764 86.9361 62.8374C87.807 62.9194 88.6853 62.9223 89.5785 62.7668C93.0796 62.0581 96.077 59.0657 96.6499 55.5255C97.2155 52.0645 95.0892 48.35 91.876 46.8494C88.3536 45.2398 83.9368 46.3414 81.7805 49.7325C80.8053 50.7589 80.0527 51.9659 79.7527 53.4552C79.5915 54.3186 79.5021 55.2686 79.6576 56.1618C78.933 55.3747 78.2084 54.5877 77.4764 53.8798C74.9142 51.4022 72.1714 49.1472 69.1612 47.1864C67.7315 46.2531 66.2004 45.5499 64.59 44.8392C63.8207 44.5271 63.4714 45.6923 64.1615 45.9969C65.376 46.6703 66.5682 47.5813 67.6886 48.4056C69.0316 49.4106 70.2955 50.4082 71.5519 51.485C74.1364 53.7251 76.4685 56.1011 78.6991 58.7072C79.7822 59.9274 80.7713 61.2985 81.8545 62.5187C81.9262 62.6053 82.0771 62.6994 82.1488 62.786C81.7948 63.152 81.4334 63.5972 81.0795 63.9632C80.0968 65.0688 79.1859 66.2609 78.3466 67.5397C77.5074 68.8184 76.9131 70.0404 76.3114 71.3415C76.0068 72.0317 75.7813 72.7292 75.5634 73.3477C75.4395 73.8152 75.229 74.3545 75.0976 74.9012C74.8676 74.7997 74.645 74.619 74.3357 74.51C73.7965 74.2995 73.2497 74.1682 72.7105 73.9576C71.5453 73.6083 70.2861 73.4099 69.0986 73.298C67.8319 73.1788 66.6369 73.1461 65.4345 73.1926C64.2321 73.2391 62.9505 73.2782 61.9976 74.067C61.7377 74.2822 61.7005 74.678 61.829 75.0096C61.7349 75.1605 61.72 75.3188 61.6976 75.5564C61.7246 76.118 61.8233 76.7662 61.9295 77.3353C62.1343 78.5527 62.4183 79.7774 62.7098 80.9231C62.9938 82.1479 63.2928 83.2143 63.6634 84.3674C63.9698 85.3547 64.197 86.3345 64.835 87.1933C64.3451 87.3069 63.8551 87.4205 63.3578 87.6133C62.5288 87.9346 61.3189 88.0603 60.6185 88.7131C60.4378 88.9357 60.3288 89.2449 60.3064 89.4824C58.547 90.3551 57.188 92.0642 56.685 94.0135C55.9761 97.3013 58.1665 101.182 61.4319 102.128C65.0857 103.191 69.2827 101.03 69.5045 96.9778C69.5894 95.2286 68.9468 93.5707 67.5321 92.4791C66.189 91.474 64.4697 91.0725 62.891 91.7226C60.9881 92.422 59.9011 94.6358 61.0037 96.4968C62.2424 98.6102 65.0087 98.072 66.5111 96.5362C66.9516 96.0984 67.0979 95.3934 66.6676 94.8736C66.2373 94.3539 65.5248 94.2868 65.0051 94.7171C64.4854 95.1474 63.1218 96.0573 62.6496 95.1342C62.1849 94.132 63.4693 93.2147 64.355 93.1384C66.8614 92.8153 68.2854 95.5052 67.3642 97.6548C66.4429 99.8044 63.7335 100.588 61.663 99.6738C59.5926 98.76 58.2748 96.6392 58.5701 94.3508C58.8804 91.904 61.385 89.9035 63.8616 89.8971C65.9693 90.4151 68.295 90.3145 70.5191 90.4441C72.8224 90.5811 75.0541 90.6315 77.3574 90.7686C79.6607 90.9056 81.8057 91.0276 84.0299 91.1572C86.254 91.2868 88.3422 91.1639 90.435 91.8402C91.9886 92.306 93.4899 93.3259 94.0608 94.8972C94.6317 96.4685 93.7775 97.9056 92.5797 98.7512C91.2953 99.6686 89.5731 100.145 88.0345 99.5213C86.6467 98.9912 85.5217 97.3678 86.1458 95.8292C86.4578 95.0599 87.0791 94.3995 87.8931 94.2366C88.7864 94.0811 89.6991 94.5664 89.9412 95.3879C90.4479 96.7934 88.7005 98.386 87.4366 97.3884C86.9197 96.9404 86.0386 97.8158 86.5555 98.2639C87.8687 99.5856 90.281 99.4134 91.3159 97.7537C92.4448 95.9431 91.0776 93.4981 89.2148 92.9234C87.2012 92.2545 84.922 93.5574 84.2532 95.5711C83.5695 97.7431 84.6991 100.166 86.6681 101.31C88.867 102.555 91.6035 102.333 93.6675 100.771C95.3059 99.4872 96.3212 97.1867 95.9534 95.1553C95.0129 89.8752 88.1672 89.6299 83.8697 89.4649ZM90.2823 47.6578C93.016 48.3145 95.1152 51.4673 95.0918 54.2606C95.046 57.2913 93.1226 59.9057 90.3116 60.9189C87.6664 61.8679 84.4727 61.008 82.6798 58.8425C80.8078 56.6695 80.7698 52.8321 82.7352 50.6211L82.8218 50.5494L82.8292 50.4702C82.9233 50.3193 83.0965 50.1759 83.2623 50.1116C83.4356 49.9682 83.443 49.889 83.458 49.7307C85.1411 47.9723 87.858 47.11 90.2823 47.6578ZM73.9439 88.8497C72.3531 88.7798 70.7697 88.6307 69.0998 88.5533C68.1497 88.4638 67.1131 88.4461 66.0839 88.3492C66.1705 88.2775 66.3438 88.1341 66.4304 88.0623C66.6903 87.8472 66.7276 87.4514 66.5124 87.1915C66.7034 86.0115 66.3104 85.0959 65.9397 83.9428C65.5616 82.8689 65.2627 81.8024 64.8921 80.6493C64.5931 79.5829 64.2942 78.5164 63.9953 77.45C63.8174 76.7942 63.6545 75.9802 63.3974 75.3171C63.5558 75.332 63.7216 75.2677 63.8799 75.2826C64.449 75.1764 65.0106 75.1494 65.5797 75.0433C66.7104 74.9102 67.8262 74.9354 69.0137 75.0472C70.1221 75.1516 71.3096 75.2634 72.4031 75.5261C72.9498 75.6574 73.4965 75.7888 74.0358 75.9993C74.5033 76.1232 74.8992 76.1604 75.3593 76.3635C75.431 76.4501 75.3145 76.8386 75.3788 77.0043C75.4281 77.3285 75.4775 77.6526 75.5343 77.8975C75.6479 78.3875 75.7541 78.9566 75.8677 79.4465C76.08 80.5846 76.2923 81.7228 76.5837 82.8684C76.8035 83.9274 76.8575 85.0507 77.1639 86.038C77.4703 87.0253 77.7841 87.9334 78.2563 88.8564C78.328 88.9431 78.3997 89.0297 78.4714 89.1163C76.8806 89.0464 75.4481 88.9914 73.9439 88.8497Z" fill="white"/>
<path d="M83.8697 89.4649C82.5164 89.4173 81.2423 89.3772 79.8964 89.2505C81.98 88.3285 83.9918 87.3199 86.2114 86.6503C87.2853 86.2722 88.4384 85.9016 89.5048 85.6026C90.1605 85.4248 90.8954 85.2543 91.5511 85.0765C91.1748 85.68 90.7911 86.3627 90.4073 87.0454C90.0235 87.7281 88.7437 89.4446 89.9582 90.118C91.1727 90.7915 91.6832 88.7629 91.9878 88.0728C92.4955 86.9225 93.0031 85.7723 93.3599 84.528C93.3748 84.3696 93.3897 84.2113 93.3255 84.0455C93.3628 83.6497 93.0834 83.224 92.6875 83.1867C91.4208 83.0674 90.196 83.3515 89.0504 83.6429C87.8256 83.927 86.5934 84.2902 85.4328 84.74C83.4359 85.5903 81.3449 86.5914 79.5482 87.8599C79.2194 87.1101 78.9773 86.2886 78.8143 85.4745C78.6737 84.423 78.3673 83.4357 78.1476 82.3767L77.4017 79.2714C77.2881 78.7815 77.1819 78.2124 76.9891 77.715C76.9398 77.3909 76.8038 77.1385 76.7545 76.8144C76.6902 76.6486 76.5542 76.3962 76.49 76.2304C76.5915 76.0003 76.5347 75.7554 76.3913 75.5821C76.681 75.0503 76.7406 74.417 76.9586 73.7986C77.1765 73.1801 77.402 72.4825 77.6991 71.8715C78.2217 70.5629 78.8951 69.3484 79.6477 68.1414C80.3929 67.0135 81.1381 65.8856 82.0267 64.931C82.3881 64.4858 82.8286 64.0481 83.2692 63.6103C85.8221 64.4897 88.2959 65.3615 90.5367 67.0102C92.6341 68.4856 94.291 70.3988 96.027 72.3194C96.0764 72.6435 96.2124 72.8959 96.3483 73.1483C96.6203 73.6532 97.4045 73.8069 97.6942 73.2751C98.2586 72.3698 98.2196 71.0882 98.2448 69.9724C98.2774 68.7774 98.3101 67.5825 98.4219 66.3949C98.4471 65.2791 98.5589 64.0916 98.6633 62.9832C98.7155 62.429 98.7676 61.8749 98.8273 61.2416C98.8496 61.0041 98.8003 60.6799 98.8227 60.4424C98.8599 60.0466 98.724 59.7942 98.6746 59.47C98.5759 58.8218 97.6976 58.8189 97.4871 59.3582C97.3781 59.6674 97.1974 59.89 97.1676 60.2067C97.0586 60.5159 97.0288 60.8326 96.9273 61.0626C96.7959 61.6094 96.7512 62.0844 96.699 62.6386C96.508 63.8186 96.3962 65.0061 96.2844 66.1937C96.1949 67.1437 96.1055 68.0937 96.0952 69.0511C94.876 67.5786 93.397 66.3211 91.8165 65.2937C90.3077 64.3529 88.6331 63.4764 86.9361 62.8374C87.807 62.9194 88.6853 62.9223 89.5785 62.7668C93.0796 62.0581 96.077 59.0657 96.6499 55.5255C97.2155 52.0645 95.0892 48.35 91.876 46.8494C88.3536 45.2398 83.9368 46.3414 81.7805 49.7325C80.8053 50.7589 80.0527 51.9659 79.7527 53.4552C79.5915 54.3186 79.5021 55.2686 79.6576 56.1618C78.933 55.3747 78.2084 54.5877 77.4764 53.8798C74.9142 51.4022 72.1714 49.1472 69.1612 47.1864C67.7315 46.2531 66.2004 45.5499 64.59 44.8392C63.8207 44.5271 63.4714 45.6923 64.1615 45.9969C65.376 46.6703 66.5682 47.5813 67.6886 48.4056C69.0316 49.4106 70.2955 50.4082 71.5519 51.485C74.1364 53.7251 76.4685 56.1011 78.6991 58.7072C79.7822 59.9274 80.7713 61.2985 81.8545 62.5187C81.9262 62.6053 82.0771 62.6994 82.1488 62.786C81.7948 63.152 81.4334 63.5972 81.0795 63.9632C80.0968 65.0688 79.1859 66.2609 78.3466 67.5397C77.5074 68.8184 76.9131 70.0404 76.3114 71.3415C76.0068 72.0317 75.7813 72.7292 75.5634 73.3477C75.4395 73.8152 75.229 74.3545 75.0976 74.9012C74.8676 74.7997 74.645 74.619 74.3357 74.51C73.7965 74.2995 73.2497 74.1682 72.7105 73.9576C71.5453 73.6083 70.2861 73.4099 69.0986 73.298C67.8319 73.1788 66.6369 73.1461 65.4345 73.1926C64.2321 73.2391 62.9505 73.2782 61.9976 74.067C61.7377 74.2822 61.7005 74.678 61.829 75.0096C61.7349 75.1605 61.72 75.3188 61.6976 75.5564C61.7246 76.118 61.8233 76.7662 61.9295 77.3353C62.1343 78.5527 62.4183 79.7774 62.7098 80.9231C62.9938 82.1479 63.2928 83.2143 63.6634 84.3674C63.9698 85.3547 64.197 86.3345 64.835 87.1933C64.3451 87.3069 63.8551 87.4205 63.3578 87.6133C62.5288 87.9346 61.3189 88.0603 60.6185 88.7131C60.4378 88.9357 60.3288 89.2449 60.3064 89.4824C58.547 90.3551 57.188 92.0642 56.685 94.0135C55.9761 97.3013 58.1665 101.182 61.4319 102.128C65.0857 103.191 69.2827 101.03 69.5045 96.9778C69.5894 95.2286 68.9468 93.5707 67.5321 92.4791C66.189 91.474 64.4697 91.0725 62.891 91.7226C60.9881 92.422 59.9011 94.6358 61.0037 96.4968C62.2424 98.6102 65.0087 98.072 66.5111 96.5362C66.9516 96.0984 67.0979 95.3934 66.6676 94.8736C66.2373 94.3539 65.5248 94.2868 65.0051 94.7171C64.4854 95.1474 63.1218 96.0573 62.6496 95.1342C62.1849 94.132 63.4693 93.2147 64.355 93.1384C66.8614 92.8153 68.2854 95.5052 67.3642 97.6548C66.4429 99.8044 63.7335 100.588 61.663 99.6738C59.5926 98.76 58.2748 96.6392 58.5701 94.3508C58.8804 91.904 61.385 89.9035 63.8616 89.8971C65.9693 90.4151 68.295 90.3145 70.5191 90.4441C72.8224 90.5811 75.0541 90.6315 77.3574 90.7686C79.6607 90.9056 81.8057 91.0276 84.0299 91.1572C86.254 91.2868 88.3422 91.1639 90.435 91.8402C91.9886 92.306 93.4899 93.3259 94.0608 94.8972C94.6317 96.4685 93.7775 97.9056 92.5797 98.7512C91.2953 99.6686 89.5731 100.145 88.0345 99.5213C86.6467 98.9912 85.5217 97.3678 86.1458 95.8292C86.4578 95.0599 87.0791 94.3995 87.8931 94.2366C88.7864 94.0811 89.6991 94.5664 89.9412 95.3879C90.4479 96.7934 88.7005 98.386 87.4366 97.3884C86.9197 96.9404 86.0386 97.8158 86.5555 98.2639C87.8687 99.5856 90.281 99.4134 91.3159 97.7537C92.4448 95.9431 91.0776 93.4981 89.2148 92.9234C87.2012 92.2545 84.922 93.5574 84.2532 95.5711C83.5695 97.7431 84.6991 100.166 86.6681 101.31C88.867 102.555 91.6035 102.333 93.6675 100.771C95.3059 99.4872 96.3212 97.1867 95.9534 95.1553C95.0129 89.8752 88.1672 89.6299 83.8697 89.4649ZM90.2823 47.6578C93.016 48.3145 95.1152 51.4673 95.0918 54.2606C95.046 57.2913 93.1226 59.9057 90.3116 60.9189C87.6664 61.8679 84.4727 61.008 82.6798 58.8425C80.8078 56.6695 80.7698 52.8321 82.7352 50.6211L82.8218 50.5494L82.8292 50.4702C82.9233 50.3193 83.0965 50.1759 83.2623 50.1116C83.4356 49.9682 83.443 49.889 83.458 49.7307C85.1411 47.9723 87.858 47.11 90.2823 47.6578ZM73.9439 88.8497C72.3531 88.7798 70.7697 88.6307 69.0998 88.5533C68.1497 88.4638 67.1131 88.4461 66.0839 88.3492C66.1705 88.2775 66.3438 88.1341 66.4304 88.0623C66.6903 87.8472 66.7276 87.4514 66.5124 87.1915C66.7034 86.0115 66.3104 85.0959 65.9397 83.9428C65.5616 82.8689 65.2627 81.8024 64.8921 80.6493C64.5931 79.5829 64.2942 78.5164 63.9953 77.45C63.8174 76.7942 63.6545 75.9802 63.3974 75.3171C63.5558 75.332 63.7216 75.2677 63.8799 75.2826C64.449 75.1764 65.0106 75.1494 65.5797 75.0433C66.7104 74.9102 67.8262 74.9354 69.0137 75.0472C70.1221 75.1516 71.3096 75.2634 72.4031 75.5261C72.9498 75.6574 73.4965 75.7888 74.0358 75.9993C74.5033 76.1232 74.8992 76.1604 75.3593 76.3635C75.431 76.4501 75.3145 76.8386 75.3788 77.0043C75.4281 77.3285 75.4775 77.6526 75.5343 77.8975C75.6479 78.3875 75.7541 78.9566 75.8677 79.4465C76.08 80.5846 76.2923 81.7228 76.5837 82.8684C76.8035 83.9274 76.8575 85.0507 77.1639 86.038C77.4703 87.0253 77.7841 87.9334 78.2563 88.8564C78.328 88.9431 78.3997 89.0297 78.4714 89.1163C76.8806 89.0464 75.4481 88.9914 73.9439 88.8497Z" fill="url(#paint1_linear_30_535)"/>
<path d="M72.0226 99.9303C72.0925 98.3395 72.2416 96.7561 72.3115 95.1653C72.3861 94.3736 71.1985 94.2618 71.0448 95.046C70.7299 96.6936 70.5017 98.2695 70.3451 99.9321C70.2706 100.724 70.2752 101.523 70.2798 102.322C70.2919 103.042 70.2025 103.992 70.6178 104.67C70.8898 105.175 71.538 105.076 71.7411 104.616C72.0457 103.926 71.9694 103.04 72.0364 102.328C71.9527 101.521 72.0272 100.729 72.0226 99.9303Z" fill="white"/>
<path d="M72.0226 99.9303C72.0925 98.3395 72.2416 96.7561 72.3115 95.1653C72.3861 94.3736 71.1985 94.2618 71.0448 95.046C70.7299 96.6936 70.5017 98.2695 70.3451 99.9321C70.2706 100.724 70.2752 101.523 70.2798 102.322C70.2919 103.042 70.2025 103.992 70.6178 104.67C70.8898 105.175 71.538 105.076 71.7411 104.616C72.0457 103.926 71.9694 103.04 72.0364 102.328C71.9527 101.521 72.0272 100.729 72.0226 99.9303Z" fill="url(#paint2_linear_30_535)"/>
<path d="M77.0688 99.7666C77.1238 98.3341 77.1714 96.9808 77.1472 95.5409C77.1426 94.7418 76.0342 94.6374 75.8805 95.4216C75.6672 96.8392 75.3821 98.1701 75.2479 99.5951C75.1808 100.308 75.0346 101.013 74.9749 101.646C74.9451 101.963 74.8287 102.351 74.878 102.675C74.9274 102.999 75.1425 103.259 75.2785 103.512C75.4787 103.93 75.9537 103.975 76.2285 103.601C76.4167 103.299 76.6691 103.163 76.7781 102.854C76.887 102.545 76.9243 102.149 76.875 101.825C77.0138 101.199 77.0809 100.487 77.0688 99.7666Z" fill="white"/>
<path d="M77.0688 99.7666C77.1238 98.3341 77.1714 96.9808 77.1472 95.5409C77.1426 94.7418 76.0342 94.6374 75.8805 95.4216C75.6672 96.8392 75.3821 98.1701 75.2479 99.5951C75.1808 100.308 75.0346 101.013 74.9749 101.646C74.9451 101.963 74.8287 102.351 74.878 102.675C74.9274 102.999 75.1425 103.259 75.2785 103.512C75.4787 103.93 75.9537 103.975 76.2285 103.601C76.4167 103.299 76.6691 103.163 76.7781 102.854C76.887 102.545 76.9243 102.149 76.875 101.825C77.0138 101.199 77.0809 100.487 77.0688 99.7666Z" fill="url(#paint3_linear_30_535)"/>
<path d="M82.9643 102.478C82.9327 101.117 82.8219 99.749 82.7111 98.3808C82.7977 98.3091 82.8127 98.1508 82.8201 98.0716C82.8797 97.4383 82.5212 97.0051 81.967 96.953C81.5712 96.9157 81.2172 97.2817 81.1874 97.5984C80.9517 99.2535 80.8026 100.837 80.646 102.499C80.5715 103.291 80.497 104.083 80.4224 104.874C80.3479 105.666 80.1942 106.45 80.4437 107.193C80.5992 108.086 82.1528 108.552 82.6381 107.639C83.1159 106.805 83.0396 105.92 82.9632 105.034C83.0378 104.242 83.0406 103.364 82.9643 102.478Z" fill="white"/>
<path d="M82.9643 102.478C82.9327 101.117 82.8219 99.749 82.7111 98.3808C82.7977 98.3091 82.8127 98.1508 82.8201 98.0716C82.8797 97.4383 82.5212 97.0051 81.967 96.953C81.5712 96.9157 81.2172 97.2817 81.1874 97.5984C80.9517 99.2535 80.8026 100.837 80.646 102.499C80.5715 103.291 80.497 104.083 80.4224 104.874C80.3479 105.666 80.1942 106.45 80.4437 107.193C80.5992 108.086 82.1528 108.552 82.6381 107.639C83.1159 106.805 83.0396 105.92 82.9632 105.034C83.0378 104.242 83.0406 103.364 82.9643 102.478Z" fill="url(#paint4_linear_30_535)"/>
<path d="M83.8432 53.6684C84.4989 53.4905 85.0829 53.226 85.8103 53.1348C86.5452 52.9643 87.186 52.9448 87.634 52.4279C87.9014 52.1336 87.7952 51.5645 87.4217 51.2897C86.7465 50.8268 85.925 51.0689 85.1826 51.3185C84.4403 51.5681 83.7697 51.9043 83.2351 52.4929C82.8737 52.9381 83.1083 53.8388 83.8432 53.6684Z" fill="white"/>
<path d="M83.8432 53.6684C84.4989 53.4905 85.0829 53.226 85.8103 53.1348C86.5452 52.9643 87.186 52.9448 87.634 52.4279C87.9014 52.1336 87.7952 51.5645 87.4217 51.2897C86.7465 50.8268 85.925 51.0689 85.1826 51.3185C84.4403 51.5681 83.7697 51.9043 83.2351 52.4929C82.8737 52.9381 83.1083 53.8388 83.8432 53.6684Z" fill="url(#paint5_linear_30_535)"/>
<path d="M85.5521 56.429C85.191 56.2192 84.8191 56.1256 84.4471 56.032C83.8487 55.9171 82.6409 55.8034 82.7962 56.5795C82.9035 57.0583 83.6419 57.3036 84.1594 57.4694C84.4559 57.5559 84.7524 57.6424 85.0543 57.6709C85.4318 57.7064 85.5937 57.6045 85.8366 57.4516C85.9985 57.3497 86.0849 57.2407 86.0258 57.0594C85.9777 56.7619 85.9186 56.5806 85.5521 56.429Z" fill="white"/>
<path d="M85.5521 56.429C85.191 56.2192 84.8191 56.1256 84.4471 56.032C83.8487 55.9171 82.6409 55.8034 82.7962 56.5795C82.9035 57.0583 83.6419 57.3036 84.1594 57.4694C84.4559 57.5559 84.7524 57.6424 85.0543 57.6709C85.4318 57.7064 85.5937 57.6045 85.8366 57.4516C85.9985 57.3497 86.0849 57.2407 86.0258 57.0594C85.9777 56.7619 85.9186 56.5806 85.5521 56.429Z" fill="url(#paint6_linear_30_535)"/>
<path d="M109.776 119.012C109.988 115.917 110.286 112.751 110.498 109.656C111 103.473 111.51 97.2113 112.012 91.0287C113.024 78.5844 113.949 66.2118 115.041 53.775C115.618 46.8008 116.123 39.7399 116.62 32.7582C116.628 32.679 116.628 32.679 116.635 32.5999C116.816 32.3773 116.91 32.2264 117.012 31.9963C117.41 31.1553 116.426 30.5834 115.763 30.8404C115.518 30.8972 115.344 31.0407 115.092 31.1766C111.054 30.7964 106.994 30.6538 103.021 30.4394C98.652 30.1877 94.4412 29.9509 90.072 29.6993C81.5712 29.2183 73.0704 28.7373 64.5622 28.3355C59.7106 28.1183 54.8589 27.9011 50.0073 27.6838C49.2082 27.6885 49.0964 28.876 49.8881 28.9505C48.7748 34.8359 47.9707 40.8304 47.095 46.7381C46.2192 52.6459 45.2717 58.4671 44.4751 64.3823C42.8251 75.9678 41.4843 87.6623 40.0718 99.2702C39.2649 106.143 38.5372 113.023 37.7378 119.817C37.6558 120.687 39.0808 120.822 39.1628 119.951C39.2001 119.555 39.2448 119.08 39.2821 118.684C39.5121 118.786 39.7496 118.808 40.0812 118.679C41.1775 118.064 42.217 117.203 43.249 116.422C43.7613 116.071 44.1944 115.712 44.7141 115.282C45.1398 115.003 45.652 114.651 45.7834 114.105C45.87 114.033 45.8775 113.954 45.9566 113.961C45.9566 113.961 45.9641 113.882 46.0433 113.89C46.5974 113.942 47.0724 113.987 47.6266 114.039C48.5692 114.207 49.4326 114.368 50.3826 114.458C52.2826 114.637 54.1035 114.808 56.0035 114.987C59.7244 115.338 63.5245 115.695 67.2454 116.046C70.9663 116.396 74.6723 116.905 78.4574 117.421C82.2426 117.937 86.0352 118.374 89.7412 118.883C93.4472 119.392 97.1606 119.821 100.867 120.33C101.003 120.582 101.218 120.842 101.354 121.095C101.641 121.441 101.927 121.787 102.214 122.134C102.724 122.661 103.226 123.268 103.728 123.874C104.158 124.394 104.581 124.993 104.845 125.577C104.981 125.829 105.11 126.16 105.167 126.405C97.1138 125.408 89.061 124.41 81.0157 123.333C72.4954 122.211 63.9527 121.327 55.4324 120.205C53.0648 119.902 50.6255 119.513 48.2504 119.289C46.9837 119.17 45.7096 119.13 44.5221 119.018C43.2554 118.899 41.9738 118.938 40.7937 118.747C40.0095 118.593 39.8828 119.939 40.6744 120.013C41.7111 120.031 42.7971 120.373 43.898 120.556C45.078 120.747 46.1789 120.931 47.3515 121.201C49.4742 121.561 51.6117 121.762 53.7418 122.042C58.0094 122.524 62.2696 123.085 66.5297 123.646C75.0501 124.768 83.5779 125.81 92.1056 126.853C96.9991 127.473 101.893 128.094 106.786 128.714C107.103 128.744 107.348 128.687 107.521 128.544C107.59 129.509 109.181 129.579 109.198 128.542C109.108 125.259 109.565 122.107 109.776 119.012ZM101.526 31.896C105.5 32.1104 109.465 32.4039 113.446 32.5392C113.006 32.9769 112.486 33.4072 112.053 33.7658C111.526 34.2752 110.912 34.8564 110.385 35.3658C110.226 35.3509 109.981 35.4077 109.801 35.6303C109.526 36.0038 109.251 36.3773 108.897 36.7433C108.358 36.5328 107.811 36.4014 107.185 36.2626C106.329 36.0223 105.372 36.012 104.501 35.93C102.759 35.766 100.938 35.5945 99.1966 35.4305C95.6341 35.0951 92.0715 34.7596 88.5015 34.5033C81.4406 33.9982 74.3723 33.5723 67.3757 33.2329C63.3232 33.0111 59.3425 32.8758 55.2527 33.0498C54.9286 33.0991 54.6762 33.2351 54.5821 33.386C54.2235 32.9529 53.8724 32.4406 53.6005 31.9358C52.9699 30.9979 52.5844 30.0031 52.0331 29.0726C68.5298 30.3065 84.9847 31.1371 101.526 31.896ZM42.2897 114.734C41.4309 115.372 40.4138 115.995 39.6268 116.72C40.8139 105.81 42.3176 94.9291 43.7422 84.0412C44.5239 78.2843 45.313 72.4482 46.0947 66.6913C46.8838 60.8552 47.5147 55.0042 48.383 49.1756C49.2811 43.0303 50.3301 36.9791 51.0699 30.8189C51.3987 31.5687 51.8066 32.326 52.2294 32.9249C52.9316 33.9494 53.8937 34.7589 54.9424 35.4966C54.744 36.7558 54.4738 37.9284 54.2754 39.1877C54.077 40.4469 53.9577 41.7136 53.7667 42.8936C53.449 45.4195 53.1387 47.8663 52.7418 50.3848C52.1139 55.3574 51.4142 60.2435 50.7862 65.2162C49.4511 75.1541 48.2817 85.0277 46.9466 94.9656C46.5991 97.8082 46.259 100.572 45.9115 103.414C45.5714 106.178 45.0655 109.005 44.9555 111.87C44.9331 112.108 45.0691 112.36 45.1408 112.447C45.0616 112.439 44.9825 112.432 44.9033 112.424C44.4283 112.38 44.2252 112.84 44.2746 113.164C43.5965 113.579 42.8886 114.311 42.2897 114.734ZM80.3212 115.44C76.6003 115.09 72.872 114.818 69.0719 114.461C65.2718 114.103 61.4718 113.745 57.7509 113.395C55.6925 113.201 53.5475 113.079 51.4892 112.885C50.46 112.788 49.4233 112.77 48.3075 112.745C47.5876 112.757 46.8751 112.69 46.2417 112.63C46.415 112.487 46.509 112.336 46.6106 112.106C47.1583 109.682 47.3969 107.148 47.7146 104.622C48.0249 102.176 48.4217 99.6571 48.7394 97.1312C49.3674 92.1585 49.988 87.265 50.6159 82.2923C51.8719 72.347 53.1204 62.4808 54.3763 52.5354C54.7239 49.6928 55.0639 46.9294 55.4115 44.0868C55.6174 42.7484 55.7516 41.3234 55.8783 39.9776C56.005 38.6317 56.1467 37.1275 56.2017 35.695C56.2166 35.5367 56.1449 35.4501 56.1523 35.3709C56.1747 35.1334 56.1104 34.9676 55.967 34.7944C55.8878 34.7869 55.8953 34.7077 55.8161 34.7003C62.6963 35.428 69.7078 35.609 76.6103 36.0992C83.6712 36.6043 90.7246 37.1886 97.6988 37.7655C99.678 37.9518 101.578 38.1307 103.557 38.3171C104.507 38.4066 105.529 38.5826 106.486 38.5929C107.286 38.5883 108.092 38.5045 108.899 38.4207C109.129 38.5223 109.446 38.5521 109.705 38.3369L109.792 38.2652C109.871 38.2727 109.958 38.201 109.965 38.1218C109.965 38.1218 109.965 38.1218 110.052 38.0501C109.715 39.9352 109.528 41.9144 109.27 43.807C108.952 46.3329 108.721 48.7871 108.404 51.313C107.847 56.3723 107.299 61.3525 106.742 66.4118C105.637 76.4512 104.525 86.5698 103.578 96.6241C103.31 99.4742 103.041 102.324 102.694 105.167C102.346 108.009 101.919 110.845 101.889 113.717C101.874 113.875 101.938 114.041 102.002 114.207C101.25 115.414 101.093 117.076 101.939 118.274C94.7792 117.121 87.5255 116.118 80.3212 115.44ZM103.788 120.685C103.645 120.512 103.422 120.331 103.271 120.237C103.712 119.799 103.715 118.921 103.111 118.544C103.364 118.408 103.544 118.186 103.574 117.869C103.528 116.667 103.459 115.702 103.887 114.544C104.004 114.156 103.947 113.911 103.732 113.651C104.193 111.298 104.345 108.837 104.569 106.462C104.8 104.007 105.125 101.402 105.363 98.8689C105.92 93.8096 106.468 88.8294 107.025 83.7701C108.051 73.7233 109.148 63.763 110.174 53.7161C110.435 50.9452 110.703 48.0952 111.043 45.3318C111.304 42.5609 111.724 39.8049 111.66 37.0834C112.346 36.5888 113.031 36.0943 113.645 35.5131C114.165 35.0828 114.685 34.6526 115.284 34.2297C114.739 40.009 114.195 45.7883 113.738 51.4958C113.235 57.6784 112.805 63.9476 112.303 70.1301C111.211 82.567 110.286 94.9395 109.274 107.384C109.025 110.875 108.697 114.358 108.448 117.849C108.284 119.591 108.199 121.34 108.035 123.081C107.931 124.19 107.827 125.298 107.722 126.407C107.374 125.016 106.536 123.739 105.675 122.7C105.116 121.848 104.449 121.306 103.788 120.685Z" stroke="white" stroke-width="0.05"/>
<path d="M109.776 119.012C109.988 115.917 110.286 112.751 110.498 109.656C111 103.473 111.51 97.2113 112.012 91.0287C113.024 78.5844 113.949 66.2118 115.041 53.775C115.618 46.8008 116.123 39.7399 116.62 32.7582C116.628 32.679 116.628 32.679 116.635 32.5999C116.816 32.3773 116.91 32.2264 117.012 31.9963C117.41 31.1553 116.426 30.5834 115.763 30.8404C115.518 30.8972 115.344 31.0407 115.092 31.1766C111.054 30.7964 106.994 30.6538 103.021 30.4394C98.652 30.1877 94.4412 29.9509 90.072 29.6993C81.5712 29.2183 73.0704 28.7373 64.5622 28.3355C59.7106 28.1183 54.8589 27.9011 50.0073 27.6838C49.2082 27.6885 49.0964 28.876 49.8881 28.9505C48.7748 34.8359 47.9707 40.8304 47.095 46.7381C46.2192 52.6459 45.2717 58.4671 44.4751 64.3823C42.8251 75.9678 41.4843 87.6623 40.0718 99.2702C39.2649 106.143 38.5372 113.023 37.7378 119.817C37.6558 120.687 39.0808 120.822 39.1628 119.951C39.2001 119.555 39.2448 119.08 39.2821 118.684C39.5121 118.786 39.7496 118.808 40.0812 118.679C41.1775 118.064 42.217 117.203 43.249 116.422C43.7613 116.071 44.1944 115.712 44.7141 115.282C45.1398 115.003 45.652 114.651 45.7834 114.105C45.87 114.033 45.8775 113.954 45.9566 113.961C45.9566 113.961 45.9641 113.882 46.0433 113.89C46.5974 113.942 47.0724 113.987 47.6266 114.039C48.5692 114.207 49.4326 114.368 50.3826 114.458C52.2826 114.637 54.1035 114.808 56.0035 114.987C59.7244 115.338 63.5245 115.695 67.2454 116.046C70.9663 116.396 74.6723 116.905 78.4574 117.421C82.2426 117.937 86.0352 118.374 89.7412 118.883C93.4472 119.392 97.1606 119.821 100.867 120.33C101.003 120.582 101.218 120.842 101.354 121.095C101.641 121.441 101.927 121.787 102.214 122.134C102.724 122.661 103.226 123.268 103.728 123.874C104.158 124.394 104.581 124.993 104.845 125.577C104.981 125.829 105.11 126.16 105.167 126.405C97.1138 125.408 89.061 124.41 81.0157 123.333C72.4954 122.211 63.9527 121.327 55.4324 120.205C53.0648 119.902 50.6255 119.513 48.2504 119.289C46.9837 119.17 45.7096 119.13 44.5221 119.018C43.2554 118.899 41.9738 118.938 40.7937 118.747C40.0095 118.593 39.8828 119.939 40.6744 120.013C41.7111 120.031 42.7971 120.373 43.898 120.556C45.078 120.747 46.1789 120.931 47.3515 121.201C49.4742 121.561 51.6117 121.762 53.7418 122.042C58.0094 122.524 62.2696 123.085 66.5297 123.646C75.0501 124.768 83.5779 125.81 92.1056 126.853C96.9991 127.473 101.893 128.094 106.786 128.714C107.103 128.744 107.348 128.687 107.521 128.544C107.59 129.509 109.181 129.579 109.198 128.542C109.108 125.259 109.565 122.107 109.776 119.012ZM101.526 31.896C105.5 32.1104 109.465 32.4039 113.446 32.5392C113.006 32.9769 112.486 33.4072 112.053 33.7658C111.526 34.2752 110.912 34.8564 110.385 35.3658C110.226 35.3509 109.981 35.4077 109.801 35.6303C109.526 36.0038 109.251 36.3773 108.897 36.7433C108.358 36.5328 107.811 36.4014 107.185 36.2626C106.329 36.0223 105.372 36.012 104.501 35.93C102.759 35.766 100.938 35.5945 99.1966 35.4305C95.6341 35.0951 92.0715 34.7596 88.5015 34.5033C81.4406 33.9982 74.3723 33.5723 67.3757 33.2329C63.3232 33.0111 59.3425 32.8758 55.2527 33.0498C54.9286 33.0991 54.6762 33.2351 54.5821 33.386C54.2235 32.9529 53.8724 32.4406 53.6005 31.9358C52.9699 30.9979 52.5844 30.0031 52.0331 29.0726C68.5298 30.3065 84.9847 31.1371 101.526 31.896ZM42.2897 114.734C41.4309 115.372 40.4138 115.995 39.6268 116.72C40.8139 105.81 42.3176 94.9291 43.7422 84.0412C44.5239 78.2843 45.313 72.4482 46.0947 66.6913C46.8838 60.8552 47.5147 55.0042 48.383 49.1756C49.2811 43.0303 50.3301 36.9791 51.0699 30.8189C51.3987 31.5687 51.8066 32.326 52.2294 32.9249C52.9316 33.9494 53.8937 34.7589 54.9424 35.4966C54.744 36.7558 54.4738 37.9284 54.2754 39.1877C54.077 40.4469 53.9577 41.7136 53.7667 42.8936C53.449 45.4195 53.1387 47.8663 52.7418 50.3848C52.1139 55.3574 51.4142 60.2435 50.7862 65.2162C49.4511 75.1541 48.2817 85.0277 46.9466 94.9656C46.5991 97.8082 46.259 100.572 45.9115 103.414C45.5714 106.178 45.0655 109.005 44.9555 111.87C44.9331 112.108 45.0691 112.36 45.1408 112.447C45.0616 112.439 44.9825 112.432 44.9033 112.424C44.4283 112.38 44.2252 112.84 44.2746 113.164C43.5965 113.579 42.8886 114.311 42.2897 114.734ZM80.3212 115.44C76.6003 115.09 72.872 114.818 69.0719 114.461C65.2718 114.103 61.4718 113.745 57.7509 113.395C55.6925 113.201 53.5475 113.079 51.4892 112.885C50.46 112.788 49.4233 112.77 48.3075 112.745C47.5876 112.757 46.8751 112.69 46.2417 112.63C46.415 112.487 46.509 112.336 46.6106 112.106C47.1583 109.682 47.3969 107.148 47.7146 104.622C48.0249 102.176 48.4217 99.6571 48.7394 97.1312C49.3674 92.1585 49.988 87.265 50.6159 82.2923C51.8719 72.347 53.1204 62.4808 54.3763 52.5354C54.7239 49.6928 55.0639 46.9294 55.4115 44.0868C55.6174 42.7484 55.7516 41.3234 55.8783 39.9776C56.005 38.6317 56.1467 37.1275 56.2017 35.695C56.2166 35.5367 56.1449 35.4501 56.1523 35.3709C56.1747 35.1334 56.1104 34.9676 55.967 34.7944C55.8878 34.7869 55.8953 34.7077 55.8161 34.7003C62.6963 35.428 69.7078 35.609 76.6103 36.0992C83.6712 36.6043 90.7246 37.1886 97.6988 37.7655C99.678 37.9518 101.578 38.1307 103.557 38.3171C104.507 38.4066 105.529 38.5826 106.486 38.5929C107.286 38.5883 108.092 38.5045 108.899 38.4207C109.129 38.5223 109.446 38.5521 109.705 38.3369L109.792 38.2652C109.871 38.2727 109.958 38.201 109.965 38.1218C109.965 38.1218 109.965 38.1218 110.052 38.0501C109.715 39.9352 109.528 41.9144 109.27 43.807C108.952 46.3329 108.721 48.7871 108.404 51.313C107.847 56.3723 107.299 61.3525 106.742 66.4118C105.637 76.4512 104.525 86.5698 103.578 96.6241C103.31 99.4742 103.041 102.324 102.694 105.167C102.346 108.009 101.919 110.845 101.889 113.717C101.874 113.875 101.938 114.041 102.002 114.207C101.25 115.414 101.093 117.076 101.939 118.274C94.7792 117.121 87.5255 116.118 80.3212 115.44ZM103.788 120.685C103.645 120.512 103.422 120.331 103.271 120.237C103.712 119.799 103.715 118.921 103.111 118.544C103.364 118.408 103.544 118.186 103.574 117.869C103.528 116.667 103.459 115.702 103.887 114.544C104.004 114.156 103.947 113.911 103.732 113.651C104.193 111.298 104.345 108.837 104.569 106.462C104.8 104.007 105.125 101.402 105.363 98.8689C105.92 93.8096 106.468 88.8294 107.025 83.7701C108.051 73.7233 109.148 63.763 110.174 53.7161C110.435 50.9452 110.703 48.0952 111.043 45.3318C111.304 42.5609 111.724 39.8049 111.66 37.0834C112.346 36.5888 113.031 36.0943 113.645 35.5131C114.165 35.0828 114.685 34.6526 115.284 34.2297C114.739 40.009 114.195 45.7883 113.738 51.4958C113.235 57.6784 112.805 63.9476 112.303 70.1301C111.211 82.567 110.286 94.9395 109.274 107.384C109.025 110.875 108.697 114.358 108.448 117.849C108.284 119.591 108.199 121.34 108.035 123.081C107.931 124.19 107.827 125.298 107.722 126.407C107.374 125.016 106.536 123.739 105.675 122.7C105.116 121.848 104.449 121.306 103.788 120.685Z" stroke="url(#paint7_linear_30_535)" stroke-width="0.05"/>
<path d="M83.8697 89.4649C82.5164 89.4173 81.2423 89.3772 79.8964 89.2505C81.98 88.3285 83.9918 87.3199 86.2114 86.6503C87.2853 86.2722 88.4384 85.9016 89.5048 85.6026C90.1605 85.4248 90.8954 85.2543 91.5511 85.0765C91.1748 85.68 90.7911 86.3627 90.4073 87.0454C90.0235 87.7281 88.7437 89.4446 89.9582 90.118C91.1727 90.7915 91.6832 88.7629 91.9878 88.0728C92.4955 86.9225 93.0031 85.7723 93.3599 84.528C93.3748 84.3696 93.3897 84.2113 93.3255 84.0455C93.3628 83.6497 93.0834 83.224 92.6875 83.1867C91.4208 83.0674 90.196 83.3515 89.0504 83.6429C87.8256 83.927 86.5934 84.2902 85.4328 84.74C83.4359 85.5903 81.3449 86.5914 79.5482 87.8599C79.2194 87.1101 78.9773 86.2886 78.8143 85.4745C78.6737 84.423 78.3673 83.4357 78.1476 82.3767L77.4017 79.2714C77.2881 78.7815 77.1819 78.2124 76.9891 77.715C76.9398 77.3909 76.8038 77.1385 76.7545 76.8144C76.6902 76.6486 76.5542 76.3962 76.49 76.2304C76.5915 76.0003 76.5347 75.7554 76.3913 75.5821C76.681 75.0503 76.7406 74.417 76.9586 73.7986C77.1765 73.1801 77.402 72.4825 77.6991 71.8715C78.2217 70.5629 78.8951 69.3484 79.6477 68.1414C80.3929 67.0135 81.1381 65.8856 82.0267 64.931C82.3881 64.4858 82.8286 64.0481 83.2692 63.6103C85.8221 64.4897 88.2959 65.3615 90.5367 67.0102C92.6341 68.4856 94.291 70.3988 96.027 72.3194C96.0764 72.6435 96.2124 72.8959 96.3483 73.1483C96.6203 73.6532 97.4045 73.8069 97.6942 73.2751C98.2586 72.3698 98.2196 71.0882 98.2448 69.9724C98.2774 68.7774 98.3101 67.5825 98.4219 66.3949C98.4471 65.2791 98.5589 64.0916 98.6633 62.9832C98.7155 62.429 98.7676 61.8749 98.8273 61.2416C98.8496 61.0041 98.8003 60.6799 98.8227 60.4424C98.8599 60.0466 98.724 59.7942 98.6746 59.47C98.5759 58.8218 97.6976 58.8189 97.4871 59.3582C97.3781 59.6674 97.1974 59.89 97.1676 60.2067C97.0586 60.5159 97.0288 60.8326 96.9273 61.0626C96.7959 61.6094 96.7512 62.0844 96.699 62.6386C96.508 63.8186 96.3962 65.0061 96.2844 66.1937C96.1949 67.1437 96.1055 68.0937 96.0952 69.0511C94.876 67.5786 93.397 66.3211 91.8165 65.2937C90.3077 64.3529 88.6331 63.4764 86.9361 62.8374C87.807 62.9194 88.6853 62.9223 89.5785 62.7668C93.0796 62.0581 96.077 59.0657 96.6499 55.5255C97.2155 52.0645 95.0892 48.35 91.876 46.8494C88.3536 45.2398 83.9368 46.3414 81.7805 49.7325C80.8053 50.7589 80.0527 51.9659 79.7527 53.4552C79.5915 54.3186 79.5021 55.2686 79.6576 56.1618C78.933 55.3747 78.2084 54.5877 77.4764 53.8798C74.9142 51.4022 72.1714 49.1472 69.1612 47.1864C67.7315 46.2531 66.2004 45.5499 64.59 44.8392C63.8207 44.5271 63.4714 45.6923 64.1615 45.9969C65.376 46.6703 66.5682 47.5813 67.6886 48.4056C69.0316 49.4106 70.2955 50.4082 71.5519 51.485C74.1364 53.7251 76.4685 56.1011 78.6991 58.7072C79.7822 59.9274 80.7713 61.2985 81.8545 62.5187C81.9262 62.6053 82.0771 62.6994 82.1488 62.786C81.7948 63.152 81.4334 63.5972 81.0795 63.9632C80.0968 65.0688 79.1859 66.2609 78.3466 67.5397C77.5074 68.8184 76.9131 70.0404 76.3114 71.3415C76.0068 72.0317 75.7813 72.7292 75.5634 73.3477C75.4395 73.8152 75.229 74.3545 75.0976 74.9012C74.8676 74.7997 74.645 74.619 74.3357 74.51C73.7965 74.2995 73.2497 74.1682 72.7105 73.9576C71.5453 73.6083 70.2861 73.4099 69.0986 73.298C67.8319 73.1788 66.6369 73.1461 65.4345 73.1926C64.2321 73.2391 62.9505 73.2782 61.9976 74.067C61.7377 74.2822 61.7005 74.678 61.829 75.0096C61.7349 75.1605 61.72 75.3188 61.6976 75.5564C61.7246 76.118 61.8233 76.7662 61.9295 77.3353C62.1343 78.5527 62.4183 79.7774 62.7098 80.9231C62.9938 82.1479 63.2928 83.2143 63.6634 84.3674C63.9698 85.3547 64.197 86.3345 64.835 87.1933C64.3451 87.3069 63.8551 87.4205 63.3578 87.6133C62.5288 87.9346 61.3189 88.0603 60.6185 88.7131C60.4378 88.9357 60.3288 89.2449 60.3064 89.4824C58.547 90.3551 57.188 92.0642 56.685 94.0135C55.9761 97.3013 58.1665 101.182 61.4319 102.128C65.0857 103.191 69.2827 101.03 69.5045 96.9778C69.5894 95.2286 68.9468 93.5707 67.5321 92.4791C66.189 91.474 64.4697 91.0725 62.891 91.7226C60.9881 92.422 59.9011 94.6358 61.0037 96.4968C62.2424 98.6102 65.0087 98.072 66.5111 96.5362C66.9516 96.0984 67.0979 95.3934 66.6676 94.8736C66.2373 94.3539 65.5248 94.2868 65.0051 94.7171C64.4854 95.1474 63.1218 96.0573 62.6496 95.1342C62.1849 94.132 63.4693 93.2147 64.355 93.1384C66.8614 92.8153 68.2854 95.5052 67.3642 97.6548C66.4429 99.8044 63.7335 100.588 61.663 99.6738C59.5926 98.76 58.2748 96.6392 58.5701 94.3508C58.8804 91.904 61.385 89.9035 63.8616 89.8971C65.9693 90.4151 68.295 90.3145 70.5191 90.4441C72.8224 90.5811 75.0541 90.6315 77.3574 90.7686C79.6607 90.9056 81.8057 91.0276 84.0299 91.1572C86.254 91.2868 88.3422 91.1639 90.435 91.8402C91.9886 92.306 93.4899 93.3259 94.0608 94.8972C94.6317 96.4685 93.7775 97.9056 92.5797 98.7512C91.2953 99.6686 89.5731 100.145 88.0345 99.5213C86.6467 98.9912 85.5217 97.3678 86.1458 95.8292C86.4578 95.0599 87.0791 94.3995 87.8931 94.2366C88.7864 94.0811 89.6991 94.5664 89.9412 95.3879C90.4479 96.7934 88.7005 98.386 87.4366 97.3884C86.9197 96.9404 86.0386 97.8158 86.5555 98.2639C87.8687 99.5856 90.281 99.4134 91.3159 97.7537C92.4448 95.9431 91.0776 93.4981 89.2148 92.9234C87.2012 92.2545 84.922 93.5574 84.2532 95.5711C83.5695 97.7431 84.6991 100.166 86.6681 101.31C88.867 102.555 91.6035 102.333 93.6675 100.771C95.3059 99.4872 96.3212 97.1867 95.9534 95.1553C95.0129 89.8752 88.1672 89.6299 83.8697 89.4649ZM90.2823 47.6578C93.016 48.3145 95.1152 51.4673 95.0918 54.2606C95.046 57.2913 93.1226 59.9057 90.3116 60.9189C87.6664 61.8679 84.4727 61.008 82.6798 58.8425C80.8078 56.6695 80.7698 52.8321 82.7352 50.6211L82.8218 50.5494L82.8292 50.4702C82.9233 50.3193 83.0965 50.1759 83.2623 50.1116C83.4356 49.9682 83.443 49.889 83.458 49.7307C85.1411 47.9723 87.858 47.11 90.2823 47.6578ZM73.9439 88.8497C72.3531 88.7798 70.7697 88.6307 69.0998 88.5533C68.1497 88.4638 67.1131 88.4461 66.0839 88.3492C66.1705 88.2775 66.3438 88.1341 66.4304 88.0623C66.6903 87.8472 66.7276 87.4514 66.5124 87.1915C66.7034 86.0115 66.3104 85.0959 65.9397 83.9428C65.5616 82.8689 65.2627 81.8024 64.8921 80.6493C64.5931 79.5829 64.2942 78.5164 63.9953 77.45C63.8174 76.7942 63.6545 75.9802 63.3974 75.3171C63.5558 75.332 63.7216 75.2677 63.8799 75.2826C64.449 75.1764 65.0106 75.1494 65.5797 75.0433C66.7104 74.9102 67.8262 74.9354 69.0137 75.0472C70.1221 75.1516 71.3096 75.2634 72.4031 75.5261C72.9498 75.6574 73.4965 75.7888 74.0358 75.9993C74.5033 76.1232 74.8992 76.1604 75.3593 76.3635C75.431 76.4501 75.3145 76.8386 75.3788 77.0043C75.4281 77.3285 75.4775 77.6526 75.5343 77.8975C75.6479 78.3875 75.7541 78.9566 75.8677 79.4465C76.08 80.5846 76.2923 81.7228 76.5837 82.8684C76.8035 83.9274 76.8575 85.0507 77.1639 86.038C77.4703 87.0253 77.7841 87.9334 78.2563 88.8564C78.328 88.9431 78.3997 89.0297 78.4714 89.1163C76.8806 89.0464 75.4481 88.9914 73.9439 88.8497Z" stroke="white" stroke-width="0.05"/>
<path d="M83.8697 89.4649C82.5164 89.4173 81.2423 89.3772 79.8964 89.2505C81.98 88.3285 83.9918 87.3199 86.2114 86.6503C87.2853 86.2722 88.4384 85.9016 89.5048 85.6026C90.1605 85.4248 90.8954 85.2543 91.5511 85.0765C91.1748 85.68 90.7911 86.3627 90.4073 87.0454C90.0235 87.7281 88.7437 89.4446 89.9582 90.118C91.1727 90.7915 91.6832 88.7629 91.9878 88.0728C92.4955 86.9225 93.0031 85.7723 93.3599 84.528C93.3748 84.3696 93.3897 84.2113 93.3255 84.0455C93.3628 83.6497 93.0834 83.224 92.6875 83.1867C91.4208 83.0674 90.196 83.3515 89.0504 83.6429C87.8256 83.927 86.5934 84.2902 85.4328 84.74C83.4359 85.5903 81.3449 86.5914 79.5482 87.8599C79.2194 87.1101 78.9773 86.2886 78.8143 85.4745C78.6737 84.423 78.3673 83.4357 78.1476 82.3767L77.4017 79.2714C77.2881 78.7815 77.1819 78.2124 76.9891 77.715C76.9398 77.3909 76.8038 77.1385 76.7545 76.8144C76.6902 76.6486 76.5542 76.3962 76.49 76.2304C76.5915 76.0003 76.5347 75.7554 76.3913 75.5821C76.681 75.0503 76.7406 74.417 76.9586 73.7986C77.1765 73.1801 77.402 72.4825 77.6991 71.8715C78.2217 70.5629 78.8951 69.3484 79.6477 68.1414C80.3929 67.0135 81.1381 65.8856 82.0267 64.931C82.3881 64.4858 82.8286 64.0481 83.2692 63.6103C85.8221 64.4897 88.2959 65.3615 90.5367 67.0102C92.6341 68.4856 94.291 70.3988 96.027 72.3194C96.0764 72.6435 96.2124 72.8959 96.3483 73.1483C96.6203 73.6532 97.4045 73.8069 97.6942 73.2751C98.2586 72.3698 98.2196 71.0882 98.2448 69.9724C98.2774 68.7774 98.3101 67.5825 98.4219 66.3949C98.4471 65.2791 98.5589 64.0916 98.6633 62.9832C98.7155 62.429 98.7676 61.8749 98.8273 61.2416C98.8496 61.0041 98.8003 60.6799 98.8227 60.4424C98.8599 60.0466 98.724 59.7942 98.6746 59.47C98.5759 58.8218 97.6976 58.8189 97.4871 59.3582C97.3781 59.6674 97.1974 59.89 97.1676 60.2067C97.0586 60.5159 97.0288 60.8326 96.9273 61.0626C96.7959 61.6094 96.7512 62.0844 96.699 62.6386C96.508 63.8186 96.3962 65.0061 96.2844 66.1937C96.1949 67.1437 96.1055 68.0937 96.0952 69.0511C94.876 67.5786 93.397 66.3211 91.8165 65.2937C90.3077 64.3529 88.6331 63.4764 86.9361 62.8374C87.807 62.9194 88.6853 62.9223 89.5785 62.7668C93.0796 62.0581 96.077 59.0657 96.6499 55.5255C97.2155 52.0645 95.0892 48.35 91.876 46.8494C88.3536 45.2398 83.9368 46.3414 81.7805 49.7325C80.8053 50.7589 80.0527 51.9659 79.7527 53.4552C79.5915 54.3186 79.5021 55.2686 79.6576 56.1618C78.933 55.3747 78.2084 54.5877 77.4764 53.8798C74.9142 51.4022 72.1714 49.1472 69.1612 47.1864C67.7315 46.2531 66.2004 45.5499 64.59 44.8392C63.8207 44.5271 63.4714 45.6923 64.1615 45.9969C65.376 46.6703 66.5682 47.5813 67.6886 48.4056C69.0316 49.4106 70.2955 50.4082 71.5519 51.485C74.1364 53.7251 76.4685 56.1011 78.6991 58.7072C79.7822 59.9274 80.7713 61.2985 81.8545 62.5187C81.9262 62.6053 82.0771 62.6994 82.1488 62.786C81.7948 63.152 81.4334 63.5972 81.0795 63.9632C80.0968 65.0688 79.1859 66.2609 78.3466 67.5397C77.5074 68.8184 76.9131 70.0404 76.3114 71.3415C76.0068 72.0317 75.7813 72.7292 75.5634 73.3477C75.4395 73.8152 75.229 74.3545 75.0976 74.9012C74.8676 74.7997 74.645 74.619 74.3357 74.51C73.7965 74.2995 73.2497 74.1682 72.7105 73.9576C71.5453 73.6083 70.2861 73.4099 69.0986 73.298C67.8319 73.1788 66.6369 73.1461 65.4345 73.1926C64.2321 73.2391 62.9505 73.2782 61.9976 74.067C61.7377 74.2822 61.7005 74.678 61.829 75.0096C61.7349 75.1605 61.72 75.3188 61.6976 75.5564C61.7246 76.118 61.8233 76.7662 61.9295 77.3353C62.1343 78.5527 62.4183 79.7774 62.7098 80.9231C62.9938 82.1479 63.2928 83.2143 63.6634 84.3674C63.9698 85.3547 64.197 86.3345 64.835 87.1933C64.3451 87.3069 63.8551 87.4205 63.3578 87.6133C62.5288 87.9346 61.3189 88.0603 60.6185 88.7131C60.4378 88.9357 60.3288 89.2449 60.3064 89.4824C58.547 90.3551 57.188 92.0642 56.685 94.0135C55.9761 97.3013 58.1665 101.182 61.4319 102.128C65.0857 103.191 69.2827 101.03 69.5045 96.9778C69.5894 95.2286 68.9468 93.5707 67.5321 92.4791C66.189 91.474 64.4697 91.0725 62.891 91.7226C60.9881 92.422 59.9011 94.6358 61.0037 96.4968C62.2424 98.6102 65.0087 98.072 66.5111 96.5362C66.9516 96.0984 67.0979 95.3934 66.6676 94.8736C66.2373 94.3539 65.5248 94.2868 65.0051 94.7171C64.4854 95.1474 63.1218 96.0573 62.6496 95.1342C62.1849 94.132 63.4693 93.2147 64.355 93.1384C66.8614 92.8153 68.2854 95.5052 67.3642 97.6548C66.4429 99.8044 63.7335 100.588 61.663 99.6738C59.5926 98.76 58.2748 96.6392 58.5701 94.3508C58.8804 91.904 61.385 89.9035 63.8616 89.8971C65.9693 90.4151 68.295 90.3145 70.5191 90.4441C72.8224 90.5811 75.0541 90.6315 77.3574 90.7686C79.6607 90.9056 81.8057 91.0276 84.0299 91.1572C86.254 91.2868 88.3422 91.1639 90.435 91.8402C91.9886 92.306 93.4899 93.3259 94.0608 94.8972C94.6317 96.4685 93.7775 97.9056 92.5797 98.7512C91.2953 99.6686 89.5731 100.145 88.0345 99.5213C86.6467 98.9912 85.5217 97.3678 86.1458 95.8292C86.4578 95.0599 87.0791 94.3995 87.8931 94.2366C88.7864 94.0811 89.6991 94.5664 89.9412 95.3879C90.4479 96.7934 88.7005 98.386 87.4366 97.3884C86.9197 96.9404 86.0386 97.8158 86.5555 98.2639C87.8687 99.5856 90.281 99.4134 91.3159 97.7537C92.4448 95.9431 91.0776 93.4981 89.2148 92.9234C87.2012 92.2545 84.922 93.5574 84.2532 95.5711C83.5695 97.7431 84.6991 100.166 86.6681 101.31C88.867 102.555 91.6035 102.333 93.6675 100.771C95.3059 99.4872 96.3212 97.1867 95.9534 95.1553C95.0129 89.8752 88.1672 89.6299 83.8697 89.4649ZM90.2823 47.6578C93.016 48.3145 95.1152 51.4673 95.0918 54.2606C95.046 57.2913 93.1226 59.9057 90.3116 60.9189C87.6664 61.8679 84.4727 61.008 82.6798 58.8425C80.8078 56.6695 80.7698 52.8321 82.7352 50.6211L82.8218 50.5494L82.8292 50.4702C82.9233 50.3193 83.0965 50.1759 83.2623 50.1116C83.4356 49.9682 83.443 49.889 83.458 49.7307C85.1411 47.9723 87.858 47.11 90.2823 47.6578ZM73.9439 88.8497C72.3531 88.7798 70.7697 88.6307 69.0998 88.5533C68.1497 88.4638 67.1131 88.4461 66.0839 88.3492C66.1705 88.2775 66.3438 88.1341 66.4304 88.0623C66.6903 87.8472 66.7276 87.4514 66.5124 87.1915C66.7034 86.0115 66.3104 85.0959 65.9397 83.9428C65.5616 82.8689 65.2627 81.8024 64.8921 80.6493C64.5931 79.5829 64.2942 78.5164 63.9953 77.45C63.8174 76.7942 63.6545 75.9802 63.3974 75.3171C63.5558 75.332 63.7216 75.2677 63.8799 75.2826C64.449 75.1764 65.0106 75.1494 65.5797 75.0433C66.7104 74.9102 67.8262 74.9354 69.0137 75.0472C70.1221 75.1516 71.3096 75.2634 72.4031 75.5261C72.9498 75.6574 73.4965 75.7888 74.0358 75.9993C74.5033 76.1232 74.8992 76.1604 75.3593 76.3635C75.431 76.4501 75.3145 76.8386 75.3788 77.0043C75.4281 77.3285 75.4775 77.6526 75.5343 77.8975C75.6479 78.3875 75.7541 78.9566 75.8677 79.4465C76.08 80.5846 76.2923 81.7228 76.5837 82.8684C76.8035 83.9274 76.8575 85.0507 77.1639 86.038C77.4703 87.0253 77.7841 87.9334 78.2563 88.8564C78.328 88.9431 78.3997 89.0297 78.4714 89.1163C76.8806 89.0464 75.4481 88.9914 73.9439 88.8497Z" stroke="url(#paint8_linear_30_535)" stroke-width="0.05"/>
<path d="M72.0226 99.9303C72.0925 98.3395 72.2416 96.7561 72.3115 95.1653C72.3861 94.3736 71.1985 94.2618 71.0448 95.046C70.7299 96.6936 70.5017 98.2695 70.3451 99.9321C70.2706 100.724 70.2752 101.523 70.2798 102.322C70.2919 103.042 70.2025 103.992 70.6178 104.67C70.8898 105.175 71.538 105.076 71.7411 104.616C72.0457 103.926 71.9694 103.04 72.0364 102.328C71.9527 101.521 72.0272 100.729 72.0226 99.9303Z" stroke="white" stroke-width="0.05"/>
<path d="M72.0226 99.9303C72.0925 98.3395 72.2416 96.7561 72.3115 95.1653C72.3861 94.3736 71.1985 94.2618 71.0448 95.046C70.7299 96.6936 70.5017 98.2695 70.3451 99.9321C70.2706 100.724 70.2752 101.523 70.2798 102.322C70.2919 103.042 70.2025 103.992 70.6178 104.67C70.8898 105.175 71.538 105.076 71.7411 104.616C72.0457 103.926 71.9694 103.04 72.0364 102.328C71.9527 101.521 72.0272 100.729 72.0226 99.9303Z" stroke="url(#paint9_linear_30_535)" stroke-width="0.05"/>
<path d="M77.0688 99.7666C77.1238 98.3341 77.1714 96.9808 77.1472 95.5409C77.1426 94.7418 76.0342 94.6374 75.8805 95.4216C75.6672 96.8392 75.3821 98.1701 75.2479 99.5951C75.1808 100.308 75.0346 101.013 74.9749 101.646C74.9451 101.963 74.8287 102.351 74.878 102.675C74.9274 102.999 75.1425 103.259 75.2785 103.512C75.4787 103.93 75.9537 103.975 76.2285 103.601C76.4167 103.299 76.6691 103.163 76.7781 102.854C76.887 102.545 76.9243 102.149 76.875 101.825C77.0138 101.199 77.0809 100.487 77.0688 99.7666Z" stroke="white" stroke-width="0.05"/>
<path d="M77.0688 99.7666C77.1238 98.3341 77.1714 96.9808 77.1472 95.5409C77.1426 94.7418 76.0342 94.6374 75.8805 95.4216C75.6672 96.8392 75.3821 98.1701 75.2479 99.5951C75.1808 100.308 75.0346 101.013 74.9749 101.646C74.9451 101.963 74.8287 102.351 74.878 102.675C74.9274 102.999 75.1425 103.259 75.2785 103.512C75.4787 103.93 75.9537 103.975 76.2285 103.601C76.4167 103.299 76.6691 103.163 76.7781 102.854C76.887 102.545 76.9243 102.149 76.875 101.825C77.0138 101.199 77.0809 100.487 77.0688 99.7666Z" stroke="url(#paint10_linear_30_535)" stroke-width="0.05"/>
<path d="M82.9643 102.478C82.9327 101.117 82.8219 99.749 82.7111 98.3808C82.7977 98.3091 82.8127 98.1508 82.8201 98.0716C82.8797 97.4383 82.5212 97.0051 81.967 96.953C81.5712 96.9157 81.2172 97.2817 81.1874 97.5984C80.9517 99.2535 80.8026 100.837 80.646 102.499C80.5715 103.291 80.497 104.083 80.4224 104.874C80.3479 105.666 80.1942 106.45 80.4437 107.193C80.5992 108.086 82.1528 108.552 82.6381 107.639C83.1159 106.805 83.0396 105.92 82.9632 105.034C83.0378 104.242 83.0406 103.364 82.9643 102.478Z" stroke="white" stroke-width="0.05"/>
<path d="M82.9643 102.478C82.9327 101.117 82.8219 99.749 82.7111 98.3808C82.7977 98.3091 82.8127 98.1508 82.8201 98.0716C82.8797 97.4383 82.5212 97.0051 81.967 96.953C81.5712 96.9157 81.2172 97.2817 81.1874 97.5984C80.9517 99.2535 80.8026 100.837 80.646 102.499C80.5715 103.291 80.497 104.083 80.4224 104.874C80.3479 105.666 80.1942 106.45 80.4437 107.193C80.5992 108.086 82.1528 108.552 82.6381 107.639C83.1159 106.805 83.0396 105.92 82.9632 105.034C83.0378 104.242 83.0406 103.364 82.9643 102.478Z" stroke="url(#paint11_linear_30_535)" stroke-width="0.05"/>
<path d="M83.8432 53.6684C84.4989 53.4905 85.0829 53.226 85.8103 53.1348C86.5452 52.9643 87.186 52.9448 87.634 52.4279C87.9014 52.1336 87.7952 51.5645 87.4217 51.2897C86.7465 50.8268 85.925 51.0689 85.1826 51.3185C84.4403 51.5681 83.7697 51.9043 83.2351 52.4929C82.8737 52.9381 83.1083 53.8388 83.8432 53.6684Z" stroke="white" stroke-width="0.05"/>
<path d="M83.8432 53.6684C84.4989 53.4905 85.0829 53.226 85.8103 53.1348C86.5452 52.9643 87.186 52.9448 87.634 52.4279C87.9014 52.1336 87.7952 51.5645 87.4217 51.2897C86.7465 50.8268 85.925 51.0689 85.1826 51.3185C84.4403 51.5681 83.7697 51.9043 83.2351 52.4929C82.8737 52.9381 83.1083 53.8388 83.8432 53.6684Z" stroke="url(#paint12_linear_30_535)" stroke-width="0.05"/>
<path d="M85.5521 56.429C85.191 56.2192 84.8191 56.1256 84.4471 56.032C83.8487 55.9171 82.6409 55.8034 82.7962 56.5795C82.9035 57.0583 83.6419 57.3036 84.1594 57.4694C84.4559 57.5559 84.7524 57.6424 85.0543 57.6709C85.4318 57.7064 85.5937 57.6045 85.8366 57.4516C85.9985 57.3497 86.0849 57.2407 86.0258 57.0594C85.9777 56.7619 85.9186 56.5806 85.5521 56.429Z" stroke="white" stroke-width="0.05"/>
<path d="M85.5521 56.429C85.191 56.2192 84.8191 56.1256 84.4471 56.032C83.8487 55.9171 82.6409 55.8034 82.7962 56.5795C82.9035 57.0583 83.6419 57.3036 84.1594 57.4694C84.4559 57.5559 84.7524 57.6424 85.0543 57.6709C85.4318 57.7064 85.5937 57.6045 85.8366 57.4516C85.9985 57.3497 86.0849 57.2407 86.0258 57.0594C85.9777 56.7619 85.9186 56.5806 85.5521 56.429Z" stroke="url(#paint13_linear_30_535)" stroke-width="0.05"/>
<defs>
<linearGradient id="paint0_linear_30_535" x1="62.0884" y1="113.183" x2="106.437" y2="67.2129" gradientUnits="userSpaceOnUse">
<stop stop-color="#F8A6FF"/>
<stop offset="1.0001" stop-color="white"/>
</linearGradient>
<linearGradient id="paint1_linear_30_535" x1="62.0884" y1="113.183" x2="106.437" y2="67.2129" gradientUnits="userSpaceOnUse">
<stop stop-color="#F8A6FF"/>
<stop offset="1.0001" stop-color="white"/>
</linearGradient>
<linearGradient id="paint2_linear_30_535" x1="62.0884" y1="113.183" x2="106.437" y2="67.2129" gradientUnits="userSpaceOnUse">
<stop stop-color="#F8A6FF"/>
<stop offset="1.0001" stop-color="white"/>
</linearGradient>
<linearGradient id="paint3_linear_30_535" x1="62.0884" y1="113.183" x2="106.437" y2="67.2129" gradientUnits="userSpaceOnUse">
<stop stop-color="#F8A6FF"/>
<stop offset="1.0001" stop-color="white"/>
</linearGradient>
<linearGradient id="paint4_linear_30_535" x1="62.0884" y1="113.183" x2="106.437" y2="67.2129" gradientUnits="userSpaceOnUse">
<stop stop-color="#F8A6FF"/>
<stop offset="1.0001" stop-color="white"/>
</linearGradient>
<linearGradient id="paint5_linear_30_535" x1="62.0884" y1="113.183" x2="106.437" y2="67.2129" gradientUnits="userSpaceOnUse">
<stop stop-color="#F8A6FF"/>
<stop offset="1.0001" stop-color="white"/>
</linearGradient>
<linearGradient id="paint6_linear_30_535" x1="62.0884" y1="113.183" x2="106.437" y2="67.2129" gradientUnits="userSpaceOnUse">
<stop stop-color="#F8A6FF"/>
<stop offset="1.0001" stop-color="white"/>
</linearGradient>
<linearGradient id="paint7_linear_30_535" x1="62.0884" y1="113.183" x2="106.437" y2="67.2129" gradientUnits="userSpaceOnUse">
<stop stop-color="#F8A6FF"/>
<stop offset="1.0001" stop-color="white"/>
</linearGradient>
<linearGradient id="paint8_linear_30_535" x1="62.0884" y1="113.183" x2="106.437" y2="67.2129" gradientUnits="userSpaceOnUse">
<stop stop-color="#F8A6FF"/>
<stop offset="1.0001" stop-color="white"/>
</linearGradient>
<linearGradient id="paint9_linear_30_535" x1="62.0884" y1="113.183" x2="106.437" y2="67.2129" gradientUnits="userSpaceOnUse">
<stop stop-color="#F8A6FF"/>
<stop offset="1.0001" stop-color="white"/>
</linearGradient>
<linearGradient id="paint10_linear_30_535" x1="62.0884" y1="113.183" x2="106.437" y2="67.2129" gradientUnits="userSpaceOnUse">
<stop stop-color="#F8A6FF"/>
<stop offset="1.0001" stop-color="white"/>
</linearGradient>
<linearGradient id="paint11_linear_30_535" x1="62.0884" y1="113.183" x2="106.437" y2="67.2129" gradientUnits="userSpaceOnUse">
<stop stop-color="#F8A6FF"/>
<stop offset="1.0001" stop-color="white"/>
</linearGradient>
<linearGradient id="paint12_linear_30_535" x1="62.0884" y1="113.183" x2="106.437" y2="67.2129" gradientUnits="userSpaceOnUse">
<stop stop-color="#F8A6FF"/>
<stop offset="1.0001" stop-color="white"/>
</linearGradient>
<linearGradient id="paint13_linear_30_535" x1="62.0884" y1="113.183" x2="106.437" y2="67.2129" gradientUnits="userSpaceOnUse">
<stop stop-color="#F8A6FF"/>
<stop offset="1.0001" stop-color="white"/>
</linearGradient>
</defs>
</svg>
