<svg width="158" height="158" viewBox="0 0 158 158" fill="none" xmlns="http://www.w3.org/2000/svg">
<path d="M124.288 62.0026C124.185 61.3883 124.083 60.6716 123.981 60.0572C123.878 59.4429 123.673 58.931 123.469 58.419C123.878 58.5214 124.39 58.1118 124.083 57.7023C123.878 57.4975 123.673 57.2928 123.469 57.088C123.571 56.8832 123.469 56.6784 123.264 56.4736C117.428 53.402 110.875 51.7638 104.424 50.6375C97.8716 49.6136 91.3188 49.3065 84.6635 49.9208C80.8752 50.228 77.1892 50.9447 73.5032 51.7638C73.2985 51.8662 73.0937 51.9685 72.9913 52.0709C72.8889 52.0709 72.7865 52.0709 72.5817 52.0709C72.0698 52.1733 71.5579 52.2757 71.1483 52.4805C70.6364 52.6853 70.022 52.89 69.5101 53.1972C69.3053 52.9924 68.9982 52.9924 68.7934 53.1972C67.36 54.6306 66.1313 56.1665 65.005 57.8047C63.8788 59.4429 62.7525 61.0811 61.6262 62.8217C59.5785 66.3029 57.7355 69.8865 56.1996 73.5724C53.128 80.9444 51.285 88.9307 50.5683 96.9169C50.3635 99.1695 50.2611 101.422 50.1588 103.675C50.1588 105.518 50.2611 107.463 50.4659 109.306C50.2611 109.408 50.0564 109.715 50.2611 110.023C51.0802 111.866 52.6161 113.197 54.2543 114.323C56.1997 115.654 58.2474 116.78 60.2952 117.906C64.4931 120.261 68.7934 122.514 73.4008 124.255C82.3086 127.736 92.3427 129.272 101.66 126.609C104.117 125.893 106.472 124.869 108.315 123.128C110.158 121.388 111.08 119.033 110.773 116.575C110.773 116.268 110.568 115.961 110.261 115.756C110.465 114.937 110.363 114.221 109.953 113.401C109.544 112.685 108.315 113.094 108.52 114.016C109.032 115.756 107.291 116.883 105.858 117.292C104.117 117.702 102.172 117.702 100.329 117.599C98.4859 117.395 96.7453 116.883 95.0047 116.166C94.1856 115.756 93.3665 115.347 92.5474 114.835C92.445 114.835 92.445 114.732 92.3427 114.732C90.1925 110.637 90.0901 105.62 90.4997 101.012C91.114 94.6644 92.957 88.4187 95.6191 82.5826C95.9262 81.9683 96.131 81.4563 96.4382 80.9444C97.0525 81.0468 97.5644 81.2516 98.1788 81.3539C98.9979 81.5587 99.817 81.8659 100.636 82.1731C102.274 82.8898 103.913 83.8113 105.346 84.8351C106.37 85.5518 107.291 83.9137 106.267 83.1969C104.732 82.0707 102.889 81.2516 101.046 80.6372C100.124 80.3301 99.2027 80.1253 98.2812 79.9205C97.7692 79.8181 97.3597 79.7157 96.8477 79.7157C99.4074 74.9035 102.377 70.3984 105.96 66.4053C108.008 64.0503 110.261 62.0026 112.82 60.262C114.049 59.4429 115.38 58.7262 116.813 58.2142C118.144 57.7023 119.578 57.2927 120.909 57.3951C121.318 57.3951 121.626 57.5999 122.035 57.7023C121.933 57.8047 121.83 58.0094 121.83 58.2142C121.933 58.7262 121.933 59.2381 122.035 59.75C122.138 60.3644 122.138 60.8763 122.24 61.4907C122.342 62.5145 122.342 63.5384 122.24 64.5623C122.138 66.7124 121.626 68.7602 120.807 70.7056C119.476 74.1868 116.916 77.3608 113.844 79.511C112.104 80.7396 110.158 81.6611 108.11 82.3778C106.677 82.8898 107.291 85.0399 108.725 84.6304C112.718 83.5041 116.506 80.9444 119.066 77.7704C121.933 74.2892 123.673 69.9889 123.981 65.3814C124.493 64.5623 124.39 63.3336 124.288 62.0026ZM98.3835 119.033C100.022 119.442 101.762 119.647 103.401 119.647C104.732 119.647 106.267 119.545 107.496 119.033C106.165 120.364 104.424 121.183 102.581 121.285C99.9194 121.593 97.3597 120.569 95.4143 118.828C94.9024 118.418 94.4928 117.906 94.0832 117.395C95.4143 118.111 96.9501 118.726 98.3835 119.033ZM115.585 57.5999C112.513 58.931 109.851 60.8763 107.394 63.1289C104.936 65.4838 102.786 68.0435 100.738 70.808C98.6907 73.4701 96.7453 76.6441 95.1071 79.7157C91.8307 85.859 89.5782 92.6167 88.6567 99.579C88.0423 104.187 87.94 109.306 89.5782 113.811C89.4758 114.016 89.5782 114.221 89.7829 114.323C90.4997 116.268 91.5235 118.009 93.0594 119.545C95.2095 121.797 98.0764 123.333 101.148 123.538C102.991 123.64 104.834 123.231 106.472 122.412C105.039 123.538 103.298 124.459 101.66 124.971C97.3597 126.302 92.7522 126.712 88.2471 126.302C79.1346 125.586 70.534 122.002 62.5477 117.702C60.2952 116.473 58.145 115.244 55.8925 114.016C54.5614 113.299 53.128 112.48 52.1041 111.354C52.3089 111.149 52.4113 110.944 52.4113 110.637C52.2065 106.644 52.0017 102.753 52.2065 98.7599C52.4113 94.8692 52.9232 90.9784 53.7423 87.1901C55.3805 79.511 58.2474 72.0366 62.1382 65.1766C63.162 63.2313 64.3907 61.3883 65.6193 59.6477C66.4385 58.419 67.3599 57.2928 68.1791 56.0641C68.3838 56.3713 68.7934 56.6784 69.2029 56.3712C70.6364 55.4498 72.1722 54.733 73.8104 54.2211C73.9128 54.2211 73.9128 54.2211 74.0152 54.2211C74.8343 54.0163 75.7558 53.8115 76.5749 53.6068C76.7797 53.6068 77.0868 53.5044 77.2916 53.5044C77.394 53.5044 77.4964 53.402 77.5988 53.402C82.7182 52.3781 87.94 51.8662 93.1618 51.9686C99.6122 51.9686 106.063 52.7877 112.206 54.4259C114.561 55.0402 116.916 55.7569 119.168 56.576C117.94 56.576 116.609 57.088 115.585 57.5999Z" fill="white"/>
<path d="M124.288 62.0026C124.185 61.3883 124.083 60.6716 123.981 60.0572C123.878 59.4429 123.673 58.931 123.469 58.419C123.878 58.5214 124.39 58.1118 124.083 57.7023C123.878 57.4975 123.673 57.2928 123.469 57.088C123.571 56.8832 123.469 56.6784 123.264 56.4736C117.428 53.402 110.875 51.7638 104.424 50.6375C97.8716 49.6136 91.3188 49.3065 84.6635 49.9208C80.8752 50.228 77.1892 50.9447 73.5032 51.7638C73.2985 51.8662 73.0937 51.9685 72.9913 52.0709C72.8889 52.0709 72.7865 52.0709 72.5817 52.0709C72.0698 52.1733 71.5579 52.2757 71.1483 52.4805C70.6364 52.6853 70.022 52.89 69.5101 53.1972C69.3053 52.9924 68.9982 52.9924 68.7934 53.1972C67.36 54.6306 66.1313 56.1665 65.005 57.8047C63.8788 59.4429 62.7525 61.0811 61.6262 62.8217C59.5785 66.3029 57.7355 69.8865 56.1996 73.5724C53.128 80.9444 51.285 88.9307 50.5683 96.9169C50.3635 99.1695 50.2611 101.422 50.1588 103.675C50.1588 105.518 50.2611 107.463 50.4659 109.306C50.2611 109.408 50.0564 109.715 50.2611 110.023C51.0802 111.866 52.6161 113.197 54.2543 114.323C56.1997 115.654 58.2474 116.78 60.2952 117.906C64.4931 120.261 68.7934 122.514 73.4008 124.255C82.3086 127.736 92.3427 129.272 101.66 126.609C104.117 125.893 106.472 124.869 108.315 123.128C110.158 121.388 111.08 119.033 110.773 116.575C110.773 116.268 110.568 115.961 110.261 115.756C110.465 114.937 110.363 114.221 109.953 113.401C109.544 112.685 108.315 113.094 108.52 114.016C109.032 115.756 107.291 116.883 105.858 117.292C104.117 117.702 102.172 117.702 100.329 117.599C98.4859 117.395 96.7453 116.883 95.0047 116.166C94.1856 115.756 93.3665 115.347 92.5474 114.835C92.445 114.835 92.445 114.732 92.3427 114.732C90.1925 110.637 90.0901 105.62 90.4997 101.012C91.114 94.6644 92.957 88.4187 95.6191 82.5826C95.9262 81.9683 96.131 81.4563 96.4382 80.9444C97.0525 81.0468 97.5644 81.2516 98.1788 81.3539C98.9979 81.5587 99.817 81.8659 100.636 82.1731C102.274 82.8898 103.913 83.8113 105.346 84.8351C106.37 85.5518 107.291 83.9137 106.267 83.1969C104.732 82.0707 102.889 81.2516 101.046 80.6372C100.124 80.3301 99.2027 80.1253 98.2812 79.9205C97.7692 79.8181 97.3597 79.7157 96.8477 79.7157C99.4074 74.9035 102.377 70.3984 105.96 66.4053C108.008 64.0503 110.261 62.0026 112.82 60.262C114.049 59.4429 115.38 58.7262 116.813 58.2142C118.144 57.7023 119.578 57.2927 120.909 57.3951C121.318 57.3951 121.626 57.5999 122.035 57.7023C121.933 57.8047 121.83 58.0094 121.83 58.2142C121.933 58.7262 121.933 59.2381 122.035 59.75C122.138 60.3644 122.138 60.8763 122.24 61.4907C122.342 62.5145 122.342 63.5384 122.24 64.5623C122.138 66.7124 121.626 68.7602 120.807 70.7056C119.476 74.1868 116.916 77.3608 113.844 79.511C112.104 80.7396 110.158 81.6611 108.11 82.3778C106.677 82.8898 107.291 85.0399 108.725 84.6304C112.718 83.5041 116.506 80.9444 119.066 77.7704C121.933 74.2892 123.673 69.9889 123.981 65.3814C124.493 64.5623 124.39 63.3336 124.288 62.0026ZM98.3835 119.033C100.022 119.442 101.762 119.647 103.401 119.647C104.732 119.647 106.267 119.545 107.496 119.033C106.165 120.364 104.424 121.183 102.581 121.285C99.9194 121.593 97.3597 120.569 95.4143 118.828C94.9024 118.418 94.4928 117.906 94.0832 117.395C95.4143 118.111 96.9501 118.726 98.3835 119.033ZM115.585 57.5999C112.513 58.931 109.851 60.8763 107.394 63.1289C104.936 65.4838 102.786 68.0435 100.738 70.808C98.6907 73.4701 96.7453 76.6441 95.1071 79.7157C91.8307 85.859 89.5782 92.6167 88.6567 99.579C88.0423 104.187 87.94 109.306 89.5782 113.811C89.4758 114.016 89.5782 114.221 89.7829 114.323C90.4997 116.268 91.5235 118.009 93.0594 119.545C95.2095 121.797 98.0764 123.333 101.148 123.538C102.991 123.64 104.834 123.231 106.472 122.412C105.039 123.538 103.298 124.459 101.66 124.971C97.3597 126.302 92.7522 126.712 88.2471 126.302C79.1346 125.586 70.534 122.002 62.5477 117.702C60.2952 116.473 58.145 115.244 55.8925 114.016C54.5614 113.299 53.128 112.48 52.1041 111.354C52.3089 111.149 52.4113 110.944 52.4113 110.637C52.2065 106.644 52.0017 102.753 52.2065 98.7599C52.4113 94.8692 52.9232 90.9784 53.7423 87.1901C55.3805 79.511 58.2474 72.0366 62.1382 65.1766C63.162 63.2313 64.3907 61.3883 65.6193 59.6477C66.4385 58.419 67.3599 57.2928 68.1791 56.0641C68.3838 56.3713 68.7934 56.6784 69.2029 56.3712C70.6364 55.4498 72.1722 54.733 73.8104 54.2211C73.9128 54.2211 73.9128 54.2211 74.0152 54.2211C74.8343 54.0163 75.7558 53.8115 76.5749 53.6068C76.7797 53.6068 77.0868 53.5044 77.2916 53.5044C77.394 53.5044 77.4964 53.402 77.5988 53.402C82.7182 52.3781 87.94 51.8662 93.1618 51.9686C99.6122 51.9686 106.063 52.7877 112.206 54.4259C114.561 55.0402 116.916 55.7569 119.168 56.576C117.94 56.576 116.609 57.088 115.585 57.5999Z" fill="url(#paint0_linear_30_533)"/>
<path d="M67.0529 52.3784C67.1553 52.6856 67.6672 52.8904 67.9744 52.4808C69.203 50.945 70.6365 49.4091 71.9675 48.0781C73.401 46.7471 74.9368 45.416 76.575 44.2898C79.749 42.0372 83.1278 40.0918 86.7114 38.556C88.7592 37.7369 90.9093 37.0202 93.0595 36.4059C93.1619 36.4059 93.1619 36.3035 93.2642 36.3035C93.8786 36.6106 94.4929 36.9178 95.1072 37.3273C95.6192 37.6345 96.0287 36.8154 95.6192 36.5083C91.4213 33.4366 85.7899 32.8223 80.8753 34.3581C80.8753 34.2557 80.7729 34.2557 80.7729 34.2557C82.8207 31.9008 84.3565 29.1363 85.1756 26.0647C85.3804 25.2455 84.2541 24.9384 83.9469 25.7575C83.9469 25.8599 83.8445 25.9623 83.8445 25.9623C73.1962 32.1055 62.2407 38.556 54.4592 48.2829C52.4114 50.8426 50.6708 53.5047 49.2374 56.4739C49.2374 56.5763 49.2374 56.5763 49.2374 56.6787C45.449 60.4671 41.8654 64.5626 38.6914 68.8629C37.6675 70.1939 36.6436 71.6274 35.7221 73.0608C35.3126 73.5727 34.903 74.1871 34.4935 74.8014C33.2648 76.6444 32.1386 78.5898 31.0123 80.4327C30.5003 81.0471 29.9884 81.6614 29.7836 82.3781C29.5788 83.0948 30.6027 83.7092 31.0123 83.0948C31.729 82.2757 32.2409 81.3542 33.06 80.6375C33.4696 80.3304 33.8791 80.0232 34.2887 79.716C34.8006 79.3065 34.6982 78.7945 34.6982 78.1802C34.6982 77.7706 34.8006 77.2587 34.903 76.8492C38.4866 71.1154 42.5821 65.7912 47.0872 60.7742C47.1896 60.7742 47.292 60.7742 47.3944 60.6719C53.2305 56.5763 59.9881 53.7095 67.0529 52.3784ZM91.3189 35.6891C84.0493 37.6345 77.1893 41.6277 71.7627 46.8495C70.3293 48.1805 69.1007 49.7163 67.7696 51.2521C67.6672 51.1497 67.5648 51.1497 67.3601 51.1497C61.1144 52.276 55.1759 54.631 49.7493 58.0098C55.1759 52.3784 61.2168 47.3614 67.6672 42.9587C69.715 41.5253 71.8651 40.1942 74.1177 38.8632C75.4487 38.0441 76.8821 37.225 78.2132 36.5083C78.3156 36.5083 78.5204 36.5082 78.6228 36.4059C78.7251 36.3035 78.8275 36.2011 78.9299 36.0987C79.0323 35.9963 79.1347 35.9963 79.2371 35.8939C79.3395 35.9963 79.5442 35.9963 79.749 35.8939C83.435 34.3581 87.5305 34.3581 91.3189 35.6891ZM75.2439 32.4127C77.906 30.7745 80.5681 29.1363 83.3326 27.6005C82.2063 30.4673 80.4657 33.1294 78.2132 35.382C76.8821 36.0987 75.4487 36.8154 74.1177 37.5321C72.1723 38.6584 70.2269 39.8871 68.2815 41.1157C64.4932 43.573 60.9096 46.3375 57.4284 49.2044C55.483 50.8426 53.5377 52.5832 51.5923 54.4262C57.2236 45.0065 66.029 38.1465 75.2439 32.4127Z" fill="white"/>
<path d="M67.0529 52.3784C67.1553 52.6856 67.6672 52.8904 67.9744 52.4808C69.203 50.945 70.6365 49.4091 71.9675 48.0781C73.401 46.7471 74.9368 45.416 76.575 44.2898C79.749 42.0372 83.1278 40.0918 86.7114 38.556C88.7592 37.7369 90.9093 37.0202 93.0595 36.4059C93.1619 36.4059 93.1619 36.3035 93.2642 36.3035C93.8786 36.6106 94.4929 36.9178 95.1072 37.3273C95.6192 37.6345 96.0287 36.8154 95.6192 36.5083C91.4213 33.4366 85.7899 32.8223 80.8753 34.3581C80.8753 34.2557 80.7729 34.2557 80.7729 34.2557C82.8207 31.9008 84.3565 29.1363 85.1756 26.0647C85.3804 25.2455 84.2541 24.9384 83.9469 25.7575C83.9469 25.8599 83.8445 25.9623 83.8445 25.9623C73.1962 32.1055 62.2407 38.556 54.4592 48.2829C52.4114 50.8426 50.6708 53.5047 49.2374 56.4739C49.2374 56.5763 49.2374 56.5763 49.2374 56.6787C45.449 60.4671 41.8654 64.5626 38.6914 68.8629C37.6675 70.1939 36.6436 71.6274 35.7221 73.0608C35.3126 73.5727 34.903 74.1871 34.4935 74.8014C33.2648 76.6444 32.1386 78.5898 31.0123 80.4327C30.5003 81.0471 29.9884 81.6614 29.7836 82.3781C29.5788 83.0948 30.6027 83.7092 31.0123 83.0948C31.729 82.2757 32.2409 81.3542 33.06 80.6375C33.4696 80.3304 33.8791 80.0232 34.2887 79.716C34.8006 79.3065 34.6982 78.7945 34.6982 78.1802C34.6982 77.7706 34.8006 77.2587 34.903 76.8492C38.4866 71.1154 42.5821 65.7912 47.0872 60.7742C47.1896 60.7742 47.292 60.7742 47.3944 60.6719C53.2305 56.5763 59.9881 53.7095 67.0529 52.3784ZM91.3189 35.6891C84.0493 37.6345 77.1893 41.6277 71.7627 46.8495C70.3293 48.1805 69.1007 49.7163 67.7696 51.2521C67.6672 51.1497 67.5648 51.1497 67.3601 51.1497C61.1144 52.276 55.1759 54.631 49.7493 58.0098C55.1759 52.3784 61.2168 47.3614 67.6672 42.9587C69.715 41.5253 71.8651 40.1942 74.1177 38.8632C75.4487 38.0441 76.8821 37.225 78.2132 36.5083C78.3156 36.5083 78.5204 36.5082 78.6228 36.4059C78.7251 36.3035 78.8275 36.2011 78.9299 36.0987C79.0323 35.9963 79.1347 35.9963 79.2371 35.8939C79.3395 35.9963 79.5442 35.9963 79.749 35.8939C83.435 34.3581 87.5305 34.3581 91.3189 35.6891ZM75.2439 32.4127C77.906 30.7745 80.5681 29.1363 83.3326 27.6005C82.2063 30.4673 80.4657 33.1294 78.2132 35.382C76.8821 36.0987 75.4487 36.8154 74.1177 37.5321C72.1723 38.6584 70.2269 39.8871 68.2815 41.1157C64.4932 43.573 60.9096 46.3375 57.4284 49.2044C55.483 50.8426 53.5377 52.5832 51.5923 54.4262C57.2236 45.0065 66.029 38.1465 75.2439 32.4127Z" fill="url(#paint1_linear_30_533)"/>
<path d="M96.0288 67.5319C94.2882 66.8152 92.4452 66.4056 90.6022 65.9961C88.6569 65.4841 86.6091 65.0746 84.6637 64.7674C80.5682 64.0507 76.2679 63.6412 72.07 64.1531C69.715 64.3579 67.4625 64.8698 65.3124 65.7913C64.698 65.9961 65.0052 67.02 65.6195 66.7128C73.2986 63.8459 81.8992 65.3818 89.6807 67.3271C91.7285 67.8391 93.6739 68.4534 95.7216 68.7606C96.4384 68.863 96.7455 67.8391 96.0288 67.5319Z" fill="white"/>
<path d="M96.0288 67.5319C94.2882 66.8152 92.4452 66.4056 90.6022 65.9961C88.6569 65.4841 86.6091 65.0746 84.6637 64.7674C80.5682 64.0507 76.2679 63.6412 72.07 64.1531C69.715 64.3579 67.4625 64.8698 65.3124 65.7913C64.698 65.9961 65.0052 67.02 65.6195 66.7128C73.2986 63.8459 81.8992 65.3818 89.6807 67.3271C91.7285 67.8391 93.6739 68.4534 95.7216 68.7606C96.4384 68.863 96.7455 67.8391 96.0288 67.5319Z" fill="url(#paint2_linear_30_533)"/>
<path d="M91.1139 74.1867C83.6396 71.7294 75.6533 69.6816 67.8718 71.0127C65.7217 71.4222 63.7763 72.0366 61.8309 72.9581C61.2166 73.2653 61.7285 74.0844 62.3429 73.8796C69.3053 70.7055 77.1891 71.7294 84.3563 73.6748C86.5065 74.2891 88.6566 74.9035 90.8068 75.4154C91.5235 75.6202 91.8307 74.3915 91.1139 74.1867Z" fill="white"/>
<path d="M91.1139 74.1867C83.6396 71.7294 75.6533 69.6816 67.8718 71.0127C65.7217 71.4222 63.7763 72.0366 61.8309 72.9581C61.2166 73.2653 61.7285 74.0844 62.3429 73.8796C69.3053 70.7055 77.1891 71.7294 84.3563 73.6748C86.5065 74.2891 88.6566 74.9035 90.8068 75.4154C91.5235 75.6202 91.8307 74.3915 91.1139 74.1867Z" fill="url(#paint3_linear_30_533)"/>
<path d="M80.4658 109.306C81.0801 109.306 81.1825 108.385 80.5682 108.282C77.1894 107.668 73.8105 107.156 70.5341 106.337C67.2577 105.518 63.9813 104.391 60.9097 103.163C59.9882 102.856 59.169 102.446 58.2476 102.139C57.3261 101.729 56.507 101.32 55.4831 101.013C54.8688 100.808 54.664 101.627 55.0735 101.934C55.7903 102.446 56.6094 102.753 57.3261 103.06C58.0428 103.47 58.9643 103.777 59.681 104.187C61.2168 104.801 62.855 105.415 64.4932 105.927C67.7697 107.054 71.1485 107.873 74.5273 108.487C76.575 108.794 78.5204 109.101 80.4658 109.306Z" fill="white"/>
<path d="M80.4658 109.306C81.0801 109.306 81.1825 108.385 80.5682 108.282C77.1894 107.668 73.8105 107.156 70.5341 106.337C67.2577 105.518 63.9813 104.391 60.9097 103.163C59.9882 102.856 59.169 102.446 58.2476 102.139C57.3261 101.729 56.507 101.32 55.4831 101.013C54.8688 100.808 54.664 101.627 55.0735 101.934C55.7903 102.446 56.6094 102.753 57.3261 103.06C58.0428 103.47 58.9643 103.777 59.681 104.187C61.2168 104.801 62.855 105.415 64.4932 105.927C67.7697 107.054 71.1485 107.873 74.5273 108.487C76.575 108.794 78.5204 109.101 80.4658 109.306Z" fill="url(#paint4_linear_30_533)"/>
<path d="M81.285 113.197C75.9608 112.787 70.4319 111.559 65.6196 109.204C65.0053 108.897 64.4934 109.818 65.1077 110.023C67.6674 111.251 70.2271 112.275 72.9916 113.094C75.7561 113.811 78.5205 114.221 81.285 114.323C82.0017 114.425 82.0017 113.197 81.285 113.197Z" fill="white"/>
<path d="M81.285 113.197C75.9608 112.787 70.4319 111.559 65.6196 109.204C65.0053 108.897 64.4934 109.818 65.1077 110.023C67.6674 111.251 70.2271 112.275 72.9916 113.094C75.7561 113.811 78.5205 114.221 81.285 114.323C82.0017 114.425 82.0017 113.197 81.285 113.197Z" fill="url(#paint5_linear_30_533)"/>
<path d="M102.581 60.467C100.636 59.5455 98.4858 59.0335 96.438 58.624C94.2879 58.112 92.1377 57.8049 89.9875 57.7025C85.6872 57.2929 81.387 57.4977 77.0867 58.112C74.7317 58.4192 72.3768 58.9311 70.0219 59.7502C69.4075 59.955 69.6123 60.8765 70.329 60.6717C74.4246 59.7503 78.5201 59.0335 82.718 58.9311C86.9159 58.8287 91.1138 59.2383 95.2094 60.0574C97.5643 60.5694 99.7144 61.2861 102.069 61.798C102.684 61.9004 103.298 60.7741 102.581 60.467Z" fill="white"/>
<path d="M102.581 60.467C100.636 59.5455 98.4858 59.0335 96.438 58.624C94.2879 58.112 92.1377 57.8049 89.9875 57.7025C85.6872 57.2929 81.387 57.4977 77.0867 58.112C74.7317 58.4192 72.3768 58.9311 70.0219 59.7502C69.4075 59.955 69.6123 60.8765 70.329 60.6717C74.4246 59.7503 78.5201 59.0335 82.718 58.9311C86.9159 58.8287 91.1138 59.2383 95.2094 60.0574C97.5643 60.5694 99.7144 61.2861 102.069 61.798C102.684 61.9004 103.298 60.7741 102.581 60.467Z" fill="url(#paint6_linear_30_533)"/>
<path d="M84.459 89.2382C80.0563 88.3167 75.6536 87.7024 71.2509 87.0881C66.8482 86.4737 62.4455 86.0642 57.9404 85.757C57.4285 85.757 57.2237 86.6785 57.838 86.7809C62.2407 87.4976 66.541 88.0096 70.9437 88.7263C75.3464 89.443 79.6467 90.1597 84.0494 90.774C84.4589 90.8764 84.8685 90.6716 84.9709 90.2621C85.1757 89.8525 84.8685 89.3406 84.459 89.2382Z" fill="white"/>
<path d="M84.459 89.2382C80.0563 88.3167 75.6536 87.7024 71.2509 87.0881C66.8482 86.4737 62.4455 86.0642 57.9404 85.757C57.4285 85.757 57.2237 86.6785 57.838 86.7809C62.2407 87.4976 66.541 88.0096 70.9437 88.7263C75.3464 89.443 79.6467 90.1597 84.0494 90.774C84.4589 90.8764 84.8685 90.6716 84.9709 90.2621C85.1757 89.8525 84.8685 89.3406 84.459 89.2382Z" fill="url(#paint7_linear_30_533)"/>
<path d="M124.288 62.0026C124.185 61.3883 124.083 60.6716 123.981 60.0572C123.878 59.4429 123.673 58.931 123.469 58.419C123.878 58.5214 124.39 58.1118 124.083 57.7023C123.878 57.4975 123.673 57.2928 123.469 57.088C123.571 56.8832 123.469 56.6784 123.264 56.4736C117.428 53.402 110.875 51.7638 104.424 50.6375C97.8716 49.6136 91.3188 49.3065 84.6635 49.9208C80.8752 50.228 77.1892 50.9447 73.5032 51.7638C73.2985 51.8662 73.0937 51.9685 72.9913 52.0709C72.8889 52.0709 72.7865 52.0709 72.5817 52.0709C72.0698 52.1733 71.5579 52.2757 71.1483 52.4805C70.6364 52.6853 70.022 52.89 69.5101 53.1972C69.3053 52.9924 68.9982 52.9924 68.7934 53.1972C67.36 54.6306 66.1313 56.1665 65.005 57.8047C63.8788 59.4429 62.7525 61.0811 61.6262 62.8217C59.5785 66.3029 57.7355 69.8865 56.1996 73.5724C53.128 80.9444 51.285 88.9307 50.5683 96.9169C50.3635 99.1695 50.2611 101.422 50.1588 103.675C50.1588 105.518 50.2611 107.463 50.4659 109.306C50.2611 109.408 50.0564 109.715 50.2611 110.023C51.0802 111.866 52.6161 113.197 54.2543 114.323C56.1997 115.654 58.2474 116.78 60.2952 117.906C64.4931 120.261 68.7934 122.514 73.4008 124.255C82.3086 127.736 92.3427 129.272 101.66 126.609C104.117 125.893 106.472 124.869 108.315 123.128C110.158 121.388 111.08 119.033 110.773 116.575C110.773 116.268 110.568 115.961 110.261 115.756C110.465 114.937 110.363 114.221 109.953 113.401C109.544 112.685 108.315 113.094 108.52 114.016C109.032 115.756 107.291 116.883 105.858 117.292C104.117 117.702 102.172 117.702 100.329 117.599C98.4859 117.395 96.7453 116.883 95.0047 116.166C94.1856 115.756 93.3665 115.347 92.5474 114.835C92.445 114.835 92.445 114.732 92.3427 114.732C90.1925 110.637 90.0901 105.62 90.4997 101.012C91.114 94.6644 92.957 88.4187 95.6191 82.5826C95.9262 81.9683 96.131 81.4563 96.4382 80.9444C97.0525 81.0468 97.5644 81.2516 98.1788 81.3539C98.9979 81.5587 99.817 81.8659 100.636 82.1731C102.274 82.8898 103.913 83.8113 105.346 84.8351C106.37 85.5518 107.291 83.9137 106.267 83.1969C104.732 82.0707 102.889 81.2516 101.046 80.6372C100.124 80.3301 99.2027 80.1253 98.2812 79.9205C97.7692 79.8181 97.3597 79.7157 96.8477 79.7157C99.4074 74.9035 102.377 70.3984 105.96 66.4053C108.008 64.0503 110.261 62.0026 112.82 60.262C114.049 59.4429 115.38 58.7262 116.813 58.2142C118.144 57.7023 119.578 57.2927 120.909 57.3951C121.318 57.3951 121.626 57.5999 122.035 57.7023C121.933 57.8047 121.83 58.0094 121.83 58.2142C121.933 58.7262 121.933 59.2381 122.035 59.75C122.138 60.3644 122.138 60.8763 122.24 61.4907C122.342 62.5145 122.342 63.5384 122.24 64.5623C122.138 66.7124 121.626 68.7602 120.807 70.7056C119.476 74.1868 116.916 77.3608 113.844 79.511C112.104 80.7396 110.158 81.6611 108.11 82.3778C106.677 82.8898 107.291 85.0399 108.725 84.6304C112.718 83.5041 116.506 80.9444 119.066 77.7704C121.933 74.2892 123.673 69.9889 123.981 65.3814C124.493 64.5623 124.39 63.3336 124.288 62.0026ZM98.3835 119.033C100.022 119.442 101.762 119.647 103.401 119.647C104.732 119.647 106.267 119.545 107.496 119.033C106.165 120.364 104.424 121.183 102.581 121.285C99.9194 121.593 97.3597 120.569 95.4143 118.828C94.9024 118.418 94.4928 117.906 94.0832 117.395C95.4143 118.111 96.9501 118.726 98.3835 119.033ZM115.585 57.5999C112.513 58.931 109.851 60.8763 107.394 63.1289C104.936 65.4838 102.786 68.0435 100.738 70.808C98.6907 73.4701 96.7453 76.6441 95.1071 79.7157C91.8307 85.859 89.5782 92.6167 88.6567 99.579C88.0423 104.187 87.94 109.306 89.5782 113.811C89.4758 114.016 89.5782 114.221 89.7829 114.323C90.4997 116.268 91.5235 118.009 93.0594 119.545C95.2095 121.797 98.0764 123.333 101.148 123.538C102.991 123.64 104.834 123.231 106.472 122.412C105.039 123.538 103.298 124.459 101.66 124.971C97.3597 126.302 92.7522 126.712 88.2471 126.302C79.1346 125.586 70.534 122.002 62.5477 117.702C60.2952 116.473 58.145 115.244 55.8925 114.016C54.5614 113.299 53.128 112.48 52.1041 111.354C52.3089 111.149 52.4113 110.944 52.4113 110.637C52.2065 106.644 52.0017 102.753 52.2065 98.7599C52.4113 94.8692 52.9232 90.9784 53.7423 87.1901C55.3805 79.511 58.2474 72.0366 62.1382 65.1766C63.162 63.2313 64.3907 61.3883 65.6193 59.6477C66.4385 58.419 67.3599 57.2928 68.1791 56.0641C68.3838 56.3713 68.7934 56.6784 69.2029 56.3712C70.6364 55.4498 72.1722 54.733 73.8104 54.2211C73.9128 54.2211 73.9128 54.2211 74.0152 54.2211C74.8343 54.0163 75.7558 53.8115 76.5749 53.6068C76.7797 53.6068 77.0868 53.5044 77.2916 53.5044C77.394 53.5044 77.4964 53.402 77.5988 53.402C82.7182 52.3781 87.94 51.8662 93.1618 51.9686C99.6122 51.9686 106.063 52.7877 112.206 54.4259C114.561 55.0402 116.916 55.7569 119.168 56.576C117.94 56.576 116.609 57.088 115.585 57.5999Z" stroke="white" stroke-width="0.7"/>
<path d="M124.288 62.0026C124.185 61.3883 124.083 60.6716 123.981 60.0572C123.878 59.4429 123.673 58.931 123.469 58.419C123.878 58.5214 124.39 58.1118 124.083 57.7023C123.878 57.4975 123.673 57.2928 123.469 57.088C123.571 56.8832 123.469 56.6784 123.264 56.4736C117.428 53.402 110.875 51.7638 104.424 50.6375C97.8716 49.6136 91.3188 49.3065 84.6635 49.9208C80.8752 50.228 77.1892 50.9447 73.5032 51.7638C73.2985 51.8662 73.0937 51.9685 72.9913 52.0709C72.8889 52.0709 72.7865 52.0709 72.5817 52.0709C72.0698 52.1733 71.5579 52.2757 71.1483 52.4805C70.6364 52.6853 70.022 52.89 69.5101 53.1972C69.3053 52.9924 68.9982 52.9924 68.7934 53.1972C67.36 54.6306 66.1313 56.1665 65.005 57.8047C63.8788 59.4429 62.7525 61.0811 61.6262 62.8217C59.5785 66.3029 57.7355 69.8865 56.1996 73.5724C53.128 80.9444 51.285 88.9307 50.5683 96.9169C50.3635 99.1695 50.2611 101.422 50.1588 103.675C50.1588 105.518 50.2611 107.463 50.4659 109.306C50.2611 109.408 50.0564 109.715 50.2611 110.023C51.0802 111.866 52.6161 113.197 54.2543 114.323C56.1997 115.654 58.2474 116.78 60.2952 117.906C64.4931 120.261 68.7934 122.514 73.4008 124.255C82.3086 127.736 92.3427 129.272 101.66 126.609C104.117 125.893 106.472 124.869 108.315 123.128C110.158 121.388 111.08 119.033 110.773 116.575C110.773 116.268 110.568 115.961 110.261 115.756C110.465 114.937 110.363 114.221 109.953 113.401C109.544 112.685 108.315 113.094 108.52 114.016C109.032 115.756 107.291 116.883 105.858 117.292C104.117 117.702 102.172 117.702 100.329 117.599C98.4859 117.395 96.7453 116.883 95.0047 116.166C94.1856 115.756 93.3665 115.347 92.5474 114.835C92.445 114.835 92.445 114.732 92.3427 114.732C90.1925 110.637 90.0901 105.62 90.4997 101.012C91.114 94.6644 92.957 88.4187 95.6191 82.5826C95.9262 81.9683 96.131 81.4563 96.4382 80.9444C97.0525 81.0468 97.5644 81.2516 98.1788 81.3539C98.9979 81.5587 99.817 81.8659 100.636 82.1731C102.274 82.8898 103.913 83.8113 105.346 84.8351C106.37 85.5518 107.291 83.9137 106.267 83.1969C104.732 82.0707 102.889 81.2516 101.046 80.6372C100.124 80.3301 99.2027 80.1253 98.2812 79.9205C97.7692 79.8181 97.3597 79.7157 96.8477 79.7157C99.4074 74.9035 102.377 70.3984 105.96 66.4053C108.008 64.0503 110.261 62.0026 112.82 60.262C114.049 59.4429 115.38 58.7262 116.813 58.2142C118.144 57.7023 119.578 57.2927 120.909 57.3951C121.318 57.3951 121.626 57.5999 122.035 57.7023C121.933 57.8047 121.83 58.0094 121.83 58.2142C121.933 58.7262 121.933 59.2381 122.035 59.75C122.138 60.3644 122.138 60.8763 122.24 61.4907C122.342 62.5145 122.342 63.5384 122.24 64.5623C122.138 66.7124 121.626 68.7602 120.807 70.7056C119.476 74.1868 116.916 77.3608 113.844 79.511C112.104 80.7396 110.158 81.6611 108.11 82.3778C106.677 82.8898 107.291 85.0399 108.725 84.6304C112.718 83.5041 116.506 80.9444 119.066 77.7704C121.933 74.2892 123.673 69.9889 123.981 65.3814C124.493 64.5623 124.39 63.3336 124.288 62.0026ZM98.3835 119.033C100.022 119.442 101.762 119.647 103.401 119.647C104.732 119.647 106.267 119.545 107.496 119.033C106.165 120.364 104.424 121.183 102.581 121.285C99.9194 121.593 97.3597 120.569 95.4143 118.828C94.9024 118.418 94.4928 117.906 94.0832 117.395C95.4143 118.111 96.9501 118.726 98.3835 119.033ZM115.585 57.5999C112.513 58.931 109.851 60.8763 107.394 63.1289C104.936 65.4838 102.786 68.0435 100.738 70.808C98.6907 73.4701 96.7453 76.6441 95.1071 79.7157C91.8307 85.859 89.5782 92.6167 88.6567 99.579C88.0423 104.187 87.94 109.306 89.5782 113.811C89.4758 114.016 89.5782 114.221 89.7829 114.323C90.4997 116.268 91.5235 118.009 93.0594 119.545C95.2095 121.797 98.0764 123.333 101.148 123.538C102.991 123.64 104.834 123.231 106.472 122.412C105.039 123.538 103.298 124.459 101.66 124.971C97.3597 126.302 92.7522 126.712 88.2471 126.302C79.1346 125.586 70.534 122.002 62.5477 117.702C60.2952 116.473 58.145 115.244 55.8925 114.016C54.5614 113.299 53.128 112.48 52.1041 111.354C52.3089 111.149 52.4113 110.944 52.4113 110.637C52.2065 106.644 52.0017 102.753 52.2065 98.7599C52.4113 94.8692 52.9232 90.9784 53.7423 87.1901C55.3805 79.511 58.2474 72.0366 62.1382 65.1766C63.162 63.2313 64.3907 61.3883 65.6193 59.6477C66.4385 58.419 67.3599 57.2928 68.1791 56.0641C68.3838 56.3713 68.7934 56.6784 69.2029 56.3712C70.6364 55.4498 72.1722 54.733 73.8104 54.2211C73.9128 54.2211 73.9128 54.2211 74.0152 54.2211C74.8343 54.0163 75.7558 53.8115 76.5749 53.6068C76.7797 53.6068 77.0868 53.5044 77.2916 53.5044C77.394 53.5044 77.4964 53.402 77.5988 53.402C82.7182 52.3781 87.94 51.8662 93.1618 51.9686C99.6122 51.9686 106.063 52.7877 112.206 54.4259C114.561 55.0402 116.916 55.7569 119.168 56.576C117.94 56.576 116.609 57.088 115.585 57.5999Z" stroke="url(#paint8_linear_30_533)" stroke-width="0.7"/>
<path d="M67.0529 52.3784C67.1553 52.6856 67.6672 52.8904 67.9744 52.4808C69.203 50.945 70.6365 49.4091 71.9675 48.0781C73.401 46.7471 74.9368 45.416 76.575 44.2898C79.749 42.0372 83.1278 40.0918 86.7114 38.556C88.7592 37.7369 90.9093 37.0202 93.0595 36.4059C93.1619 36.4059 93.1619 36.3035 93.2642 36.3035C93.8786 36.6106 94.4929 36.9178 95.1072 37.3273C95.6192 37.6345 96.0287 36.8154 95.6192 36.5083C91.4213 33.4366 85.7899 32.8223 80.8753 34.3581C80.8753 34.2557 80.7729 34.2557 80.7729 34.2557C82.8207 31.9008 84.3565 29.1363 85.1756 26.0647C85.3804 25.2455 84.2541 24.9384 83.9469 25.7575C83.9469 25.8599 83.8445 25.9623 83.8445 25.9623C73.1962 32.1055 62.2407 38.556 54.4592 48.2829C52.4114 50.8426 50.6708 53.5047 49.2374 56.4739C49.2374 56.5763 49.2374 56.5763 49.2374 56.6787C45.449 60.4671 41.8654 64.5626 38.6914 68.8629C37.6675 70.1939 36.6436 71.6274 35.7221 73.0608C35.3126 73.5727 34.903 74.1871 34.4935 74.8014C33.2648 76.6444 32.1386 78.5898 31.0123 80.4327C30.5003 81.0471 29.9884 81.6614 29.7836 82.3781C29.5788 83.0948 30.6027 83.7092 31.0123 83.0948C31.729 82.2757 32.2409 81.3542 33.06 80.6375C33.4696 80.3304 33.8791 80.0232 34.2887 79.716C34.8006 79.3065 34.6982 78.7945 34.6982 78.1802C34.6982 77.7706 34.8006 77.2587 34.903 76.8492C38.4866 71.1154 42.5821 65.7912 47.0872 60.7742C47.1896 60.7742 47.292 60.7742 47.3944 60.6719C53.2305 56.5763 59.9881 53.7095 67.0529 52.3784ZM91.3189 35.6891C84.0493 37.6345 77.1893 41.6277 71.7627 46.8495C70.3293 48.1805 69.1007 49.7163 67.7696 51.2521C67.6672 51.1497 67.5648 51.1497 67.3601 51.1497C61.1144 52.276 55.1759 54.631 49.7493 58.0098C55.1759 52.3784 61.2168 47.3614 67.6672 42.9587C69.715 41.5253 71.8651 40.1942 74.1177 38.8632C75.4487 38.0441 76.8821 37.225 78.2132 36.5083C78.3156 36.5083 78.5204 36.5082 78.6228 36.4059C78.7251 36.3035 78.8275 36.2011 78.9299 36.0987C79.0323 35.9963 79.1347 35.9963 79.2371 35.8939C79.3395 35.9963 79.5442 35.9963 79.749 35.8939C83.435 34.3581 87.5305 34.3581 91.3189 35.6891ZM75.2439 32.4127C77.906 30.7745 80.5681 29.1363 83.3326 27.6005C82.2063 30.4673 80.4657 33.1294 78.2132 35.382C76.8821 36.0987 75.4487 36.8154 74.1177 37.5321C72.1723 38.6584 70.2269 39.8871 68.2815 41.1157C64.4932 43.573 60.9096 46.3375 57.4284 49.2044C55.483 50.8426 53.5377 52.5832 51.5923 54.4262C57.2236 45.0065 66.029 38.1465 75.2439 32.4127Z" stroke="white" stroke-width="0.7"/>
<path d="M67.0529 52.3784C67.1553 52.6856 67.6672 52.8904 67.9744 52.4808C69.203 50.945 70.6365 49.4091 71.9675 48.0781C73.401 46.7471 74.9368 45.416 76.575 44.2898C79.749 42.0372 83.1278 40.0918 86.7114 38.556C88.7592 37.7369 90.9093 37.0202 93.0595 36.4059C93.1619 36.4059 93.1619 36.3035 93.2642 36.3035C93.8786 36.6106 94.4929 36.9178 95.1072 37.3273C95.6192 37.6345 96.0287 36.8154 95.6192 36.5083C91.4213 33.4366 85.7899 32.8223 80.8753 34.3581C80.8753 34.2557 80.7729 34.2557 80.7729 34.2557C82.8207 31.9008 84.3565 29.1363 85.1756 26.0647C85.3804 25.2455 84.2541 24.9384 83.9469 25.7575C83.9469 25.8599 83.8445 25.9623 83.8445 25.9623C73.1962 32.1055 62.2407 38.556 54.4592 48.2829C52.4114 50.8426 50.6708 53.5047 49.2374 56.4739C49.2374 56.5763 49.2374 56.5763 49.2374 56.6787C45.449 60.4671 41.8654 64.5626 38.6914 68.8629C37.6675 70.1939 36.6436 71.6274 35.7221 73.0608C35.3126 73.5727 34.903 74.1871 34.4935 74.8014C33.2648 76.6444 32.1386 78.5898 31.0123 80.4327C30.5003 81.0471 29.9884 81.6614 29.7836 82.3781C29.5788 83.0948 30.6027 83.7092 31.0123 83.0948C31.729 82.2757 32.2409 81.3542 33.06 80.6375C33.4696 80.3304 33.8791 80.0232 34.2887 79.716C34.8006 79.3065 34.6982 78.7945 34.6982 78.1802C34.6982 77.7706 34.8006 77.2587 34.903 76.8492C38.4866 71.1154 42.5821 65.7912 47.0872 60.7742C47.1896 60.7742 47.292 60.7742 47.3944 60.6719C53.2305 56.5763 59.9881 53.7095 67.0529 52.3784ZM91.3189 35.6891C84.0493 37.6345 77.1893 41.6277 71.7627 46.8495C70.3293 48.1805 69.1007 49.7163 67.7696 51.2521C67.6672 51.1497 67.5648 51.1497 67.3601 51.1497C61.1144 52.276 55.1759 54.631 49.7493 58.0098C55.1759 52.3784 61.2168 47.3614 67.6672 42.9587C69.715 41.5253 71.8651 40.1942 74.1177 38.8632C75.4487 38.0441 76.8821 37.225 78.2132 36.5083C78.3156 36.5083 78.5204 36.5082 78.6228 36.4059C78.7251 36.3035 78.8275 36.2011 78.9299 36.0987C79.0323 35.9963 79.1347 35.9963 79.2371 35.8939C79.3395 35.9963 79.5442 35.9963 79.749 35.8939C83.435 34.3581 87.5305 34.3581 91.3189 35.6891ZM75.2439 32.4127C77.906 30.7745 80.5681 29.1363 83.3326 27.6005C82.2063 30.4673 80.4657 33.1294 78.2132 35.382C76.8821 36.0987 75.4487 36.8154 74.1177 37.5321C72.1723 38.6584 70.2269 39.8871 68.2815 41.1157C64.4932 43.573 60.9096 46.3375 57.4284 49.2044C55.483 50.8426 53.5377 52.5832 51.5923 54.4262C57.2236 45.0065 66.029 38.1465 75.2439 32.4127Z" stroke="url(#paint9_linear_30_533)" stroke-width="0.7"/>
<path d="M96.0288 67.5319C94.2882 66.8152 92.4452 66.4056 90.6022 65.9961C88.6569 65.4841 86.6091 65.0746 84.6637 64.7674C80.5682 64.0507 76.2679 63.6412 72.07 64.1531C69.715 64.3579 67.4625 64.8698 65.3124 65.7913C64.698 65.9961 65.0052 67.02 65.6195 66.7128C73.2986 63.8459 81.8992 65.3818 89.6807 67.3271C91.7285 67.8391 93.6739 68.4534 95.7216 68.7606C96.4384 68.863 96.7455 67.8391 96.0288 67.5319Z" stroke="white" stroke-width="0.7"/>
<path d="M96.0288 67.5319C94.2882 66.8152 92.4452 66.4056 90.6022 65.9961C88.6569 65.4841 86.6091 65.0746 84.6637 64.7674C80.5682 64.0507 76.2679 63.6412 72.07 64.1531C69.715 64.3579 67.4625 64.8698 65.3124 65.7913C64.698 65.9961 65.0052 67.02 65.6195 66.7128C73.2986 63.8459 81.8992 65.3818 89.6807 67.3271C91.7285 67.8391 93.6739 68.4534 95.7216 68.7606C96.4384 68.863 96.7455 67.8391 96.0288 67.5319Z" stroke="url(#paint10_linear_30_533)" stroke-width="0.7"/>
<path d="M91.1139 74.1867C83.6396 71.7294 75.6533 69.6816 67.8718 71.0127C65.7217 71.4222 63.7763 72.0366 61.8309 72.9581C61.2166 73.2653 61.7285 74.0844 62.3429 73.8796C69.3053 70.7055 77.1891 71.7294 84.3563 73.6748C86.5065 74.2891 88.6566 74.9035 90.8068 75.4154C91.5235 75.6202 91.8307 74.3915 91.1139 74.1867Z" stroke="white" stroke-width="0.7"/>
<path d="M91.1139 74.1867C83.6396 71.7294 75.6533 69.6816 67.8718 71.0127C65.7217 71.4222 63.7763 72.0366 61.8309 72.9581C61.2166 73.2653 61.7285 74.0844 62.3429 73.8796C69.3053 70.7055 77.1891 71.7294 84.3563 73.6748C86.5065 74.2891 88.6566 74.9035 90.8068 75.4154C91.5235 75.6202 91.8307 74.3915 91.1139 74.1867Z" stroke="url(#paint11_linear_30_533)" stroke-width="0.7"/>
<path d="M80.4658 109.306C81.0801 109.306 81.1825 108.385 80.5682 108.282C77.1894 107.668 73.8105 107.156 70.5341 106.337C67.2577 105.518 63.9813 104.391 60.9097 103.163C59.9882 102.856 59.169 102.446 58.2476 102.139C57.3261 101.729 56.507 101.32 55.4831 101.013C54.8688 100.808 54.664 101.627 55.0735 101.934C55.7903 102.446 56.6094 102.753 57.3261 103.06C58.0428 103.47 58.9643 103.777 59.681 104.187C61.2168 104.801 62.855 105.415 64.4932 105.927C67.7697 107.054 71.1485 107.873 74.5273 108.487C76.575 108.794 78.5204 109.101 80.4658 109.306Z" stroke="white" stroke-width="0.7"/>
<path d="M80.4658 109.306C81.0801 109.306 81.1825 108.385 80.5682 108.282C77.1894 107.668 73.8105 107.156 70.5341 106.337C67.2577 105.518 63.9813 104.391 60.9097 103.163C59.9882 102.856 59.169 102.446 58.2476 102.139C57.3261 101.729 56.507 101.32 55.4831 101.013C54.8688 100.808 54.664 101.627 55.0735 101.934C55.7903 102.446 56.6094 102.753 57.3261 103.06C58.0428 103.47 58.9643 103.777 59.681 104.187C61.2168 104.801 62.855 105.415 64.4932 105.927C67.7697 107.054 71.1485 107.873 74.5273 108.487C76.575 108.794 78.5204 109.101 80.4658 109.306Z" stroke="url(#paint12_linear_30_533)" stroke-width="0.7"/>
<path d="M81.285 113.197C75.9608 112.787 70.4319 111.559 65.6196 109.204C65.0053 108.897 64.4934 109.818 65.1077 110.023C67.6674 111.251 70.2271 112.275 72.9916 113.094C75.7561 113.811 78.5205 114.221 81.285 114.323C82.0017 114.425 82.0017 113.197 81.285 113.197Z" stroke="white" stroke-width="0.7"/>
<path d="M81.285 113.197C75.9608 112.787 70.4319 111.559 65.6196 109.204C65.0053 108.897 64.4934 109.818 65.1077 110.023C67.6674 111.251 70.2271 112.275 72.9916 113.094C75.7561 113.811 78.5205 114.221 81.285 114.323C82.0017 114.425 82.0017 113.197 81.285 113.197Z" stroke="url(#paint13_linear_30_533)" stroke-width="0.7"/>
<path d="M102.581 60.467C100.636 59.5455 98.4858 59.0335 96.438 58.624C94.2879 58.112 92.1377 57.8049 89.9875 57.7025C85.6872 57.2929 81.387 57.4977 77.0867 58.112C74.7317 58.4192 72.3768 58.9311 70.0219 59.7502C69.4075 59.955 69.6123 60.8765 70.329 60.6717C74.4246 59.7503 78.5201 59.0335 82.718 58.9311C86.9159 58.8287 91.1138 59.2383 95.2094 60.0574C97.5643 60.5694 99.7144 61.2861 102.069 61.798C102.684 61.9004 103.298 60.7741 102.581 60.467Z" stroke="white" stroke-width="0.7"/>
<path d="M102.581 60.467C100.636 59.5455 98.4858 59.0335 96.438 58.624C94.2879 58.112 92.1377 57.8049 89.9875 57.7025C85.6872 57.2929 81.387 57.4977 77.0867 58.112C74.7317 58.4192 72.3768 58.9311 70.0219 59.7502C69.4075 59.955 69.6123 60.8765 70.329 60.6717C74.4246 59.7503 78.5201 59.0335 82.718 58.9311C86.9159 58.8287 91.1138 59.2383 95.2094 60.0574C97.5643 60.5694 99.7144 61.2861 102.069 61.798C102.684 61.9004 103.298 60.7741 102.581 60.467Z" stroke="url(#paint14_linear_30_533)" stroke-width="0.7"/>
<path d="M84.459 89.2382C80.0563 88.3167 75.6536 87.7024 71.2509 87.0881C66.8482 86.4737 62.4455 86.0642 57.9404 85.757C57.4285 85.757 57.2237 86.6785 57.838 86.7809C62.2407 87.4976 66.541 88.0096 70.9437 88.7263C75.3464 89.443 79.6467 90.1597 84.0494 90.774C84.4589 90.8764 84.8685 90.6716 84.9709 90.2621C85.1757 89.8525 84.8685 89.3406 84.459 89.2382Z" stroke="white" stroke-width="0.7"/>
<path d="M84.459 89.2382C80.0563 88.3167 75.6536 87.7024 71.2509 87.0881C66.8482 86.4737 62.4455 86.0642 57.9404 85.757C57.4285 85.757 57.2237 86.6785 57.838 86.7809C62.2407 87.4976 66.541 88.0096 70.9437 88.7263C75.3464 89.443 79.6467 90.1597 84.0494 90.774C84.4589 90.8764 84.8685 90.6716 84.9709 90.2621C85.1757 89.8525 84.8685 89.3406 84.459 89.2382Z" stroke="url(#paint15_linear_30_533)" stroke-width="0.7"/>
<defs>
<linearGradient id="paint0_linear_30_533" x1="58.7888" y1="111.677" x2="102.742" y2="57.9326" gradientUnits="userSpaceOnUse">
<stop stop-color="#F8A6FF"/>
<stop offset="1.0001" stop-color="white"/>
</linearGradient>
<linearGradient id="paint1_linear_30_533" x1="58.7888" y1="111.677" x2="102.742" y2="57.9326" gradientUnits="userSpaceOnUse">
<stop stop-color="#F8A6FF"/>
<stop offset="1.0001" stop-color="white"/>
</linearGradient>
<linearGradient id="paint2_linear_30_533" x1="58.7888" y1="111.677" x2="102.742" y2="57.9326" gradientUnits="userSpaceOnUse">
<stop stop-color="#F8A6FF"/>
<stop offset="1.0001" stop-color="white"/>
</linearGradient>
<linearGradient id="paint3_linear_30_533" x1="58.7888" y1="111.677" x2="102.742" y2="57.9326" gradientUnits="userSpaceOnUse">
<stop stop-color="#F8A6FF"/>
<stop offset="1.0001" stop-color="white"/>
</linearGradient>
<linearGradient id="paint4_linear_30_533" x1="58.7888" y1="111.677" x2="102.742" y2="57.9326" gradientUnits="userSpaceOnUse">
<stop stop-color="#F8A6FF"/>
<stop offset="1.0001" stop-color="white"/>
</linearGradient>
<linearGradient id="paint5_linear_30_533" x1="58.7888" y1="111.677" x2="102.742" y2="57.9326" gradientUnits="userSpaceOnUse">
<stop stop-color="#F8A6FF"/>
<stop offset="1.0001" stop-color="white"/>
</linearGradient>
<linearGradient id="paint6_linear_30_533" x1="58.7888" y1="111.677" x2="102.742" y2="57.9326" gradientUnits="userSpaceOnUse">
<stop stop-color="#F8A6FF"/>
<stop offset="1.0001" stop-color="white"/>
</linearGradient>
<linearGradient id="paint7_linear_30_533" x1="58.7888" y1="111.677" x2="102.742" y2="57.9326" gradientUnits="userSpaceOnUse">
<stop stop-color="#F8A6FF"/>
<stop offset="1.0001" stop-color="white"/>
</linearGradient>
<linearGradient id="paint8_linear_30_533" x1="58.7888" y1="111.677" x2="102.742" y2="57.9326" gradientUnits="userSpaceOnUse">
<stop stop-color="#F8A6FF"/>
<stop offset="1.0001" stop-color="white"/>
</linearGradient>
<linearGradient id="paint9_linear_30_533" x1="58.7888" y1="111.677" x2="102.742" y2="57.9326" gradientUnits="userSpaceOnUse">
<stop stop-color="#F8A6FF"/>
<stop offset="1.0001" stop-color="white"/>
</linearGradient>
<linearGradient id="paint10_linear_30_533" x1="58.7888" y1="111.677" x2="102.742" y2="57.9326" gradientUnits="userSpaceOnUse">
<stop stop-color="#F8A6FF"/>
<stop offset="1.0001" stop-color="white"/>
</linearGradient>
<linearGradient id="paint11_linear_30_533" x1="58.7888" y1="111.677" x2="102.742" y2="57.9326" gradientUnits="userSpaceOnUse">
<stop stop-color="#F8A6FF"/>
<stop offset="1.0001" stop-color="white"/>
</linearGradient>
<linearGradient id="paint12_linear_30_533" x1="58.7888" y1="111.677" x2="102.742" y2="57.9326" gradientUnits="userSpaceOnUse">
<stop stop-color="#F8A6FF"/>
<stop offset="1.0001" stop-color="white"/>
</linearGradient>
<linearGradient id="paint13_linear_30_533" x1="58.7888" y1="111.677" x2="102.742" y2="57.9326" gradientUnits="userSpaceOnUse">
<stop stop-color="#F8A6FF"/>
<stop offset="1.0001" stop-color="white"/>
</linearGradient>
<linearGradient id="paint14_linear_30_533" x1="58.7888" y1="111.677" x2="102.742" y2="57.9326" gradientUnits="userSpaceOnUse">
<stop stop-color="#F8A6FF"/>
<stop offset="1.0001" stop-color="white"/>
</linearGradient>
<linearGradient id="paint15_linear_30_533" x1="58.7888" y1="111.677" x2="102.742" y2="57.9326" gradientUnits="userSpaceOnUse">
<stop stop-color="#F8A6FF"/>
<stop offset="1.0001" stop-color="white"/>
</linearGradient>
</defs>
</svg>
