<svg width="101" height="241" viewBox="0 0 101 241" fill="none" xmlns="http://www.w3.org/2000/svg">
<path d="M53.8892 23.0946C53.6028 22.7061 53.6028 22.7044 53.1995 22.8197C50.5934 23.7761 47.6285 23.3366 45.4291 21.6393C43.5458 20.3124 42.1251 18.49 40.4953 16.8866C35.9763 13.6763 34.8437 21.0615 36.6941 23.9622C37.8366 25.4866 34.735 26.6489 33.609 26.2011C31.5726 16.1227 25.1456 25.0224 24.9892 15.8593C23.7183 13.1216 20.8538 17.1302 19.973 18.3962C19.2191 19.2605 19.252 20.9265 18.042 20.9577C18.2922 21.8451 19.1647 22.6024 19.6405 23.4321C20.9872 25.1195 21.0464 27.4917 22.7503 28.9454C24.0821 30.0451 23.6277 31.7078 23.8253 33.2273C23.9702 34.997 26.0395 35.2078 26.8544 36.5758C28.5237 38.3768 33.8724 41.7977 36.2957 40.8939C38.7157 40.1613 41.9522 36.2367 43.9261 39.6905C44.3327 40.9664 45.0999 37.1339 46.0086 36.9561C47.133 36.314 46.4547 35.0283 47.1165 34.2216C48.6278 33.2257 48.6311 31.2353 50.0716 30.1686C50.926 29.3043 51.2355 28.0498 51.8298 27.0045C52.4208 25.6249 54.691 24.7623 53.8892 23.0962V23.0946Z" fill="#989898"/>
<path d="M30.8567 65.5529C29.3619 63.714 12.5585 49.3586 13.4755 56.3964C18.6826 58.9003 15.6798 61.0899 11.5691 61.5031C9.16557 61.7088 6.42785 60.7458 4.22351 61.9426C2.91473 64.3198 7.72345 64.1404 9.06844 64.8318C10.7789 65.7339 7.48474 67.1448 7.14067 68.1885C4.04735 72.7882 6.46406 75.6823 11.7074 74.5711C15.0789 74.5365 19.0184 76.0346 20.9808 78.8217C21.3643 78.3262 20.1659 77.2199 21.3067 77.1935C25.0487 79.7107 21.738 73.2524 26.1681 77.3549C27.5296 79.2975 29.6664 72.5873 30.0204 71.5568C30.6904 69.7064 30.6361 67.7737 30.8188 65.8887C31.0756 65.8969 31.125 65.6121 30.8583 65.5512L30.8567 65.5529Z" fill="#989898"/>
<path d="M63.3366 144.386C61.1998 148.442 58.5328 152.846 58.4143 157.424C58.2299 158.586 56.34 160.721 57.3772 161.701C58.5164 163.186 58.1328 166.118 60.2795 167.145C61.8171 169.033 62.8543 171.261 64.1301 173.473C67.658 181.924 73.4775 190.041 76.6252 199.201C78.0854 202.189 79.628 205.045 81.6743 207.299C85.6747 212.23 84.5108 215.025 79.814 219.06C74.8341 220.744 71.5531 225.232 67.3996 228.309C63.2016 228.677 58.192 229.609 53.9908 228.401C52.4252 226.317 51.3963 225.079 54.4369 224.074C55.9169 223.883 60.4145 221.06 60.9248 219.498C65.1442 215.02 62.3357 216.625 63.1391 212.715C65.1804 210.545 61.4697 209.051 60.0638 208.157C46.8049 196.664 40.1688 180.399 32.5516 165.573C29.1537 165.321 35.342 176.473 34.4695 179.077C34.1221 182.501 36.8088 184.971 36.9553 188.016C44.0145 194.944 33.5081 197.673 31.0979 203.824C29.9472 205.998 28.8919 208.226 27.114 210.005C25.7015 213.342 25.606 217.861 20.9125 218.579C16.0972 220.476 25.7015 191.627 20.6903 191.223C12.0919 193.984 10.5954 171.231 8.86852 165.079C-7.54303 112.073 31.521 132.679 33.9509 85.5237C33.2743 82.8732 27.1518 84.3878 25.797 82.6707C24.9343 80.1997 21.3867 82.3151 21.0887 79.6581C19.7865 73.8418 22.707 79.9412 23.3885 76.6454C24.4717 73.2261 26.7238 81.5101 28.4442 74.8658L28.4343 74.874C30.283 72.2943 30.4822 68.7746 30.767 65.7175C35.9462 64.6063 36.7084 70.2645 38.4682 63.1856C41.2356 54.3156 41.0957 44.9039 45.7891 36.9294C47.1473 36.2775 46.288 34.898 47.093 33.9892C49.4323 31.6334 50.6012 28.3409 52.6244 25.7036C53.9052 25.0978 54.9028 21.9468 52.6475 22.8819C47.6741 24.4788 43.7889 20.5903 40.7977 17.1464C36.4203 13.1311 34.6193 20.5031 36.5668 23.6754C37.2039 24.9529 37.1792 25.0402 35.8326 25.6806C32.3721 28.2076 33.457 21.4431 30.1299 20.7401C21.8476 21.3756 27.4531 13.676 22.9506 15.1132C21.0508 16.3413 19.6383 18.2823 18.8811 20.4092C17.7929 21.6999 16.6734 19.0083 16.1861 18.1851C17.4241 2.36789 41.3311 -3.26725 48.889 11.8882C50.5732 15.7668 57.7113 11.633 63.1374 18.2065C63.2773 26.8066 50.4859 20.1689 67.123 32.0137C92.5791 51.4346 81.3944 82.6131 93.6903 108.321C96.5367 120.999 99.7749 120.745 86.4797 127.905C81.5739 130.458 76.3108 132.654 70.7645 134.501C67.1378 136.38 65.6661 141.143 63.3399 144.391L63.3366 144.386ZM34.807 141.684C34.802 140.492 34.7757 140.5 33.6183 140.647C24.4734 141.016 28.4343 146.46 30.1085 152.339C31.1128 155.801 34.6555 142.736 34.807 141.682V141.684Z" fill="#FCFCFC"/>
</svg>
