<svg width="130" height="241" viewBox="0 0 130 241" fill="none" xmlns="http://www.w3.org/2000/svg">
<path d="M77.199 50.8925C73.5981 49.3855 68.4935 46.6639 64.6987 45.7715C66.7646 48.0543 68.6233 53.264 72.262 50.3962C72.9736 49.7207 78.7701 53.9149 77.1973 50.8925H77.199Z" fill="#989898"/>
<path d="M86.9662 33.7806C85.6761 32.7698 81.8451 30.4575 80.1869 29.971C77.2484 28.5034 78.5319 47.2356 78.8787 49.0484C81.6824 49.571 81.1286 46.9513 82.915 46.8297C83.602 46.7607 83.6579 46.22 83.7614 46.3629C83.911 46.5947 84.1526 46.3219 84.2085 46.1624C84.4024 44.9167 86.1182 44.5601 85.8519 43.1878C85.2586 40.573 84.5191 38.9147 86.8561 36.8571C87.3097 36.226 87.3804 34.4018 86.9646 33.7822L86.9662 33.7806Z" fill="#989898"/>
<path d="M48.7586 233.557C41.5832 232.088 27.377 225.372 33.0125 216.299C32.6263 215.705 32.6312 215.694 32.1595 215.521C29.5661 214.522 26.9875 213.434 24.5683 212.073C23.6611 211.253 22.1623 218.378 22.1377 219.208C22.1524 224.851 13.2843 235.476 24.404 235.279C28.4897 235.608 32.7808 236.729 36.5443 237.587C38.9355 237.578 52.2624 238.205 48.7569 233.558L48.7586 233.557Z" fill="#989898"/>
<path d="M127.387 61.248C122.286 63.1528 119.444 69.2797 113.528 69.7037C111.69 70.1951 111.049 72.2626 110.096 73.7137C108.316 77.1946 102.669 80.8086 99.0322 82.1858C97.4167 82.9632 99.997 82.4734 100.186 83.3001C101.545 83.9443 100.847 85.4054 101.292 86.4375C102.189 86.9009 100.978 90.3982 101.943 89.4565C104.492 86.9913 107.731 85.269 110.546 83.1029C114.759 79.6664 121.646 81.1652 124.818 76.2858C127.405 72.5896 121.142 69.8023 123.835 67.4373C124.708 66.305 130.344 62.1273 127.385 61.2497L127.387 61.248Z" fill="#989898"/>
<path d="M63.7124 221.878C58.2446 217.793 55.6167 209.068 56.4581 202.875C53.5081 205.082 50.2951 206.343 46.8143 204.949C48.1077 206.15 46.7732 209.449 46.788 211.14C46.4856 215.395 51.9583 213.607 51.7726 218.759C51.8219 220.325 51.7266 221.944 52.43 223.397C53.7168 226.217 57.1698 225.747 59.7319 225.65C62.1215 225.823 67.3724 224.784 63.7141 221.878H63.7124Z" fill="#989898"/>
<path d="M84.7718 50.4703C85.2041 55.2692 85.0529 59.0015 79.2251 56.349C75.8577 55.5766 72.5543 54.4541 70.1992 52.5805C69.4514 51.1326 68.7842 52.8796 69.9445 53.2839C75.0458 60.3262 72.7646 70.4499 78.1125 76.115C80.1882 77.8702 77.7542 80.8662 81.1069 81.3083C84.0766 81.7175 83.2385 88.3358 87.1565 86.6397C89.4228 85.6109 92.1576 85.4778 94.1002 84.3011C95.8274 83.6749 97.6155 82.1744 99.7603 82.6822C100.331 83.7374 101.338 83.7226 101.05 85.3463C101.008 85.6356 100.939 86.1056 101.085 86.2108C102.503 87.8148 100.829 89.6029 100.756 91.3137C100.524 103.84 96.5834 94.6812 88.0834 98.2804C87.3143 98.9279 86.4958 99.0692 85.5607 98.8408C82.1357 99.0134 79.3024 104.57 76.4444 98.8194C76.0236 97.5737 75.151 97.0527 73.8592 97.1645C72.574 97.2927 71.8953 95.9993 71.0522 95.2548C69.1194 92.7863 65.9968 91.8413 64.0773 89.358C61.2916 86.2551 54.4827 99.4423 54.9314 102.289C54.9363 106.143 51.4998 108.225 50.3412 111.615C49.5276 114.253 47.5259 119.59 48.4873 122.132C49.194 123.135 56.7096 142.641 51.9961 138.488C34.9862 121.545 75.5339 169.4 54.9379 203.765C48.2129 208.822 44.4674 199.7 45.0574 209.602C45.9843 217.386 42.1994 218.605 35.3708 216.12C31.5054 215.68 28.1395 213.865 24.6866 212.197C23.1483 199.133 28.5718 185.453 30.636 172.346C24.7491 146.347 -16.6466 128.308 9.68174 99.393C11.3022 95.1184 12.5562 96.323 12.2045 91.0196C14.1454 82.4423 1.97059 75.1733 8.92575 69.8813C12.6351 65.8729 11.6588 65.4472 17.6016 65.1678C18.7175 64.9657 19.914 64.8457 20.3511 63.4751C22.0341 58.9522 31.1767 63.3617 32.4849 57.7837C32.6722 52.9634 38.7169 51.9609 42.5758 51.8771C44.3589 51.8607 44.3228 48.6773 47.659 48.5195C49.8777 48.5244 51.0248 46.1348 53.1942 45.8817C54.2082 45.89 55.8156 43.5316 55.1006 43.2982C39.6422 36.0637 67.5187 7.43615 79.0246 18.5213C84.1736 22.0696 88.966 23.2775 90.2577 30.0617C90.2939 31.9797 90.7212 35.311 87.9273 35.3307C86.3956 35.9404 87.4145 34.2509 86.8229 33.5919C86.7818 33.2336 81.2926 30.826 81.5063 31.7134C79.3911 36.4976 80.2293 42.6688 80.2753 47.8539C80.9146 50.0989 81.5145 46.148 83.0117 46.6723L83.0084 46.6755C85.1728 45.083 83.9452 49.4809 84.7751 50.4687L84.7718 50.4703ZM73.1492 49.4514C70.7793 48.3469 68.393 47.305 65.8407 46.5589C67.5877 47.6896 68.0923 51.7637 70.4326 51.1474C72.8797 48.531 74.9028 52.4244 77.4502 51.7144C78.0172 51.2937 73.6291 49.7998 73.1476 49.4514H73.1492Z" fill="#FDFDFD"/>
</svg>
