<svg width="1440" height="1369" viewBox="0 0 1440 1369" fill="none" xmlns="http://www.w3.org/2000/svg">
<g clip-path="url(#clip0_45_157)">
<g style="mix-blend-mode:plus-lighter">
<path fill-rule="evenodd" clip-rule="evenodd" d="M564.185 -97.9973H579.445C579.64 -98.0009 579.834 -98.0009 580.028 -97.9973H875.512L1622.7 1240.71L1498.17 1489.77H-42.9029L-183 1240.71L564.185 -97.9973ZM1160.16 976.081L576.602 -56.3663L475.597 124.601L614.69 375.865L616.157 376.702L615.648 377.595L946.952 976.081H1160.16ZM1200.25 983.745C1201.62 986.061 1202.41 988.763 1202.41 991.647C1202.41 1000.24 1195.44 1007.21 1186.84 1007.21H518.373L395.54 1225.14H1578.35L857.234 -66.8646H606.43L1200.25 983.745ZM535.92 976.081H911.368L725.335 640.022L535.92 976.081ZM263.934 1458.64L377.993 1256.28H1580.11L1478.92 1458.64H263.934ZM707.75 608.256C707.212 608.922 706.722 609.641 706.288 610.412L228.196 1458.64H-0.546174L597.595 409.266L707.75 608.256ZM579.94 377.373L-30.4994 1448.32L-147.313 1240.65L457.732 156.61L579.94 377.373Z" fill="url(#paint0_linear_45_157)"/>
</g>
</g>
<defs>
<linearGradient id="paint0_linear_45_157" x1="719.848" y1="69" x2="719.848" y2="1284" gradientUnits="userSpaceOnUse">
<stop/>
<stop offset="0.245" stop-color="#6562F5"/>
<stop offset="0.52" stop-color="#6562F5"/>
<stop offset="1"/>
</linearGradient>
<clipPath id="clip0_45_157">
<rect width="1440" height="1369" fill="white"/>
</clipPath>
</defs>
</svg>
