<svg width="360" height="360" viewBox="0 0 360 360" fill="none" xmlns="http://www.w3.org/2000/svg">
<g clip-path="url(#clip0_51_1499)">
<g filter="url(#filter0_ddddd_51_1499)">
<path d="M248.838 131.142H109.214C103.092 131.142 98.1284 136.105 98.1284 142.228V219.148C98.1284 225.27 103.092 230.233 109.214 230.233H248.838C254.961 230.233 259.924 225.27 259.924 219.148V142.228C259.924 136.105 254.961 131.142 248.838 131.142Z" fill="#3425EC"/>
<path d="M109.215 131.143H248.84C254.962 131.143 259.925 136.106 259.925 142.228V219.148C259.925 223.37 257.565 227.041 254.092 228.913C255.011 227.298 255.536 225.43 255.536 223.438V146.518C255.536 140.396 250.572 135.433 244.45 135.433H104.826C102.926 135.433 101.137 135.911 99.5739 136.753C101.481 133.402 105.084 131.143 109.215 131.143Z" fill="#3425EC"/>
<path d="M248.852 231.362H109.214C102.486 231.362 97 225.89 97 219.148V142.214C97 135.472 102.472 130 109.214 130H248.852C255.594 130 261.066 135.472 261.066 142.214V219.148C261.066 225.89 255.594 231.362 248.852 231.362ZM109.214 132.271C103.727 132.271 99.2707 136.727 99.2707 142.214V219.148C99.2707 224.634 103.727 229.091 109.214 229.091H248.852C254.339 229.091 258.795 224.634 258.795 219.148V142.214C258.795 136.727 254.339 132.271 248.852 132.271H109.214Z" fill="#3425EC"/>
<path d="M244.128 148.617H217.176V175.568H244.128V148.617Z" fill="#3425EC"/>
<path d="M245.271 176.711H216.049V147.474H245.271V176.711ZM218.319 174.44H243V149.745H218.319V174.44Z" fill="#3425EC"/>
<path d="M226.386 148.617H224.242V175.568H226.386V148.617Z" fill="#3425EC"/>
<path d="M237.077 148.617H234.933V175.568H237.077V148.617Z" fill="#3425EC"/>
<path d="M244.128 155.668H217.176V157.812H244.128V155.668Z" fill="#3425EC"/>
<path d="M244.128 166.373H217.176V168.517H244.128V166.373Z" fill="#3425EC"/>
<path d="M141.765 164.863C143.326 157.256 138.426 149.824 130.818 148.262C123.211 146.701 115.779 151.602 114.217 159.209C112.655 166.816 117.556 174.249 125.164 175.81C132.771 177.372 140.203 172.471 141.765 164.863Z" fill="#3425EC"/>
<path d="M139.973 177.726L124.615 162.367L139.973 147.009L155.332 162.367L139.973 177.726ZM127.647 162.367L139.973 174.694L152.3 162.367L139.973 150.041L127.647 162.367Z" fill="#3425EC"/>
<path d="M122.429 194.89H115.475C114.587 194.89 113.868 194.171 113.868 193.282C113.868 192.394 114.587 191.675 115.475 191.675H122.429C123.317 191.675 124.036 192.394 124.036 193.282C124.036 194.171 123.317 194.89 122.429 194.89Z" fill="#3425EC"/>
<path d="M224.426 194.89H211.676C210.788 194.89 210.069 194.171 210.069 193.282C210.069 192.394 210.788 191.674 211.676 191.674H224.426C225.314 191.674 226.034 192.394 226.034 193.282C226.034 194.171 225.314 194.89 224.426 194.89ZM198.927 194.89H186.177C185.289 194.89 184.569 194.171 184.569 193.282C184.569 192.394 185.289 191.674 186.177 191.674H198.927C199.815 191.674 200.535 192.394 200.535 193.282C200.535 194.171 199.815 194.89 198.927 194.89ZM173.428 194.89H160.678C159.79 194.89 159.07 194.171 159.07 193.282C159.07 192.394 159.79 191.674 160.678 191.674H173.428C174.316 191.674 175.035 192.394 175.035 193.282C175.035 194.171 174.316 194.89 173.428 194.89ZM147.929 194.89H135.179C134.29 194.89 133.571 194.171 133.571 193.282C133.571 192.394 134.29 191.674 135.179 191.674H147.929C148.817 191.674 149.536 192.394 149.536 193.282C149.536 194.171 148.817 194.89 147.929 194.89Z" fill="#3425EC"/>
<path d="M244.128 194.89H237.175C236.286 194.89 235.567 194.171 235.567 193.282C235.567 192.394 236.286 191.674 237.175 191.674H244.128C245.016 191.674 245.736 192.394 245.736 193.282C245.736 194.171 245.016 194.89 244.128 194.89Z" fill="#3425EC"/>
<path d="M148.451 208.881H115.463C114.87 208.881 114.391 208.401 114.391 207.809C114.391 207.216 114.87 206.737 115.463 206.737H148.451C149.043 206.737 149.523 207.216 149.523 207.809C149.523 208.401 149.043 208.881 148.451 208.881Z" fill="#3425EC"/>
<path d="M166.884 214.466H115.463C114.87 214.466 114.391 213.986 114.391 213.394C114.391 212.801 114.87 212.322 115.463 212.322H166.884C167.476 212.322 167.956 212.801 167.956 213.394C167.956 213.986 167.476 214.466 166.884 214.466Z" fill="#3425EC"/>
<path d="M250.838 129.142H111.214C105.092 129.142 100.128 134.105 100.128 140.228V217.148C100.128 223.27 105.092 228.233 111.214 228.233H250.838C256.961 228.233 261.924 223.27 261.924 217.148V140.228C261.924 134.105 256.961 129.142 250.838 129.142Z" fill="#3425EC"/>
<path d="M111.215 129.143H250.84C256.962 129.143 261.925 134.106 261.925 140.228V217.148C261.925 221.37 259.565 225.041 256.092 226.913C257.011 225.298 257.536 223.43 257.536 221.438V144.518C257.536 138.396 252.572 133.433 246.45 133.433H106.826C104.926 133.433 103.137 133.911 101.574 134.753C103.481 131.402 107.084 129.143 111.215 129.143Z" fill="#3425EC"/>
<path d="M250.852 229.362H111.214C104.486 229.362 99 223.89 99 217.148V140.214C99 133.472 104.472 128 111.214 128H250.852C257.594 128 263.066 133.472 263.066 140.214V217.148C263.066 223.89 257.594 229.362 250.852 229.362ZM111.214 130.271C105.727 130.271 101.271 134.727 101.271 140.214V217.148C101.271 222.634 105.727 227.091 111.214 227.091H250.852C256.339 227.091 260.795 222.634 260.795 217.148V140.214C260.795 134.727 256.339 130.271 250.852 130.271H111.214Z" fill="#3425EC"/>
<path d="M247.271 174.711H218.049V145.474H247.271V174.711ZM220.319 172.44H245V147.745H220.319V172.44Z" fill="#3425EC"/>
<path d="M228.386 146.617H226.242V173.568H228.386V146.617Z" fill="#3425EC"/>
<path d="M239.077 146.617H236.933V173.568H239.077V146.617Z" fill="#3425EC"/>
<path d="M246.128 153.668H219.176V155.812H246.128V153.668Z" fill="#3425EC"/>
<path d="M246.128 164.373H219.176V166.517H246.128V164.373Z" fill="#3425EC"/>
<path d="M143.765 162.863C145.326 155.256 140.426 147.824 132.818 146.262C125.211 144.701 117.779 149.602 116.217 157.209C114.655 164.816 119.556 172.249 127.164 173.81C134.771 175.372 142.203 170.471 143.765 162.863Z" fill="#3425EC"/>
<path d="M154.375 162.863C155.937 155.256 151.036 147.824 143.429 146.262C135.822 144.701 128.389 149.602 126.827 157.209C125.266 164.816 130.167 172.249 137.774 173.81C145.381 175.372 152.814 170.471 154.375 162.863Z" fill="#3425EC"/>
<path d="M124.429 192.89H117.475C116.587 192.89 115.868 192.171 115.868 191.282C115.868 190.394 116.587 189.675 117.475 189.675H124.429C125.317 189.675 126.036 190.394 126.036 191.282C126.036 192.171 125.317 192.89 124.429 192.89Z" fill="#3425EC"/>
<path d="M226.426 192.89H213.676C212.788 192.89 212.069 192.171 212.069 191.282C212.069 190.394 212.788 189.674 213.676 189.674H226.426C227.314 189.674 228.034 190.394 228.034 191.282C228.034 192.171 227.314 192.89 226.426 192.89ZM200.927 192.89H188.177C187.289 192.89 186.569 192.171 186.569 191.282C186.569 190.394 187.289 189.674 188.177 189.674H200.927C201.815 189.674 202.535 190.394 202.535 191.282C202.535 192.171 201.815 192.89 200.927 192.89ZM175.428 192.89H162.678C161.79 192.89 161.07 192.171 161.07 191.282C161.07 190.394 161.79 189.674 162.678 189.674H175.428C176.316 189.674 177.035 190.394 177.035 191.282C177.035 192.171 176.316 192.89 175.428 192.89ZM149.929 192.89H137.179C136.29 192.89 135.571 192.171 135.571 191.282C135.571 190.394 136.29 189.674 137.179 189.674H149.929C150.817 189.674 151.536 190.394 151.536 191.282C151.536 192.171 150.817 192.89 149.929 192.89Z" fill="#3425EC"/>
<path d="M246.128 192.89H239.175C238.286 192.89 237.567 192.171 237.567 191.282C237.567 190.394 238.286 189.674 239.175 189.674H246.128C247.016 189.674 247.736 190.394 247.736 191.282C247.736 192.171 247.016 192.89 246.128 192.89Z" fill="#3425EC"/>
<path d="M150.451 206.881H117.463C116.87 206.881 116.391 206.401 116.391 205.809C116.391 205.216 116.87 204.737 117.463 204.737H150.451C151.043 204.737 151.523 205.216 151.523 205.809C151.523 206.401 151.043 206.881 150.451 206.881Z" fill="#3425EC"/>
<path d="M168.884 212.466H117.463C116.87 212.466 116.391 211.986 116.391 211.394C116.391 210.801 116.87 210.322 117.463 210.322H168.884C169.476 210.322 169.956 210.801 169.956 211.394C169.956 211.986 169.476 212.466 168.884 212.466Z" fill="#3425EC"/>
</g>
</g>
<defs>
<filter id="filter0_ddddd_51_1499" x="82" y="71" width="591.066" height="291.361" filterUnits="userSpaceOnUse" color-interpolation-filters="sRGB">
<feFlood flood-opacity="0" result="BackgroundImageFix"/>
<feColorMatrix in="SourceAlpha" type="matrix" values="0 0 0 0 0 0 0 0 0 0 0 0 0 0 0 0 0 0 127 0" result="hardAlpha"/>
<feOffset dx="13" dy="2"/>
<feGaussianBlur stdDeviation="14"/>
<feColorMatrix type="matrix" values="0 0 0 0 0.203922 0 0 0 0 0.145098 0 0 0 0 0.92549 0 0 0 0.54 0"/>
<feBlend mode="normal" in2="BackgroundImageFix" result="effect1_dropShadow_51_1499"/>
<feColorMatrix in="SourceAlpha" type="matrix" values="0 0 0 0 0 0 0 0 0 0 0 0 0 0 0 0 0 0 127 0" result="hardAlpha"/>
<feOffset dx="51" dy="7"/>
<feGaussianBlur stdDeviation="26"/>
<feColorMatrix type="matrix" values="0 0 0 0 0.203922 0 0 0 0 0.145098 0 0 0 0 0.92549 0 0 0 0.47 0"/>
<feBlend mode="normal" in2="effect1_dropShadow_51_1499" result="effect2_dropShadow_51_1499"/>
<feColorMatrix in="SourceAlpha" type="matrix" values="0 0 0 0 0 0 0 0 0 0 0 0 0 0 0 0 0 0 127 0" result="hardAlpha"/>
<feOffset dx="115" dy="15"/>
<feGaussianBlur stdDeviation="35"/>
<feColorMatrix type="matrix" values="0 0 0 0 0.203922 0 0 0 0 0.145098 0 0 0 0 0.92549 0 0 0 0.28 0"/>
<feBlend mode="normal" in2="effect2_dropShadow_51_1499" result="effect3_dropShadow_51_1499"/>
<feColorMatrix in="SourceAlpha" type="matrix" values="0 0 0 0 0 0 0 0 0 0 0 0 0 0 0 0 0 0 127 0" result="hardAlpha"/>
<feOffset dx="205" dy="26"/>
<feGaussianBlur stdDeviation="41.5"/>
<feColorMatrix type="matrix" values="0 0 0 0 0.203922 0 0 0 0 0.145098 0 0 0 0 0.92549 0 0 0 0.08 0"/>
<feBlend mode="normal" in2="effect3_dropShadow_51_1499" result="effect4_dropShadow_51_1499"/>
<feColorMatrix in="SourceAlpha" type="matrix" values="0 0 0 0 0 0 0 0 0 0 0 0 0 0 0 0 0 0 127 0" result="hardAlpha"/>
<feOffset dx="320" dy="41"/>
<feGaussianBlur stdDeviation="45"/>
<feColorMatrix type="matrix" values="0 0 0 0 0.203922 0 0 0 0 0.145098 0 0 0 0 0.92549 0 0 0 0.01 0"/>
<feBlend mode="normal" in2="effect4_dropShadow_51_1499" result="effect5_dropShadow_51_1499"/>
<feBlend mode="normal" in="SourceGraphic" in2="effect5_dropShadow_51_1499" result="shape"/>
</filter>
<clipPath id="clip0_51_1499">
<rect width="360" height="360" fill="white"/>
</clipPath>
</defs>
</svg>
