<svg width="360" height="360" viewBox="0 0 360 360" fill="none" xmlns="http://www.w3.org/2000/svg">
<g clip-path="url(#clip0_51_1557)">
<g filter="url(#filter0_ddddd_51_1557)">
<path d="M232.352 169.196H127.124C123.835 169.196 121.168 171.863 121.168 175.152V235.718C121.168 239.008 123.835 241.674 127.124 241.674H232.352C235.641 241.674 238.308 239.008 238.308 235.718V175.152C238.308 171.863 235.641 169.196 232.352 169.196Z" fill="#3425EC"/>
<path d="M232.359 169.196H127.124C124.383 169.196 122.079 171.055 121.39 173.582C121.938 173.411 122.523 173.322 123.131 173.322H228.359C231.648 173.322 234.315 175.989 234.315 179.278V239.852C234.315 240.393 234.233 240.919 234.1 241.422C236.537 240.682 238.315 238.415 238.315 235.726V175.152C238.315 171.863 235.648 169.196 232.359 169.196Z" fill="#3425EC"/>
<path d="M232.352 169.196H127.124C123.835 169.196 121.168 171.863 121.168 175.152V235.718C121.168 239.008 123.835 241.674 127.124 241.674H232.352C235.641 241.674 238.308 239.008 238.308 235.718V175.152C238.308 171.863 235.641 169.196 232.352 169.196Z" fill="#3425EC"/>
<path d="M226.856 192.679L181.661 209.561L132.628 192.679V117.875C132.628 114.712 135.191 112.148 138.355 112.148H221.13C224.293 112.148 226.856 114.712 226.856 117.875V192.679Z" fill="#3425EC"/>
<path d="M188.942 162.329C188.905 162.536 188.891 162.811 188.891 163.151C188.891 163.974 189.083 164.588 189.483 164.996C189.876 165.403 190.38 165.611 190.994 165.611C192.328 165.611 193.558 164.951 194.684 163.64C195.81 162.329 196.713 160.618 197.402 158.521C198.084 156.425 198.424 154.277 198.424 152.091C198.424 149.699 197.862 147.595 196.736 145.765C195.61 143.935 194.002 142.52 191.92 141.513C189.839 140.506 187.409 140.002 184.646 140.002C180.275 140.002 176.312 140.869 172.764 142.617C169.208 144.358 166.415 146.876 164.363 150.173C162.311 153.469 161.289 157.351 161.289 161.825C161.289 164.418 161.815 166.848 162.874 169.1C163.934 171.352 165.586 173.182 167.845 174.582C170.097 175.982 172.934 176.678 176.349 176.678C178.942 176.678 181.061 176.434 182.698 175.937C184.335 175.441 186.061 174.685 187.868 173.656C188.246 173.448 188.565 173.352 188.839 173.352C189.52 173.352 190.031 173.782 190.372 174.633C190.476 174.841 190.528 175.041 190.528 175.248C190.528 175.996 189.876 176.715 188.579 177.397C186.498 178.456 184.564 179.263 182.794 179.826C181.016 180.389 178.868 180.671 176.342 180.671C171.971 180.671 168.349 179.782 165.482 178.004C162.615 176.226 160.511 173.915 159.185 171.063C157.859 168.211 157.185 165.129 157.185 161.818C157.185 156.625 158.393 152.077 160.822 148.165C163.245 144.254 166.541 141.254 170.704 139.15C174.868 137.046 179.512 136.002 184.639 136.002C188.394 136.002 191.624 136.72 194.321 138.15C197.017 139.587 199.062 141.513 200.439 143.935C201.825 146.358 202.514 149.076 202.514 152.077C202.514 155.077 201.951 157.721 200.825 160.403C199.699 163.085 198.091 165.277 196.01 166.981C193.928 168.692 191.52 169.544 188.787 169.544C187.387 169.544 186.135 169.152 185.024 168.366C183.913 167.581 183.224 166.574 182.95 165.344C181.342 168.144 178.816 169.544 175.371 169.544C174.075 169.544 172.838 169.204 171.66 168.522C170.482 167.84 169.534 166.848 168.815 165.551C168.097 164.255 167.741 162.766 167.741 161.092C167.741 158.944 168.297 156.706 169.408 154.38C170.519 152.062 172.023 150.121 173.912 148.565C175.808 147.01 177.831 146.232 179.979 146.232C181.142 146.232 182.187 146.55 183.127 147.18C184.068 147.81 184.772 148.691 185.253 149.817L185.461 148.432C185.564 147.884 185.846 147.41 186.305 146.995C186.765 146.587 187.424 146.38 188.276 146.38C190.12 146.38 191.039 147.113 191.039 148.58C191.039 148.921 191.024 149.195 190.987 149.402L188.935 162.307L188.942 162.329ZM184.283 154.803C184.283 153.403 183.905 152.395 183.157 151.78C182.401 151.165 181.431 150.854 180.238 150.854C178.942 150.854 177.771 151.388 176.727 152.44C175.682 153.499 174.882 154.817 174.319 156.41C173.756 157.995 173.475 159.529 173.475 160.996C173.475 162.292 173.779 163.277 174.393 163.944C175.008 164.611 175.86 164.944 176.957 164.944C178.053 164.944 179.046 164.611 179.957 163.944C180.861 163.277 181.616 162.477 182.209 161.536C182.809 160.596 183.224 159.721 183.461 158.899C184.009 157.262 184.283 155.892 184.283 154.803Z" fill="#3425EC"/>
</g>
</g>
<defs>
<filter id="filter0_ddddd_51_1557" x="106.168" y="55.1484" width="542.147" height="317.525" filterUnits="userSpaceOnUse" color-interpolation-filters="sRGB">
<feFlood flood-opacity="0" result="BackgroundImageFix"/>
<feColorMatrix in="SourceAlpha" type="matrix" values="0 0 0 0 0 0 0 0 0 0 0 0 0 0 0 0 0 0 127 0" result="hardAlpha"/>
<feOffset dx="13" dy="2"/>
<feGaussianBlur stdDeviation="14"/>
<feColorMatrix type="matrix" values="0 0 0 0 0.203922 0 0 0 0 0.145098 0 0 0 0 0.92549 0 0 0 0.54 0"/>
<feBlend mode="normal" in2="BackgroundImageFix" result="effect1_dropShadow_51_1557"/>
<feColorMatrix in="SourceAlpha" type="matrix" values="0 0 0 0 0 0 0 0 0 0 0 0 0 0 0 0 0 0 127 0" result="hardAlpha"/>
<feOffset dx="51" dy="7"/>
<feGaussianBlur stdDeviation="26"/>
<feColorMatrix type="matrix" values="0 0 0 0 0.203922 0 0 0 0 0.145098 0 0 0 0 0.92549 0 0 0 0.47 0"/>
<feBlend mode="normal" in2="effect1_dropShadow_51_1557" result="effect2_dropShadow_51_1557"/>
<feColorMatrix in="SourceAlpha" type="matrix" values="0 0 0 0 0 0 0 0 0 0 0 0 0 0 0 0 0 0 127 0" result="hardAlpha"/>
<feOffset dx="115" dy="15"/>
<feGaussianBlur stdDeviation="35"/>
<feColorMatrix type="matrix" values="0 0 0 0 0.203922 0 0 0 0 0.145098 0 0 0 0 0.92549 0 0 0 0.28 0"/>
<feBlend mode="normal" in2="effect2_dropShadow_51_1557" result="effect3_dropShadow_51_1557"/>
<feColorMatrix in="SourceAlpha" type="matrix" values="0 0 0 0 0 0 0 0 0 0 0 0 0 0 0 0 0 0 127 0" result="hardAlpha"/>
<feOffset dx="205" dy="26"/>
<feGaussianBlur stdDeviation="41.5"/>
<feColorMatrix type="matrix" values="0 0 0 0 0.203922 0 0 0 0 0.145098 0 0 0 0 0.92549 0 0 0 0.08 0"/>
<feBlend mode="normal" in2="effect3_dropShadow_51_1557" result="effect4_dropShadow_51_1557"/>
<feColorMatrix in="SourceAlpha" type="matrix" values="0 0 0 0 0 0 0 0 0 0 0 0 0 0 0 0 0 0 127 0" result="hardAlpha"/>
<feOffset dx="320" dy="41"/>
<feGaussianBlur stdDeviation="45"/>
<feColorMatrix type="matrix" values="0 0 0 0 0.203922 0 0 0 0 0.145098 0 0 0 0 0.92549 0 0 0 0.01 0"/>
<feBlend mode="normal" in2="effect4_dropShadow_51_1557" result="effect5_dropShadow_51_1557"/>
<feBlend mode="normal" in="SourceGraphic" in2="effect5_dropShadow_51_1557" result="shape"/>
</filter>
<clipPath id="clip0_51_1557">
<rect width="360" height="360" fill="white"/>
</clipPath>
</defs>
</svg>
