<svg width="360" height="360" viewBox="0 0 360 360" fill="none" xmlns="http://www.w3.org/2000/svg">
<g clip-path="url(#clip0_51_1565)">
<g filter="url(#filter0_ddddd_51_1565)">
<path fill-rule="evenodd" clip-rule="evenodd" d="M150.121 103.784C136.39 104.019 135.005 109.216 134.991 115.86C134.97 124.977 133.874 237.127 134.508 244.04C135.118 250.703 139.226 252.695 149.417 253.368C155.555 253.774 205.771 253.424 215.799 252.824C224.684 252.291 224.665 245.237 224.807 241.183C224.947 237.18 225.06 232.11 224.718 195.257C224.385 159.376 224.949 122.139 224.755 118.229C224.554 114.17 224.533 103.651 209.959 103.32C206.218 103.235 154.852 103.703 150.121 103.784L150.121 103.784Z" fill="#3425EC"/>
<path fill-rule="evenodd" clip-rule="evenodd" d="M144.992 110.614C142.649 110.716 142.391 111.714 142.361 112.984C142.319 114.726 142.245 117.428 142.324 118.746C142.401 120.017 143.093 120.38 144.83 120.467C145.875 120.519 149.267 120.614 150.981 120.458C152.498 120.32 152.587 119.029 152.628 118.254C152.708 116.744 152.661 114.924 152.627 113.41C152.609 112.635 152.649 110.626 150.164 110.623C149.527 110.623 145.8 110.579 144.992 110.614Z" fill="#3425EC"/>
<path fill-rule="evenodd" clip-rule="evenodd" d="M146.277 115.57C146.699 115.092 148.069 113.77 148.366 113.508C148.487 113.402 148.498 113.217 148.392 113.097C148.286 112.977 148.101 112.965 147.982 113.072C147.693 113.326 146.419 114.557 145.915 115.104C145.795 115.233 145.716 115.333 145.686 115.382C145.647 115.448 145.638 115.501 145.636 115.533C145.631 115.588 145.641 115.66 145.685 115.744C145.72 115.812 145.795 115.908 145.905 116.019C146.39 116.507 147.681 117.454 148.237 117.853C148.367 117.947 148.55 117.917 148.643 117.786C148.736 117.656 148.707 117.474 148.576 117.38C148.018 116.98 146.677 116.009 146.277 115.57Z" fill="#3425EC"/>
<path fill-rule="evenodd" clip-rule="evenodd" d="M209.664 109.924C207.321 110.026 207.063 111.024 207.033 112.293C206.991 114.035 206.916 116.738 206.996 118.056C207.072 119.326 207.765 119.69 209.502 119.777C210.547 119.829 213.94 119.924 215.652 119.768C217.17 119.629 217.259 118.339 217.3 117.563C217.379 116.052 217.332 114.232 217.298 112.719C217.28 111.944 217.32 109.934 214.836 109.932C214.199 109.932 210.471 109.888 209.664 109.924Z" fill="#3425EC"/>
<path fill-rule="evenodd" clip-rule="evenodd" d="M210.653 113.637C211.449 113.637 212.925 113.589 213.721 113.57C213.881 113.566 214.009 113.433 214.005 113.272C214.002 113.112 213.868 112.984 213.707 112.988C212.916 113.005 211.447 113.056 210.654 113.055C210.494 113.055 210.363 113.185 210.362 113.346C210.362 113.506 210.493 113.637 210.653 113.637Z" fill="#3425EC"/>
<path fill-rule="evenodd" clip-rule="evenodd" d="M210.665 115.207C211.46 115.207 212.936 115.159 213.732 115.14C213.892 115.137 214.02 115.003 214.016 114.842C214.013 114.682 213.879 114.554 213.718 114.558C212.927 114.576 211.458 114.626 210.665 114.626C210.505 114.626 210.373 114.756 210.373 114.917C210.373 115.077 210.504 115.208 210.664 115.208L210.665 115.207Z" fill="#3425EC"/>
<path fill-rule="evenodd" clip-rule="evenodd" d="M210.677 116.778C211.473 116.779 212.949 116.73 213.744 116.711C213.904 116.707 214.032 116.574 214.029 116.413C214.025 116.253 213.891 116.125 213.731 116.129C212.939 116.147 211.47 116.197 210.677 116.196C210.517 116.196 210.387 116.326 210.386 116.487C210.386 116.647 210.516 116.778 210.677 116.778Z" fill="#3425EC"/>
<path fill-rule="evenodd" clip-rule="evenodd" d="M165.942 112.853C167.628 112.783 186.347 112.521 192.931 112.718C193.091 112.723 193.226 112.596 193.23 112.436C193.235 112.276 193.109 112.142 192.948 112.136C186.354 111.94 167.606 112.201 165.918 112.271C165.757 112.278 165.632 112.414 165.638 112.574C165.645 112.735 165.781 112.86 165.942 112.853Z" fill="#3425EC"/>
<path fill-rule="evenodd" clip-rule="evenodd" d="M172.73 117.615C173.513 117.582 180.731 117.449 185.939 117.399C186.099 117.397 186.229 117.266 186.227 117.105C186.225 116.944 186.094 116.815 185.934 116.817C180.718 116.866 173.49 117.001 172.706 117.034C172.545 117.041 172.42 117.176 172.427 117.336C172.434 117.496 172.57 117.622 172.73 117.615Z" fill="#3425EC"/>
<path fill-rule="evenodd" clip-rule="evenodd" d="M147.241 186.034C148.927 185.964 167.646 185.702 174.23 185.899C174.39 185.904 174.525 185.777 174.529 185.617C174.534 185.457 174.408 185.323 174.247 185.317C167.653 185.121 148.905 185.382 147.217 185.452C147.056 185.459 146.931 185.595 146.937 185.755C146.945 185.916 147.08 186.041 147.241 186.034Z" fill="#3425EC"/>
<path fill-rule="evenodd" clip-rule="evenodd" d="M147.241 190.796C148.024 190.763 155.242 190.63 160.45 190.58C160.61 190.578 160.739 190.447 160.738 190.286C160.736 190.125 160.605 189.996 160.444 189.997C155.229 190.047 148.001 190.182 147.216 190.215C147.056 190.222 146.931 190.357 146.938 190.517C146.945 190.677 147.08 190.802 147.241 190.796Z" fill="#3425EC"/>
<path fill-rule="evenodd" clip-rule="evenodd" d="M185.129 186.034C186.816 185.964 205.535 185.702 212.118 185.899C212.279 185.904 212.414 185.777 212.418 185.617C212.422 185.457 212.297 185.323 212.136 185.317C205.542 185.121 186.793 185.382 185.105 185.452C184.945 185.459 184.82 185.595 184.826 185.755C184.833 185.916 184.969 186.041 185.129 186.034Z" fill="#3425EC"/>
<path fill-rule="evenodd" clip-rule="evenodd" d="M185.129 190.796C185.912 190.763 193.13 190.63 198.338 190.58C198.498 190.578 198.628 190.447 198.626 190.286C198.624 190.125 198.493 189.996 198.333 189.997C193.117 190.047 185.889 190.182 185.105 190.215C184.944 190.222 184.819 190.357 184.826 190.517C184.833 190.677 184.969 190.802 185.129 190.796Z" fill="#3425EC"/>
<path fill-rule="evenodd" clip-rule="evenodd" d="M135.105 124.692C135.084 124.689 135.063 124.688 135.04 124.691C134.881 124.706 134.763 124.849 134.778 125.008C134.779 125.02 134.816 125.263 135.082 125.273C135.238 125.279 136.086 125.285 137.502 125.287C151.593 125.318 222.159 125.193 224.856 125.05C225.017 125.041 225.14 124.904 225.132 124.744C225.123 124.584 224.987 124.46 224.826 124.469C222.129 124.612 151.59 124.737 137.503 124.706C136.101 124.703 135.261 124.699 135.106 124.693L135.105 124.692Z" fill="#3425EC"/>
<path fill-rule="evenodd" clip-rule="evenodd" d="M150.121 103.784C136.39 104.019 135.005 109.216 134.991 115.86C134.97 124.977 133.874 237.127 134.508 244.04C135.118 250.703 139.226 252.695 149.417 253.368C155.555 253.774 205.771 253.424 215.799 252.824C224.684 252.291 224.665 245.237 224.807 241.183C224.947 237.18 225.06 232.11 224.718 195.257C224.385 159.376 224.949 122.139 224.755 118.229C224.554 114.17 224.533 103.651 209.959 103.32C206.218 103.235 154.852 103.703 150.121 103.784L150.121 103.784Z" fill="#3425EC"/>
<path fill-rule="evenodd" clip-rule="evenodd" d="M155.313 132.666C149.265 132.971 145.91 134.477 144.034 136.724C142.154 138.974 141.748 141.988 141.651 145.364C141.391 154.441 141.532 162.478 141.896 169.344C142.04 172.075 142.718 173.132 144.043 174.513C146.006 176.558 149.428 177.373 154.8 177.618C160.094 177.859 202.154 177.877 210.837 177.012C218.725 176.227 219.264 170.245 219.501 166.101C219.95 158.229 219.766 154.949 219.637 147.069C219.589 144.191 219.675 138.111 215.351 134.736C213.493 133.286 210.82 132.326 206.963 132.343C203.734 132.359 159.4 132.46 155.313 132.666Z" fill="#3425EC"/>
<path fill-rule="evenodd" clip-rule="evenodd" d="M155.313 132.666C149.265 132.971 145.91 134.477 144.034 136.724C142.154 138.974 141.748 141.988 141.651 145.364C141.391 154.441 141.532 162.478 141.896 169.344C142.04 172.075 142.718 173.132 144.043 174.513C146.006 176.558 149.428 177.373 154.8 177.618C160.094 177.859 202.154 177.877 210.837 177.012C218.725 176.227 219.264 170.245 219.501 166.101C219.95 158.229 219.766 154.949 219.637 147.069C219.589 144.191 219.675 138.111 215.351 134.736C213.493 133.286 210.82 132.326 206.963 132.343C203.734 132.359 159.4 132.46 155.313 132.666ZM155.342 133.248C159.428 133.042 203.739 132.94 206.965 132.925C210.654 132.908 213.215 133.807 214.993 135.195C219.152 138.441 219.009 144.31 219.054 147.078C219.184 154.946 219.367 158.208 218.919 166.068C218.696 169.999 218.263 175.687 210.779 176.432C202.11 177.296 160.112 177.276 154.827 177.035C149.659 176.8 146.35 176.076 144.463 174.109C143.222 172.815 142.613 171.872 142.477 169.312C142.114 162.458 141.974 154.443 142.233 145.38C142.326 142.146 142.681 139.251 144.482 137.096C146.285 134.937 149.529 133.54 155.344 133.248H155.342Z" fill="#3425EC"/>
<path fill-rule="evenodd" clip-rule="evenodd" d="M189.752 170.525C188.952 170.505 188.305 170.488 187.868 170.478C186.529 170.448 185.558 170.202 184.907 169.539C184.247 168.87 183.924 167.794 183.833 166.161C183.824 166 183.687 165.877 183.526 165.886C183.366 165.895 183.243 166.032 183.252 166.193C183.353 168.015 183.756 169.202 184.492 169.948C185.236 170.703 186.329 171.024 187.855 171.06C188.292 171.07 188.938 171.087 189.737 171.107C189.897 171.111 190.031 170.984 190.035 170.823C190.039 170.663 189.912 170.53 189.752 170.525Z" fill="#3425EC"/>
<path fill-rule="evenodd" clip-rule="evenodd" d="M210.699 165.905C210.538 165.896 210.401 166.02 210.392 166.18C210.303 167.813 209.978 168.889 209.319 169.559C208.666 170.22 207.695 170.467 206.358 170.498C206.015 170.506 205.544 170.518 204.972 170.532C204.811 170.537 204.685 170.67 204.688 170.831C204.693 170.991 204.826 171.118 204.987 171.115C205.559 171.1 206.03 171.088 206.372 171.08C207.897 171.045 208.991 170.723 209.734 169.968C210.47 169.222 210.874 168.035 210.975 166.213C210.984 166.052 210.86 165.915 210.7 165.906L210.699 165.905Z" fill="#3425EC"/>
<path fill-rule="evenodd" clip-rule="evenodd" d="M183.613 151.198C183.773 151.201 183.907 151.074 183.911 150.914C183.929 150.199 183.921 150.437 183.939 149.818C183.967 148.801 184 147.93 184.151 147.203C184.29 146.529 184.529 145.985 184.98 145.58C185.605 145.018 186.616 144.724 188.244 144.659C188.515 144.649 188.739 144.649 189.359 144.638C189.519 144.635 189.648 144.502 189.644 144.342C189.641 144.182 189.508 144.053 189.348 144.057C188.721 144.067 188.494 144.067 188.221 144.079C186.405 144.15 185.288 144.521 184.591 145.148C184.05 145.635 183.748 146.278 183.581 147.087C183.425 147.842 183.386 148.748 183.358 149.805C183.341 150.425 183.347 150.187 183.329 150.902C183.326 151.063 183.452 151.197 183.613 151.201V151.198Z" fill="#3425EC"/>
<path fill-rule="evenodd" clip-rule="evenodd" d="M209.245 145.597C209.696 146.003 209.935 146.547 210.074 147.221C210.224 147.948 210.258 148.82 210.286 149.836C210.303 150.455 210.297 150.217 210.314 150.932C210.319 151.092 210.452 151.22 210.612 151.215C210.773 151.211 210.9 151.078 210.896 150.917C210.878 150.201 210.884 150.439 210.867 149.819C210.839 148.763 210.8 147.857 210.644 147.102C210.477 146.293 210.175 145.65 209.634 145.163C208.937 144.536 207.821 144.166 206.004 144.094C205.724 144.083 205.231 144.071 204.582 144.06C204.421 144.057 204.288 144.185 204.286 144.346C204.283 144.506 204.411 144.639 204.571 144.642C205.215 144.653 205.703 144.665 205.98 144.675C207.608 144.74 208.619 145.034 209.244 145.596L209.245 145.597Z" fill="#3425EC"/>
<path fill-rule="evenodd" clip-rule="evenodd" d="M183.51 157.697C183.671 157.699 183.803 157.57 183.806 157.41C183.825 155.953 183.809 154.601 183.839 153.214C183.843 153.053 183.715 152.919 183.555 152.916C183.394 152.912 183.26 153.04 183.257 153.2C183.227 154.589 183.242 155.943 183.223 157.401C183.22 157.561 183.35 157.694 183.51 157.697Z" fill="#3425EC"/>
<path fill-rule="evenodd" clip-rule="evenodd" d="M210.671 152.936C210.51 152.94 210.383 153.073 210.386 153.234C210.416 154.621 210.401 155.973 210.42 157.43C210.422 157.59 210.554 157.719 210.715 157.717C210.876 157.715 211.004 157.582 211.002 157.422C210.983 155.964 210.999 154.61 210.968 153.222C210.964 153.061 210.831 152.933 210.671 152.936Z" fill="#3425EC"/>
<path fill-rule="evenodd" clip-rule="evenodd" d="M196.184 144.332C196.182 144.172 196.05 144.043 195.889 144.045C194.43 144.064 192.632 144.059 191.244 144.089C191.084 144.093 190.956 144.226 190.959 144.387C190.963 144.548 191.096 144.675 191.256 144.672C192.643 144.642 194.44 144.646 195.897 144.626C196.057 144.625 196.186 144.494 196.184 144.332Z" fill="#3425EC"/>
<path fill-rule="evenodd" clip-rule="evenodd" d="M196.405 170.555C194.947 170.575 193.149 170.57 191.761 170.601C191.6 170.604 191.472 170.737 191.476 170.898C191.48 171.058 191.613 171.186 191.774 171.182C193.161 171.152 194.957 171.156 196.414 171.137C196.575 171.135 196.703 171.003 196.701 170.842C196.7 170.681 196.567 170.553 196.406 170.555L196.405 170.555Z" fill="#3425EC"/>
<path fill-rule="evenodd" clip-rule="evenodd" d="M183.478 164.331C183.639 164.328 183.767 164.195 183.764 164.035C183.744 162.878 183.772 160.639 183.78 159.228C183.78 159.067 183.652 158.936 183.491 158.935C183.331 158.934 183.2 159.064 183.199 159.224C183.19 160.639 183.162 162.884 183.183 164.045C183.186 164.205 183.319 164.334 183.479 164.33L183.478 164.331Z" fill="#3425EC"/>
<path fill-rule="evenodd" clip-rule="evenodd" d="M211.029 159.244C211.028 159.084 210.897 158.953 210.736 158.955C210.576 158.955 210.445 159.087 210.447 159.248C210.456 160.658 210.483 162.897 210.463 164.054C210.46 164.215 210.588 164.348 210.748 164.351C210.909 164.353 211.042 164.226 211.045 164.065C211.065 162.905 211.037 160.659 211.029 159.244Z" fill="#3425EC"/>
<path fill-rule="evenodd" clip-rule="evenodd" d="M202.521 144.586C202.681 144.589 202.814 144.46 202.817 144.3C202.82 144.139 202.692 144.006 202.531 144.003C201.371 143.983 199.126 144.01 197.711 144.019C197.551 144.019 197.421 144.151 197.422 144.312C197.422 144.472 197.554 144.602 197.715 144.601C199.125 144.592 201.365 144.565 202.522 144.585L202.521 144.586Z" fill="#3425EC"/>
<path fill-rule="evenodd" clip-rule="evenodd" d="M203.115 170.531C201.955 170.51 199.71 170.538 198.295 170.547C198.134 170.547 198.005 170.679 198.006 170.839C198.007 171 198.138 171.13 198.298 171.128C199.709 171.119 201.948 171.092 203.105 171.112C203.266 171.115 203.399 170.987 203.401 170.827C203.404 170.666 203.276 170.533 203.115 170.531Z" fill="#3425EC"/>
<path fill-rule="evenodd" clip-rule="evenodd" d="M198.65 156.582V153.66H196.478V156.582H193.528V158.754H196.478V161.446H198.65V158.754H201.315V156.582H198.65Z" fill="#3425EC"/>
<path fill-rule="evenodd" clip-rule="evenodd" d="M168.317 223.666C170.823 223.63 190.368 223.634 192.874 223.668C197.752 223.736 202.631 223.806 207.504 223.997C212.295 224.185 218.553 224.869 219.897 230.473C220.132 231.451 220.201 232.466 220.239 233.471C220.286 234.708 220.046 236.237 219.636 237.415C217.63 243.171 210.608 244.261 205.311 244.339C203.205 244.37 157.876 244.33 155.88 244.336C147.981 244.36 141.236 242.916 141.06 234.253C140.878 225.263 148.897 224.182 153.687 223.994C158.561 223.803 163.44 223.735 168.317 223.666Z" fill="#3425EC"/>
<path fill-rule="evenodd" clip-rule="evenodd" d="M150.946 236.721C150.946 236.708 150.946 236.685 150.946 236.664C150.946 236.184 150.899 234.003 150.903 233.096C150.903 232.808 150.925 232.621 150.936 232.595C150.958 232.538 151.063 232.401 151.247 232.236C151.785 231.751 153.059 230.785 153.404 230.57C153.476 230.525 153.53 230.503 153.554 230.496C153.632 230.473 153.691 230.486 153.727 230.496C154.017 230.585 155.194 231.329 155.908 231.829C156.25 232.069 156.49 232.27 156.526 232.325C156.543 232.352 156.569 232.402 156.587 232.48C156.606 232.56 156.627 232.699 156.648 232.879C156.759 233.834 156.884 236.053 156.854 236.612C156.848 236.726 156.828 236.801 156.814 236.833C156.777 236.918 156.721 236.958 156.678 236.981C156.633 237.005 156.536 237.033 156.398 237.044C156.064 237.069 155.37 237.04 155.041 237.012C154.912 237 154.823 236.982 154.798 236.973C154.758 236.958 154.731 236.939 154.713 236.925C154.684 236.902 154.648 236.865 154.622 236.805C154.606 236.77 154.585 236.693 154.573 236.586C154.546 236.348 154.502 235.74 154.483 235.474C154.445 235.472 154.405 235.469 154.368 235.468C154.104 235.461 153.742 235.47 153.513 235.491C153.516 235.779 153.52 236.32 153.505 236.547C153.498 236.656 153.479 236.734 153.463 236.77C153.437 236.834 153.399 236.873 153.368 236.897C153.319 236.936 153.179 236.991 152.976 237.012C152.512 237.06 151.553 237.041 151.297 237.045C151.225 237.063 151.152 237.049 151.078 237.001C151.05 236.983 150.988 236.942 150.957 236.838C150.945 236.799 150.943 236.759 150.947 236.719L150.946 236.721ZM153.662 231.097C154.041 231.277 154.977 231.889 155.574 232.307C155.763 232.439 155.95 232.585 156.023 232.643C156.034 232.705 156.055 232.83 156.069 232.947C156.17 233.822 156.286 235.784 156.275 236.467C156.242 236.469 156.208 236.471 156.176 236.472C155.86 236.478 155.413 236.458 155.15 236.437C155.133 236.155 155.094 235.551 155.058 235.315C155.039 235.194 155.007 235.111 154.982 235.072C154.945 235.014 154.9 234.981 154.86 234.959C154.8 234.928 154.617 234.893 154.382 234.887C153.945 234.875 153.287 234.919 153.138 234.966C153.108 234.976 152.943 235.044 152.928 235.265C152.917 235.422 152.916 236.131 152.916 236.435C152.577 236.474 151.923 236.468 151.528 236.466C151.52 235.75 151.483 233.911 151.485 233.098C151.485 232.988 151.489 232.877 151.491 232.813C151.553 232.752 151.704 232.606 151.858 232.477C152.415 232.008 153.321 231.322 153.662 231.097Z" fill="#3425EC"/>
<path fill-rule="evenodd" clip-rule="evenodd" d="M167.358 236.759C167.358 236.791 167.362 236.822 167.371 236.852C167.382 236.887 167.414 237.023 167.594 237.059C167.6 237.059 167.666 237.066 167.783 237.067C168.452 237.075 171.411 237.083 172.633 237.036C172.899 237.027 173.088 237.012 173.168 236.996C173.253 236.979 173.303 236.947 173.326 236.928C173.367 236.896 173.42 236.84 173.443 236.737C173.459 236.667 173.461 236.503 173.418 236.281C173.245 235.379 172.388 233.298 170.087 233.491C168.646 233.613 167.916 234.638 167.586 235.527C167.39 236.058 167.343 236.541 167.358 236.759ZM172.857 236.441C172.783 236.446 172.696 236.451 172.61 236.455C171.472 236.499 168.813 236.494 167.939 236.487C167.961 236.299 168.023 236.025 168.133 235.729C168.398 235.012 168.974 234.168 170.136 234.071C172.08 233.907 172.749 235.747 172.857 236.441Z" fill="#3425EC"/>
<path fill-rule="evenodd" clip-rule="evenodd" d="M170.307 229.785C169.655 229.727 168.407 230.167 168.421 231.507C168.435 232.785 169.456 233.262 170.164 233.231C170.71 233.206 171.143 233.046 171.444 232.783C171.76 232.505 171.943 232.113 171.952 231.612C171.967 230.779 171.455 229.887 170.307 229.785ZM170.256 230.365C171.033 230.434 171.38 231.038 171.369 231.601C171.364 231.918 171.26 232.17 171.06 232.345C170.844 232.534 170.529 232.631 170.138 232.649C169.671 232.67 169.012 232.342 169.003 231.501C168.993 230.613 169.824 230.326 170.256 230.365Z" fill="#3425EC"/>
<path fill-rule="evenodd" clip-rule="evenodd" d="M185.667 229.837C185.015 229.778 183.767 230.218 183.782 231.559C183.796 232.836 184.816 233.314 185.525 233.282C186.071 233.257 186.503 233.098 186.804 232.834C187.12 232.557 187.303 232.164 187.312 231.663C187.327 230.831 186.815 229.939 185.667 229.837ZM185.616 230.417C186.393 230.486 186.74 231.09 186.73 231.653C186.724 231.969 186.621 232.222 186.421 232.396C186.206 232.585 185.89 232.683 185.499 232.7C185.033 232.722 184.373 232.394 184.364 231.552C184.354 230.665 185.184 230.378 185.616 230.417Z" fill="#3425EC"/>
<path fill-rule="evenodd" clip-rule="evenodd" d="M185.783 233.546C185.13 233.487 183.883 233.927 183.897 235.268C183.911 236.545 184.932 237.023 185.64 236.991C186.186 236.966 186.619 236.807 186.919 236.543C187.236 236.266 187.419 235.873 187.427 235.372C187.443 234.54 186.931 233.649 185.783 233.546ZM185.732 234.126C186.509 234.195 186.856 234.799 186.846 235.362C186.841 235.678 186.737 235.931 186.537 236.105C186.321 236.294 186.005 236.392 185.615 236.409C185.148 236.43 184.489 236.103 184.48 235.26C184.47 234.373 185.3 234.088 185.732 234.126Z" fill="#3425EC"/>
<path fill-rule="evenodd" clip-rule="evenodd" d="M189.763 229.751C189.11 229.692 187.862 230.131 187.877 231.472C187.89 232.75 188.912 233.228 189.62 233.196C190.166 233.171 190.599 233.012 190.899 232.748C191.216 232.471 191.399 232.078 191.407 231.576C191.422 230.744 190.911 229.853 189.764 229.75L189.763 229.751ZM189.711 230.331C190.488 230.4 190.835 231.003 190.825 231.566C190.819 231.883 190.716 232.136 190.516 232.31C190.3 232.499 189.985 232.597 189.594 232.614C189.127 232.636 188.468 232.308 188.459 231.466C188.449 230.579 189.279 230.292 189.711 230.331Z" fill="#3425EC"/>
<path fill-rule="evenodd" clip-rule="evenodd" d="M189.878 233.461C189.226 233.402 187.978 233.842 187.993 235.183C188.007 236.46 189.027 236.938 189.736 236.906C190.282 236.881 190.714 236.722 191.015 236.458C191.332 236.181 191.514 235.788 191.523 235.287C191.538 234.455 191.027 233.563 189.878 233.461ZM189.827 234.041C190.605 234.11 190.951 234.714 190.941 235.277C190.935 235.593 190.832 235.846 190.632 236.02C190.417 236.209 190.101 236.307 189.71 236.325C189.244 236.346 188.584 236.018 188.575 235.176C188.566 234.289 189.395 234.002 189.827 234.041Z" fill="#3425EC"/>
<path fill-rule="evenodd" clip-rule="evenodd" d="M208.362 233.894C208.215 233.187 207.924 232.276 207.432 231.569C206.902 230.807 206.146 230.283 205.11 230.412C204.142 230.533 203.481 231.241 203.059 232.103C202.478 233.29 202.357 234.752 202.394 235.132C202.394 235.147 202.397 235.162 202.399 235.177C202.408 235.226 202.436 235.353 202.602 235.402C202.61 235.403 202.684 235.416 202.815 235.417C203.013 235.421 203.411 235.425 203.905 235.425C203.922 236.009 204.248 236.348 204.465 236.493C205.576 237.236 206.876 236.558 206.932 235.4C207.214 235.393 207.467 235.383 207.671 235.371C207.947 235.355 208.143 235.332 208.226 235.308C208.322 235.281 208.373 235.233 208.4 235.203C208.427 235.172 208.477 235.094 208.486 234.96C208.497 234.795 208.465 234.394 208.361 233.894H208.362ZM204.789 236.01C204.669 235.93 204.505 235.741 204.488 235.426C205.084 235.426 205.748 235.422 206.347 235.412C206.276 236.102 205.467 236.463 204.789 236.01ZM207.639 234.791C206.499 234.855 203.831 234.848 202.967 234.838C202.984 234.331 203.141 233.258 203.581 232.359C203.915 231.676 204.414 231.085 205.181 230.99C205.978 230.891 206.548 231.317 206.955 231.902C207.4 232.542 207.658 233.371 207.792 234.013C207.853 234.307 207.883 234.597 207.896 234.769C207.822 234.777 207.729 234.785 207.639 234.791Z" fill="#3425EC"/>
<path fill-rule="evenodd" clip-rule="evenodd" d="M168.317 223.666C170.823 223.63 190.368 223.634 192.874 223.668C197.752 223.736 202.631 223.806 207.504 223.997C212.295 224.185 218.553 224.869 219.897 230.473C220.132 231.451 220.201 232.466 220.239 233.471C220.286 234.708 220.046 236.237 219.636 237.415C217.63 243.171 210.608 244.261 205.311 244.339C203.205 244.37 157.876 244.33 155.88 244.336C147.981 244.36 141.236 242.916 141.06 234.253C140.878 225.263 148.897 224.182 153.687 223.994C158.561 223.803 163.44 223.735 168.317 223.666Z" fill="#3425EC"/>
</g>
</g>
<defs>
<filter id="filter0_ddddd_51_1565" x="119.311" y="46.3096" width="515.822" height="338.233" filterUnits="userSpaceOnUse" color-interpolation-filters="sRGB">
<feFlood flood-opacity="0" result="BackgroundImageFix"/>
<feColorMatrix in="SourceAlpha" type="matrix" values="0 0 0 0 0 0 0 0 0 0 0 0 0 0 0 0 0 0 127 0" result="hardAlpha"/>
<feOffset dx="13" dy="2"/>
<feGaussianBlur stdDeviation="14"/>
<feColorMatrix type="matrix" values="0 0 0 0 0.203922 0 0 0 0 0.145098 0 0 0 0 0.92549 0 0 0 0.54 0"/>
<feBlend mode="normal" in2="BackgroundImageFix" result="effect1_dropShadow_51_1565"/>
<feColorMatrix in="SourceAlpha" type="matrix" values="0 0 0 0 0 0 0 0 0 0 0 0 0 0 0 0 0 0 127 0" result="hardAlpha"/>
<feOffset dx="51" dy="7"/>
<feGaussianBlur stdDeviation="26"/>
<feColorMatrix type="matrix" values="0 0 0 0 0.203922 0 0 0 0 0.145098 0 0 0 0 0.92549 0 0 0 0.47 0"/>
<feBlend mode="normal" in2="effect1_dropShadow_51_1565" result="effect2_dropShadow_51_1565"/>
<feColorMatrix in="SourceAlpha" type="matrix" values="0 0 0 0 0 0 0 0 0 0 0 0 0 0 0 0 0 0 127 0" result="hardAlpha"/>
<feOffset dx="115" dy="15"/>
<feGaussianBlur stdDeviation="35"/>
<feColorMatrix type="matrix" values="0 0 0 0 0.203922 0 0 0 0 0.145098 0 0 0 0 0.92549 0 0 0 0.28 0"/>
<feBlend mode="normal" in2="effect2_dropShadow_51_1565" result="effect3_dropShadow_51_1565"/>
<feColorMatrix in="SourceAlpha" type="matrix" values="0 0 0 0 0 0 0 0 0 0 0 0 0 0 0 0 0 0 127 0" result="hardAlpha"/>
<feOffset dx="205" dy="26"/>
<feGaussianBlur stdDeviation="41.5"/>
<feColorMatrix type="matrix" values="0 0 0 0 0.203922 0 0 0 0 0.145098 0 0 0 0 0.92549 0 0 0 0.08 0"/>
<feBlend mode="normal" in2="effect3_dropShadow_51_1565" result="effect4_dropShadow_51_1565"/>
<feColorMatrix in="SourceAlpha" type="matrix" values="0 0 0 0 0 0 0 0 0 0 0 0 0 0 0 0 0 0 127 0" result="hardAlpha"/>
<feOffset dx="320" dy="41"/>
<feGaussianBlur stdDeviation="45"/>
<feColorMatrix type="matrix" values="0 0 0 0 0.203922 0 0 0 0 0.145098 0 0 0 0 0.92549 0 0 0 0.01 0"/>
<feBlend mode="normal" in2="effect4_dropShadow_51_1565" result="effect5_dropShadow_51_1565"/>
<feBlend mode="normal" in="SourceGraphic" in2="effect5_dropShadow_51_1565" result="shape"/>
</filter>
<clipPath id="clip0_51_1565">
<rect width="360" height="360" fill="white"/>
</clipPath>
</defs>
</svg>
